<?xml version="1.0" standalone="no"?>
<!DOCTYPE svg PUBLIC "-//W3C//DTD SVG 1.1//EN" "http://www.w3.org/Graphics/SVG/1.1/DTD/svg11.dtd" >
<svg xmlns="http://www.w3.org/2000/svg" xmlns:xlink="http://www.w3.org/1999/xlink" version="1.1">
<metadata>
Created by FontForge 20150824 at Sun May  1 13:36:30 2016
 By Everything Fonts
Copyright (c) The Font Bureau, Inc., 2003. All rights reserved.
</metadata>
<defs>
<font id="GaramondFBText-Light" horiz-adv-x="599" >
  <font-face 
    font-family="GaramondFBText Light"
    font-weight="300"
    font-stretch="normal"
    units-per-em="1000"
    panose-1="2 0 6 3 7 0 0 2 0 4"
    ascent="700"
    descent="-300"
    x-height="389"
    cap-height="642"
    bbox="-42 -287 1035 815"
    underline-thickness="17"
    underline-position="-149"
    unicode-range="U+0020-FB02"
  />
<missing-glyph horiz-adv-x="500" 
 />
    <glyph glyph-name="fi" unicode="fi" horiz-adv-x="451" 
d="M304 643q0 -27 -34 -27q-22 0 -49 11q-8 4 -17 4q-51 -25 -51 -138v-99q0 -5 4 -5h154q42 0 58 14q4 4 7.5 2t3.5 -9q-3 -22 -3 -45v-310q0 -14 12 -16q7 -1 22.5 -4t19.5 -4q5 -1 5 -4v-9q0 -4 -5 -4q-60 3 -82 3q-37 0 -85 -3q-6 0 -6 4v8q0 4 6 5q7 1 23 4t21 4
q7 1 8.5 4t1.5 11v283q0 25 -7 31.5t-33 6.5h-121q-4 0 -4 -6v-309q0 -20 13 -22q3 0 21.5 -2.5t29.5 -4.5q6 -1 6 -5v-8q0 -4 -6 -4q-48 3 -93 3q-53 0 -87 -3q-5 0 -5 4v8q0 4 5 5q13 2 45 8q9 1 11 4.5t2 16.5v308q0 7 -3 7h-43q-7 0 -7 6v18q0 4 5 4h45q3 0 3 7v62
q0 84 50 148t119 64q40 0 40 -27z" />
    <glyph glyph-name="fl" unicode="fl" horiz-adv-x="456" 
d="M309 654q18 3 54 18q10 4 10 -5v-623q0 -16 12 -19q25 -5 45 -8q7 0 7 -4q0 -8 -1 -10q0 -4 -6 -3q-39 4 -86 4q-52 0 -84 -4q-6 0 -6 3v10q0 4 6 4q8 1 23 4t18 4q13 3 13 19v578q-16 -7 -38 -7q-21 0 -45 13q-11 6 -22 6q-56 -29 -56 -141v-99q0 -5 4 -5h74q7 0 7 -5
q0 -4 0.5 -10t0.5 -7q0 -6 -6 -6h-76q-4 0 -4 -6v-309q0 -20 13 -22q15 -2 51 -7q6 -1 6 -5v-8q0 -4 -6 -4q-48 3 -93 3q-53 0 -87 -3q-5 0 -5 5v8q0 3 5 4q22 3 45 8q9 1 11 4.5t2 16.5v308q0 7 -3 7h-43q-7 0 -7 6v18q0 4 5 4h45q3 0 3 7v62q0 87 44.5 149.5t118.5 62.5
q37 0 51 -16z" />
    <glyph glyph-name="f_f_l" unicode="ffl" horiz-adv-x="678" 
d="M595 667v-623q0 -16 12 -19q18 -4 45 -8q7 0 7 -4v-10q-2 -4 -7 -3q-39 4 -86 4q-53 0 -84 -4q-6 -2 -6 3v10q0 4 6 5q7 1 23.5 4t17.5 3q13 2 13 19v578q-14 -7 -39 -7q-20 0 -52 15q-7 4 -14 4q-27 -15 -41 -45.5t-14 -95.5v-100q0 -4 3 -4h73q8 0 8 -5q1 -6 1 -17
q0 -6 -5 -6h-76q-4 0 -4 -6v-309q0 -20 12 -22q6 -1 25.5 -3.5t25.5 -3.5t6 -5v-8q0 -4 -6 -4q-47 3 -92 3q-55 0 -88 -3q-6 0 -6 5v7q0 4 6 5t46 8q8 1 10 4.5t2 16.5v310q0 5 -4 5h-156q-4 0 -4 -5v-310q0 -20 13 -22q48 -6 51 -7q6 -1 6 -5v-8q0 -4 -6 -4q-48 3 -93 3
q-53 0 -87 -3q-5 0 -5 5v8q0 4 5 5q16 1 45 7q8 1 10.5 4.5t2.5 16.5v309q0 6 -3 6q-7 0 -23 -1t-20 -1q-7 0 -7 7v19q0 4 5 4h45q3 0 3 5v61q0 84 50 148t119 64q40 0 40 -27q0 -26 -33 -26q-25 0 -49 10q-10 4 -18 3q-51 -29 -51 -137v-97q0 -4 3 -4h158q3 0 3 5v64
q0 87 44.5 149.5t118.5 62.5q38 0 52 -16q21 4 53 18q10 4 10 -5z" />
    <glyph glyph-name="f_f_i" unicode="ffi" horiz-adv-x="673" 
d="M526 643q0 -26 -33 -26q-22 0 -46 9q-11 5 -21 5q-50 -30 -50 -138v-100q0 -4 3 -4h145q50 0 67 14q4 4 8 2t3 -9q-3 -23 -3 -45v-310q0 -14 12 -16q1 0 18 -3t24 -5q5 -1 5 -4v-9q0 -4 -5 -4q-60 3 -81 3q-38 0 -86 -3q-6 0 -6 4v9q0 3 6 4q7 1 22 4t23 4q9 1 9 15v297
q0 14 -4.5 19t-20.5 5h-135q-4 0 -4 -6v-309q0 -20 12 -22q6 -1 25.5 -3.5t25.5 -3.5t6 -5v-8q0 -4 -6 -4q-47 3 -92 3q-55 0 -88 -3q-6 0 -6 5v7q0 4 6 5t46 8q8 1 10 4.5t2 16.5v308q0 7 -4 7h-156q-4 0 -4 -5v-310q0 -20 13 -22q48 -6 51 -7q6 -1 6 -5v-8q0 -4 -6 -4
q-48 3 -93 3q-53 0 -87 -3q-5 0 -5 5v8q0 4 5 5q16 1 45 7q8 1 10.5 4.5t2.5 16.5v309q0 6 -3 6q-7 0 -23 -1t-20 -1q-7 0 -7 7v19q0 4 5 4h45q3 0 3 5v61q0 84 50 148t119 64q40 0 40 -27q0 -26 -33 -26q-25 0 -49 10q-10 4 -18 3q-51 -29 -51 -137v-97q0 -4 3 -4h157
q4 0 4 5v64q0 84 50 148t119 64q40 0 40 -27z" />
    <glyph glyph-name="f_f" unicode="ff" horiz-adv-x="465" 
d="M314 393v74q0 79 39 147t86 68q27 0 27 -24q0 -15 -14 -24t-34 -9q-14 0 -27 6q-4 3 -7 -2q-12 -19 -12 -68v-169q0 -3 2 -3h76q7 0 8 -5t1 -17q0 -6 -5 -6h-78q-4 0 -4 -5v-308q0 -22 14 -24q7 -1 27 -3.5t25 -3.5q6 -1 6 -6v-7q0 -4 -6 -4q-50 3 -95 3q-52 0 -87 -3
q-5 0 -5 5v7q0 4 5 5q9 1 25 4t19 3q9 2 11.5 6t2.5 18v308q0 5 -4 5h-150q-4 0 -4 -5v-308q0 -13 2.5 -17.5t11.5 -6.5q4 -1 13 -2t20.5 -2.5t15.5 -2.5q6 -1 6 -6v-7q0 -4 -6 -4q-49 3 -92 3q-54 0 -89 -3q-6 0 -6 5v7q0 4 5 5q11 1 47 7q9 2 11.5 6t2.5 18v307q0 6 -3 6
q-8 0 -24.5 -1t-20.5 -1q-7 0 -7 6v20q0 4 5 4h47q3 0 3 5v68q0 85 50 147t117 62q18 0 28 -7.5t10 -18.5t-10 -19t-25 -8q-25 0 -55 13q-5 3 -11 0q-24 -15 -35 -44.5t-11 -90.5v-104q0 -3 2 -3h153q3 0 3 4z" />
    <glyph glyph-name=".notdef" horiz-adv-x="500" 
 />
    <glyph glyph-name=".null" horiz-adv-x="0" 
 />
    <glyph glyph-name="nonmarkingreturn" horiz-adv-x="333" 
 />
    <glyph glyph-name="space" unicode=" " horiz-adv-x="220" 
 />
    <glyph glyph-name="space" unicode="&#xa0;" horiz-adv-x="220" 
 />
    <glyph glyph-name="exclam" unicode="!" horiz-adv-x="253" 
d="M168 588q-1 -9 -7.5 -78.5t-9.5 -119.5q-3 -44 -9 -133.5t-7 -109.5q0 -9 -11 -9q-8 0 -8 8q-2 39 -15 244q-3 44 -9.5 113.5t-6.5 84.5q-1 26 10.5 43t30.5 17q22 0 33 -16.5t9 -43.5zM165 34q0 -17 -12 -28.5t-29 -11.5q-16 0 -28 11.5t-12 28.5q0 16 12 28t28 12
q17 0 29 -12t12 -28z" />
    <glyph glyph-name="quotedbl" unicode="&#x22;" horiz-adv-x="273" 
d="M90 526q17 89 20 108q2 17 -5 29t-25 12q-17 0 -24.5 -12.5t-5.5 -28.5q3 -19 20 -108q2 -11 10 -11t10 11zM203 526q17 89 20 108q2 17 -5 29t-25 12q-17 0 -24.5 -12.5t-5.5 -28.5q3 -19 20 -108q2 -11 10 -11t10 11z" />
    <glyph glyph-name="numbersign" unicode="#" horiz-adv-x="594" 
d="M424 389q50 -1 91 -1q11 0 11 -10q0 -15 -5 -35q-2 -9 -15 -9h-99q-1 -4 -40 -137q54 -1 102 -1q20 0 20 -9q0 -11 -5 -34q-2 -9 -11 -9h-123q-8 -26 -21.5 -71.5t-17.5 -59.5q-6 -23 -24 -21q-7 1 -7.5 4t4.5 18q37 125 38 130q-20 0 -74.5 -0.5t-76.5 -0.5
q-28 -94 -41 -138q-6 -18 -22 -11q-6 3 -6.5 6.5t4.5 19.5q6 18 18 59.5t19 63.5h-75q-7 0 -11 2.5t-3 8.5q0 3 0.5 10.5t1.5 14.5t2 11q3 9 12 9q32 0 90 -1l40 136q-55 2 -103 0q-8 0 -10.5 1.5t-1.5 6.5q0 4 1 17.5t2 18.5q2 11 6 11h123q9 29 35 119q4 15 8 19t13 4
t10.5 -3.5t-2.5 -16.5q0 -2 -36 -122h151q34 114 37 123q7 20 15 20q18 0 13 -18q-21 -69 -37 -125zM379 334h-151q-6 -18 -21 -70t-19 -66q21 0 75 -0.5t75 -0.5q6 19 21.5 71t19.5 66z" />
    <glyph glyph-name="dollar" unicode="$" horiz-adv-x="420" 
d="M223 530q61 -4 92 -29.5t31 -48.5q0 -13 -7.5 -20.5t-17.5 -7.5q-27 0 -37 32q-9 28 -16 34q-19 14 -45 16q0 -15 -1 -51.5t-1.5 -73t-1.5 -70.5q11 -8 23.5 -18t23.5 -18.5t13 -10.5q41 -35 58 -62.5t17 -62.5q0 -55 -42 -95t-98 -48q-1 -38 -1 -64q0 -10 -6 -10t-10 1
q-7 2 -7 10q0 25 1 61q-61 0 -103.5 24t-42.5 54q0 13 8.5 22t21.5 9q21 0 38 -39q17 -42 78 -43q1 57 3 227q-8 7 -18 15t-23 18.5t-21 17.5q-35 29 -51 53t-16 55q0 51 41 86.5t92 37.5q1 16 1 35q0 12 10 12h11q4 0 4 -10q0 -15 -1 -38zM214 22q35 7 57 34.5t22 65.5
q0 43 -44 81q-8 7 -31 26q-1 -36 -4 -207zM198 507q-37 -1 -58 -25t-21 -55q0 -19 10.5 -35.5t20 -25t37.5 -30.5q1 0 2.5 -1.5l3 -3t3.5 -2.5q0 31 0.5 92.5t1.5 85.5z" />
    <glyph glyph-name="percent" unicode="%" horiz-adv-x="695" 
d="M282 510q3 -4 8 -4q62 0 135 29.5t107 71.5q6 8 12 5q2 -1 8 -5t8 -5q5 -3 -2 -18q-113 -202 -434 -765q-5 -11 -12 -6q-19 13 -40 24q-8 4 1 16q125 192 261 409t165 270q3 6 -3 6q-2 0 -3 -2q-72 -48 -194 -61q-6 -1 -5 -6q3 -12 3 -19q0 -87 -51 -159.5t-106 -72.5
q-33 0 -54.5 24.5t-21.5 69.5q0 96 55 158t111 62q38 0 52 -22zM636 221q0 -75 -50.5 -150.5t-107.5 -75.5q-36 0 -57.5 24.5t-21.5 66.5q0 85 52 154t114 69q71 0 71 -88zM252 450q0 54 -34 54q-35 0 -70 -58.5t-35 -132.5q0 -59 37 -59t69.5 62t32.5 134zM588 225
q0 53 -36 53q-37 0 -71.5 -64.5t-34.5 -120.5q0 -64 40 -64q37 0 69.5 62t32.5 134z" />
    <glyph glyph-name="ampersand" unicode="&#x26;" horiz-adv-x="647" 
d="M650 373q0 -6 -3 -6q-8 0 -27 -2t-20 -2q-13 -1 -23 -12q-57 -64 -149 -181q-3 -3 0 -6q34 -38 87 -99q32 -36 67 -36q16 0 28 10q4 3 8 1q6 -6 8 -9t-3 -7q-29 -26 -72 -26q-51 0 -86 35q-11 10 -41.5 44.5t-33.5 37.5t-5 0q-95 -122 -180 -122q-73 0 -122.5 50.5
t-49.5 121.5q0 112 144 173q4 1 1 6q-53 55 -53 94q0 37 32.5 65t87.5 28q48 0 76 -27.5t28 -58.5q0 -32 -19 -51.5t-72 -42.5q-4 -1 0 -5q82 -84 151 -163q2 -4 6 0q54 77 106 153q7 11 9 16.5t0.5 8t-7.5 3.5q-40 5 -46 6q-6 2 -6 4v10q0 4 4 4t41.5 -1t48.5 -1t45 1t35 1
q5 0 5 -3v-12zM305 443q0 25 -18 46t-47 21q-28 0 -42.5 -16.5t-14.5 -41.5q0 -30 52 -82q3 -4 8 -2q36 16 49 32.5t13 42.5zM369 138q-77 90 -170 183q-4 4 -8 2q-46 -21 -73 -56t-27 -71q0 -59 38 -106t94 -47q40 0 72 20.5t75 67.5q2 4 -1 7z" />
    <glyph glyph-name="quotesingle" unicode="'" horiz-adv-x="160" 
d="M90 526q17 89 20 108q2 17 -5 29t-25 12q-17 0 -24.5 -12.5t-5.5 -28.5q3 -19 20 -108q2 -11 10 -11t10 11z" />
    <glyph glyph-name="parenleft" unicode="(" horiz-adv-x="308" 
d="M152 276q0 -257 124 -455q11 -17 8 -21q-1 -2 -7 -6q-7 -4 -17 11q-179 248 -179 472q0 217 178 471q9 12 14 11q4 0 9 -5q4 -4 -7 -22q-123 -199 -123 -456z" />
    <glyph glyph-name="parenright" unicode=")" horiz-adv-x="308" 
d="M224 276q0 -220 -179 -471q-10 -14 -15 -12q-8 3 -10 7q-2 3 9 21q123 194 123 455t-122 456q-11 18 -8 21q4 4 10 6q6 1 14 -10q178 -251 178 -473z" />
    <glyph glyph-name="asterisk" unicode="*" horiz-adv-x="324" 
d="M254 452q-21 -21 -33 -21q-5 0 -9 7q-19 43 -42 83q-3 6 -6 0q-7 -13 -22.5 -45.5t-17.5 -37.5q-6 -12 -14 -5q-18 12 -25 28q-4 9 6 18q42 37 58 57q4 6 -3 7q-11 3 -44 6.5t-49 6.5q-11 3 -10 10q3 8 11.5 21t11.5 16q7 4 14 -1q67 -43 72 -46q6 -3 6 4q-1 15 -22 100
q-1 6 1.5 10.5t7.5 4.5q24 0 42 -7q9 -4 5 -18q-1 -6 -14 -91q0 -5 4 -3q48 30 78 45q15 7 18 -5t3 -33q0 -11 -12 -14q-2 0 -33.5 -2.5t-44.5 -4.5q-9 -1 -3 -7q2 -2 27 -27.5t40 -40.5q7 -7 -1 -15z" />
    <glyph glyph-name="plus" unicode="+" horiz-adv-x="396" 
d="M344 226q2 -16 2 -30q0 -6 -13 -8q-22 -4 -112 -4q-5 0 -5 -6q0 -13 0.5 -54t0.5 -45q0 -15 -5 -18q-6 -3 -17 -3q-7 0 -7 12v107q0 6 -5 6h-104q-18 0 -22 4q-6 6 -6 31q0 7 13 8q30 4 118 4q6 0 6 6q0 21 -1 60.5t-1 40.5q0 12 3 14q9 6 19 6q8 0 8 -4v-22v-47.5v-45.5
q0 -6 6 -6h39.5t41.5 0.5t20 0.5q20 0 21 -7z" />
    <glyph glyph-name="comma" unicode="," horiz-adv-x="258" 
d="M136 4q-11 -7 -19 -7q-19 0 -33 14t-14 33q0 20 15 34t34 14q30 0 47 -22.5t17 -62.5q0 -53 -28 -96t-77 -55q-4 -1 -7 1q-4 2 -4 10q0 4 8 6q32 12 51.5 43.5t19.5 59.5q0 13 -5 25q-2 4 -5 3z" />
    <glyph glyph-name="hyphen" unicode="-" horiz-adv-x="417" 
d="M344 217q0 -17 -2 -21q-2 -7 -12 -8q-19 -3 -223 -3q-29 0 -32 6q-2 4 -2 14q0 6 3 12q2 6 12 7q58 7 217 7q22 0 31 -3q8 -3 8 -11z" />
    <glyph glyph-name="hyphen" unicode="&#xad;" horiz-adv-x="417" 
d="M344 217q0 -17 -2 -21q-2 -7 -12 -8q-19 -3 -223 -3q-29 0 -32 6q-2 4 -2 14q0 6 3 12q2 6 12 7q58 7 217 7q22 0 31 -3q8 -3 8 -11z" />
    <glyph glyph-name="period" unicode="." horiz-adv-x="258" 
d="M171 44q0 -21 -14 -35.5t-36 -14.5q-21 0 -35 14.5t-14 35.5q0 19 14 33.5t35 14.5q22 0 36 -14.5t14 -33.5z" />
    <glyph glyph-name="slash" unicode="/" horiz-adv-x="281" 
d="M274 666q1 -6 -3 -17q-205 -577 -241 -674q-5 -13 -8 -13q-8 0 -16 5q-3 3 -3 6t4 13q46 123 242 675q4 11 10 15q3 2 7 -1q6 -4 8 -9z" />
    <glyph glyph-name="zero" unicode="0" horiz-adv-x="494" 
d="M452 207q0 88 -60.5 150.5t-144.5 62.5t-144.5 -62.5t-60.5 -150.5t60.5 -150.5t144.5 -62.5q84 -1 144.5 62t60.5 151zM383 207q0 -78 -36.5 -130.5t-99.5 -52.5q-63 1 -99.5 53t-36.5 130q0 79 36.5 132t99.5 53t99.5 -53t36.5 -132z" />
    <glyph glyph-name="one" unicode="1" horiz-adv-x="302" 
d="M124 361q0 8 -1.5 10t-7.5 2h-60q-6 0 -6 3v14q0 4 8 4q73 4 114 22q13 6 13 -5v-371q0 -11 9 -12q5 -1 33 -5t31 -4q4 0 4 -4v-12q0 -3 -5 -3q-72 3 -98 3q-50 0 -104 -3q-3 0 -3 4v11q0 4 3 4l60 10q10 1 10 9v323z" />
    <glyph glyph-name="two" unicode="2" horiz-adv-x="382" 
d="M351 5q0 -5 -6 -5q-255 0 -281 -1q-10 0 -10 6q0 4 8 14q22 26 61 75t48 60q67 82 67 145q0 39 -26 60.5t-68 21.5q-50 0 -108 -50q-7 -5 -12 -2q-7 7 -9 10q-3 5 3 11q65 70 146 70q56 0 97 -34t41 -85q0 -61 -95 -156q-54 -54 -74 -80q-6 -8 4 -8q3 0 19 1.5t21 1.5
h169q6 0 6 -7q0 -31 -1 -48z" />
    <glyph glyph-name="three" unicode="3" horiz-adv-x="341" 
d="M319 17q0 -87 -67 -145.5t-162 -58.5q-56 0 -93 17q-8 4 -7 9q4 16 8 20q2 2 7 1q40 -13 75 -13q78 0 125 44t47 120q0 55 -32 91t-89 36q-16 0 -34 -6q-2 -1 -4 2q-2 4 -2 18q0 4 3 6q64 27 98.5 65t34.5 81q0 35 -22.5 56t-59.5 21q-41 0 -97 -40q-3 -1 -4 0
q-9 9 -11 13q-2 2 2 6q25 29 61.5 44.5t71.5 15.5q52 0 83 -30t31 -71q0 -75 -100 -137q-14 -8 0 -11q67 -15 102 -56t35 -98z" />
    <glyph glyph-name="four" unicode="4" horiz-adv-x="430" 
d="M323 -6v-172q0 -9 -6 -9q-3 0 -25.5 -0.5t-24.5 -0.5q-7 0 -7 6q3 75 3 175q0 7 -7 7q-44 0 -133.5 -0.5t-95.5 -0.5q-10 0 -10 6q0 9 6 17q163 229 292 395q1 2 5 2t4 -4q0 -8 -1 -177t-1 -185q0 -5 6 -5q5 0 42.5 0.5t42.5 0.5q3 0 3 -4v-42q0 -3 -4 -3h-82q-7 0 -7 -6
zM93 47q11 0 70.5 0.5t92.5 0.5q6 0 6 5q0 22 2.5 125t2.5 118q0 11 -8 1q-17 -20 -44 -57.5t-66.5 -93t-60.5 -83.5q-8 -11 -6.5 -13.5t11.5 -2.5z" />
    <glyph glyph-name="five" unicode="5" horiz-adv-x="334" 
d="M47 -188q-41 0 -66 16q-4 3 -4 7q0 7 4 17q1 2 7 1q24 -6 59 -6q93 0 139.5 57t46.5 142q0 68 -44.5 123.5t-123.5 77.5q-7 2 -4 11q31 86 51 146q2 6 7 6h61t56 -0.5t26 -0.5q12 0 15 3q4 4 6 7q2 2 5 2h11q4 0 2 -4q-12 -34 -22 -64q-3 -5 -8 -5q-96 3 -144 3
q-11 0 -13 -9q-2 -7 -7 -23.5t-7 -23.5q-3 -10 4 -12q92 -28 143.5 -89t51.5 -140q0 -103 -65 -172.5t-187 -69.5z" />
    <glyph glyph-name="six" unicode="6" horiz-adv-x="486" 
d="M445 194q0 -81 -50 -140.5t-136 -59.5q-100 0 -156 71t-56 174q0 94 42.5 177.5t132.5 145.5t215 80q10 1 12 -5q2 -4 2 -20q0 -5 -7 -7q-110 -19 -186.5 -73.5t-109 -122.5t-32.5 -146q0 -118 40.5 -181t108.5 -63q53 0 84.5 43t31.5 106q0 69 -37 117t-107 48
q-30 0 -64 -15q-4 -2 -5 2q-3 6 -3 14q0 3 6 8q46 29 93 29q87 0 134 -53.5t47 -128.5z" />
    <glyph glyph-name="seven" unicode="7" horiz-adv-x="416" 
d="M40 -181q-5 -8 -10 -7q-15 6 -29 20q-3 3 0 9q223 322 335 479q7 10 4.5 13.5t-13.5 3.5q-1 0 -106.5 -0.5t-129.5 -0.5q-17 0 -25 -14q-13 -24 -16 -28q-4 -6 -7 -5q-4 1 -11 6q-2 1 0 6q15 28 41 98q2 6 7 6q76 -3 149 -3q120 0 170 2q5 0 7 -3t-1 -8
q-30 -52 -88.5 -144t-148.5 -231t-128 -199z" />
    <glyph glyph-name="eight" unicode="8" horiz-adv-x="427" 
d="M369 507q0 -45 -29 -80t-78 -71q-8 -6 -9 -8.5t6 -7.5q26 -21 62 -51q75 -63 75 -132q0 -70 -49.5 -117t-143.5 -47q-78 0 -123 43t-45 104q0 52 43 100t94 79q9 5 0 12q-23 18 -46 38q-74 64 -74 129q0 58 46 101t113 43q74 0 116 -40t42 -95zM327 502q0 43 -30.5 76
t-89.5 33q-47 0 -74.5 -28t-27.5 -64q0 -48 48 -91q26 -23 76 -62q7 -5 16 3q82 71 82 133zM331 135q0 60 -52 105q-19 16 -42 35.5t-33 27.5q-6 5 -15 -1q-107 -78 -107 -158q0 -48 33 -83.5t96 -35.5q56 0 88 31.5t32 78.5z" />
    <glyph glyph-name="nine" unicode="9" horiz-adv-x="474" 
d="M17 -187q-11 -2 -12 4q-2 4 -2 17q0 6 7 7q93 16 163 49t109.5 77t59 92t19.5 100q0 231 -130 231q-55 0 -92 -43.5t-37 -109.5q0 -85 42.5 -134t99.5 -49q33 0 45 6q5 2 6 -2q4 -8 4 -12t-4 -7q-31 -21 -82 -21q-69 0 -120 56.5t-51 132.5q0 90 52.5 152t135.5 62
q92 0 146.5 -64t54.5 -162q0 -71 -24.5 -135t-73 -118t-130 -88.5t-186.5 -40.5z" />
    <glyph glyph-name="colon" unicode=":" horiz-adv-x="258" 
d="M171 44q0 -21 -14 -35.5t-36 -14.5q-21 0 -35 14.5t-14 35.5q0 19 14 33.5t35 14.5q22 0 36 -14.5t14 -33.5zM171 356q0 -21 -14 -35.5t-36 -14.5q-21 0 -35 14.5t-14 35.5q0 19 14 33.5t35 14.5q22 0 36 -14.5t14 -33.5z" />
    <glyph glyph-name="semicolon" unicode=";" horiz-adv-x="258" 
d="M136 4q-11 -7 -19 -7q-19 0 -33 14t-14 33q0 20 15 34t34 14q30 0 47 -22.5t17 -62.5q0 -53 -28 -96t-77 -55q-4 -1 -7 1q-4 2 -4 10q0 4 8 6q32 12 51.5 43.5t19.5 59.5q0 13 -5 25q-2 4 -5 3zM171 356q0 -21 -14 -35.5t-36 -14.5q-21 0 -35 14.5t-14 35.5q0 19 14 33.5
t35 14.5q22 0 36 -14.5t14 -33.5z" />
    <glyph glyph-name="less" unicode="&#x3c;" horiz-adv-x="270" 
d="M237 40q6 -8 -2 -15q-6 -4 -13 3q-11 12 -78.5 79.5l-84.5 84.5q-16 16 0 32l163 163q7 7 13 2q9 -7 2 -15q-3 -4 -56.5 -75t-65.5 -86q-4 -6 0 -11q38 -47 122 -162z" />
    <glyph glyph-name="equal" unicode="=" horiz-adv-x="350" 
d="M300 250q-3 -9 -8 -11t-19 -2h-191q-17 0 -17 8q0 16 6 28q3 7 16 7q26 0 106 -1t92 -1q17 0 17 -8q0 -12 -2 -20zM293 148q-5 -10 -20 -10h-192q-9 0 -13.5 1.5t-5.5 4t-1 6.5q0 18 3 22q4 8 23 8q26 0 103.5 -0.5t90.5 -0.5q17 0 17 -12q0 -11 -5 -19z" />
    <glyph glyph-name="greater" unicode="&#x3e;" horiz-adv-x="270" 
d="M33 40q84 115 122 162q4 5 0 11q-12 15 -65.5 86t-56.5 75q-7 8 2 15q6 5 13 -2l163 -163q16 -16 0 -32l-84.5 -84.5t-78.5 -79.5q-7 -7 -13 -3q-8 7 -2 15z" />
    <glyph glyph-name="question" unicode="?" horiz-adv-x="335" 
d="M305 457q0 -143 -156 -222q-5 -3 -7 -11q-4 -51 -5 -72q0 -13 -7 -13q-6 0 -10 2q-3 1 -3 11t-1 32t-2.5 52t-2.5 49q-1 11 7 14q62 24 105.5 72.5t43.5 117.5q0 51 -29.5 84t-69.5 33q-24 0 -52 -12t-41 -12q-25 0 -25 24q0 17 19.5 29.5t60.5 12.5q71 0 123 -50.5
t52 -140.5zM168 35q0 -16 -12.5 -28.5t-27.5 -12.5q-14 0 -26.5 12.5t-12.5 28.5q0 14 12.5 26.5t26.5 12.5q15 0 27.5 -12.5t12.5 -26.5z" />
    <glyph glyph-name="at" unicode="@" horiz-adv-x="745" 
d="M690 335q0 -90 -52 -140t-130 -50q-55 0 -76 40q-4 7 -12 3q-31 -18 -87 -43q-17 -7 -36 7q-18 12 -29.5 33t-11.5 40t6 29t23 22q20 15 125 69q9 5 11 7.5t1 10.5q-2 52 -4 68q-4 33 -15.5 44.5t-41.5 11.5q-25 0 -42 -12.5t-20 -24.5q-4 -21 -14 -26q-9 -4 -19 -7
q-11 -4 -11 10q0 24 44.5 55t97.5 31q37 0 55.5 -21t19.5 -55q0 -20 4 -115.5t4 -108.5q0 -22 9.5 -34.5t24.5 -12.5q51 0 92 42.5t41 115.5q0 116 -74.5 193.5t-191.5 77.5q-107 0 -182.5 -88t-75.5 -220q0 -116 67.5 -192.5t190.5 -76.5q70 0 150 47q5 3 9 -1q3 -3 6 -9
q2 -5 -5 -10q-74 -52 -164 -52q-141 0 -225.5 90.5t-84.5 223.5q0 128 91 218.5t221 90.5q149 0 230 -78t81 -203zM427 220q0 4 -2 52.5t-2 52.5q0 7 -8 3q-50 -23 -92 -56q-13 -11 -13 -34q0 -61 47 -61q7 0 64 27q6 4 6 16z" />
    <glyph glyph-name="A" unicode="A" horiz-adv-x="662" 
d="M670 4q0 -5 -12 -4q-55 5 -99 5q-54 0 -117 -5q-6 0 -6 3q0 1 -0.5 5t-0.5 5q0 6 6 7q53 6 60 7q19 2 8 30q-4 10 -37 95t-43 109q-4 10 -7.5 12.5t-11.5 2.5h-195q-16 0 -20 -11q-11 -33 -41.5 -116t-35.5 -98q-6 -17 10 -21q25 -5 65 -11q6 -1 6 -5v-9q0 -6 -8 -5
q-63 5 -108 5q-33 0 -69 -4q-13 -2 -13 4v10q0 6 12 7q30 4 35 5q6 1 9.5 2.5t6.5 6t3.5 5.5t4.5 10q120 274 251 597q11 25 21 -1q227 -559 244 -602v-1q6 -13 20 -17l6 -1q23 -4 45 -6q11 -1 11 -4v-12zM406 318q-36 104 -89 230q-6 14 -12 0q-79 -201 -89 -229
q-4 -11 -2.5 -13.5t11.5 -2.5h174q9 0 9.5 2.5t-2.5 12.5z" />
    <glyph glyph-name="B" unicode="B" horiz-adv-x="563" 
d="M520 187q0 -90 -60.5 -138.5t-155.5 -48.5q-32 0 -80.5 1.5t-63.5 1.5q-57 0 -107 -5q-6 -1 -7 3q-2 6 -2 12q0 4 5 5q35 5 59 10q10 2 12.5 5.5t2.5 17.5v544q0 18 -16 19q-44 4 -64 7q-5 1 -5 4q0 8 2 14q2 3 7 3q82 -4 109 -4q12 0 65 3t79 3q80 0 124.5 -41
t44.5 -101q0 -97 -98 -135q-14 -7 -1 -10q61 -10 105.5 -51.5t44.5 -118.5zM400 494q0 56 -34 90.5t-91 34.5q-53 0 -75 -3q-11 -2 -11 -22v-222q0 -14 9 -14q28 0 73 3q129 13 129 133zM448 183q0 67 -42 110.5t-107 43.5q-24 0 -99 -3q-7 0 -9 -2.5t-2 -11.5v-277
q0 -8 9 -11q22 -7 94 -7q74 0 115 39.5t41 118.5z" />
    <glyph glyph-name="C" unicode="C" horiz-adv-x="640" 
d="M604 163q-6 -76 -5 -94q1 -11 -11 -18q-95 -58 -216 -58q-145 0 -237.5 94.5t-92.5 237.5q0 133 94.5 228t246.5 95q109 0 187 -35q7 -3 8 -10q6 -36 18 -86q2 -11 -2 -12l-9 -3q-4 -2 -8 7q-21 51 -23 55q-4 9 -12 14q-67 44 -161 44q-116 0 -188.5 -81t-72.5 -212
q0 -79 26.5 -147t85.5 -114.5t141 -46.5q98 0 181 58q10 6 14 21l8 26q7 27 8 32q3 13 7 13q6 0 10 -1q3 -2 3 -7z" />
    <glyph glyph-name="D" unicode="D" horiz-adv-x="729" 
d="M687 327q0 -149 -91.5 -238.5t-239.5 -89.5q-60 0 -123 2.5t-74 2.5q-21 0 -60.5 -2.5t-52.5 -2.5q-8 0 -8 5v9q0 5 7 6q45 6 62 9q10 2 13 6.5t3 18.5v534q0 22 -16 27q-5 1 -18.5 3t-27 3.5t-15.5 1.5q-7 0 -7 6q0 7 1 10q1 5 7 5q45 -5 109 -5q18 0 81 2.5t98 2.5
q159 0 255.5 -86t96.5 -230zM611 322q0 58 -17 109t-50.5 93.5t-91 67.5t-131.5 25q-65 0 -113 -2q-11 -1 -13.5 -3t-2.5 -11v-552q0 -13 2.5 -16t14.5 -4q52 -4 125 -4q71 0 126 25.5t87 68.5t48 94.5t16 108.5z" />
    <glyph glyph-name="E" unicode="E" horiz-adv-x="548" 
d="M520 109q-2 -6 -9 -28t-9 -28q-8 -25 -13 -48q-2 -9 -15 -8q-116 4 -318 4q-93 0 -117 -2q-8 0 -8 5v11q0 5 8 5q21 1 67 6q11 2 14 5.5t3 18.5v535q0 17 -3.5 23.5t-13.5 7.5l-64 8q-8 1 -8 5q0 1 0.5 5.5t0.5 5.5q0 6 8 5q37 -4 122 -6q232 -5 302 3q10 1 11 -6
q12 -50 25 -95q3 -7 -1 -8q-1 -1 -5 -2t-5 -1q-3 -1 -7 6q-24 49 -31 60q-5 10 -22 11q-100 8 -227 8q-9 0 -11 -3t-2 -14v-247q0 -8 2.5 -10t10.5 -2q113 0 200 10q6 0 8.5 0.5t5.5 3t4 7t3 12.5q1 5 3 14.5t3.5 17t2.5 13.5q1 8 7 8h6q4 0 3 -11q0 -8 -1.5 -39.5
t-1.5 -46.5q0 -49 2 -87q0 -10 -5 -10h-7q-5 0 -6 7q-7 45 -8 58q-1 11 -4 13.5t-14 3.5q-93 3 -202 3q-8 0 -10 -2t-2 -10v-265q0 -10 2 -12t11 -2q177 -3 250 11q7 1 13 11q25 46 36 69q3 6 7 5q6 -2 9 -4q2 -2 0 -8z" />
    <glyph glyph-name="F" unicode="F" horiz-adv-x="554" 
d="M532 527q-1 0 -5 -1.5t-6 -2.5q-4 -1 -7 5t-14 29.5t-15 31.5q-9 17 -32 19q-45 5 -238 5q-16 0 -19.5 -2.5t-3.5 -13.5v-250q0 -6 1.5 -8t8.5 -2q62 0 197 12q18 1 22 20q4 17 12 55q2 5 5 5h8q5 0 4 -9q-7 -52 -7 -92q0 -21 8 -93q0 -5 -3 -6t-9 -1q-5 0 -6 6
q-5 27 -13 60q-5 17 -24 17q-100 5 -193 5q-8 0 -9.5 -1.5t-1.5 -7.5v-248q0 -11 1 -16.5t4.5 -9.5t10.5 -4q9 -1 41 -4t46 -5q8 -1 8 -5v-12q0 -5 -8 -4q-53 5 -136 5q-49 0 -113 -4q-8 0 -8 4v11q0 4 7 5q47 6 62 9q16 3 16 26v530q0 17 -2.5 22.5t-13.5 6.5q-10 1 -34 4
t-35 4q-7 1 -7 6v11q1 4 7 4q53 -4 115 -4q195 0 333 6q11 1 13 -6q25 -84 32 -100q5 -10 1 -12z" />
    <glyph glyph-name="G" unicode="G" horiz-adv-x="703" 
d="M670 250q0 -6 -9 -7q-33 -5 -48 -9q-12 -3 -12 -15v-131q0 -8 2 -34q0 -9 -5 -11q-117 -50 -231 -50q-131 0 -228.5 89t-97.5 232q0 144 99 239t246 95q114 0 206 -43q10 -5 11 -18q10 -70 15 -95q1 -7 -2 -8q-6 -2 -11 -2t-8 9q-12 40 -19 59q-5 12 -14 18
q-80 54 -178 54q-125 0 -196.5 -87.5t-71.5 -219.5q0 -134 75 -214t176 -80q86 0 152 33q9 5 11 9.5t2 20.5v137q0 13 -10 14q-8 1 -21 2t-25.5 2.5t-15.5 1.5q-10 1 -10 6v11q0 6 10 5q62 -5 102 -5q49 0 89 5q15 2 16 -2t1 -11z" />
    <glyph glyph-name="H" unicode="H" horiz-adv-x="771" 
d="M648 56q0 -15 3.5 -21t14.5 -7q4 0 29 -3.5t36 -4.5q7 0 7 -5v-10q0 -5 -7 -5q-68 5 -118 5q-38 0 -118 -5q-5 0 -5 4v11q0 4 7 5q56 6 64 8q12 3 15 8t3 22v241q0 9 -2 11.5t-10 2.5h-362q-9 0 -11 -2t-2 -10v-249q0 -14 3 -18t14 -6q3 -1 66 -8q7 -1 7 -5v-11
q0 -4 -6 -4q-85 5 -118 5q-53 0 -116 -5q-9 -1 -9 4v11q0 4 9 5q4 1 30.5 4.5t37.5 4.5q8 1 10.5 5t2.5 18v544q0 12 -4 15.5t-16 4.5q-9 1 -28.5 3.5t-28.5 2.5q-8 0 -8 6v8q0 7 8 6q78 -5 112 -5q46 0 114 5q6 0 7 -4t1 -11q0 -3 -6 -5q-10 -1 -32 -3.5t-32 -3.5
q-12 -1 -15 -4t-3 -15v-239q0 -9 2 -11t10 -2h363q8 0 10 2.5t2 12.5v238q0 17 -13 18q-42 3 -71 7q-7 1 -7 5v12q0 3 7 3q73 -5 118 -5q54 0 119 5q6 0 7 -3q1 -4 1 -12q0 -4 -7 -5q-1 0 -30.5 -3t-36.5 -4q-12 -2 -15 -5t-3 -12v-542z" />
    <glyph glyph-name="I" unicode="I" horiz-adv-x="322" 
d="M195 54q0 -24 17 -26l69 -9q6 0 6 -4v-10q0 -6 -7 -5q-58 5 -117 5q-56 0 -114 -5q-8 -1 -8 5v10q0 4 9 5q48 6 62 8q15 2 15 25v540q0 13 -2.5 17.5t-12.5 5.5q-8 1 -29.5 3.5t-30.5 3.5q-7 0 -7 4v11q0 4 6 4q49 -4 110 -4q46 0 116 4q7 0 7 -4v-11q0 -4 -7 -5
q-3 0 -15.5 -1.5t-28 -3t-22.5 -2.5q-16 -1 -16 -22v-539z" />
    <glyph glyph-name="J" unicode="J" horiz-adv-x="311" 
d="M190 -8q0 -76 -11.5 -120.5t-40.5 -74.5q-38 -40 -99 -40q-22 0 -37 11t-15 26q0 13 8.5 21.5t21.5 8.5q16 0 34 -14q21 -19 37 -19q23 0 28.5 28.5t5.5 100.5v667q0 19 -2.5 23.5t-15.5 5.5q-36 3 -62 6q-7 1 -7 4q0 8 1 12t6 4q85 -5 112 -5q61 0 113 5q8 1 8 -3v-12
q0 -4 -10 -5q-13 -2 -32.5 -4t-26.5 -3q-11 -1 -13.5 -6t-2.5 -21v-596z" />
    <glyph glyph-name="K" unicode="K" horiz-adv-x="642" 
d="M586 34q5 -4 13 -5q26 -4 58 -10q6 -1 4 -6q-2 -8 -3 -11q-1 -2 -8 -2q-9 0 -44 2t-53 2q-55 0 -113 -4q-13 -1 -13 4v10q0 5 8 6q20 2 51 7q13 3 0 15q-48 51 -160 162.5t-129 128.5q-5 5 -5 -1v-293q0 -9 6 -10q39 -4 78 -9q6 -1 6 -6v-10q0 -4 -6 -4q-66 4 -116 4
q-74 0 -118 -4q-4 0 -4 4v10q0 5 7 6q35 4 73 9q5 1 5 7v568q0 9 -9 10q-10 1 -34 3.5t-39 4.5q-6 1 -6 5q0 6 2 12q1 3 5 3q80 -4 111 -4q62 0 121 4q4 0 5 -3q2 -4 2 -12q0 -4 -9 -5q-48 -5 -73 -9q-7 -1 -7 -10v-249q0 -6 5 -3q43 44 132 130t128 127q7 6 -1 8
q-9 1 -30 3.5t-23 2.5q-6 1 -6 6q0 6 2 10t7 4q34 -2 97 -2q35 0 101 2q6 0 8 -3q2 -4 2 -12q0 -4 -6 -4q-23 -2 -74 -9q-7 -1 -14 -7q-160 -129 -265 -226q-6 -4 -1 -9q4 -4 143.5 -144t188.5 -194z" />
    <glyph glyph-name="L" unicode="L" horiz-adv-x="552" 
d="M550 104q-22 -29 -55 -95q-4 -7 -6.5 -8.5t-10.5 -1.5q-66 0 -162 2t-158 2q-23 0 -61.5 -1.5t-47.5 -1.5q-7 0 -7 3v13q0 5 6 5q3 0 15 1.5t24 2.5t18 2q12 2 15 7t3 20v534q0 17 -2.5 21.5t-12.5 5.5q-42 4 -63 7q-8 1 -8 5q0 8 1 11q1 4 7 4q70 -5 112 -5q23 0 116 5
q8 0 8 -4v-11q0 -4 -7 -5q-49 -6 -66 -7q-10 -1 -13 -5.5t-3 -18.5v-537q0 -17 3 -21t17 -4q174 0 248 10q14 3 23 14q7 9 49 61q4 5 8 4q7 -2 9 -7q3 -4 1 -7z" />
    <glyph glyph-name="M" unicode="M" horiz-adv-x="852" 
d="M813 3q0 -4 -8 -3q-55 5 -106 5q-47 0 -117 -5q-8 0 -8 4v11q0 5 8 5q39 2 66 9q14 2 14 17v480q0 19 -10 0q-28 -55 -238 -511q-4 -7 -6 -9.5t-4 -0.5t-5 8q-8 18 -64 132.5t-117 239t-70 143.5q-9 18 -10 0q-5 -50 -5 -128q0 -231 3 -345q0 -14 3 -20t14 -7
q20 -3 66 -9q7 -1 7 -5v-11q0 -3 -6 -3q-78 5 -105 5q-40 0 -100 -5q-7 0 -7 4v12q0 4 6 4q1 0 30.5 3.5t36.5 4.5q14 1 16 28q11 138 16 527q0 18 -2.5 24t-12.5 7q-13 2 -62 7q-10 1 -10 6v12q1 4 7 3q42 -3 76 -3q24 0 50 2q9 1 15 -12q36 -72 133 -272t113 -234
q5 -12 8.5 -12t9.5 13q152 316 231 502q5 11 7 13.5t9 1.5q34 -2 56 -2q31 0 64 4q7 0 8 -4v-12q0 -4 -7 -5q-51 -5 -63 -7q-13 -3 -13 -17v-552q0 -10 3 -13.5t14 -4.5q7 -1 18 -2.5t24.5 -3t17.5 -2.5q7 -1 7 -5v-5q-1 -5 -1 -7z" />
    <glyph glyph-name="N" unicode="N" horiz-adv-x="761" 
d="M651 26q0 -5 0.5 -15t0.5 -14q0 -8 -5 -8h-7q-4 0 -8 7q-32 45 -223.5 266t-258.5 296q-6 6 -8.5 7t-3.5 -1.5t-1 -10.5q0 -167 11 -492q0 -19 3 -24.5t13 -8.5q6 -1 74 -9q5 0 5 -5v-9q0 -5 -5 -5q-43 4 -108 4q-54 0 -98 -4q-6 -1 -8 4v10q0 5 6 5q55 7 65 10
q13 4 13 31q5 440 5 524q0 21 -17 27q-11 3 -62 12q-7 1 -7 4q0 6 2 12q2 3 8 3q55 -4 69 -5q23 -1 58 2q11 1 22 -11q31 -37 217 -252t210 -243q9 -11 11 -9.5t3 17.5q3 181 -7 446q-1 21 -17 25q-26 7 -58 11q-8 1 -8 5q0 5 2 11q2 4 8 3q50 -5 93 -5q49 0 90 5q6 1 7 -4
q1 -2 1 -10q0 -4 -7 -5q-36 -6 -53 -10q-15 -4 -16 -24q-10 -351 -11 -563z" />
    <glyph glyph-name="O" unicode="O" horiz-adv-x="728" 
d="M687 322q0 -137 -89.5 -233t-227.5 -96q-145 0 -237 94.5t-92 234.5q0 138 93.5 232t235.5 94q136 0 226.5 -96t90.5 -230zM610 322q0 120 -68.5 209.5t-181.5 89.5q-110 0 -176 -86.5t-66 -212.5q0 -78 27 -145.5t83 -111.5t132 -44q114 0 182 89.5t68 211.5z" />
    <glyph glyph-name="P" unicode="P" horiz-adv-x="530" 
d="M506 458q0 -97 -64 -149t-154 -52q-32 0 -39 7q-1 1 -1 4.5t1 5.5t26 2q75 0 118.5 46.5t43.5 125.5q0 82 -44.5 127t-122.5 45q-46 0 -64 -6q-14 -4 -14 -21v-544q0 -11 3 -15.5t14 -5.5t36 -4.5t31 -4.5q8 -1 8 -6v-10q0 -5 -8 -4q-88 5 -117 5q-64 0 -116 -4
q-5 0 -5 4v11q0 4 8 5q12 1 65 9q12 2 12 19v545q0 19 -17 21q-9 1 -20 2.5t-24.5 3l-22.5 2.5q-6 1 -6 6v8q0 7 6 7q51 -4 112 -4q15 0 67 3.5t83 3.5q89 0 147 -50.5t58 -137.5z" />
    <glyph glyph-name="Q" unicode="Q" horiz-adv-x="729" 
d="M704 -210q0 -5 -2 -9t-7 -5q-28 -6 -77 -6q-134 0 -211.5 57t-101.5 153q-2 8 -8 12t-27 11q-111 33 -170 119.5t-59 197.5q0 131 92 229.5t240 98.5q139 0 227 -101t88 -238q0 -114 -75 -207.5t-212 -108.5q-13 -2 -15 -4.5t1 -15.5q19 -76 89.5 -125t187.5 -49
q21 0 33 -2q7 -1 7 -7zM612 313q0 123 -68 215t-185 92q-75 0 -131.5 -44.5t-83.5 -112t-27 -145.5q1 -127 68 -215t182 -88q111 0 178 86.5t67 211.5z" />
    <glyph glyph-name="R" unicode="R" horiz-adv-x="600" 
d="M599 18q2 -4 2 -9q0 -4 -6 -6q-19 -8 -49 -8q-68 0 -111 62q-16 22 -47.5 70.5t-62 96t-35.5 54.5q-14 21 -26.5 28t-36.5 7t-28 -1q-8 0 -8 -12v-245q0 -10 1 -14.5t4.5 -8t10.5 -4.5l68 -8q8 -1 8 -5q0 -1 -0.5 -5t-0.5 -6q0 -4 -5 -4q-90 5 -118 5q-50 0 -118 -5
q-7 0 -7 5v10q0 4 8 5q41 4 65 9q16 2 16 23v540q0 20 -16 22q-26 5 -63 9q-5 1 -5 4v11q0 4 6 4q68 -5 111 -5q12 0 59.5 3t83.5 3q74 0 119 -43.5t45 -109.5q0 -56 -38.5 -99.5t-99.5 -57.5q-6 -1 -1 -4q18 -8 55 -63q4 -6 25 -38.5t49 -76.5t37 -58q32 -50 61 -64
q18 -9 35 -9q2 0 5 0.5t4 0.5q3 0 4 -3zM392 487q0 59 -34 95t-92 36q-42 0 -62 -3q-13 -3 -13 -20v-252q0 -9 18 -9q89 2 132 36q51 38 51 117z" />
    <glyph glyph-name="S" unicode="S" horiz-adv-x="453" 
d="M398 175q0 -75 -56 -128.5t-142 -53.5q-66 0 -137 34q-9 3 -9 17q-3 33 -11 86q-1 5 2 7q4 1 12 1q3 0 4 -4q19 -54 25 -64q2 -4 5 -7q41 -44 111 -44q59 0 97.5 36.5t38.5 95.5q0 40 -16 65t-53 53q-6 4 -124 90q-87 62 -87 138q0 61 50.5 106t132.5 45q60 0 103 -15
q14 -5 15 -14q1 -5 7 -36.5t9 -42.5q1 -6 -2 -8q-6 -3 -10 -3q-5 0 -7 8q-11 31 -18 49q-2 5 -6 8q-39 31 -97 31q-56 0 -89 -31.5t-33 -71.5q0 -35 25.5 -64t81.5 -66q80 -52 110 -78q68 -59 68 -139z" />
    <glyph glyph-name="T" unicode="T" horiz-adv-x="569" 
d="M319 50q0 -12 3 -16t13 -5q28 -4 80 -9q6 0 6 -5v-11q0 -4 -8 -4q-55 4 -128 4t-136 -4q-4 0 -4 4v11q0 4 7 5t23.5 3t37 4t24.5 3q9 1 11 4.5t2 13.5v553q0 5 -5 5h-170q-13 0 -19 -9q-11 -22 -29 -67q-3 -6 -4.5 -7.5t-3.5 -0.5q-6 2 -10 4q-2 2 -1 5q6 17 17 62
q10 51 11 56q0 4 7 4q6 0 8 -4q2 -3 3 -5l2 -4t3 -2.5t3 -1.5t3.5 -1h3.5h4.5h5.5q6 0 37 -0.5t78 -1.5t91 -1q47 0 100.5 1t89.5 1.5t41 0.5q12 0 16 5l6 9q3 4 8 4q7 0 7 -6q0 -7 3 -61q1 -15 10 -61q1 -5 -2 -7q-4 -2 -9 -3q-3 -1 -4 0.5t-3 6.5q-19 56 -27 70
q-5 9 -10 11t-26 2q-7 0 -67.5 0.5t-93.5 0.5q-5 0 -5 -7v-549z" />
    <glyph glyph-name="U" unicode="U" horiz-adv-x="714" 
d="M699 628q0 -5 -10 -6q-44 -7 -61 -10q-13 -2 -15.5 -7t-3.5 -24q-6 -195 -6 -370q0 -104 -61.5 -161.5t-189.5 -57.5q-107 0 -173.5 53t-66.5 162v388q0 17 -19 20q-46 6 -58 7q-7 0 -7 5q0 7 1 11t5 4q53 -5 111 -5q33 0 118 5q7 1 8 -4v-11q0 -4 -7 -5q-46 -4 -66 -8
q-11 -2 -14 -5.5t-3 -13.5v-388q0 -181 194 -181q97 0 146 47t49 135q0 39 -6 375q-1 25 -19 28q-10 2 -35.5 6t-35.5 5q-7 1 -7 4v12q0 5 10 4q60 -5 109 -5q48 0 108 5q5 0 5 -4v-10z" />
    <glyph glyph-name="V" unicode="V" horiz-adv-x="698" 
d="M684 627q0 -4 -6 -5l-39 -6q-13 -2 -17 -7t-15 -28q-141 -299 -226 -505q-6 -16 -26 -66q-8 -20 -14 -20t-15 22q-40 103 -221 557q-15 38 -22 43q-3 2 -8 3q-15 5 -57 7q-9 0 -9 5q0 8 1 11q1 5 12 4q62 -4 102 -4q76 0 117 4q6 0 7 -3q2 -6 2 -15q0 -4 -4 -4
q-46 -2 -69 -5q-10 -2 -11 -7t6 -22q50 -133 175 -445q13 -33 19 -33q5 0 17 29q150 371 174 448q5 17 3 22.5t-16 6.5q-2 0 -24.5 3t-32.5 5q-8 1 -8 6q0 9 1 11q1 4 10 3q45 -5 103 -5q26 0 81 5q10 1 10 -4v-11z" />
    <glyph glyph-name="W" unicode="W" horiz-adv-x="1043" 
d="M1035 627q0 -4 -10 -5q-13 -2 -37 -6q-12 -2 -18 -8.5t-15 -28.5q-21 -49 -113 -255t-121 -275q-4 -9 -9 -20t-7.5 -17t-3.5 -9q-2 -8 -7 -8q-6 0 -9 8q-138 357 -155 396q-4 8 -7 1q-128 -288 -158 -356q-5 -13 -14 -39q-4 -11 -9 -11t-10 12q-27 68 -241 591
q-4 12 -8 15t-16 5q-8 1 -25 3t-18 2q-7 0 -7 4q0 7 1 12q1 4 10 4q66 -4 96 -4q63 0 118 4q6 0 6 -6v-10q0 -4 -6 -5q-51 -5 -67 -6t-9 -19q25 -61 97 -239t88 -218q11 -26 15 -26t15 25q6 14 34.5 77.5t55.5 125t40 92.5q2 6 0 12q-35 90 -57 147q-6 15 -9.5 18.5
t-15.5 4.5q-27 3 -51 6q-9 1 -9 6v10q0 6 12 5q47 -4 100 -4q49 0 119 4q7 0 8 -3t1 -11q0 -5 -8 -5q-45 -5 -62 -7q-19 -2 -10 -27q52 -137 176 -455q7 -20 15 -20q3 0 13 21q153 370 177 443q5 16 6 22.5t-2 10t-12 5.5q-43 6 -61 7q-7 1 -7 5v10q0 4 7 4q95 -5 106 -5
q6 0 76 5q11 1 11 -4q0 -2 0.5 -6t0.5 -5z" />
    <glyph glyph-name="X" unicode="X" horiz-adv-x="663" 
d="M642 4q0 -5 -8 -4q-65 5 -108 5q-46 0 -114 -5q-7 0 -7 5v8q0 5 7 6q40 5 46 6q16 3 18 8.5t-6 15.5q-109 181 -146 238q-6 9 -8.5 9t-8.5 -9q-130 -181 -162 -234q-8 -15 -7.5 -20t11.5 -7q4 -1 13.5 -2.5t22 -3t16.5 -2.5q7 -1 7 -5v-8q0 -6 -8 -5q-54 4 -100 4
q-49 0 -84 -5q-6 -1 -7 3l-1 4v6q0 4 8 5t43 8q17 5 33 26q137 171 202 259q6 7 6 9.5t-5 11.5q-161 258 -168 269q-6 10 -10.5 13t-16.5 4q-7 1 -26.5 3t-23.5 3q-6 1 -6 6v10q0 3 8 3q38 -3 106 -3q48 0 106 3q8 0 8 -4q0 -1 0.5 -4t0.5 -5q0 -3 -8 -5l-45 -6
q-14 -1 -15 -8t7 -19q12 -21 63 -102.5t62 -99.5q4 -6 6 -7.5t4.5 0t6.5 7.5q105 150 137 201q17 25 -4 28q-7 1 -25 3t-23 2q-8 1 -8 5v9q0 5 8 5q58 -4 91 -4q43 0 88 4q6 0 6 -4v-11q0 -4 -8 -5q-24 -2 -42 -5t-35 -26q-22 -30 -93 -119.5t-82 -104.5q-6 -8 0 -18
q13 -22 95 -154t91 -147q7 -12 12 -15.5t19 -6.5q20 -3 55 -7q6 -1 6 -5v-10z" />
    <glyph glyph-name="Y" unicode="Y" horiz-adv-x="623" 
d="M618 629q0 -6 -7 -6q-4 0 -21 -2.5t-24 -3.5q-3 0 -6 -1t-4.5 -2t-3.5 -3.5t-2.5 -3.5t-3 -5t-3.5 -6q-169 -269 -180 -286q-8 -13 -8 -35v-219q0 -15 3.5 -20t15.5 -7q7 -1 19 -2.5t26 -3t19 -2.5q8 -1 8 -5q0 -7 -1 -12q-1 -4 -5 -4q-49 5 -116 5q-61 0 -116 -5
q-8 -1 -8 4v10q0 5 6 6q47 4 65 9q10 2 13 7.5t3 20.5v215q0 10 -9 25q-16 26 -94.5 146t-101.5 154q-6 9 -8.5 12t-6 5t-10.5 3q-4 1 -12.5 2.5t-15 2.5t-11.5 1q-7 0 -7 5v10q1 5 9 4q53 -4 99 -4q76 0 118 4q7 1 7 -4v-10q0 -4 -7 -4q-4 -1 -19 -3t-27 -3.5t-17 -2.5
q-19 -4 -8 -22q15 -23 83 -129.5t80 -124.5q8 -13 12 -14t12 12q118 202 136 245q8 20 5.5 26.5t-16.5 8.5q-40 5 -46 5q-7 1 -7 5q0 8 1 10q0 5 7 5q51 -4 96 -4q33 0 85 4q5 0 5 -4q0 -2 -0.5 -5t-0.5 -4z" />
    <glyph glyph-name="Z" unicode="Z" horiz-adv-x="586" 
d="M488 39q15 1 20 14q21 51 35 79q3 7 7 7t10 -3q4 -2 1 -10q-13 -42 -31 -123q-1 -7 -9 -7q-156 6 -421 6q-7 0 -31.5 -1t-38.5 -1q-18 0 -6 17q38 53 137 189t182 249.5t106 147.5q4 5 5 8t-1 4t-7 1q-191 0 -333 -15q-16 -1 -22 -14q-24 -52 -36 -89q-2 -7 -7 -5
q-1 0 -3 1t-3.5 1.5t-2.5 0.5q-5 2 -3 9q20 69 32 138q1 7 6 7h6q5 0 7 -4q5 -8 18 -8q56 0 237.5 2t203.5 2q12 0 6 -10q-21 -30 -192 -264t-242 -336q-5 -6 4 -6q252 0 366 13z" />
    <glyph glyph-name="bracketleft" unicode="[" horiz-adv-x="326" 
d="M125 736h142q7 0 7 -10t-7 -10h-63q-11 0 -13 -2.5t-2 -13.5v-845q0 -12 4 -15.5t17 -3.5h57q7 0 7 -10q0 -7 -1 -8.5t-6 -1.5h-141q-6 0 -6 5v910q0 5 5 5z" />
    <glyph glyph-name="backslash" unicode="\" horiz-adv-x="270" 
d="M5 666q0 4 9 9q10 5 12 0q3 -6 6 -15q172 -493 233 -675q0 -1 1.5 -5t2.5 -6q2 -4 -2 -6q-4 -3 -11 -5q-4 -2 -5.5 -0.5t-4.5 9.5q-31 90 -237 678q-4 9 -4 16z" />
    <glyph glyph-name="bracketright" unicode="]" horiz-adv-x="326" 
d="M201 736q5 0 5 -4v-911q0 -5 -5 -5h-141q-5 0 -6.5 1.5t-1.5 8.5q0 10 8 10h56q14 0 18 3.5t4 15.5v845q0 11 -2.5 13.5t-13.5 2.5h-62q-5 0 -6.5 1.5t-1.5 8.5t1.5 8.5t6.5 1.5h141z" />
    <glyph glyph-name="asciicircum" unicode="^" horiz-adv-x="417" 
d="M344 330q0 -17 -2 -21q-2 -7 -12 -8q-19 -3 -223 -3q-29 0 -32 6q-2 4 -2 14q0 6 3 12q2 6 12 7q58 7 217 7q22 0 31 -3q8 -3 8 -11z" />
    <glyph glyph-name="underscore" unicode="_" horiz-adv-x="527" 
d="M538 -181q0 -6 -21 -6h-492q-22 0 -22 5v17q0 7 30 7h481q17 0 20.5 -1t3.5 -6v-16z" />
    <glyph glyph-name="grave" unicode="`" horiz-adv-x="500" 
d="M302 465q5 -5 1 -10q-1 -1 -4 -1t-5 1q-9 6 -55.5 33t-52.5 31q-21 12 -21 28q0 10 6.5 16.5t16.5 6.5q11 0 22 -11q6 -6 44 -45t48 -49z" />
    <glyph glyph-name="a" unicode="a" horiz-adv-x="380" 
d="M308 68q0 -45 28 -45q8 0 20 5q5 3 9 -2q5 -7 -7 -12q-42 -18 -64 -18q-30 0 -42 42q-3 11 -14 5q-52 -31 -103 -45q-13 -4 -28 -4q-19 0 -33 13q-36 32 -36 78q0 52 43 74q14 7 162 74q8 4 8 14v38q-1 51 -18 70.5t-56 19.5q-28 0 -47.5 -10t-24.5 -23q-1 -2 -2 -9
t-1 -9q-3 -10 -13 -15q-14 -6 -29 -6q-11 0 -11 10q0 30 52.5 60.5t117.5 30.5q41 0 65 -24.5t24 -67.5v-244zM250 76v129q0 7 -1 8.5t-7 -0.5q-64 -27 -102 -48q-43 -25 -43 -70q0 -29 13 -47.5t33 -18.5q15 0 46.5 11t51.5 22q9 4 9 14z" />
    <glyph glyph-name="b" unicode="b" horiz-adv-x="468" 
d="M432 222q0 -96 -60.5 -160.5t-149.5 -64.5q-44 0 -98 28q-7 6 -13 -1q-10 -12 -22 -26q-4 -4 -9 -4q-4 0 -4 11v597q0 12 -6 15q-12 6 -27 11q-8 3 -8 7q0 5 7 8q38 13 79 29q9 4 11.5 3t2.5 -9v-310q0 -4 3 -2q75 50 138 50q66 0 111 -51t45 -131zM374 196
q0 78 -36.5 124t-101.5 46q-50 0 -93 -28q-8 -5 -8 -17v-246q0 -15 9 -22q41 -30 88 -30q66 0 104 48.5t38 124.5z" />
    <glyph glyph-name="c" unicode="c" horiz-adv-x="388" 
d="M368 355q0 -14 -14 -26q-10 -9 -19 -9t-19 13q-33 42 -88 42q-50 0 -92 -44t-42 -122q0 -77 43.5 -124.5t103.5 -47.5t113 45q6 5 9 3l6 -6q3 -5 -6 -14q-68 -71 -159 -71q-65 0 -115 52.5t-50 133.5q0 101 66.5 162.5t149.5 61.5q68 0 102 -29q11 -8 11 -20z" />
    <glyph glyph-name="d" unicode="d" horiz-adv-x="476" 
d="M397 66q0 -20 13 -20q8 0 39 8q7 2 9 0q1 -1 1 -8q0 -8 -6 -9q-27 -7 -102 -40q-9 -4 -12 -3t-2 7q3 24 3 40q0 3 -3 1q-76 -48 -134 -48q-73 0 -119.5 56t-46.5 133q0 105 65.5 163t141.5 58q46 0 92 -21q2 -1 3 -0.5t1 4.5v213q0 14 -9 19q-13 7 -31 14q-2 1 -5 3l-3 1
q-4 2 -3.5 5t4.5 5q2 0 8 2q51 11 88 25q4 2 6 0t2 -9v-599zM340 338q0 6 -4 10q-33 33 -98 33q-54 0 -97.5 -44t-43.5 -126t39.5 -130t101.5 -48q25 0 53.5 8t37.5 16q11 9 11 18v263z" />
    <glyph glyph-name="e" unicode="e" horiz-adv-x="392" 
d="M360 262q0 -10 -11 -10q-33 -1 -248 -1q-6 0 -7 -4q-5 -18 -5 -43q0 -72 43 -120t107 -48q58 0 113 42q6 4 9 1q2 -2 4 -6q4 -7 -1 -12q-25 -24 -67 -45.5t-87 -21.5q-79 0 -125.5 57t-46.5 137q0 91 56.5 153.5t130.5 62.5q61 0 97 -42.5t38 -99.5zM303 285
q-2 41 -24 69.5t-62 28.5q-37 0 -70 -28.5t-47 -76.5q-2 -7 2 -7q80 0 196 8q5 0 5 6z" />
    <glyph glyph-name="f" unicode="f" horiz-adv-x="251" 
d="M94 361q-7 0 -24 -0.5t-21 -0.5q-7 0 -7 6v18q0 5 5 5h48q3 0 3 5v68q0 79 39 147t86 68q29 0 29 -24q0 -15 -14.5 -24t-33.5 -9q-14 0 -27 6q-5 2 -8 -2q-14 -21 -14 -68v-164q0 -3 3 -3h76q7 0 8 -5t1 -17q0 -6 -6 -6h-78q-4 0 -4 -5v-307q0 -21 14 -24
q11 -2 28.5 -4.5t23.5 -3.5t6 -5v-8q0 -4 -6 -4q-49 3 -95 3q-54 0 -89 -3q-5 0 -5 5v7q0 4 5 5t22.5 4t23.5 4q10 2 12.5 6t2.5 18v306q0 6 -4 6z" />
    <glyph glyph-name="g" unicode="g" horiz-adv-x="412" 
d="M409 -64q0 -79 -67 -147t-180 -68q-76 0 -107.5 32t-31.5 71q0 22 13 47t22 35t34 37q4 5 6 7q4 4 -2 7q-53 18 -53 64q0 29 86 86q5 3 0 6q-83 47 -83 136q0 67 45 111t109 44q55 0 95 -32q3 -2 8 -2q24 -1 83 2q6 0 6 -7q0 -17 -1 -20q-1 -5 -10 -6h-50q-5 0 -2 -5
q22 -36 22 -80q0 -69 -44.5 -112t-108.5 -43q-26 0 -43 5q-2 1 -9 -4q-49 -36 -49 -60q0 -33 57 -30q35 2 101 9t78 7q36 0 56 -25t20 -65zM292 249q0 55 -24 95t-69 40t-71 -40.5t-26 -95.5q0 -56 26 -92.5t70 -36.5q45 0 69.5 37t24.5 93zM371 -94q0 60 -64 60
q-7 0 -23.5 -1.5t-43.5 -4t-50 -4.5q-31 -2 -63 -3q-4 0 -7 -4q-49 -59 -49 -102t28 -67t84 -24q81 0 134.5 47t53.5 103z" />
    <glyph glyph-name="h" unicode="h" horiz-adv-x="499" 
d="M415 292v-240q0 -24 15 -27q3 0 23 -3.5t23 -4.5q4 -1 4 -5v-9q0 -3 -8 -3q-68 4 -85 4q-41 0 -86 -4q-6 0 -6 3v9q0 4 7 5t20.5 3.5t20.5 4.5q9 2 12 7.5t3 19.5v232q0 87 -94 87q-45 0 -104 -32q-6 -4 -6 -15v-274q0 -23 14 -25q9 -1 24.5 -4t19.5 -4q7 -1 7 -4v-10
q0 -4 -7 -3q-46 4 -87 4q-47 0 -84 -4q-6 0 -6 4v8q0 4 6 5q11 2 39 9q10 2 13 6.5t3 16.5v557q0 10 -7 13q-13 6 -26 13q-6 4 -6 6q0 3 7 6q31 11 79 29q11 4 11 -5v-307q0 -7 5 -4q80 47 139 47q53 0 85 -28t32 -84z" />
    <glyph glyph-name="i" unicode="i" horiz-adv-x="229" 
d="M175 577q0 -18 -13 -29.5t-32 -11.5q-20 0 -31 11.5t-11 29.5t13 30t31 12q20 0 31.5 -12.5t11.5 -29.5zM214 4q0 -4 -5 -4q-63 3 -86 3q-34 0 -82 -3q-7 0 -7 4v9q0 3 7 4l44 8q11 2 11 17v246q0 24 -10 36t-36 15q-7 1 -7 9q0 9 10 9q30 0 50 7q22 9 36 30q5 7 9 7
q9 0 7 -9q-2 -14 -2 -48v-301q0 -15 14 -18q20 -5 42 -8q5 -1 5 -5v-8z" />
    <glyph glyph-name="j" unicode="j" horiz-adv-x="232" 
d="M133 536q-16 0 -29 11t-13 27q0 18 13.5 32t31.5 14t30 -13t12 -31q0 -17 -14 -28.5t-31 -11.5zM158 -117q0 -69 -35.5 -119.5t-82.5 -50.5q-15 0 -24 8t-9 19q0 12 8.5 20t21.5 8q19 0 34 -15q3 -3 9 -3t9 4q10 14 10 72v461q0 25 -8.5 35t-28.5 11q-14 1 -14 8
q0 10 11 11q29 3 48 14q22 12 38 31q5 5 9.5 3.5t4.5 -7.5q0 -3 -0.5 -12t-0.5 -14v-484z" />
    <glyph glyph-name="k" unicode="k" horiz-adv-x="465" 
d="M421 36q10 -12 19 -14q17 -3 37 -5q4 0 4 -5q0 -7 -1 -10q-1 -2 -7 -2q-63 3 -69 3q-35 0 -92 -3q-4 0 -6 3q-2 6 -2 8q0 4 5 5q15 2 30 5q11 3 0 16q-26 30 -64 70t-44 46l-73 73q-4 4 -4 -3v-180q0 -14 11 -17q14 -4 50 -8q6 -1 6 -4v-10q0 -4 -6 -4q-60 4 -90 4
q-44 0 -84 -4q-6 -1 -6 4v10q0 4 3 4q25 4 47 8q11 3 11 15v558q0 11 -11 16q-4 2 -13 6t-13 6q-5 3 -5 5q0 4 5 6q43 13 87 36q8 5 8 -7v-431q0 -4 5 -2q96 66 157 121q8 8 -4 11q-15 3 -33 7q-3 0 -3 4v9q0 3 5 3q7 0 31.5 -1.5t39.5 -1.5q11 0 38 1.5t33 1.5t7 -4
q1 -2 1 -10q0 -3 -4 -3q-12 -1 -39 -5q-8 -1 -16 -7q-70 -48 -150 -107q-4 -2 0 -6q22 -25 108 -115.5t91 -95.5z" />
    <glyph glyph-name="l" unicode="l" horiz-adv-x="240" 
d="M220 3q-2 -3 -6 -3q-40 4 -88 4q-53 0 -86 -4q-6 0 -6 3v10q0 3 5 4l15 2.5t16 3t12 2.5q15 3 15 21v556q0 12 -7 16q-4 2 -26 10q-6 2 -6 6t7 7q48 18 79 32q10 4 10 -4v-622q0 -19 14 -22q32 -7 46 -8q7 -1 7 -4q0 -8 -1 -10z" />
    <glyph glyph-name="m" unicode="m" horiz-adv-x="751" 
d="M728 3q0 -3 -6 -3q-54 4 -90 4t-83 -4q-7 0 -7 4v9q0 4 8 5q9 2 39 7q9 2 12.5 6.5t3.5 16.5v231q0 93 -82 93q-42 0 -104 -33q-9 -5 -9 -13v-277q0 -13 2.5 -17.5t10.5 -6.5q10 -2 25 -4.5t18 -3.5q8 -2 8 -5v-8q0 -4 -4 -4q-36 4 -87 4q-55 0 -88 -4q-7 -1 -7 3v10
q0 3 7 4q27 4 42 8q16 4 16 24v228q0 95 -80 95q-57 0 -110 -38q-8 -3 -8 -14v-271q0 -21 15 -24q34 -7 46 -8q7 -1 7 -5v-8q0 -5 -8 -4q-21 3 -87 3q-56 0 -86 -3q-7 -1 -7 4v8q0 4 7 5q28 5 43 9q13 3 13 23v234q0 28 -11 42q-8 10 -33 12q-6 0 -7 3q-1 2 -1 7q0 3 7 5
q33 5 49 13q26 12 39 30q6 6 10 6q5 0 5 -10q0 -5 -0.5 -17.5t-0.5 -19.5q0 -5 5 -2q67 52 137 52q77 0 106 -52q2 -4 5 -1q72 53 142 53q115 0 115 -119v-236q0 -21 12 -23q6 -1 14.5 -2.5t17.5 -3t12 -2.5q7 -1 7 -5v-10z" />
    <glyph glyph-name="n" unicode="n" horiz-adv-x="511" 
d="M424 290v-241q0 -21 15 -24q28 -6 41 -8q7 -1 7 -5q0 -5 -1 -8q-1 -4 -6 -4q-37 4 -84 4q-49 0 -86 -4q-6 0 -7 4v8q0 4 7 5q5 1 19 4t21 4q17 3 17 23v230q0 89 -93 89q-53 0 -113 -38q-5 -3 -5 -10v-268q0 -23 14 -26q23 -5 45 -8q7 -1 7 -5v-8q0 -4 -5 -4q-64 4 -90 4
q-47 0 -84 -4q-7 -1 -7 3v9q1 4 7 5q19 3 41 8q15 4 15 26v234q0 46 -42 54q-8 1 -10 3q-6 4 0 10q3 3 10 3q53 3 84 38q6 7 9 7q6 0 6 -7v-43q0 -3 2 -2q91 56 155 56q111 0 111 -114z" />
    <glyph glyph-name="o" unicode="o" horiz-adv-x="466" 
d="M429 198q0 -82 -56 -143t-139 -61q-85 0 -141 61t-56 143t56 144t140 62q86 0 141 -62t55 -144zM363 200q0 75 -35 129t-95 54q-62 0 -96 -53.5t-34 -129.5t33.5 -130t95.5 -54q64 0 97.5 53.5t33.5 130.5z" />
    <glyph glyph-name="p" unicode="p" horiz-adv-x="489" 
d="M453 220q0 -97 -61.5 -161.5t-144.5 -64.5q-45 0 -90 14q-2 1 -3 0.5t-1 -4.5v-235q0 -11 3.5 -15.5t12.5 -6.5q7 -2 50 -7q6 -1 6 -5v-10q0 -4 -6 -4q-40 4 -94 4q-37 0 -85 -4q-5 0 -6 4v10q1 5 5 5q22 2 43 7q14 4 14 25v512q0 29 -9 39.5t-34 11.5q-8 0 -11 4
q-3 3 -1 7q1 3 7 5q54 12 93 46q4 4 7 4q5 0 5 -6v-34q0 -5 5 -2q75 45 132 45q74 0 118.5 -55t44.5 -129zM393 195q0 78 -39.5 127t-100.5 49q-42 0 -88 -28q-12 -8 -12 -23v-265q0 -9 6 -13q45 -27 89 -27q66 0 105.5 50t39.5 130z" />
    <glyph glyph-name="q" unicode="q" horiz-adv-x="473" 
d="M398 395v-625q0 -12 3.5 -16.5t12.5 -6.5q8 -1 22.5 -4t15.5 -3q7 -1 7 -6v-9q0 -5 -8 -4q-40 5 -85 5q-28 0 -95 -5q-4 0 -4 5v9q0 4 4 5q37 7 54 8q15 1 15 23v261q0 4 -5 2t-18 -8.5l-18 -9t-16 -7t-18.5 -6.5t-18 -4.5t-21 -3.5t-22.5 -1q-71 0 -118.5 56.5
t-47.5 136.5q0 97 59 157t147 60q58 0 116 -37q8 -5 11 1l16 32q1 4 6 4q6 0 6 -9zM340 65v261q0 13 -5 17q-45 37 -95 37q-65 0 -104 -46t-39 -119q0 -183 154 -183q37 0 81 19q8 4 8 14z" />
    <glyph glyph-name="r" unicode="r" horiz-adv-x="317" 
d="M320 367q0 -13 -9 -22t-22 -9q-10 0 -25 9q-20 12 -40 12q-28 0 -62 -32q-6 -5 -6 -18v-258q0 -21 14 -24q24 -4 54 -8q8 -1 8 -5v-8q0 -5 -8 -4q-35 4 -98 4q-44 0 -85 -4q-8 -1 -8 3v9q0 3 8 5t22 4.5t20 3.5q15 3 15 23v232q0 28 -9 38.5t-37 17.5q-5 2 -6 4q-2 5 0 7
q2 4 7 4q57 4 92 42q4 5 7 5q4 0 4 -8q-1 -12 -1 -46q0 -6 5 -1q64 61 115 61q19 0 32 -10.5t13 -26.5z" />
    <glyph glyph-name="s" unicode="s" horiz-adv-x="311" 
d="M273 107q0 -44 -37 -78.5t-87 -34.5q-51 0 -91 17q-6 3 -6 7q-1 16 -3.5 41.5t-2.5 32.5q0 4 3 6q4 2 7 2q4 0 5 -6q6 -27 14 -43q1 -2 7 -10q21 -26 64 -26q33 0 53.5 20.5t20.5 49.5q0 38 -36 68q-40 34 -83 65q-48 37 -48 86q0 42 32.5 71t80.5 29q19 0 74 -13
q8 -1 8 -11q0 -33 4 -57q1 -9 -2 -10q-2 -1 -7 -1q-4 0 -6 8q-2 15 -11 33q-3 7 -9 11q-23 19 -56 19q-30 0 -46 -16t-16 -39q0 -20 9 -32.5t34 -31.5q23 -15 69 -53q34 -27 48 -50.5t14 -53.5z" />
    <glyph glyph-name="t" unicode="t" horiz-adv-x="297" 
d="M284 45q0 -4 -4 -8q-45 -43 -109 -43q-82 0 -82 87v276q0 3 -4 3h-34q-7 0 -7 5q0 3 5 6q24 14 46 33q30 27 44 53q1 4 5 4t4 -7v-61q0 -5 4 -5q16 0 69 0.5t54 0.5q8 0 8 -6q1 -9 1 -16t-7 -7h-125q-4 0 -4 -5v-270q0 -62 50 -62q35 0 73 27q6 4 9 1q4 -4 4 -6z" />
    <glyph glyph-name="u" unicode="u" horiz-adv-x="494" 
d="M407 43q0 -9 1 -11t6 -2q6 0 25.5 2t21.5 2q5 0 6 -4q1 -2 1 -10q0 -5 -8 -5q-25 -2 -52 -7q-4 -1 -52 -12q-8 -1 -8 5v40q0 6 -1 6.5t-9 -3.5q-76 -50 -140 -50q-48 0 -77.5 30t-29.5 91v227q0 13 -3 17.5t-11 6.5q-19 3 -42 6q-6 1 -6 5v8q0 4 7 4q36 -2 52 -2
q9 0 27.5 1t23.5 1q10 0 10 -9v-262q0 -43 21.5 -65t71.5 -22q51 0 102 38q5 4 5 11v263q0 14 -1.5 17.5t-9.5 4.5q-6 1 -15.5 2.5t-19.5 3t-14 2.5q-7 2 -7 3v9q1 4 6 4q9 0 31 -1t32 -1q8 0 24.5 1t23.5 1q8 0 8 -8v-338z" />
    <glyph glyph-name="v" unicode="v" horiz-adv-x="438" 
d="M217 -2q-1 -4 -5 -4q-6 0 -8 5q-12 29 -76.5 179.5t-73.5 173.5q-4 9 -18 14q-12 4 -32 8q-6 1 -6 5v6q0 4 6 4q37 -3 79 -3q35 0 92 3q6 0 6 -4v-8q0 -3 -8 -4q-26 -4 -41 -7q-10 -2 -12.5 -6t0.5 -12q61 -155 104 -252q3 -7 5 -9t4.5 0.5t6.5 10.5q77 166 101 250
q6 18 -12 22q-4 1 -9 1.5t-11.5 1.5t-8.5 1q-4 1 -4 5v6q0 4 4 4q38 -3 69 -3q11 0 21.5 0.5t22 1.5t18.5 1q6 0 6 -3v-8q0 -3 -7 -4t-25 -5q-9 -2 -12 -4t-7 -11q-44 -83 -118 -244q-50 -110 -51 -112z" />
    <glyph glyph-name="w" unicode="w" horiz-adv-x="681" 
d="M499 77q-17 -39 -27 -68q-5 -15 -11 -15q-4 0 -10 14q-75 185 -106 250q-4 6 -7 0q-16 -31 -69 -144q-23 -50 -45 -106q-6 -14 -12 -14q-4 0 -9 13q-41 103 -148 345q-4 9 -6.5 11.5t-10.5 4.5q-15 3 -31 5q-5 1 -5 6v6q0 4 5 4q48 -2 74 -2q64 0 89 2q4 0 4 -3v-8
q0 -5 -5 -5l-15 -1q-16 -2 -23 -3q-19 -3 -11 -22q6 -13 30.5 -72.5t46 -110.5t29.5 -69q3 -7 5 -9t4.5 0.5t5.5 9.5q35 77 88 184q4 7 0 17q-10 26 -23 54q-7 15 -16 16q-7 2 -20.5 3.5t-17.5 2.5q-8 2 -8 5v7q0 4 8 4q49 -3 80 -3q44 0 91 3q3 0 4 -3l1 -4v-5q0 -3 -6 -4
q-5 -1 -20 -2.5t-25 -3.5q-17 -3 -11 -19q101 -240 107 -254q3 -7 5 -9t4.5 0t5.5 9q85 197 99 251q4 13 2.5 17.5t-12.5 6.5q-28 4 -34 4t-6 5v7q0 4 6 4q27 -2 65 -2q14 0 64 2q4 0 5 -2q1 -3 1 -9q0 -3 -7 -4q-14 -2 -27 -5q-8 -2 -11 -5t-9 -15q-21 -43 -125 -272z" />
    <glyph glyph-name="x" unicode="x" horiz-adv-x="401" 
d="M402 4q0 -6 -6 -4q-25 4 -78 4q-42 0 -83 -4q-5 0 -6 3t-1 9q0 5 6 5q21 2 34 5q11 3 12.5 7t-3.5 12q-38 64 -85 128q-4 5 -7 1q-46 -68 -83 -129q-9 -16 6 -19q11 -3 42 -5q5 0 5 -5v-9q0 -3 -6 -3q-40 4 -76 4q-25 0 -65 -4q-4 0 -4 3v5l-1 4q0 5 5 5q9 1 32 5
l4.5 1.5t3 1.5t4 4t4.5 5t6.5 7.5t8.5 10.5q33 39 104 133q4 5 -1 11q-8 12 -28 41.5t-46 65.5t-33 47q-9 13 -19 15q-18 5 -27 7q-7 1 -7 6v7q0 4 5 4q68 -2 74 -2q59 0 87 2q4 0 4 -3v-9q0 -3 -5 -4t-12.5 -1.5t-16 -1.5t-11.5 -1q-15 -2 -5 -17q12 -19 41.5 -60.5
t35.5 -51.5q5 -8 9 0q42 60 71 110q10 16 -9 19q-4 1 -13.5 2.5t-15.5 2.5q-5 1 -5 4v7q0 4 5 4q48 -2 64 -2q17 0 65 2q3 0 3 -3v-8q0 -5 -3 -5q-20 -2 -34 -4q-2 0 -3.5 -0.5t-2.5 -1t-2.5 -2l-2.5 -2.5t-3.5 -4.5t-4.5 -5.5q-87 -110 -101 -126q-4 -6 -1 -10
q10 -14 119 -178q8 -11 22 -17q3 -1 8.5 -2l11 -2t7.5 -1q7 -1 7 -5v-8z" />
    <glyph glyph-name="y" unicode="y" horiz-adv-x="437" 
d="M436 376q0 -3 -7 -4q-16 -2 -26 -4q-11 -2 -20 -25q-99 -241 -137 -344q-45 -121 -87 -212q-31 -66 -77 -66q-16 0 -27 9t-11 24t12.5 25t29.5 10q10 0 25 -6q13 -6 21 11q63 126 81 175q5 13 4.5 18.5t-6.5 21.5q-8 18 -78.5 173t-76.5 169q-6 13 -15 15q-5 1 -11 2.5
t-11 3t-6 1.5q-6 1 -6 4q0 8 1 10t3 2q56 -2 80 -2q37 0 83 2q4 0 6 -3q2 -4 2 -9q0 -4 -5 -4q-27 -3 -47 -7q-11 -3 -4 -20q12 -28 58.5 -137t56.5 -133q4 -12 6.5 -12t6.5 10q71 199 90 275q4 16 -10 18q-3 1 -16 2.5t-22 3.5q-7 1 -7 4t2 9q1 3 5 3q3 0 31.5 -1.5
t43.5 -1.5q10 0 20 0.5t21 1.5t18 1q4 0 5 -3l1 -4v-6z" />
    <glyph glyph-name="z" unicode="z" horiz-adv-x="386" 
d="M363 84q-11 -48 -15 -80q-1 -9 -12 -8q-23 2 -73 4q-22 1 -208 1q-7 0 -17.5 -0.5t-16.5 -0.5q-11 0 -3 9q20 24 62 83q12 16 40.5 56t35.5 49q22 29 68.5 91t51.5 69q6 9 -4 9q-122 0 -170 -6q-15 -3 -20 -11q-2 -4 -7.5 -12t-13 -17.5t-10.5 -14.5q-7 -9 -9 -8
q-6 2 -7 3q-3 3 0 8q21 40 36 76q3 5 9 5q73 -3 145 -3q69 0 131 2q9 0 3 -9q-18 -26 -88 -118t-102 -137q-10 -15 -67 -94q-3 -5 -4 -7t0.5 -2.5t5.5 -0.5q126 0 203 7q15 1 22 15q11 22 18 43q3 10 6 10q4 0 8 -2q4 -1 2 -9z" />
    <glyph glyph-name="braceleft" unicode="{" horiz-adv-x="319" 
d="M271 -173q0 -9 -5 -9q-66 0 -97.5 30.5t-31.5 118.5q0 76 -1 105t-7 73t-20.5 70t-40.5 53q-9 9 0 19q26 26 40.5 52.5t20.5 70.5t7 72.5t1 104.5q0 89 30.5 119t98.5 30q5 0 5 -9q0 -8 -6 -8q-23 0 -36.5 -9.5t-20 -33.5t-8 -49t-1.5 -74q0 -96 -14 -152.5t-60 -123.5
q46 -66 60 -123t14 -152q0 -47 2 -73.5t8.5 -50t20 -33t35.5 -9.5q6 0 6 -9z" />
    <glyph glyph-name="bar" unicode="|" horiz-adv-x="253" 
d="M139 -43q0 -16 -7 -18h-11q-8 0 -8 20v719q0 14 1 17q1 4 11 4q13 0 13 -5q0 -2 0.5 -7.5t0.5 -8.5v-194v-335.5v-191.5z" />
    <glyph glyph-name="braceright" unicode="}" horiz-adv-x="319" 
d="M47 -173q0 9 6 9q22 0 35.5 9.5t20 33t8.5 50t2 73.5q0 95 14 152t60 123q-46 67 -60 123.5t-14 152.5q0 93 -11.5 129.5t-54.5 36.5q-6 0 -6 9q0 8 5 8q68 0 98.5 -30t30.5 -119q0 -76 1 -104.5t7 -72.5t20.5 -70.5t40.5 -52.5q10 -9 0 -19q-26 -27 -40.5 -53t-20.5 -70
t-7 -73t-1 -105q0 -88 -31.5 -118.5t-97.5 -30.5q-5 0 -5 9z" />
    <glyph glyph-name="asciitilde" unicode="~" horiz-adv-x="385" 
d="M322 211q-30 -39 -83 -39q-24 0 -60 14q-46 19 -70 18q-22 -2 -36 -13q-9 -7 -13 -4q-7 6 4 20q30 38 80 38q22 0 60 -13q54 -19 71 -19q16 0 38 15q9 6 12 3q7 -7 -3 -20z" />
    <glyph glyph-name="exclamdown" unicode="&#xa1;" horiz-adv-x="253" 
d="M84 56q1 9 7.5 78.5t9.5 119.5q3 44 9 133.5t7 109.5q0 9 11 9q8 0 8 -8q2 -39 15 -244q3 -44 9.5 -113.5t6.5 -84.5q1 -26 -10.5 -43t-30.5 -17q-22 0 -33 16.5t-9 43.5zM87 610q0 17 12 28.5t29 11.5q16 0 28 -11.5t12 -28.5q0 -16 -12 -28t-28 -12q-17 0 -29 12
t-12 28z" />
    <glyph glyph-name="cent" unicode="&#xa2;" horiz-adv-x="400" 
d="M363 355q0 -11 -12 -23q-10 -10 -20 -10t-19 13q-13 19 -38 30q-33 -88 -107 -281q37 -25 77 -25q57 0 101 42q9 8 12 5q1 -1 2.5 -2t2.5 -2t1 -2q4 -4 -6 -12q-36 -35 -68 -52.5t-81 -17.5q-33 0 -61 14q-6 -16 -14 -36.5t-12.5 -33t-7.5 -18.5q-5 -11 -7.5 -13t-10.5 1
q-10 3 -4 18q29 77 35 93q-69 50 -69 149q0 67 34 117t78.5 71t88.5 21h6q7 18 16.5 42t14.5 36.5l7 17.5q3 9 11 2q10 -7 5 -20q-2 -4 -6 -15t-11 -29.5t-14 -35.5q44 -6 64 -24q12 -11 12 -20zM253 372q-6 1 -20 1q-47 0 -86 -40t-39 -113t41 -119q35 92 104 271z" />
    <glyph glyph-name="sterling" unicode="&#xa3;" horiz-adv-x="474" 
d="M292 177q0 -61 -46 -112q50 -39 105 -39q34 0 69 8q7 2 8 -1q3 -5 3 -9q0 -5 -5 -7q-66 -26 -105 -26q-61 0 -110 41q-46 -35 -103 -35q-31 0 -50.5 17t-19.5 42q0 30 24 49.5t56 17.5q34 -1 92 -30q19 30 19 76q0 31 -7 56q-1 4 -5 4h-86q-7 0 -9 3q-4 5 -4 19q0 7 5 7
q11 0 39.5 -1t40.5 -1q6 0 3 5q-18 33 -23 43q-2 4 -12.5 22.5t-13.5 25t-9 20.5t-8 24t-2 21q0 49 40.5 82.5t97.5 33.5q45 0 78.5 -28.5t42.5 -69.5q1 -6 -1 -7q-8 -3 -19 -3q-3 0 -5 5q-26 70 -95 70q-33 0 -57 -19t-24 -56q0 -29 44 -104q5 -10 18.5 -32.5t17.5 -29.5
q3 -4 9 -4q32 -1 86 -1q4 0 4 -5q0 -13 -3 -17q-1 -2 -6 -2h-78q-3 0 -3 -3q7 -37 7 -50zM110 93q-44 0 -44 -35q0 -14 12 -24t33 -10q43 0 74 33q-42 36 -75 36z" />
    <glyph glyph-name="currency" unicode="&#xa4;" horiz-adv-x="547" 
d="M23 287q-2 9 -1 16q0 1 5 3q8 2 66 11q27 100 103.5 158t162.5 58q46 0 82.5 -14.5t55.5 -32.5q13 -13 13 -25q0 -11 -13 -27t-26 -16q-15 0 -27 16q-47 63 -119 63q-61 0 -106.5 -46t-59.5 -125q146 21 199 28q7 1 11 -1q7 -4 10 -21q0 -4 -4 -4q-11 -3 -219 -28
q-3 -20 -3 -40q0 -30 8 -60q152 21 201 29q10 2 12 -2q6 -8 6 -20q0 -4 -7 -5q-76 -9 -205 -28q15 -61 60.5 -94t108.5 -33q48 0 82.5 16.5t67.5 48.5q2 2 6 1q4 -2 7 -8q2 -3 -1 -7q-29 -43 -78 -72.5t-110 -29.5q-79 0 -136.5 45t-80.5 122q-51 -8 -54 -8q-5 0 -6 2
q-1 3 -4 14q-2 6 2 6q5 1 23.5 4t33.5 6q-5 27 -5 53q0 27 3 51q-46 -5 -53 -6q-8 0 -11 2z" />
    <glyph glyph-name="yen" unicode="&#xa5;" horiz-adv-x="630" 
d="M216 328q-15 22 -40.5 61t-41 62.5t-22.5 32.5q-10 15 -21 17q-20 4 -31 5q-6 0 -6 4v10q1 4 7 4q72 -4 91 -4q53 0 101 4q6 0 6 -4v-10q0 -4 -6 -4q-41 -3 -53 -7q-15 -4 -6 -19q75 -115 92 -142q41 5 114 16q50 85 63 117q7 17 5 22.5t-14 7.5q-28 4 -38 4q-6 0 -6 4
q0 2 0.5 6t0.5 5q0 4 6 4q43 -4 83 -4q26 0 70 4q5 0 5 -4q0 -2 -0.5 -5t-0.5 -4q0 -5 -6 -5q-25 -3 -36 -5l-6 -1.5t-4.5 -2.5t-3 -3t-3 -5.5t-3.5 -5.5q-6 -10 -17.5 -28.5t-29.5 -48t-30 -48.5q13 2 25.5 4t19.5 3l7 1q13 0 16 -2q10 -7 14 -19q1 -2 -1 -3.5t-6 -2.5
l-95 -13q-9 -15 -22 -35.5t-21 -33.5t-12 -20q-5 -8 -5 -17v-11q26 4 56.5 8t46.5 6.5t18 2.5q9 1 14 -1q11 -4 13 -11q3 -10 0 -13q-2 -3 -14 -5q-64 -8 -134 -16v-131q0 -13 3 -17.5t13 -5.5q7 -1 27.5 -3.5t27.5 -3.5t7 -4q0 -7 -1 -12q0 -3 -5 -3q-44 4 -96 4
q-58 0 -109 -4q-7 0 -7 3v10q0 4 6 5q8 1 19.5 2.5t22.5 3.5t13 2q9 1 11 5.5t2 17.5v123q-11 -1 -54 -7t-64 -8q-12 -2 -16 -2q-5 0 -7 2q-6 6 -6 18q0 3 5 5q21 4 142 20v10q0 7 -6 16q-2 3 -19.5 30.5t-30.5 46.5q-51 -6 -74 -10q-14 -2 -22 -2q-3 0 -7 4q-5 5 -3 16
q0 4 12 6q8 3 77 11zM303 312l30 -45q3 -5 4.5 -7t3.5 -2.5t3.5 1t3.5 5.5q11 16 34 58q-10 -1 -37 -4.5t-42 -5.5z" />
    <glyph glyph-name="brokenbar" unicode="&#xa6;" 
d="M418 394q-31 -5 -41 4q-9 8 -4 41q3 18 -7 29q-6 7 -17 7q-4 1 -1 5q15 9 31 -6q15 -13 15 -40q37 65 8 94q-14 14 -25 2q-13 -12 -2 -23q5 9 14 2q8 -6 0 -14q-11 -11 -22 2q-23 25 0 48q13 14 30.5 8t24.5 -27q4 21 18 33q14 13 33.5 16.5t35.5 -4.5q12 -6 1 -9
q-21 -8 -39 -26q-39 -39 -65 -109q68 24 109 65q18 18 26 39q3 11 9 -1q8 -16 4.5 -35.5t-16.5 -33.5q-12 -13 -33 -18q21 -7 27 -24.5t-8 -30.5q-23 -23 -48 0q-13 11 -2 22q6 6 14 0q10 -7 -2 -14q10 -10 23 2q11 12 -2 25q-29 29 -94 -8q27 0 40 -15q15 -16 6 -31
q-3 -3 -5 1q0 11 -7 17q-11 10 -29 7zM180 394q-18 3 -29 -7q-7 -6 -7 -17q-1 -4 -5 -1q-9 15 6 31q13 15 40 15q-65 37 -94 8q-13 -13 -2 -25q13 -12 23 -2q-12 7 -2 14q8 6 14 0q11 -11 -2 -22q-25 -23 -48 0q-14 13 -8 30.5t27 24.5q-21 5 -33 18q-13 14 -16.5 33.5
t4.5 35.5q6 12 9 1q8 -21 26 -39q41 -41 109 -65q-26 70 -65 109q-18 18 -39 26q-11 3 1 9q16 8 35.5 4.5t33.5 -16.5q14 -12 18 -33q7 21 24.5 27t30.5 -8q23 -23 0 -48q-11 -13 -22 -2q-8 8 0 14q9 7 14 -2q11 11 -2 23q-11 12 -25 -2q-29 -29 8 -94q0 27 15 40
q16 15 31 6q3 -3 -1 -5q-11 0 -17 -7q-10 -11 -7 -29q5 -33 -4 -41q-10 -9 -41 -4zM404 321q-38 -25 -59 -46q-19 -19 -46 -58q-27 36 -49 58q-25 25 -58 49q34 22 59 46q21 20 46 58q21 -31 49 -57q33 -31 58 -50zM418 248q18 -3 29 7q7 6 7 17q1 4 5 1q9 -15 -6 -31
q-13 -15 -40 -15q65 -37 94 -8q13 13 2 25q-13 12 -23 2q12 -7 2 -14q-8 -6 -14 0q-11 11 2 22q25 23 48 0q14 -13 8 -30.5t-27 -24.5q21 -5 33 -18q13 -14 16.5 -33.5t-4.5 -35.5q-6 -12 -9 -1q-8 21 -26 39q-41 41 -109 65q26 -70 65 -109q18 -18 39 -26q11 -3 -1 -9
q-16 -8 -35.5 -4.5t-33.5 16.5q-14 12 -18 33q-7 -21 -24.5 -27t-30.5 8q-23 23 0 48q11 13 22 2q8 -8 0 -14q-9 -7 -14 2q-11 -11 2 -23q11 -12 25 2q29 29 -8 94q0 -26 -15 -40q-16 -15 -31 -6q-3 3 1 5q11 0 17 7q10 11 7 29q-5 33 4 41q10 9 41 4zM180 248q31 5 41 -4
q9 -8 4 -41q-3 -18 7 -29q6 -7 17 -7q4 -1 1 -5q-15 -9 -31 6q-15 14 -15 40q-37 -65 -8 -94q14 -14 25 -2q13 12 2 23q-5 -9 -14 -2q-8 6 0 14q11 11 22 -2q23 -25 0 -48q-13 -14 -30.5 -8t-24.5 27q-4 -21 -18 -33q-14 -13 -33.5 -16.5t-35.5 4.5q-12 6 -1 9q21 8 39 26
q39 39 65 109q-68 -24 -109 -65q-18 -18 -26 -39q-3 -11 -9 1q-8 16 -4.5 35.5t16.5 33.5q12 13 33 18q-21 7 -27 24.5t8 30.5q23 23 48 0q13 -11 2 -22q-6 -6 -14 0q-10 7 2 14q-10 10 -23 -2q-11 -12 2 -25q29 -29 94 8q-27 0 -40 15q-15 16 -6 31q3 3 5 -1q0 -11 7 -17
q11 -10 29 -7zM334 367q-23 23 -29 33q-14 -27 -34 -43l27 -27zM375 330q-12 6 -34 28l-36 -35l27 -26q30 25 43 33zM291 323l-27 26q-16 -16 -44 -34q20 -11 35 -27zM324 288l-27 27l-34 -35q20 -21 28 -34q5 12 33 42z" />
    <glyph glyph-name="section" unicode="&#xa7;" horiz-adv-x="401" 
d="M217 648q45 0 78 -10q13 -5 14 -8q4 -31 12 -61q1 -6 0 -7q-4 -4 -11 -4q-4 0 -6 7q-2 8 -14 38q-1 3 -9 8.5t-26 10.5t-39 5q-43 0 -63.5 -19.5t-20.5 -52.5q0 -38 59 -81q94 -65 96 -67q59 -46 59 -99q0 -51 -50 -101q32 -36 32 -82q0 -56 -44 -94t-109 -38
q-30 0 -64 12q-6 2 -12.5 5t-12 5.5t-7.5 3.5q-6 4 -8 16l-7 63q-1 7 1 7q6 2 10 2q3 0 5 -5q17 -43 21 -49q25 -36 79 -36q44 0 72 22t28 63q0 44 -61 88q-15 11 -98 69q-61 43 -61 105q0 49 50 101q-20 27 -20 72q0 41 31.5 76t95.5 35zM175 408q-3 3 -22 16.5t-28 21.5
q-24 -28 -24 -60q0 -41 58 -78q40 -26 119 -81q20 31 20 56q0 34 -39 63q-7 5 -40 29.5t-44 32.5z" />
    <glyph glyph-name="dieresis" unicode="&#xa8;" horiz-adv-x="500" 
d="M357 484q0 -13 -9.5 -22t-22.5 -9t-22 9t-9 22q0 14 9 23t22 9t22.5 -9t9.5 -23zM207 484q0 -13 -9.5 -22t-22.5 -9t-22.5 9t-9.5 22q0 14 9.5 23t22.5 9t22.5 -9t9.5 -23z" />
    <glyph glyph-name="copyright" unicode="&#xa9;" horiz-adv-x="666" 
d="M621 357q0 -118 -83.5 -201.5t-202.5 -83.5t-202 83t-83 202t83 202t202 83t202.5 -83.5t83.5 -201.5zM594 357q0 107 -76 183.5t-183 76.5t-182.5 -76.5t-75.5 -183.5t75.5 -183.5t182.5 -76.5t183 76.5t76 183.5zM462 280q-3 -38 -2 -50q0 -5 -6 -9q-46 -32 -113 -32
q-77 0 -125.5 50t-48.5 121q0 67 49 117t131 50q60 0 97 -20q4 -1 4 -5q4 -26 9 -47q1 -5 0 -6q-2 -2 -7 -2q-2 0 -4 4q-12 30 -15 32q-36 25 -86 25q-60 0 -96 -39t-36 -106q0 -63 31.5 -108.5t96.5 -45.5q48 0 93 28q6 4 8 12q4 10 8 29q1 6 4 6h5q3 0 3 -4z" />
    <glyph glyph-name="ordfeminine" unicode="&#xaa;" horiz-adv-x="323" 
d="M276 406q-18 -9 -31 -9q-28 0 -38 24q-2 6 -8 3q-10 -5 -52 -23q-11 -4 -22 -4q-12 0 -24 10q-24 19 -24 49q0 26 26 40q15 8 51 24t41 18q9 4 9 13v22q0 30 -9 43t-32 13q-18 0 -29.5 -7t-13.5 -15q-2 -16 -12 -21t-14 -5q-11 0 -11 11q0 19 30.5 37.5t72.5 18.5
q25 0 41 -14t16 -41v-151q0 -26 19 -26q5 0 11 2t8 -3q1 -6 -5 -9zM279 359q-2 -8 -6 -12q-5 -5 -12 -5q-129 0 -170 -1q-13 0 -13 6q0 5 2 11q1 7 18 7q16 0 85 0.5t78 0.5t13 -1t5 -2t0 -4zM203 515q0 7 -0.5 8t-5.5 0q-41 -16 -67 -34q-12 -9 -12 -26t8 -29.5t25 -12.5
q16 0 47 18q5 3 5 9v67z" />
    <glyph glyph-name="guillemotleft" unicode="&#xab;" horiz-adv-x="400" 
d="M352 80q5 -5 -3 -11q-7 -6 -17 2q-7 6 -70.5 62.5t-79.5 71.5q-10 10 -10 15t10 14q140 126 150 136q7 7 17 1q7 -5 3 -11q-96 -107 -120 -136q-3 -3 1 -9q4 -4 56.5 -63t62.5 -72zM197 80q5 -5 -3 -11q-8 -5 -17 2q-8 8 -72.5 65.5t-76.5 68.5q-10 9 -10 14.5t10 14.5
q16 15 76.5 69.5t73.5 66.5q7 7 16 1q8 -5 3 -11q-96 -107 -120 -136q-3 -3 1 -9q86 -95 119 -135z" />
    <glyph glyph-name="logicalnot" unicode="&#xac;" 
d="M418 394q-31 -5 -41 4q-9 8 -4 41q3 18 -7 29q-6 7 -17 7q-4 1 -1 5q15 9 31 -6q15 -13 15 -40q37 65 8 94q-14 14 -25 2q-13 -12 -2 -23q5 9 14 2q8 -6 0 -14q-11 -11 -22 2q-23 25 0 48q13 14 30.5 8t24.5 -27q4 21 18 33q14 13 33.5 16.5t35.5 -4.5q12 -6 1 -9
q-21 -8 -39 -26q-39 -39 -65 -109q68 24 109 65q18 18 26 39q3 11 9 -1q8 -16 4.5 -35.5t-16.5 -33.5q-12 -13 -33 -18q21 -7 27 -24.5t-8 -30.5q-23 -23 -48 0q-13 11 -2 22q6 6 14 0q10 -7 -2 -14q10 -10 23 2q11 12 -2 25q-29 29 -94 -8q27 0 40 -15q15 -16 6 -31
q-3 -3 -5 1q0 11 -7 17q-11 10 -29 7zM180 394q-18 3 -29 -7q-7 -6 -7 -17q-1 -4 -5 -1q-9 15 6 31q13 15 40 15q-65 37 -94 8q-13 -13 -2 -25q13 -12 23 -2q-12 7 -2 14q8 6 14 0q11 -11 -2 -22q-25 -23 -48 0q-14 13 -8 30.5t27 24.5q-21 5 -33 18q-13 14 -16.5 33.5
t4.5 35.5q6 12 9 1q8 -21 26 -39q41 -41 109 -65q-26 70 -65 109q-18 18 -39 26q-11 3 1 9q16 8 35.5 4.5t33.5 -16.5q14 -12 18 -33q7 21 24.5 27t30.5 -8q23 -23 0 -48q-11 -13 -22 -2q-8 8 0 14q9 7 14 -2q11 11 -2 23q-11 12 -25 -2q-29 -29 8 -94q0 27 15 40
q16 15 31 6q3 -3 -1 -5q-11 0 -17 -7q-10 -11 -7 -29q5 -33 -4 -41q-10 -9 -41 -4zM404 321q-38 -25 -59 -46q-19 -19 -46 -58q-27 36 -49 58q-25 25 -58 49q34 22 59 46q21 20 46 58q21 -31 49 -57q33 -31 58 -50zM418 248q18 -3 29 7q7 6 7 17q1 4 5 1q9 -15 -6 -31
q-13 -15 -40 -15q65 -37 94 -8q13 13 2 25q-13 12 -23 2q12 -7 2 -14q-8 -6 -14 0q-11 11 2 22q25 23 48 0q14 -13 8 -30.5t-27 -24.5q21 -5 33 -18q13 -14 16.5 -33.5t-4.5 -35.5q-6 -12 -9 -1q-8 21 -26 39q-41 41 -109 65q26 -70 65 -109q18 -18 39 -26q11 -3 -1 -9
q-16 -8 -35.5 -4.5t-33.5 16.5q-14 12 -18 33q-7 -21 -24.5 -27t-30.5 8q-23 23 0 48q11 13 22 2q8 -8 0 -14q-9 -7 -14 2q-11 -11 2 -23q11 -12 25 2q29 29 -8 94q0 -26 -15 -40q-16 -15 -31 -6q-3 3 1 5q11 0 17 7q10 11 7 29q-5 33 4 41q10 9 41 4zM180 248q31 5 41 -4
q9 -8 4 -41q-3 -18 7 -29q6 -7 17 -7q4 -1 1 -5q-15 -9 -31 6q-15 14 -15 40q-37 -65 -8 -94q14 -14 25 -2q13 12 2 23q-5 -9 -14 -2q-8 6 0 14q11 11 22 -2q23 -25 0 -48q-13 -14 -30.5 -8t-24.5 27q-4 -21 -18 -33q-14 -13 -33.5 -16.5t-35.5 4.5q-12 6 -1 9q21 8 39 26
q39 39 65 109q-68 -24 -109 -65q-18 -18 -26 -39q-3 -11 -9 1q-8 16 -4.5 35.5t16.5 33.5q12 13 33 18q-21 7 -27 24.5t8 30.5q23 23 48 0q13 -11 2 -22q-6 -6 -14 0q-10 7 2 14q-10 10 -23 -2q-11 -12 2 -25q29 -29 94 8q-27 0 -40 15q-15 16 -6 31q3 3 5 -1q0 -11 7 -17
q11 -10 29 -7zM334 367q-23 23 -29 33q-14 -27 -34 -43l27 -27zM375 330q-12 6 -34 28l-36 -35l27 -26q30 25 43 33zM291 323l-27 26q-16 -16 -44 -34q20 -11 35 -27zM324 288l-27 27l-34 -35q20 -21 28 -34q5 12 33 42z" />
    <glyph glyph-name="registered" unicode="&#xae;" horiz-adv-x="686" 
d="M631 357q0 -118 -83.5 -201.5t-202.5 -83.5t-202 83t-83 202t83 202t202 83t202.5 -83.5t83.5 -201.5zM604 357q0 107 -76 183.5t-183 76.5t-182.5 -76.5t-75.5 -183.5t75.5 -183.5t182.5 -76.5t183 76.5t76 183.5zM524 204q0 -2 -4 -4q-12 -5 -27 -5q-17 0 -30 6
q-17 7 -29 24q-23 34 -84 122q-10 15 -28 15q-11 0 -13.5 -1.5t-2.5 -6.5v-124q0 -14 9 -15q13 -2 39 -4q2 0 2 -3v-7q0 -3 -2 -3q-10 0 -36.5 1t-33.5 1q-21 0 -65 -2q-3 0 -3 3v8q0 2 3 2t17.5 1t18.5 2q9 1 9 15v282q0 11 -9 12q-6 1 -18 2.5t-13 1.5q-6 1 -6 3v6
q0 3 2 3q42 -3 61 -3q8 0 34 1.5t47 1.5q38 0 64 -24t26 -60q0 -54 -68 -79q-6 -2 -3 -7q70 -109 99 -143q16 -17 26 -17q6 0 12 2q3 1 5 -2q1 -1 1 -5zM408 455q0 29 -18 48t-49 19q-17 0 -27 -3q-8 -2 -8 -11v-127q0 -3 10 -3q92 0 92 77z" />
    <glyph glyph-name="macron" unicode="&#xaf;" horiz-adv-x="500" 
d="M352 459q-4 -5 -11 -5h-188q-9 0 -9 6q0 12 3 20q2 6 9 6h190q8 0 9 -6q3 -13 -3 -21z" />
    <glyph glyph-name="macron" unicode="&#x2c9;" horiz-adv-x="500" 
d="M352 459q-4 -5 -11 -5h-188q-9 0 -9 6q0 12 3 20q2 6 9 6h190q8 0 9 -6q3 -13 -3 -21z" />
    <glyph glyph-name="degree" unicode="&#xb0;" horiz-adv-x="259" 
d="M212 566q0 -34 -24 -58t-59 -24t-58.5 24t-23.5 58t23.5 58t58.5 24t59 -24t24 -58zM181 567q0 22 -15 37.5t-37 15.5t-37 -15.5t-15 -37.5t15 -37.5t37 -15.5t37 15.5t15 37.5z" />
    <glyph glyph-name="plusminus" unicode="&#xb1;" horiz-adv-x="678" 
d="M595 667v-623q0 -16 12 -19q18 -4 45 -8q7 0 7 -4v-10q-2 -4 -7 -3q-39 4 -86 4q-53 0 -84 -4q-6 -2 -6 3v10q0 4 6 5q7 1 23.5 4t17.5 3q13 2 13 19v578q-14 -7 -39 -7q-20 0 -52 15q-7 4 -14 4q-27 -15 -41 -45.5t-14 -95.5v-100q0 -4 3 -4h73q8 0 8 -5q1 -6 1 -17
q0 -6 -5 -6h-76q-4 0 -4 -6v-309q0 -20 12 -22q6 -1 25.5 -3.5t25.5 -3.5t6 -5v-8q0 -4 -6 -4q-47 3 -92 3q-55 0 -88 -3q-6 0 -6 5v7q0 4 6 5t46 8q8 1 10 4.5t2 16.5v310q0 5 -4 5h-156q-4 0 -4 -5v-310q0 -20 13 -22q48 -6 51 -7q6 -1 6 -5v-8q0 -4 -6 -4q-48 3 -93 3
q-53 0 -87 -3q-5 0 -5 5v8q0 4 5 5q16 1 45 7q8 1 10.5 4.5t2.5 16.5v309q0 6 -3 6q-7 0 -23 -1t-20 -1q-7 0 -7 7v19q0 4 5 4h45q3 0 3 5v61q0 84 50 148t119 64q40 0 40 -27q0 -26 -33 -26q-25 0 -49 10q-10 4 -18 3q-51 -29 -51 -137v-97q0 -4 3 -4h158q3 0 3 5v64
q0 87 44.5 149.5t118.5 62.5q38 0 52 -16q21 4 53 18q10 4 10 -5z" />
    <glyph glyph-name="twosuperior" unicode="&#xb2;" 
d="M418 394q-31 -5 -41 4q-9 8 -4 41q3 18 -7 29q-6 7 -17 7q-4 1 -1 5q15 9 31 -6q15 -13 15 -40q37 65 8 94q-14 14 -25 2q-13 -12 -2 -23q5 9 14 2q8 -6 0 -14q-11 -11 -22 2q-23 25 0 48q13 14 30.5 8t24.5 -27q4 21 18 33q14 13 33.5 16.5t35.5 -4.5q12 -6 1 -9
q-21 -8 -39 -26q-39 -39 -65 -109q68 24 109 65q18 18 26 39q3 11 9 -1q8 -16 4.5 -35.5t-16.5 -33.5q-12 -13 -33 -18q21 -7 27 -24.5t-8 -30.5q-23 -23 -48 0q-13 11 -2 22q6 6 14 0q10 -7 -2 -14q10 -10 23 2q11 12 -2 25q-29 29 -94 -8q27 0 40 -15q15 -16 6 -31
q-3 -3 -5 1q0 11 -7 17q-11 10 -29 7zM180 394q-18 3 -29 -7q-7 -6 -7 -17q-1 -4 -5 -1q-9 15 6 31q13 15 40 15q-65 37 -94 8q-13 -13 -2 -25q13 -12 23 -2q-12 7 -2 14q8 6 14 0q11 -11 -2 -22q-25 -23 -48 0q-14 13 -8 30.5t27 24.5q-21 5 -33 18q-13 14 -16.5 33.5
t4.5 35.5q6 12 9 1q8 -21 26 -39q41 -41 109 -65q-26 70 -65 109q-18 18 -39 26q-11 3 1 9q16 8 35.5 4.5t33.5 -16.5q14 -12 18 -33q7 21 24.5 27t30.5 -8q23 -23 0 -48q-11 -13 -22 -2q-8 8 0 14q9 7 14 -2q11 11 -2 23q-11 12 -25 -2q-29 -29 8 -94q0 27 15 40
q16 15 31 6q3 -3 -1 -5q-11 0 -17 -7q-10 -11 -7 -29q5 -33 -4 -41q-10 -9 -41 -4zM404 321q-38 -25 -59 -46q-19 -19 -46 -58q-27 36 -49 58q-25 25 -58 49q34 22 59 46q21 20 46 58q21 -31 49 -57q33 -31 58 -50zM418 248q18 -3 29 7q7 6 7 17q1 4 5 1q9 -15 -6 -31
q-13 -15 -40 -15q65 -37 94 -8q13 13 2 25q-13 12 -23 2q12 -7 2 -14q-8 -6 -14 0q-11 11 2 22q25 23 48 0q14 -13 8 -30.5t-27 -24.5q21 -5 33 -18q13 -14 16.5 -33.5t-4.5 -35.5q-6 -12 -9 -1q-8 21 -26 39q-41 41 -109 65q26 -70 65 -109q18 -18 39 -26q11 -3 -1 -9
q-16 -8 -35.5 -4.5t-33.5 16.5q-14 12 -18 33q-7 -21 -24.5 -27t-30.5 8q-23 23 0 48q11 13 22 2q8 -8 0 -14q-9 -7 -14 2q-11 -11 2 -23q11 -12 25 2q29 29 -8 94q0 -26 -15 -40q-16 -15 -31 -6q-3 3 1 5q11 0 17 7q10 11 7 29q-5 33 4 41q10 9 41 4zM180 248q31 5 41 -4
q9 -8 4 -41q-3 -18 7 -29q6 -7 17 -7q4 -1 1 -5q-15 -9 -31 6q-15 14 -15 40q-37 -65 -8 -94q14 -14 25 -2q13 12 2 23q-5 -9 -14 -2q-8 6 0 14q11 11 22 -2q23 -25 0 -48q-13 -14 -30.5 -8t-24.5 27q-4 -21 -18 -33q-14 -13 -33.5 -16.5t-35.5 4.5q-12 6 -1 9q21 8 39 26
q39 39 65 109q-68 -24 -109 -65q-18 -18 -26 -39q-3 -11 -9 1q-8 16 -4.5 35.5t16.5 33.5q12 13 33 18q-21 7 -27 24.5t8 30.5q23 23 48 0q13 -11 2 -22q-6 -6 -14 0q-10 7 2 14q-10 10 -23 -2q-11 -12 2 -25q29 -29 94 8q-27 0 -40 15q-15 16 -6 31q3 3 5 -1q0 -11 7 -17
q11 -10 29 -7zM334 367q-23 23 -29 33q-14 -27 -34 -43l27 -27zM375 330q-12 6 -34 28l-36 -35l27 -26q30 25 43 33zM291 323l-27 26q-16 -16 -44 -34q20 -11 35 -27zM324 288l-27 27l-34 -35q20 -21 28 -34q5 12 33 42z" />
    <glyph glyph-name="threesuperior" unicode="&#xb3;" 
d="M418 394q-31 -5 -41 4q-9 8 -4 41q3 18 -7 29q-6 7 -17 7q-4 1 -1 5q15 9 31 -6q15 -13 15 -40q37 65 8 94q-14 14 -25 2q-13 -12 -2 -23q5 9 14 2q8 -6 0 -14q-11 -11 -22 2q-23 25 0 48q13 14 30.5 8t24.5 -27q4 21 18 33q14 13 33.5 16.5t35.5 -4.5q12 -6 1 -9
q-21 -8 -39 -26q-39 -39 -65 -109q68 24 109 65q18 18 26 39q3 11 9 -1q8 -16 4.5 -35.5t-16.5 -33.5q-12 -13 -33 -18q21 -7 27 -24.5t-8 -30.5q-23 -23 -48 0q-13 11 -2 22q6 6 14 0q10 -7 -2 -14q10 -10 23 2q11 12 -2 25q-29 29 -94 -8q27 0 40 -15q15 -16 6 -31
q-3 -3 -5 1q0 11 -7 17q-11 10 -29 7zM180 394q-18 3 -29 -7q-7 -6 -7 -17q-1 -4 -5 -1q-9 15 6 31q13 15 40 15q-65 37 -94 8q-13 -13 -2 -25q13 -12 23 -2q-12 7 -2 14q8 6 14 0q11 -11 -2 -22q-25 -23 -48 0q-14 13 -8 30.5t27 24.5q-21 5 -33 18q-13 14 -16.5 33.5
t4.5 35.5q6 12 9 1q8 -21 26 -39q41 -41 109 -65q-26 70 -65 109q-18 18 -39 26q-11 3 1 9q16 8 35.5 4.5t33.5 -16.5q14 -12 18 -33q7 21 24.5 27t30.5 -8q23 -23 0 -48q-11 -13 -22 -2q-8 8 0 14q9 7 14 -2q11 11 -2 23q-11 12 -25 -2q-29 -29 8 -94q0 27 15 40
q16 15 31 6q3 -3 -1 -5q-11 0 -17 -7q-10 -11 -7 -29q5 -33 -4 -41q-10 -9 -41 -4zM404 321q-38 -25 -59 -46q-19 -19 -46 -58q-27 36 -49 58q-25 25 -58 49q34 22 59 46q21 20 46 58q21 -31 49 -57q33 -31 58 -50zM418 248q18 -3 29 7q7 6 7 17q1 4 5 1q9 -15 -6 -31
q-13 -15 -40 -15q65 -37 94 -8q13 13 2 25q-13 12 -23 2q12 -7 2 -14q-8 -6 -14 0q-11 11 2 22q25 23 48 0q14 -13 8 -30.5t-27 -24.5q21 -5 33 -18q13 -14 16.5 -33.5t-4.5 -35.5q-6 -12 -9 -1q-8 21 -26 39q-41 41 -109 65q26 -70 65 -109q18 -18 39 -26q11 -3 -1 -9
q-16 -8 -35.5 -4.5t-33.5 16.5q-14 12 -18 33q-7 -21 -24.5 -27t-30.5 8q-23 23 0 48q11 13 22 2q8 -8 0 -14q-9 -7 -14 2q-11 -11 2 -23q11 -12 25 2q29 29 -8 94q0 -26 -15 -40q-16 -15 -31 -6q-3 3 1 5q11 0 17 7q10 11 7 29q-5 33 4 41q10 9 41 4zM180 248q31 5 41 -4
q9 -8 4 -41q-3 -18 7 -29q6 -7 17 -7q4 -1 1 -5q-15 -9 -31 6q-15 14 -15 40q-37 -65 -8 -94q14 -14 25 -2q13 12 2 23q-5 -9 -14 -2q-8 6 0 14q11 11 22 -2q23 -25 0 -48q-13 -14 -30.5 -8t-24.5 27q-4 -21 -18 -33q-14 -13 -33.5 -16.5t-35.5 4.5q-12 6 -1 9q21 8 39 26
q39 39 65 109q-68 -24 -109 -65q-18 -18 -26 -39q-3 -11 -9 1q-8 16 -4.5 35.5t16.5 33.5q12 13 33 18q-21 7 -27 24.5t8 30.5q23 23 48 0q13 -11 2 -22q-6 -6 -14 0q-10 7 2 14q-10 10 -23 -2q-11 -12 2 -25q29 -29 94 8q-27 0 -40 15q-15 16 -6 31q3 3 5 -1q0 -11 7 -17
q11 -10 29 -7zM334 367q-23 23 -29 33q-14 -27 -34 -43l27 -27zM375 330q-12 6 -34 28l-36 -35l27 -26q30 25 43 33zM291 323l-27 26q-16 -16 -44 -34q20 -11 35 -27zM324 288l-27 27l-34 -35q20 -21 28 -34q5 12 33 42z" />
    <glyph glyph-name="acute" unicode="&#xb4;" horiz-adv-x="500" 
d="M199 465q10 10 48 49t44 45q11 11 22 11q10 0 16.5 -6.5t6.5 -16.5q0 -15 -21 -28q-6 -4 -52.5 -31t-55.5 -33q-2 -1 -5 -1t-4 1q-4 5 1 10z" />
    <glyph glyph-name="mu" unicode="&#xb5;" 
d="M418 394q-31 -5 -41 4q-9 8 -4 41q3 18 -7 29q-6 7 -17 7q-4 1 -1 5q15 9 31 -6q15 -13 15 -40q37 65 8 94q-14 14 -25 2q-13 -12 -2 -23q5 9 14 2q8 -6 0 -14q-11 -11 -22 2q-23 25 0 48q13 14 30.5 8t24.5 -27q4 21 18 33q14 13 33.5 16.5t35.5 -4.5q12 -6 1 -9
q-21 -8 -39 -26q-39 -39 -65 -109q68 24 109 65q18 18 26 39q3 11 9 -1q8 -16 4.5 -35.5t-16.5 -33.5q-12 -13 -33 -18q21 -7 27 -24.5t-8 -30.5q-23 -23 -48 0q-13 11 -2 22q6 6 14 0q10 -7 -2 -14q10 -10 23 2q11 12 -2 25q-29 29 -94 -8q27 0 40 -15q15 -16 6 -31
q-3 -3 -5 1q0 11 -7 17q-11 10 -29 7zM180 394q-18 3 -29 -7q-7 -6 -7 -17q-1 -4 -5 -1q-9 15 6 31q13 15 40 15q-65 37 -94 8q-13 -13 -2 -25q13 -12 23 -2q-12 7 -2 14q8 6 14 0q11 -11 -2 -22q-25 -23 -48 0q-14 13 -8 30.5t27 24.5q-21 5 -33 18q-13 14 -16.5 33.5
t4.5 35.5q6 12 9 1q8 -21 26 -39q41 -41 109 -65q-26 70 -65 109q-18 18 -39 26q-11 3 1 9q16 8 35.5 4.5t33.5 -16.5q14 -12 18 -33q7 21 24.5 27t30.5 -8q23 -23 0 -48q-11 -13 -22 -2q-8 8 0 14q9 7 14 -2q11 11 -2 23q-11 12 -25 -2q-29 -29 8 -94q0 27 15 40
q16 15 31 6q3 -3 -1 -5q-11 0 -17 -7q-10 -11 -7 -29q5 -33 -4 -41q-10 -9 -41 -4zM404 321q-38 -25 -59 -46q-19 -19 -46 -58q-27 36 -49 58q-25 25 -58 49q34 22 59 46q21 20 46 58q21 -31 49 -57q33 -31 58 -50zM418 248q18 -3 29 7q7 6 7 17q1 4 5 1q9 -15 -6 -31
q-13 -15 -40 -15q65 -37 94 -8q13 13 2 25q-13 12 -23 2q12 -7 2 -14q-8 -6 -14 0q-11 11 2 22q25 23 48 0q14 -13 8 -30.5t-27 -24.5q21 -5 33 -18q13 -14 16.5 -33.5t-4.5 -35.5q-6 -12 -9 -1q-8 21 -26 39q-41 41 -109 65q26 -70 65 -109q18 -18 39 -26q11 -3 -1 -9
q-16 -8 -35.5 -4.5t-33.5 16.5q-14 12 -18 33q-7 -21 -24.5 -27t-30.5 8q-23 23 0 48q11 13 22 2q8 -8 0 -14q-9 -7 -14 2q-11 -11 2 -23q11 -12 25 2q29 29 -8 94q0 -26 -15 -40q-16 -15 -31 -6q-3 3 1 5q11 0 17 7q10 11 7 29q-5 33 4 41q10 9 41 4zM180 248q31 5 41 -4
q9 -8 4 -41q-3 -18 7 -29q6 -7 17 -7q4 -1 1 -5q-15 -9 -31 6q-15 14 -15 40q-37 -65 -8 -94q14 -14 25 -2q13 12 2 23q-5 -9 -14 -2q-8 6 0 14q11 11 22 -2q23 -25 0 -48q-13 -14 -30.5 -8t-24.5 27q-4 -21 -18 -33q-14 -13 -33.5 -16.5t-35.5 4.5q-12 6 -1 9q21 8 39 26
q39 39 65 109q-68 -24 -109 -65q-18 -18 -26 -39q-3 -11 -9 1q-8 16 -4.5 35.5t16.5 33.5q12 13 33 18q-21 7 -27 24.5t8 30.5q23 23 48 0q13 -11 2 -22q-6 -6 -14 0q-10 7 2 14q-10 10 -23 -2q-11 -12 2 -25q29 -29 94 8q-27 0 -40 15q-15 16 -6 31q3 3 5 -1q0 -11 7 -17
q11 -10 29 -7zM334 367q-23 23 -29 33q-14 -27 -34 -43l27 -27zM375 330q-12 6 -34 28l-36 -35l27 -26q30 25 43 33zM291 323l-27 26q-16 -16 -44 -34q20 -11 35 -27zM324 288l-27 27l-34 -35q20 -21 28 -34q5 12 33 42z" />
    <glyph glyph-name="mu" unicode="&#x3bc;" 
d="M418 394q-31 -5 -41 4q-9 8 -4 41q3 18 -7 29q-6 7 -17 7q-4 1 -1 5q15 9 31 -6q15 -13 15 -40q37 65 8 94q-14 14 -25 2q-13 -12 -2 -23q5 9 14 2q8 -6 0 -14q-11 -11 -22 2q-23 25 0 48q13 14 30.5 8t24.5 -27q4 21 18 33q14 13 33.5 16.5t35.5 -4.5q12 -6 1 -9
q-21 -8 -39 -26q-39 -39 -65 -109q68 24 109 65q18 18 26 39q3 11 9 -1q8 -16 4.5 -35.5t-16.5 -33.5q-12 -13 -33 -18q21 -7 27 -24.5t-8 -30.5q-23 -23 -48 0q-13 11 -2 22q6 6 14 0q10 -7 -2 -14q10 -10 23 2q11 12 -2 25q-29 29 -94 -8q27 0 40 -15q15 -16 6 -31
q-3 -3 -5 1q0 11 -7 17q-11 10 -29 7zM180 394q-18 3 -29 -7q-7 -6 -7 -17q-1 -4 -5 -1q-9 15 6 31q13 15 40 15q-65 37 -94 8q-13 -13 -2 -25q13 -12 23 -2q-12 7 -2 14q8 6 14 0q11 -11 -2 -22q-25 -23 -48 0q-14 13 -8 30.5t27 24.5q-21 5 -33 18q-13 14 -16.5 33.5
t4.5 35.5q6 12 9 1q8 -21 26 -39q41 -41 109 -65q-26 70 -65 109q-18 18 -39 26q-11 3 1 9q16 8 35.5 4.5t33.5 -16.5q14 -12 18 -33q7 21 24.5 27t30.5 -8q23 -23 0 -48q-11 -13 -22 -2q-8 8 0 14q9 7 14 -2q11 11 -2 23q-11 12 -25 -2q-29 -29 8 -94q0 27 15 40
q16 15 31 6q3 -3 -1 -5q-11 0 -17 -7q-10 -11 -7 -29q5 -33 -4 -41q-10 -9 -41 -4zM404 321q-38 -25 -59 -46q-19 -19 -46 -58q-27 36 -49 58q-25 25 -58 49q34 22 59 46q21 20 46 58q21 -31 49 -57q33 -31 58 -50zM418 248q18 -3 29 7q7 6 7 17q1 4 5 1q9 -15 -6 -31
q-13 -15 -40 -15q65 -37 94 -8q13 13 2 25q-13 12 -23 2q12 -7 2 -14q-8 -6 -14 0q-11 11 2 22q25 23 48 0q14 -13 8 -30.5t-27 -24.5q21 -5 33 -18q13 -14 16.5 -33.5t-4.5 -35.5q-6 -12 -9 -1q-8 21 -26 39q-41 41 -109 65q26 -70 65 -109q18 -18 39 -26q11 -3 -1 -9
q-16 -8 -35.5 -4.5t-33.5 16.5q-14 12 -18 33q-7 -21 -24.5 -27t-30.5 8q-23 23 0 48q11 13 22 2q8 -8 0 -14q-9 -7 -14 2q-11 -11 2 -23q11 -12 25 2q29 29 -8 94q0 -26 -15 -40q-16 -15 -31 -6q-3 3 1 5q11 0 17 7q10 11 7 29q-5 33 4 41q10 9 41 4zM180 248q31 5 41 -4
q9 -8 4 -41q-3 -18 7 -29q6 -7 17 -7q4 -1 1 -5q-15 -9 -31 6q-15 14 -15 40q-37 -65 -8 -94q14 -14 25 -2q13 12 2 23q-5 -9 -14 -2q-8 6 0 14q11 11 22 -2q23 -25 0 -48q-13 -14 -30.5 -8t-24.5 27q-4 -21 -18 -33q-14 -13 -33.5 -16.5t-35.5 4.5q-12 6 -1 9q21 8 39 26
q39 39 65 109q-68 -24 -109 -65q-18 -18 -26 -39q-3 -11 -9 1q-8 16 -4.5 35.5t16.5 33.5q12 13 33 18q-21 7 -27 24.5t8 30.5q23 23 48 0q13 -11 2 -22q-6 -6 -14 0q-10 7 2 14q-10 10 -23 -2q-11 -12 2 -25q29 -29 94 8q-27 0 -40 15q-15 16 -6 31q3 3 5 -1q0 -11 7 -17
q11 -10 29 -7zM334 367q-23 23 -29 33q-14 -27 -34 -43l27 -27zM375 330q-12 6 -34 28l-36 -35l27 -26q30 25 43 33zM291 323l-27 26q-16 -16 -44 -34q20 -11 35 -27zM324 288l-27 27l-34 -35q20 -21 28 -34q5 12 33 42z" />
    <glyph glyph-name="paragraph" unicode="&#xb6;" horiz-adv-x="489" 
d="M474 625q-2 -4 -7 -4q-7 0 -31 1t-32 0q-14 -1 -17.5 -3.5t-3.5 -15.5v-735q0 -5 0.5 -7t2 -5t6 -4.5t11.5 -3.5q4 -1 12.5 -2.5t22.5 -3.5t26 -4q7 -1 7 -4v-15q0 -4 -5 -4q-107 10 -140 10q-103 0 -164 -5q-7 0 -7 4v13q0 6 7 6q74 5 78 6q14 2 20 7t7 11t1 20
q0 31 2.5 370t2.5 347q0 13 -4.5 16t-17.5 3q-10 0 -12.5 -4t-3.5 -15q-5 -71 -1 -183q1 -27 2 -69t2 -70t3 -44q2 -21 -13 -21q-78 0 -144.5 60t-66.5 159q0 95 64 153t166 58q29 0 67 -0.5t48 -0.5q74 0 105 -2q8 0 8 -6q0 -9 -1 -13zM351 -132v742q0 8 -3 10t-18 2
q-17 0 -21 -2t-4 -13q-4 -132 -4 -738q0 -12 8 -14q18 -5 29 -3q9 1 11 4t2 12z" />
    <glyph glyph-name="periodcentered" unicode="&#xb7;" horiz-adv-x="250" 
d="M166 320q0 -21 -14 -35t-35 -14t-34.5 14t-13.5 35q0 19 14 33t34 14q21 0 35 -14t14 -33z" />
    <glyph glyph-name="periodcentered" unicode="&#x2219;" horiz-adv-x="250" 
d="M166 320q0 -21 -14 -35t-35 -14t-34.5 14t-13.5 35q0 19 14 33t34 14q21 0 35 -14t14 -33z" />
    <glyph glyph-name="cedilla" unicode="&#xb8;" horiz-adv-x="500" 
d="M278 2h15q3 0 2 -3q-9 -25 -22 -38q8 4 18 4q24 0 39.5 -15.5t15.5 -40.5q0 -23 -17 -39.5t-44 -16.5q-30 0 -52 22q-3 3 -1 8q3 6 10 3q22 -9 36 -9q16 0 26 9t10 24q0 32 -33 32q-9 0 -18 -3q-4 -1 -8 1q-8 6 -9 10q-2 5 2 8q16 15 25 39q1 5 5 5z" />
    <glyph glyph-name="onesuperior" unicode="&#xb9;" 
d="M418 394q-31 -5 -41 4q-9 8 -4 41q3 18 -7 29q-6 7 -17 7q-4 1 -1 5q15 9 31 -6q15 -13 15 -40q37 65 8 94q-14 14 -25 2q-13 -12 -2 -23q5 9 14 2q8 -6 0 -14q-11 -11 -22 2q-23 25 0 48q13 14 30.5 8t24.5 -27q4 21 18 33q14 13 33.5 16.5t35.5 -4.5q12 -6 1 -9
q-21 -8 -39 -26q-39 -39 -65 -109q68 24 109 65q18 18 26 39q3 11 9 -1q8 -16 4.5 -35.5t-16.5 -33.5q-12 -13 -33 -18q21 -7 27 -24.5t-8 -30.5q-23 -23 -48 0q-13 11 -2 22q6 6 14 0q10 -7 -2 -14q10 -10 23 2q11 12 -2 25q-29 29 -94 -8q27 0 40 -15q15 -16 6 -31
q-3 -3 -5 1q0 11 -7 17q-11 10 -29 7zM180 394q-18 3 -29 -7q-7 -6 -7 -17q-1 -4 -5 -1q-9 15 6 31q13 15 40 15q-65 37 -94 8q-13 -13 -2 -25q13 -12 23 -2q-12 7 -2 14q8 6 14 0q11 -11 -2 -22q-25 -23 -48 0q-14 13 -8 30.5t27 24.5q-21 5 -33 18q-13 14 -16.5 33.5
t4.5 35.5q6 12 9 1q8 -21 26 -39q41 -41 109 -65q-26 70 -65 109q-18 18 -39 26q-11 3 1 9q16 8 35.5 4.5t33.5 -16.5q14 -12 18 -33q7 21 24.5 27t30.5 -8q23 -23 0 -48q-11 -13 -22 -2q-8 8 0 14q9 7 14 -2q11 11 -2 23q-11 12 -25 -2q-29 -29 8 -94q0 27 15 40
q16 15 31 6q3 -3 -1 -5q-11 0 -17 -7q-10 -11 -7 -29q5 -33 -4 -41q-10 -9 -41 -4zM404 321q-38 -25 -59 -46q-19 -19 -46 -58q-27 36 -49 58q-25 25 -58 49q34 22 59 46q21 20 46 58q21 -31 49 -57q33 -31 58 -50zM418 248q18 -3 29 7q7 6 7 17q1 4 5 1q9 -15 -6 -31
q-13 -15 -40 -15q65 -37 94 -8q13 13 2 25q-13 12 -23 2q12 -7 2 -14q-8 -6 -14 0q-11 11 2 22q25 23 48 0q14 -13 8 -30.5t-27 -24.5q21 -5 33 -18q13 -14 16.5 -33.5t-4.5 -35.5q-6 -12 -9 -1q-8 21 -26 39q-41 41 -109 65q26 -70 65 -109q18 -18 39 -26q11 -3 -1 -9
q-16 -8 -35.5 -4.5t-33.5 16.5q-14 12 -18 33q-7 -21 -24.5 -27t-30.5 8q-23 23 0 48q11 13 22 2q8 -8 0 -14q-9 -7 -14 2q-11 -11 2 -23q11 -12 25 2q29 29 -8 94q0 -26 -15 -40q-16 -15 -31 -6q-3 3 1 5q11 0 17 7q10 11 7 29q-5 33 4 41q10 9 41 4zM180 248q31 5 41 -4
q9 -8 4 -41q-3 -18 7 -29q6 -7 17 -7q4 -1 1 -5q-15 -9 -31 6q-15 14 -15 40q-37 -65 -8 -94q14 -14 25 -2q13 12 2 23q-5 -9 -14 -2q-8 6 0 14q11 11 22 -2q23 -25 0 -48q-13 -14 -30.5 -8t-24.5 27q-4 -21 -18 -33q-14 -13 -33.5 -16.5t-35.5 4.5q-12 6 -1 9q21 8 39 26
q39 39 65 109q-68 -24 -109 -65q-18 -18 -26 -39q-3 -11 -9 1q-8 16 -4.5 35.5t16.5 33.5q12 13 33 18q-21 7 -27 24.5t8 30.5q23 23 48 0q13 -11 2 -22q-6 -6 -14 0q-10 7 2 14q-10 10 -23 -2q-11 -12 2 -25q29 -29 94 8q-27 0 -40 15q-15 16 -6 31q3 3 5 -1q0 -11 7 -17
q11 -10 29 -7zM334 367q-23 23 -29 33q-14 -27 -34 -43l27 -27zM375 330q-12 6 -34 28l-36 -35l27 -26q30 25 43 33zM291 323l-27 26q-16 -16 -44 -34q20 -11 35 -27zM324 288l-27 27l-34 -35q20 -21 28 -34q5 12 33 42z" />
    <glyph glyph-name="ordmasculine" unicode="&#xba;" horiz-adv-x="331" 
d="M294 521q0 -51 -36.5 -88t-89.5 -37q-56 0 -90.5 35t-34.5 88t37 91t91 38q51 0 87 -37.5t36 -89.5zM290 357q-3 -9 -5 -11q-5 -5 -15 -5q-18 0 -106 -1t-107 -1q-13 0 -13 5q0 3 3 15q2 6 17 6q1 0 103.5 0.5t107.5 0.5q11 0 14 -2t1 -7zM250 522q0 48 -21.5 77.5
t-60.5 29.5t-60 -31t-21 -78q0 -43 20.5 -73.5t60.5 -30.5q39 0 60.5 31t21.5 75z" />
    <glyph glyph-name="guillemotright" unicode="&#xbb;" horiz-adv-x="400" 
d="M372 205q-13 -12 -77.5 -69t-72.5 -65t-17 -2q-7 6 -4 11q20 25 120 135q5 5 1 9q-32 42 -120 136q-5 5 3 11q10 6 17 -1q21 -19 150 -136q16 -13 0 -29zM217 205q-16 -16 -80.5 -73t-69.5 -61q-9 -7 -16 -2q-7 6 -4 11q10 13 62.5 71.5t57.5 63.5q4 6 1 9q-10 12 -62 70
t-58 66q-5 5 3 11q8 5 16 -1q70 -64 150 -136q10 -9 9.5 -14.5t-9.5 -14.5z" />
    <glyph glyph-name="onequarter" unicode="&#xbc;" 
d="M418 394q-31 -5 -41 4q-9 8 -4 41q3 18 -7 29q-6 7 -17 7q-4 1 -1 5q15 9 31 -6q15 -13 15 -40q37 65 8 94q-14 14 -25 2q-13 -12 -2 -23q5 9 14 2q8 -6 0 -14q-11 -11 -22 2q-23 25 0 48q13 14 30.5 8t24.5 -27q4 21 18 33q14 13 33.5 16.5t35.5 -4.5q12 -6 1 -9
q-21 -8 -39 -26q-39 -39 -65 -109q68 24 109 65q18 18 26 39q3 11 9 -1q8 -16 4.5 -35.5t-16.5 -33.5q-12 -13 -33 -18q21 -7 27 -24.5t-8 -30.5q-23 -23 -48 0q-13 11 -2 22q6 6 14 0q10 -7 -2 -14q10 -10 23 2q11 12 -2 25q-29 29 -94 -8q27 0 40 -15q15 -16 6 -31
q-3 -3 -5 1q0 11 -7 17q-11 10 -29 7zM180 394q-18 3 -29 -7q-7 -6 -7 -17q-1 -4 -5 -1q-9 15 6 31q13 15 40 15q-65 37 -94 8q-13 -13 -2 -25q13 -12 23 -2q-12 7 -2 14q8 6 14 0q11 -11 -2 -22q-25 -23 -48 0q-14 13 -8 30.5t27 24.5q-21 5 -33 18q-13 14 -16.5 33.5
t4.5 35.5q6 12 9 1q8 -21 26 -39q41 -41 109 -65q-26 70 -65 109q-18 18 -39 26q-11 3 1 9q16 8 35.5 4.5t33.5 -16.5q14 -12 18 -33q7 21 24.5 27t30.5 -8q23 -23 0 -48q-11 -13 -22 -2q-8 8 0 14q9 7 14 -2q11 11 -2 23q-11 12 -25 -2q-29 -29 8 -94q0 27 15 40
q16 15 31 6q3 -3 -1 -5q-11 0 -17 -7q-10 -11 -7 -29q5 -33 -4 -41q-10 -9 -41 -4zM404 321q-38 -25 -59 -46q-19 -19 -46 -58q-27 36 -49 58q-25 25 -58 49q34 22 59 46q21 20 46 58q21 -31 49 -57q33 -31 58 -50zM418 248q18 -3 29 7q7 6 7 17q1 4 5 1q9 -15 -6 -31
q-13 -15 -40 -15q65 -37 94 -8q13 13 2 25q-13 12 -23 2q12 -7 2 -14q-8 -6 -14 0q-11 11 2 22q25 23 48 0q14 -13 8 -30.5t-27 -24.5q21 -5 33 -18q13 -14 16.5 -33.5t-4.5 -35.5q-6 -12 -9 -1q-8 21 -26 39q-41 41 -109 65q26 -70 65 -109q18 -18 39 -26q11 -3 -1 -9
q-16 -8 -35.5 -4.5t-33.5 16.5q-14 12 -18 33q-7 -21 -24.5 -27t-30.5 8q-23 23 0 48q11 13 22 2q8 -8 0 -14q-9 -7 -14 2q-11 -11 2 -23q11 -12 25 2q29 29 -8 94q0 -26 -15 -40q-16 -15 -31 -6q-3 3 1 5q11 0 17 7q10 11 7 29q-5 33 4 41q10 9 41 4zM180 248q31 5 41 -4
q9 -8 4 -41q-3 -18 7 -29q6 -7 17 -7q4 -1 1 -5q-15 -9 -31 6q-15 14 -15 40q-37 -65 -8 -94q14 -14 25 -2q13 12 2 23q-5 -9 -14 -2q-8 6 0 14q11 11 22 -2q23 -25 0 -48q-13 -14 -30.5 -8t-24.5 27q-4 -21 -18 -33q-14 -13 -33.5 -16.5t-35.5 4.5q-12 6 -1 9q21 8 39 26
q39 39 65 109q-68 -24 -109 -65q-18 -18 -26 -39q-3 -11 -9 1q-8 16 -4.5 35.5t16.5 33.5q12 13 33 18q-21 7 -27 24.5t8 30.5q23 23 48 0q13 -11 2 -22q-6 -6 -14 0q-10 7 2 14q-10 10 -23 -2q-11 -12 2 -25q29 -29 94 8q-27 0 -40 15q-15 16 -6 31q3 3 5 -1q0 -11 7 -17
q11 -10 29 -7zM334 367q-23 23 -29 33q-14 -27 -34 -43l27 -27zM375 330q-12 6 -34 28l-36 -35l27 -26q30 25 43 33zM291 323l-27 26q-16 -16 -44 -34q20 -11 35 -27zM324 288l-27 27l-34 -35q20 -21 28 -34q5 12 33 42z" />
    <glyph glyph-name="onehalf" unicode="&#xbd;" 
d="M418 394q-31 -5 -41 4q-9 8 -4 41q3 18 -7 29q-6 7 -17 7q-4 1 -1 5q15 9 31 -6q15 -13 15 -40q37 65 8 94q-14 14 -25 2q-13 -12 -2 -23q5 9 14 2q8 -6 0 -14q-11 -11 -22 2q-23 25 0 48q13 14 30.5 8t24.5 -27q4 21 18 33q14 13 33.5 16.5t35.5 -4.5q12 -6 1 -9
q-21 -8 -39 -26q-39 -39 -65 -109q68 24 109 65q18 18 26 39q3 11 9 -1q8 -16 4.5 -35.5t-16.5 -33.5q-12 -13 -33 -18q21 -7 27 -24.5t-8 -30.5q-23 -23 -48 0q-13 11 -2 22q6 6 14 0q10 -7 -2 -14q10 -10 23 2q11 12 -2 25q-29 29 -94 -8q27 0 40 -15q15 -16 6 -31
q-3 -3 -5 1q0 11 -7 17q-11 10 -29 7zM180 394q-18 3 -29 -7q-7 -6 -7 -17q-1 -4 -5 -1q-9 15 6 31q13 15 40 15q-65 37 -94 8q-13 -13 -2 -25q13 -12 23 -2q-12 7 -2 14q8 6 14 0q11 -11 -2 -22q-25 -23 -48 0q-14 13 -8 30.5t27 24.5q-21 5 -33 18q-13 14 -16.5 33.5
t4.5 35.5q6 12 9 1q8 -21 26 -39q41 -41 109 -65q-26 70 -65 109q-18 18 -39 26q-11 3 1 9q16 8 35.5 4.5t33.5 -16.5q14 -12 18 -33q7 21 24.5 27t30.5 -8q23 -23 0 -48q-11 -13 -22 -2q-8 8 0 14q9 7 14 -2q11 11 -2 23q-11 12 -25 -2q-29 -29 8 -94q0 27 15 40
q16 15 31 6q3 -3 -1 -5q-11 0 -17 -7q-10 -11 -7 -29q5 -33 -4 -41q-10 -9 -41 -4zM404 321q-38 -25 -59 -46q-19 -19 -46 -58q-27 36 -49 58q-25 25 -58 49q34 22 59 46q21 20 46 58q21 -31 49 -57q33 -31 58 -50zM418 248q18 -3 29 7q7 6 7 17q1 4 5 1q9 -15 -6 -31
q-13 -15 -40 -15q65 -37 94 -8q13 13 2 25q-13 12 -23 2q12 -7 2 -14q-8 -6 -14 0q-11 11 2 22q25 23 48 0q14 -13 8 -30.5t-27 -24.5q21 -5 33 -18q13 -14 16.5 -33.5t-4.5 -35.5q-6 -12 -9 -1q-8 21 -26 39q-41 41 -109 65q26 -70 65 -109q18 -18 39 -26q11 -3 -1 -9
q-16 -8 -35.5 -4.5t-33.5 16.5q-14 12 -18 33q-7 -21 -24.5 -27t-30.5 8q-23 23 0 48q11 13 22 2q8 -8 0 -14q-9 -7 -14 2q-11 -11 2 -23q11 -12 25 2q29 29 -8 94q0 -26 -15 -40q-16 -15 -31 -6q-3 3 1 5q11 0 17 7q10 11 7 29q-5 33 4 41q10 9 41 4zM180 248q31 5 41 -4
q9 -8 4 -41q-3 -18 7 -29q6 -7 17 -7q4 -1 1 -5q-15 -9 -31 6q-15 14 -15 40q-37 -65 -8 -94q14 -14 25 -2q13 12 2 23q-5 -9 -14 -2q-8 6 0 14q11 11 22 -2q23 -25 0 -48q-13 -14 -30.5 -8t-24.5 27q-4 -21 -18 -33q-14 -13 -33.5 -16.5t-35.5 4.5q-12 6 -1 9q21 8 39 26
q39 39 65 109q-68 -24 -109 -65q-18 -18 -26 -39q-3 -11 -9 1q-8 16 -4.5 35.5t16.5 33.5q12 13 33 18q-21 7 -27 24.5t8 30.5q23 23 48 0q13 -11 2 -22q-6 -6 -14 0q-10 7 2 14q-10 10 -23 -2q-11 -12 2 -25q29 -29 94 8q-27 0 -40 15q-15 16 -6 31q3 3 5 -1q0 -11 7 -17
q11 -10 29 -7zM334 367q-23 23 -29 33q-14 -27 -34 -43l27 -27zM375 330q-12 6 -34 28l-36 -35l27 -26q30 25 43 33zM291 323l-27 26q-16 -16 -44 -34q20 -11 35 -27zM324 288l-27 27l-34 -35q20 -21 28 -34q5 12 33 42z" />
    <glyph glyph-name="threequarters" unicode="&#xbe;" 
d="M418 394q-31 -5 -41 4q-9 8 -4 41q3 18 -7 29q-6 7 -17 7q-4 1 -1 5q15 9 31 -6q15 -13 15 -40q37 65 8 94q-14 14 -25 2q-13 -12 -2 -23q5 9 14 2q8 -6 0 -14q-11 -11 -22 2q-23 25 0 48q13 14 30.5 8t24.5 -27q4 21 18 33q14 13 33.5 16.5t35.5 -4.5q12 -6 1 -9
q-21 -8 -39 -26q-39 -39 -65 -109q68 24 109 65q18 18 26 39q3 11 9 -1q8 -16 4.5 -35.5t-16.5 -33.5q-12 -13 -33 -18q21 -7 27 -24.5t-8 -30.5q-23 -23 -48 0q-13 11 -2 22q6 6 14 0q10 -7 -2 -14q10 -10 23 2q11 12 -2 25q-29 29 -94 -8q27 0 40 -15q15 -16 6 -31
q-3 -3 -5 1q0 11 -7 17q-11 10 -29 7zM180 394q-18 3 -29 -7q-7 -6 -7 -17q-1 -4 -5 -1q-9 15 6 31q13 15 40 15q-65 37 -94 8q-13 -13 -2 -25q13 -12 23 -2q-12 7 -2 14q8 6 14 0q11 -11 -2 -22q-25 -23 -48 0q-14 13 -8 30.5t27 24.5q-21 5 -33 18q-13 14 -16.5 33.5
t4.5 35.5q6 12 9 1q8 -21 26 -39q41 -41 109 -65q-26 70 -65 109q-18 18 -39 26q-11 3 1 9q16 8 35.5 4.5t33.5 -16.5q14 -12 18 -33q7 21 24.5 27t30.5 -8q23 -23 0 -48q-11 -13 -22 -2q-8 8 0 14q9 7 14 -2q11 11 -2 23q-11 12 -25 -2q-29 -29 8 -94q0 27 15 40
q16 15 31 6q3 -3 -1 -5q-11 0 -17 -7q-10 -11 -7 -29q5 -33 -4 -41q-10 -9 -41 -4zM404 321q-38 -25 -59 -46q-19 -19 -46 -58q-27 36 -49 58q-25 25 -58 49q34 22 59 46q21 20 46 58q21 -31 49 -57q33 -31 58 -50zM418 248q18 -3 29 7q7 6 7 17q1 4 5 1q9 -15 -6 -31
q-13 -15 -40 -15q65 -37 94 -8q13 13 2 25q-13 12 -23 2q12 -7 2 -14q-8 -6 -14 0q-11 11 2 22q25 23 48 0q14 -13 8 -30.5t-27 -24.5q21 -5 33 -18q13 -14 16.5 -33.5t-4.5 -35.5q-6 -12 -9 -1q-8 21 -26 39q-41 41 -109 65q26 -70 65 -109q18 -18 39 -26q11 -3 -1 -9
q-16 -8 -35.5 -4.5t-33.5 16.5q-14 12 -18 33q-7 -21 -24.5 -27t-30.5 8q-23 23 0 48q11 13 22 2q8 -8 0 -14q-9 -7 -14 2q-11 -11 2 -23q11 -12 25 2q29 29 -8 94q0 -26 -15 -40q-16 -15 -31 -6q-3 3 1 5q11 0 17 7q10 11 7 29q-5 33 4 41q10 9 41 4zM180 248q31 5 41 -4
q9 -8 4 -41q-3 -18 7 -29q6 -7 17 -7q4 -1 1 -5q-15 -9 -31 6q-15 14 -15 40q-37 -65 -8 -94q14 -14 25 -2q13 12 2 23q-5 -9 -14 -2q-8 6 0 14q11 11 22 -2q23 -25 0 -48q-13 -14 -30.5 -8t-24.5 27q-4 -21 -18 -33q-14 -13 -33.5 -16.5t-35.5 4.5q-12 6 -1 9q21 8 39 26
q39 39 65 109q-68 -24 -109 -65q-18 -18 -26 -39q-3 -11 -9 1q-8 16 -4.5 35.5t16.5 33.5q12 13 33 18q-21 7 -27 24.5t8 30.5q23 23 48 0q13 -11 2 -22q-6 -6 -14 0q-10 7 2 14q-10 10 -23 -2q-11 -12 2 -25q29 -29 94 8q-27 0 -40 15q-15 16 -6 31q3 3 5 -1q0 -11 7 -17
q11 -10 29 -7zM334 367q-23 23 -29 33q-14 -27 -34 -43l27 -27zM375 330q-12 6 -34 28l-36 -35l27 -26q30 25 43 33zM291 323l-27 26q-16 -16 -44 -34q20 -11 35 -27zM324 288l-27 27l-34 -35q20 -21 28 -34q5 12 33 42z" />
    <glyph glyph-name="questiondown" unicode="&#xbf;" horiz-adv-x="335" 
d="M31 193q0 143 156 222q5 3 7 11q4 51 5 72q0 13 7 13q6 0 10 -2q3 -1 3 -11t1 -32t2.5 -52t2.5 -49q1 -11 -7 -14q-62 -24 -105.5 -72.5t-43.5 -117.5q0 -51 29.5 -84t69.5 -33q24 0 52 12t41 12q25 0 25 -24q0 -17 -19.5 -29.5t-60.5 -12.5q-71 0 -123 50.5t-52 140.5z
M168 615q0 16 12.5 28.5t27.5 12.5q14 0 26.5 -12.5t12.5 -28.5q0 -14 -12.5 -26.5t-26.5 -12.5q-15 0 -27.5 12.5t-12.5 26.5z" />
    <glyph glyph-name="Agrave" unicode="&#xc0;" horiz-adv-x="662" 
d="M670 4q0 -5 -12 -4q-55 5 -99 5q-54 0 -117 -5q-6 0 -6 3q0 1 -0.5 5t-0.5 5q0 6 6 7q53 6 60 7q19 2 8 30q-4 10 -37 95t-43 109q-4 10 -7.5 12.5t-11.5 2.5h-195q-16 0 -20 -11q-11 -33 -41.5 -116t-35.5 -98q-6 -17 10 -21q25 -5 65 -11q6 -1 6 -5v-9q0 -6 -8 -5
q-63 5 -108 5q-33 0 -69 -4q-13 -2 -13 4v10q0 6 12 7q30 4 35 5q6 1 9.5 2.5t6.5 6t3.5 5.5t4.5 10q120 274 251 597q11 25 21 -1q227 -559 244 -602v-1q6 -13 20 -17l6 -1q23 -4 45 -6q11 -1 11 -4v-12zM406 318q-36 104 -89 230q-6 14 -12 0q-79 -201 -89 -229
q-4 -11 -2.5 -13.5t11.5 -2.5h174q9 0 9.5 2.5t-2.5 12.5zM363 710q5 -5 1 -10q-1 -1 -4 -1t-5 1q-9 6 -55.5 33t-52.5 31q-21 12 -21 28q0 10 6.5 16.5t16.5 6.5q11 0 22 -11q6 -6 44 -45t48 -49z" />
    <glyph glyph-name="Aacute" unicode="&#xc1;" horiz-adv-x="662" 
d="M670 4q0 -5 -12 -4q-55 5 -99 5q-54 0 -117 -5q-6 0 -6 3q0 1 -0.5 5t-0.5 5q0 6 6 7q53 6 60 7q19 2 8 30q-4 10 -37 95t-43 109q-4 10 -7.5 12.5t-11.5 2.5h-195q-16 0 -20 -11q-11 -33 -41.5 -116t-35.5 -98q-6 -17 10 -21q25 -5 65 -11q6 -1 6 -5v-9q0 -6 -8 -5
q-63 5 -108 5q-33 0 -69 -4q-13 -2 -13 4v10q0 6 12 7q30 4 35 5q6 1 9.5 2.5t6.5 6t3.5 5.5t4.5 10q120 274 251 597q11 25 21 -1q227 -559 244 -602v-1q6 -13 20 -17l6 -1q23 -4 45 -6q11 -1 11 -4v-12zM406 318q-36 104 -89 230q-6 14 -12 0q-79 -201 -89 -229
q-4 -11 -2.5 -13.5t11.5 -2.5h174q9 0 9.5 2.5t-2.5 12.5zM281 710q10 10 48 49t44 45q11 11 22 11q10 0 16.5 -6.5t6.5 -16.5q0 -15 -21 -28q-6 -4 -52.5 -31t-55.5 -33q-2 -1 -5 -1t-4 1q-4 5 1 10z" />
    <glyph glyph-name="Acircumflex" unicode="&#xc2;" horiz-adv-x="662" 
d="M670 4q0 -5 -12 -4q-55 5 -99 5q-54 0 -117 -5q-6 0 -6 3q0 1 -0.5 5t-0.5 5q0 6 6 7q53 6 60 7q19 2 8 30q-4 10 -37 95t-43 109q-4 10 -7.5 12.5t-11.5 2.5h-195q-16 0 -20 -11q-11 -33 -41.5 -116t-35.5 -98q-6 -17 10 -21q25 -5 65 -11q6 -1 6 -5v-9q0 -6 -8 -5
q-63 5 -108 5q-33 0 -69 -4q-13 -2 -13 4v10q0 6 12 7q30 4 35 5q6 1 9.5 2.5t6.5 6t3.5 5.5t4.5 10q120 274 251 597q11 25 21 -1q227 -559 244 -602v-1q6 -13 20 -17l6 -1q23 -4 45 -6q11 -1 11 -4v-12zM406 318q-36 104 -89 230q-6 14 -12 0q-79 -201 -89 -229
q-4 -11 -2.5 -13.5t11.5 -2.5h174q9 0 9.5 2.5t-2.5 12.5zM430 711q4 -4 1 -9.5t-8 -2.5q-53 29 -88 51q-4 2 -7 0q-48 -28 -89 -51q-3 -1 -5.5 0.5t-3 5t3.5 7.5q61 61 93 95q5 4 9 0q11 -11 31 -31.5t39.5 -40.5t23.5 -24z" />
    <glyph glyph-name="Atilde" unicode="&#xc3;" horiz-adv-x="662" 
d="M670 4q0 -5 -12 -4q-55 5 -99 5q-54 0 -117 -5q-6 0 -6 3q0 1 -0.5 5t-0.5 5q0 6 6 7q53 6 60 7q19 2 8 30q-4 10 -37 95t-43 109q-4 10 -7.5 12.5t-11.5 2.5h-195q-16 0 -20 -11q-11 -33 -41.5 -116t-35.5 -98q-6 -17 10 -21q25 -5 65 -11q6 -1 6 -5v-9q0 -6 -8 -5
q-63 5 -108 5q-33 0 -69 -4q-13 -2 -13 4v10q0 6 12 7q30 4 35 5q6 1 9.5 2.5t6.5 6t3.5 5.5t4.5 10q120 274 251 597q11 25 21 -1q227 -559 244 -602v-1q6 -13 20 -17l6 -1q23 -4 45 -6q11 -1 11 -4v-12zM406 318q-36 104 -89 230q-6 14 -12 0q-79 -201 -89 -229
q-4 -11 -2.5 -13.5t11.5 -2.5h174q9 0 9.5 2.5t-2.5 12.5zM438 756q6 -6 -3 -18q-29 -38 -61 -38q-23 0 -54 13q-29 12 -47 12q-20 0 -32 -12q-9 -9 -15 -5q-7 4 3 18q28 39 65 39q18 0 54 -12q38 -12 49 -12q13 0 26 10q11 9 15 5z" />
    <glyph glyph-name="Adieresis" unicode="&#xc4;" horiz-adv-x="662" 
d="M670 4q0 -5 -12 -4q-55 5 -99 5q-54 0 -117 -5q-6 0 -6 3q0 1 -0.5 5t-0.5 5q0 6 6 7q53 6 60 7q19 2 8 30q-4 10 -37 95t-43 109q-4 10 -7.5 12.5t-11.5 2.5h-195q-16 0 -20 -11q-11 -33 -41.5 -116t-35.5 -98q-6 -17 10 -21q25 -5 65 -11q6 -1 6 -5v-9q0 -6 -8 -5
q-63 5 -108 5q-33 0 -69 -4q-13 -2 -13 4v10q0 6 12 7q30 4 35 5q6 1 9.5 2.5t6.5 6t3.5 5.5t4.5 10q120 274 251 597q11 25 21 -1q227 -559 244 -602v-1q6 -13 20 -17l6 -1q23 -4 45 -6q11 -1 11 -4v-12zM406 318q-36 104 -89 230q-6 14 -12 0q-79 -201 -89 -229
q-4 -11 -2.5 -13.5t11.5 -2.5h174q9 0 9.5 2.5t-2.5 12.5zM439 729q0 -13 -9.5 -22t-22.5 -9t-22 9t-9 22q0 14 9 23t22 9t22.5 -9t9.5 -23zM289 729q0 -13 -9.5 -22t-22.5 -9t-22.5 9t-9.5 22q0 14 9.5 23t22.5 9t22.5 -9t9.5 -23z" />
    <glyph glyph-name="Aring" unicode="&#xc5;" horiz-adv-x="662" 
d="M406 318q-36 104 -89 230q-6 14 -12 0q-79 -201 -89 -229q-4 -11 -2.5 -13.5t11.5 -2.5h174q9 0 9.5 2.5t-2.5 12.5zM362 694q0 12 -9 21.5t-21 9.5q-11 0 -20 -9.5t-9 -21.5t9 -21.5t20 -9.5q12 0 21 9.5t9 21.5zM320 641q-19 4 -31 18.5t-12 34.5q0 23 16 39t39 16
t39 -16t16 -39q0 -20 -11.5 -34t-29.5 -18q169 -413 242 -597v-1q6 -13 20 -17l6 -1q23 -4 45 -6q11 -1 11 -4v-12q0 -5 -12 -4q-55 5 -99 5q-54 0 -117 -5q-6 0 -6 3q0 1 -0.5 5t-0.5 5q0 6 6 7q53 6 60 7q19 2 8 30q-4 10 -37 95t-43 109q-4 10 -7.5 12.5t-11.5 2.5h-195
q-16 0 -20 -11q-11 -33 -41.5 -116t-35.5 -98q-6 -17 10 -21q25 -5 65 -11q6 -1 6 -5v-9q0 -6 -8 -5q-63 5 -108 5q-33 0 -69 -4q-13 -2 -13 4v10q0 6 12 7q30 4 35 5q6 1 9.5 2.5t6.5 6t3.5 5.5t4.5 10q133 305 248 590z" />
    <glyph glyph-name="AE" unicode="&#xc6;" horiz-adv-x="894" 
d="M867 109q-24 -72 -31 -106q-2 -9 -16 -8q-145 5 -310 5q-106 0 -119 -1q-7 0 -7 5v9q0 5 8 5q25 1 67 6q10 1 13 5t3 18v217q0 10 -2 12.5t-10 2.5h-178q-16 0 -22 -11q-10 -17 -68 -108.5t-70 -111.5q-12 -18 6 -21q38 -8 61 -10q4 0 4 -4q0 -9 -1 -12t-8 -2
q-62 5 -110 5q-15 0 -67 -4q-11 -1 -12 4q0 4 2 10q1 4 12 5q28 3 39.5 8t23.5 19q30 38 135 191q64 94 242 359q13 19 -13 23q-15 1 -50 7q-8 1 -8 5v10q0 7 8 5q52 -5 121 -7q231 0 266 1q28 0 35 1q13 3 15 -10q6 -32 23 -90q2 -7 -1 -8q-6 -2 -10 -3q-3 -1 -7 6
q-17 36 -31 60q-6 10 -22 11q-112 7 -219 7q-10 0 -12 -3t-2 -14v-246q0 -8 2.5 -10t10.5 -2q108 0 193 10h3q13 2 16 12q1 4 2 11q2 8 5.5 23t4.5 23q1 7 6 7h6q5 0 4 -11q-4 -72 -4 -86q0 -50 2 -88q0 -9 -5 -10h-7q-4 0 -5 7q-8 53 -8 58q-2 11 -4.5 14t-14.5 3
q-83 4 -194 4q-9 0 -11 -2.5t-2 -10.5v-264q0 -9 2.5 -11.5t10.5 -2.5q6 0 19 -0.5t18 -0.5q152 0 206 10q8 1 13 11q24 44 36 71q3 6 7 5q6 -2 9 -4q2 -2 1 -8zM475 319v253q0 9 -1 11.5t-4 0.5t-9 -11q-60 -86 -165 -253l-4.5 -7.5t-2 -4.5t1 -2.5t4 -1t6.5 -0.5h163
q7 0 9 3t2 12z" />
    <glyph glyph-name="Ccedilla" unicode="&#xc7;" horiz-adv-x="644" 
d="M347 -6q-137 7 -223.5 100.5t-86.5 230.5q0 133 94.5 228t246.5 95q109 0 187 -35q7 -3 8 -10q6 -36 18 -86q2 -11 -2 -12l-9 -3q-4 -2 -8 7q-21 51 -23 55q-5 9 -12 14q-67 44 -161 44q-116 0 -188.5 -81t-72.5 -212q0 -79 26.5 -147t85.5 -114.5t141 -46.5q98 0 181 58
q10 6 14 21l7 26q8 27 9 32q3 13 7 13q6 0 10 -1q3 -2 3 -7q-6 -76 -5 -94q1 -11 -11 -18q-95 -58 -215 -58q-10 -22 -20 -32q8 4 18 4q24 0 39.5 -15.5t15.5 -40.5q0 -23 -17 -39.5t-44 -16.5q-30 0 -52 22q-3 3 -1 8q3 6 10 3q22 -9 36 -9q16 0 26 9t10 24q0 32 -33 32
q-9 0 -18 -3q-4 -1 -8 1q-8 6 -9 10t2 8q13 12 24 36z" />
    <glyph glyph-name="Egrave" unicode="&#xc8;" horiz-adv-x="548" 
d="M520 109q-2 -6 -9 -28t-9 -28q-8 -25 -13 -48q-2 -9 -15 -8q-116 4 -318 4q-93 0 -117 -2q-8 0 -8 5v11q0 5 8 5q21 1 67 6q11 2 14 5.5t3 18.5v535q0 17 -3.5 23.5t-13.5 7.5l-64 8q-8 1 -8 5q0 1 0.5 5.5t0.5 5.5q0 6 8 5q37 -4 122 -6q232 -5 302 3q10 1 11 -6
q12 -50 25 -95q3 -7 -1 -8q-1 -1 -5 -2t-5 -1q-3 -1 -7 6q-24 49 -31 60q-5 10 -22 11q-100 8 -227 8q-9 0 -11 -3t-2 -14v-247q0 -8 2.5 -10t10.5 -2q113 0 200 10q6 0 8.5 0.5t5.5 3t4 7t3 12.5q1 5 3 14.5t3.5 17t2.5 13.5q1 8 7 8h6q4 0 3 -11q0 -8 -1.5 -39.5
t-1.5 -46.5q0 -49 2 -87q0 -10 -5 -10h-7q-5 0 -6 7q-7 45 -8 58q-1 11 -4 13.5t-14 3.5q-93 3 -202 3q-8 0 -10 -2t-2 -10v-265q0 -10 2 -12t11 -2q177 -3 250 11q7 1 13 11q25 46 36 69q3 6 7 5q6 -2 9 -4q2 -2 0 -8zM324 710q5 -5 1 -10q-1 -1 -4 -1t-5 1q-9 6 -55.5 33
t-52.5 31q-21 12 -21 28q0 10 6.5 16.5t16.5 6.5q11 0 22 -11q6 -6 44 -45t48 -49z" />
    <glyph glyph-name="Eacute" unicode="&#xc9;" horiz-adv-x="548" 
d="M520 109q-2 -6 -9 -28t-9 -28q-8 -25 -13 -48q-2 -9 -15 -8q-116 4 -318 4q-93 0 -117 -2q-8 0 -8 5v11q0 5 8 5q21 1 67 6q11 2 14 5.5t3 18.5v535q0 17 -3.5 23.5t-13.5 7.5l-64 8q-8 1 -8 5q0 1 0.5 5.5t0.5 5.5q0 6 8 5q37 -4 122 -6q232 -5 302 3q10 1 11 -6
q12 -50 25 -95q3 -7 -1 -8q-1 -1 -5 -2t-5 -1q-3 -1 -7 6q-24 49 -31 60q-5 10 -22 11q-100 8 -227 8q-9 0 -11 -3t-2 -14v-247q0 -8 2.5 -10t10.5 -2q113 0 200 10q6 0 8.5 0.5t5.5 3t4 7t3 12.5q1 5 3 14.5t3.5 17t2.5 13.5q1 8 7 8h6q4 0 3 -11q0 -8 -1.5 -39.5
t-1.5 -46.5q0 -49 2 -87q0 -10 -5 -10h-7q-5 0 -6 7q-7 45 -8 58q-1 11 -4 13.5t-14 3.5q-93 3 -202 3q-8 0 -10 -2t-2 -10v-265q0 -10 2 -12t11 -2q177 -3 250 11q7 1 13 11q25 46 36 69q3 6 7 5q6 -2 9 -4q2 -2 0 -8zM221 710q10 10 48 49t44 45q11 11 22 11
q10 0 16.5 -6.5t6.5 -16.5q0 -15 -21 -28q-6 -4 -52.5 -31t-55.5 -33q-2 -1 -5 -1t-4 1q-4 5 1 10z" />
    <glyph glyph-name="Ecircumflex" unicode="&#xca;" horiz-adv-x="548" 
d="M520 109q-2 -6 -9 -28t-9 -28q-8 -25 -13 -48q-2 -9 -15 -8q-116 4 -318 4q-93 0 -117 -2q-8 0 -8 5v11q0 5 8 5q21 1 67 6q11 2 14 5.5t3 18.5v535q0 17 -3.5 23.5t-13.5 7.5l-64 8q-8 1 -8 5q0 1 0.5 5.5t0.5 5.5q0 6 8 5q37 -4 122 -6q232 -5 302 3q10 1 11 -6
q12 -50 25 -95q3 -7 -1 -8q-1 -1 -5 -2t-5 -1q-3 -1 -7 6q-24 49 -31 60q-5 10 -22 11q-100 8 -227 8q-9 0 -11 -3t-2 -14v-247q0 -8 2.5 -10t10.5 -2q113 0 200 10q6 0 8.5 0.5t5.5 3t4 7t3 12.5q1 5 3 14.5t3.5 17t2.5 13.5q1 8 7 8h6q4 0 3 -11q0 -8 -1.5 -39.5
t-1.5 -46.5q0 -49 2 -87q0 -10 -5 -10h-7q-5 0 -6 7q-7 45 -8 58q-1 11 -4 13.5t-14 3.5q-93 3 -202 3q-8 0 -10 -2t-2 -10v-265q0 -10 2 -12t11 -2q177 -3 250 11q7 1 13 11q25 46 36 69q3 6 7 5q6 -2 9 -4q2 -2 0 -8zM370 711q4 -4 1 -9.5t-8 -2.5q-53 29 -88 51
q-4 2 -7 0q-48 -28 -89 -51q-3 -1 -5.5 0.5t-3 5t3.5 7.5q61 61 93 95q5 4 9 0q11 -11 31 -31.5t39.5 -40.5t23.5 -24z" />
    <glyph glyph-name="Edieresis" unicode="&#xcb;" horiz-adv-x="548" 
d="M520 109q-2 -6 -9 -28t-9 -28q-8 -25 -13 -48q-2 -9 -15 -8q-116 4 -318 4q-93 0 -117 -2q-8 0 -8 5v11q0 5 8 5q21 1 67 6q11 2 14 5.5t3 18.5v535q0 17 -3.5 23.5t-13.5 7.5l-64 8q-8 1 -8 5q0 1 0.5 5.5t0.5 5.5q0 6 8 5q37 -4 122 -6q232 -5 302 3q10 1 11 -6
q12 -50 25 -95q3 -7 -1 -8q-1 -1 -5 -2t-5 -1q-3 -1 -7 6q-24 49 -31 60q-5 10 -22 11q-100 8 -227 8q-9 0 -11 -3t-2 -14v-247q0 -8 2.5 -10t10.5 -2q113 0 200 10q6 0 8.5 0.5t5.5 3t4 7t3 12.5q1 5 3 14.5t3.5 17t2.5 13.5q1 8 7 8h6q4 0 3 -11q0 -8 -1.5 -39.5
t-1.5 -46.5q0 -49 2 -87q0 -10 -5 -10h-7q-5 0 -6 7q-7 45 -8 58q-1 11 -4 13.5t-14 3.5q-93 3 -202 3q-8 0 -10 -2t-2 -10v-265q0 -10 2 -12t11 -2q177 -3 250 11q7 1 13 11q25 46 36 69q3 6 7 5q6 -2 9 -4q2 -2 0 -8zM379 729q0 -13 -9.5 -22t-22.5 -9t-22 9t-9 22
q0 14 9 23t22 9t22.5 -9t9.5 -23zM229 729q0 -13 -9.5 -22t-22.5 -9t-22.5 9t-9.5 22q0 14 9.5 23t22.5 9t22.5 -9t9.5 -23z" />
    <glyph glyph-name="Igrave" unicode="&#xcc;" horiz-adv-x="322" 
d="M195 54q0 -24 17 -26l69 -9q6 0 6 -4v-10q0 -6 -7 -5q-58 5 -117 5q-56 0 -114 -5q-8 -1 -8 5v10q0 4 9 5q48 6 62 8q15 2 15 25v540q0 13 -2.5 17.5t-12.5 5.5q-8 1 -29.5 3.5t-30.5 3.5q-7 0 -7 4v11q0 4 6 4q49 -4 110 -4q46 0 116 4q7 0 7 -4v-11q0 -4 -7 -5
q-3 0 -15.5 -1.5t-28 -3t-22.5 -2.5q-16 -1 -16 -22v-539zM210 710q5 -5 1 -10q-1 -1 -4 -1t-5 1q-9 6 -55.5 33t-52.5 31q-21 12 -21 28q0 10 6.5 16.5t16.5 6.5q11 0 22 -11q6 -6 44 -45t48 -49z" />
    <glyph glyph-name="Iacute" unicode="&#xcd;" horiz-adv-x="322" 
d="M195 54q0 -24 17 -26l69 -9q6 0 6 -4v-10q0 -6 -7 -5q-58 5 -117 5q-56 0 -114 -5q-8 -1 -8 5v10q0 4 9 5q48 6 62 8q15 2 15 25v540q0 13 -2.5 17.5t-12.5 5.5q-8 1 -29.5 3.5t-30.5 3.5q-7 0 -7 4v11q0 4 6 4q49 -4 110 -4q46 0 116 4q7 0 7 -4v-11q0 -4 -7 -5
q-3 0 -15.5 -1.5t-28 -3t-22.5 -2.5q-16 -1 -16 -22v-539zM107 710q10 10 48 49t44 45q11 11 22 11q10 0 16.5 -6.5t6.5 -16.5q0 -15 -21 -28q-6 -4 -52.5 -31t-55.5 -33q-2 -1 -5 -1t-4 1q-4 5 1 10z" />
    <glyph glyph-name="Icircumflex" unicode="&#xce;" horiz-adv-x="322" 
d="M195 54q0 -24 17 -26l69 -9q6 0 6 -4v-10q0 -6 -7 -5q-58 5 -117 5q-56 0 -114 -5q-8 -1 -8 5v10q0 4 9 5q48 6 62 8q15 2 15 25v540q0 13 -2.5 17.5t-12.5 5.5q-8 1 -29.5 3.5t-30.5 3.5q-7 0 -7 4v11q0 4 6 4q49 -4 110 -4q46 0 116 4q7 0 7 -4v-11q0 -4 -7 -5
q-3 0 -15.5 -1.5t-28 -3t-22.5 -2.5q-16 -1 -16 -22v-539zM256 711q4 -4 1 -9.5t-8 -2.5q-53 29 -88 51q-4 2 -7 0q-48 -28 -89 -51q-3 -1 -5.5 0.5t-3 5t3.5 7.5q61 61 93 95q5 4 9 0q11 -11 31 -31.5t39.5 -40.5t23.5 -24z" />
    <glyph glyph-name="Idieresis" unicode="&#xcf;" horiz-adv-x="322" 
d="M195 54q0 -24 17 -26l69 -9q6 0 6 -4v-10q0 -6 -7 -5q-58 5 -117 5q-56 0 -114 -5q-8 -1 -8 5v10q0 4 9 5q48 6 62 8q15 2 15 25v540q0 13 -2.5 17.5t-12.5 5.5q-8 1 -29.5 3.5t-30.5 3.5q-7 0 -7 4v11q0 4 6 4q49 -4 110 -4q46 0 116 4q7 0 7 -4v-11q0 -4 -7 -5
q-3 0 -15.5 -1.5t-28 -3t-22.5 -2.5q-16 -1 -16 -22v-539zM265 729q0 -13 -9.5 -22t-22.5 -9t-22 9t-9 22q0 14 9 23t22 9t22.5 -9t9.5 -23zM115 729q0 -13 -9.5 -22t-22.5 -9t-22.5 9t-9.5 22q0 14 9.5 23t22.5 9t22.5 -9t9.5 -23z" />
    <glyph glyph-name="Eth" unicode="&#xd0;" horiz-adv-x="722" 
d="M188 287q15 0 36.5 0.5t32 1t13.5 0.5q36 0 40 -8q2 -8 2 -14q1 -4 -1.5 -5t-9.5 -3q-5 -1 -113 -3v-207q0 -13 2.5 -16t14.5 -4q52 -4 125 -4q71 0 126 25.5t87 68.5t48 94.5t16 108.5q0 58 -17 109t-50.5 93.5t-91 67.5t-131.5 25q-65 0 -113 -2q-11 -1 -13.5 -3
t-2.5 -11v-314zM119 256q-29 -1 -58 -1q-20 0 -21 6q-2 11 0 17q3 4 11 5q20 2 68 2v302q0 22 -16 27q-5 1 -18.5 3t-27 3.5t-15.5 1.5q-7 0 -7 6q0 7 1 10q1 5 7 5q45 -5 109 -5q18 0 81 2.5t98 2.5q159 0 255.5 -86t96.5 -230q0 -149 -91.5 -238.5t-239.5 -89.5
q-60 0 -123 2.5t-74 2.5q-21 0 -60.5 -2.5t-52.5 -2.5q-8 0 -8 5v9q0 5 7 6q45 6 62 9q10 2 13 6.5t3 18.5v203z" />
    <glyph glyph-name="Ntilde" unicode="&#xd1;" horiz-adv-x="761" 
d="M651 26q0 -5 0.5 -15t0.5 -14q0 -8 -5 -8h-7q-4 0 -8 7q-32 45 -223.5 266t-258.5 296q-6 6 -8.5 7t-3.5 -1.5t-1 -10.5q0 -167 11 -492q0 -19 3 -24.5t13 -8.5q6 -1 74 -9q5 0 5 -5v-9q0 -5 -5 -5q-43 4 -108 4q-54 0 -98 -4q-6 -1 -8 4v10q0 5 6 5q55 7 65 10
q13 4 13 31q5 440 5 524q0 21 -17 27q-11 3 -62 12q-7 1 -7 4q0 6 2 12q2 3 8 3q55 -4 69 -5q23 -1 58 2q11 1 22 -11q31 -37 217 -252t210 -243q9 -11 11 -9.5t3 17.5q3 181 -7 446q-1 21 -17 25q-26 7 -58 11q-8 1 -8 5q0 5 2 11q2 4 8 3q50 -5 93 -5q49 0 90 5q6 1 7 -4
q1 -2 1 -10q0 -4 -7 -5q-36 -6 -53 -10q-15 -4 -16 -24q-10 -351 -11 -563zM496 756q6 -6 -3 -18q-29 -38 -61 -38q-23 0 -54 13q-29 12 -47 12q-20 0 -32 -12q-9 -9 -15 -5q-7 4 3 18q28 39 65 39q18 0 54 -12q38 -12 49 -12q13 0 26 10q11 9 15 5z" />
    <glyph glyph-name="Ograve" unicode="&#xd2;" horiz-adv-x="728" 
d="M687 322q0 -137 -89.5 -233t-227.5 -96q-145 0 -237 94.5t-92 234.5q0 138 93.5 232t235.5 94q136 0 226.5 -96t90.5 -230zM610 322q0 120 -68.5 209.5t-181.5 89.5q-110 0 -176 -86.5t-66 -212.5q0 -78 27 -145.5t83 -111.5t132 -44q114 0 182 89.5t68 211.5zM412 710
q5 -5 1 -10q-1 -1 -4 -1t-5 1q-9 6 -55.5 33t-52.5 31q-21 12 -21 28q0 10 6.5 16.5t16.5 6.5q11 0 22 -11q6 -6 44 -45t48 -49z" />
    <glyph glyph-name="Oacute" unicode="&#xd3;" horiz-adv-x="728" 
d="M687 322q0 -137 -89.5 -233t-227.5 -96q-145 0 -237 94.5t-92 234.5q0 138 93.5 232t235.5 94q136 0 226.5 -96t90.5 -230zM610 322q0 120 -68.5 209.5t-181.5 89.5q-110 0 -176 -86.5t-66 -212.5q0 -78 27 -145.5t83 -111.5t132 -44q114 0 182 89.5t68 211.5zM309 710
q10 10 48 49t44 45q11 11 22 11q10 0 16.5 -6.5t6.5 -16.5q0 -15 -21 -28q-6 -4 -52.5 -31t-55.5 -33q-2 -1 -5 -1t-4 1q-4 5 1 10z" />
    <glyph glyph-name="Ocircumflex" unicode="&#xd4;" horiz-adv-x="728" 
d="M687 322q0 -137 -89.5 -233t-227.5 -96q-145 0 -237 94.5t-92 234.5q0 138 93.5 232t235.5 94q136 0 226.5 -96t90.5 -230zM610 322q0 120 -68.5 209.5t-181.5 89.5q-110 0 -176 -86.5t-66 -212.5q0 -78 27 -145.5t83 -111.5t132 -44q114 0 182 89.5t68 211.5zM458 711
q4 -4 1 -9.5t-8 -2.5q-53 29 -88 51q-4 2 -7 0q-48 -28 -89 -51q-3 -1 -5.5 0.5t-3 5t3.5 7.5q61 61 93 95q5 4 9 0q11 -11 31 -31.5t39.5 -40.5t23.5 -24z" />
    <glyph glyph-name="Otilde" unicode="&#xd5;" horiz-adv-x="728" 
d="M687 322q0 -137 -89.5 -233t-227.5 -96q-145 0 -237 94.5t-92 234.5q0 138 93.5 232t235.5 94q136 0 226.5 -96t90.5 -230zM610 322q0 120 -68.5 209.5t-181.5 89.5q-110 0 -176 -86.5t-66 -212.5q0 -78 27 -145.5t83 -111.5t132 -44q114 0 182 89.5t68 211.5zM466 756
q6 -6 -3 -18q-29 -38 -61 -38q-23 0 -54 13q-29 12 -47 12q-20 0 -32 -12q-9 -9 -15 -5q-7 4 3 18q28 39 65 39q18 0 54 -12q38 -12 49 -12q13 0 26 10q11 9 15 5z" />
    <glyph glyph-name="Odieresis" unicode="&#xd6;" horiz-adv-x="728" 
d="M687 322q0 -137 -89.5 -233t-227.5 -96q-145 0 -237 94.5t-92 234.5q0 138 93.5 232t235.5 94q136 0 226.5 -96t90.5 -230zM610 322q0 120 -68.5 209.5t-181.5 89.5q-110 0 -176 -86.5t-66 -212.5q0 -78 27 -145.5t83 -111.5t132 -44q114 0 182 89.5t68 211.5zM466 729
q0 -13 -9.5 -22t-22.5 -9t-22 9t-9 22q0 14 9 23t22 9t22.5 -9t9.5 -23zM316 729q0 -13 -9.5 -22t-22.5 -9t-22.5 9t-9.5 22q0 14 9.5 23t22.5 9t22.5 -9t9.5 -23z" />
    <glyph glyph-name="multiply" unicode="&#xd7;" 
d="M418 394q-31 -5 -41 4q-9 8 -4 41q3 18 -7 29q-6 7 -17 7q-4 1 -1 5q15 9 31 -6q15 -13 15 -40q37 65 8 94q-14 14 -25 2q-13 -12 -2 -23q5 9 14 2q8 -6 0 -14q-11 -11 -22 2q-23 25 0 48q13 14 30.5 8t24.5 -27q4 21 18 33q14 13 33.5 16.5t35.5 -4.5q12 -6 1 -9
q-21 -8 -39 -26q-39 -39 -65 -109q68 24 109 65q18 18 26 39q3 11 9 -1q8 -16 4.5 -35.5t-16.5 -33.5q-12 -13 -33 -18q21 -7 27 -24.5t-8 -30.5q-23 -23 -48 0q-13 11 -2 22q6 6 14 0q10 -7 -2 -14q10 -10 23 2q11 12 -2 25q-29 29 -94 -8q27 0 40 -15q15 -16 6 -31
q-3 -3 -5 1q0 11 -7 17q-11 10 -29 7zM180 394q-18 3 -29 -7q-7 -6 -7 -17q-1 -4 -5 -1q-9 15 6 31q13 15 40 15q-65 37 -94 8q-13 -13 -2 -25q13 -12 23 -2q-12 7 -2 14q8 6 14 0q11 -11 -2 -22q-25 -23 -48 0q-14 13 -8 30.5t27 24.5q-21 5 -33 18q-13 14 -16.5 33.5
t4.5 35.5q6 12 9 1q8 -21 26 -39q41 -41 109 -65q-26 70 -65 109q-18 18 -39 26q-11 3 1 9q16 8 35.5 4.5t33.5 -16.5q14 -12 18 -33q7 21 24.5 27t30.5 -8q23 -23 0 -48q-11 -13 -22 -2q-8 8 0 14q9 7 14 -2q11 11 -2 23q-11 12 -25 -2q-29 -29 8 -94q0 27 15 40
q16 15 31 6q3 -3 -1 -5q-11 0 -17 -7q-10 -11 -7 -29q5 -33 -4 -41q-10 -9 -41 -4zM404 321q-38 -25 -59 -46q-19 -19 -46 -58q-27 36 -49 58q-25 25 -58 49q34 22 59 46q21 20 46 58q21 -31 49 -57q33 -31 58 -50zM418 248q18 -3 29 7q7 6 7 17q1 4 5 1q9 -15 -6 -31
q-13 -15 -40 -15q65 -37 94 -8q13 13 2 25q-13 12 -23 2q12 -7 2 -14q-8 -6 -14 0q-11 11 2 22q25 23 48 0q14 -13 8 -30.5t-27 -24.5q21 -5 33 -18q13 -14 16.5 -33.5t-4.5 -35.5q-6 -12 -9 -1q-8 21 -26 39q-41 41 -109 65q26 -70 65 -109q18 -18 39 -26q11 -3 -1 -9
q-16 -8 -35.5 -4.5t-33.5 16.5q-14 12 -18 33q-7 -21 -24.5 -27t-30.5 8q-23 23 0 48q11 13 22 2q8 -8 0 -14q-9 -7 -14 2q-11 -11 2 -23q11 -12 25 2q29 29 -8 94q0 -26 -15 -40q-16 -15 -31 -6q-3 3 1 5q11 0 17 7q10 11 7 29q-5 33 4 41q10 9 41 4zM180 248q31 5 41 -4
q9 -8 4 -41q-3 -18 7 -29q6 -7 17 -7q4 -1 1 -5q-15 -9 -31 6q-15 14 -15 40q-37 -65 -8 -94q14 -14 25 -2q13 12 2 23q-5 -9 -14 -2q-8 6 0 14q11 11 22 -2q23 -25 0 -48q-13 -14 -30.5 -8t-24.5 27q-4 -21 -18 -33q-14 -13 -33.5 -16.5t-35.5 4.5q-12 6 -1 9q21 8 39 26
q39 39 65 109q-68 -24 -109 -65q-18 -18 -26 -39q-3 -11 -9 1q-8 16 -4.5 35.5t16.5 33.5q12 13 33 18q-21 7 -27 24.5t8 30.5q23 23 48 0q13 -11 2 -22q-6 -6 -14 0q-10 7 2 14q-10 10 -23 -2q-11 -12 2 -25q29 -29 94 8q-27 0 -40 15q-15 16 -6 31q3 3 5 -1q0 -11 7 -17
q11 -10 29 -7zM334 367q-23 23 -29 33q-14 -27 -34 -43l27 -27zM375 330q-12 6 -34 28l-36 -35l27 -26q30 25 43 33zM291 323l-27 26q-16 -16 -44 -34q20 -11 35 -27zM324 288l-27 27l-34 -35q20 -21 28 -34q5 12 33 42z" />
    <glyph glyph-name="Oslash" unicode="&#xd8;" horiz-adv-x="722" 
d="M681 322q0 -137 -88.5 -232.5t-226.5 -95.5q-62 0 -120 21q-13 -33 -20 -48q-1 -4 -9 -3q-8 2 -15 7q-4 3 -2 9q2 4 9 21t10 25q-83 38 -130.5 117t-47.5 179q0 139 91.5 233t233.5 94q54 0 103 -17q2 6 6 15.5t5 12.5l6 12q3 6 8 3q10 -4 14 -8t1 -11q-1 -3 -13 -35
q84 -38 134.5 -119t50.5 -180zM455 599q-43 22 -98 22q-110 0 -175 -87.5t-65 -211.5q0 -82 30 -152.5t87 -110.5q52 131 221 540zM604 323q0 81 -32 151.5t-91 110.5q-27 -66 -222 -541q44 -22 98 -22q112 0 179.5 89.5t67.5 211.5z" />
    <glyph glyph-name="Ugrave" unicode="&#xd9;" horiz-adv-x="714" 
d="M699 628q0 -5 -10 -6q-44 -7 -61 -10q-13 -2 -15.5 -7t-3.5 -24q-6 -195 -6 -370q0 -104 -61.5 -161.5t-189.5 -57.5q-107 0 -173.5 53t-66.5 162v388q0 17 -19 20q-46 6 -58 7q-7 0 -7 5q0 7 1 11t5 4q53 -5 111 -5q33 0 118 5q7 1 8 -4v-11q0 -4 -7 -5q-46 -4 -66 -8
q-11 -2 -14 -5.5t-3 -13.5v-388q0 -181 194 -181q97 0 146 47t49 135q0 39 -6 375q-1 25 -19 28q-10 2 -35.5 6t-35.5 5q-7 1 -7 4v12q0 5 10 4q60 -5 109 -5q48 0 108 5q5 0 5 -4v-10zM423 710q5 -5 1 -10q-1 -1 -4 -1t-5 1q-9 6 -55.5 33t-52.5 31q-21 12 -21 28
q0 10 6.5 16.5t16.5 6.5q11 0 22 -11q6 -6 44 -45t48 -49z" />
    <glyph glyph-name="Uacute" unicode="&#xda;" horiz-adv-x="714" 
d="M699 628q0 -5 -10 -6q-44 -7 -61 -10q-13 -2 -15.5 -7t-3.5 -24q-6 -195 -6 -370q0 -104 -61.5 -161.5t-189.5 -57.5q-107 0 -173.5 53t-66.5 162v388q0 17 -19 20q-46 6 -58 7q-7 0 -7 5q0 7 1 11t5 4q53 -5 111 -5q33 0 118 5q7 1 8 -4v-11q0 -4 -7 -5q-46 -4 -66 -8
q-11 -2 -14 -5.5t-3 -13.5v-388q0 -181 194 -181q97 0 146 47t49 135q0 39 -6 375q-1 25 -19 28q-10 2 -35.5 6t-35.5 5q-7 1 -7 4v12q0 5 10 4q60 -5 109 -5q48 0 108 5q5 0 5 -4v-10zM307 710q10 10 48 49t44 45q11 11 22 11q10 0 16.5 -6.5t6.5 -16.5q0 -15 -21 -28
q-6 -4 -52.5 -31t-55.5 -33q-2 -1 -5 -1t-4 1q-4 5 1 10z" />
    <glyph glyph-name="Ucircumflex" unicode="&#xdb;" horiz-adv-x="714" 
d="M699 628q0 -5 -10 -6q-44 -7 -61 -10q-13 -2 -15.5 -7t-3.5 -24q-6 -195 -6 -370q0 -104 -61.5 -161.5t-189.5 -57.5q-107 0 -173.5 53t-66.5 162v388q0 17 -19 20q-46 6 -58 7q-7 0 -7 5q0 7 1 11t5 4q53 -5 111 -5q33 0 118 5q7 1 8 -4v-11q0 -4 -7 -5q-46 -4 -66 -8
q-11 -2 -14 -5.5t-3 -13.5v-388q0 -181 194 -181q97 0 146 47t49 135q0 39 -6 375q-1 25 -19 28q-10 2 -35.5 6t-35.5 5q-7 1 -7 4v12q0 5 10 4q60 -5 109 -5q48 0 108 5q5 0 5 -4v-10zM476 711q4 -4 1 -9.5t-8 -2.5q-53 29 -88 51q-4 2 -7 0q-48 -28 -89 -51
q-3 -1 -5.5 0.5t-3 5t3.5 7.5q61 61 93 95q5 4 9 0q11 -11 31 -31.5t39.5 -40.5t23.5 -24z" />
    <glyph glyph-name="Udieresis" unicode="&#xdc;" horiz-adv-x="714" 
d="M699 628q0 -5 -10 -6q-44 -7 -61 -10q-13 -2 -15.5 -7t-3.5 -24q-6 -195 -6 -370q0 -104 -61.5 -161.5t-189.5 -57.5q-107 0 -173.5 53t-66.5 162v388q0 17 -19 20q-46 6 -58 7q-7 0 -7 5q0 7 1 11t5 4q53 -5 111 -5q33 0 118 5q7 1 8 -4v-11q0 -4 -7 -5q-46 -4 -66 -8
q-11 -2 -14 -5.5t-3 -13.5v-388q0 -181 194 -181q97 0 146 47t49 135q0 39 -6 375q-1 25 -19 28q-10 2 -35.5 6t-35.5 5q-7 1 -7 4v12q0 5 10 4q60 -5 109 -5q48 0 108 5q5 0 5 -4v-10zM472 730q0 -13 -9.5 -22t-22.5 -9t-22 9t-9 22q0 14 9 23t22 9t22.5 -9t9.5 -23z
M322 730q0 -13 -9.5 -22t-22.5 -9t-22.5 9t-9.5 22q0 14 9.5 23t22.5 9t22.5 -9t9.5 -23z" />
    <glyph glyph-name="Yacute" unicode="&#xdd;" horiz-adv-x="623" 
d="M618 629q0 -6 -7 -6q-4 0 -21 -2.5t-24 -3.5q-3 0 -6 -1t-4.5 -2t-3.5 -3.5t-2.5 -3.5t-3 -5t-3.5 -6q-169 -269 -180 -286q-8 -13 -8 -35v-219q0 -15 3.5 -20t15.5 -7q7 -1 19 -2.5t26 -3t19 -2.5q8 -1 8 -5q0 -7 -1 -12q-1 -4 -5 -4q-49 5 -116 5q-61 0 -116 -5
q-8 -1 -8 4v10q0 5 6 6q47 4 65 9q10 2 13 7.5t3 20.5v215q0 10 -9 25q-16 26 -94.5 146t-101.5 154q-6 9 -8.5 12t-6 5t-10.5 3q-4 1 -12.5 2.5t-15 2.5t-11.5 1q-7 0 -7 5v10q1 5 9 4q53 -4 99 -4q76 0 118 4q7 1 7 -4v-10q0 -4 -7 -4q-4 -1 -19 -3t-27 -3.5t-17 -2.5
q-19 -4 -8 -22q15 -23 83 -129.5t80 -124.5q8 -13 12 -14t12 12q118 202 136 245q8 20 5.5 26.5t-16.5 8.5q-40 5 -46 5q-7 1 -7 5q0 8 1 10q0 5 7 5q51 -4 96 -4q33 0 85 4q5 0 5 -4q0 -2 -0.5 -5t-0.5 -4zM267 710q10 10 48 49t44 45q11 11 22 11q10 0 16.5 -6.5
t6.5 -16.5q0 -15 -21 -28q-6 -4 -52.5 -31t-55.5 -33q-2 -1 -5 -1t-4 1q-4 5 1 10z" />
    <glyph glyph-name="Thorn" unicode="&#xde;" horiz-adv-x="524" 
d="M273 642q7 0 7 -4v-11q0 -4 -7 -5q-3 0 -15.5 -1.5t-28 -3t-22.5 -2.5q-16 -1 -16 -22v-57q0 -7 7 -6q60 8 99 8q89 0 147 -50.5t58 -137.5q0 -97 -64 -149t-154 -52q-32 0 -39 7q-1 1 -1 4.5t1 5.5t26 2q75 0 118.5 46.5t43.5 125.5q0 82 -44.5 127t-122.5 45
q-45 0 -63 -6q-14 -4 -14 -21v-436q0 -11 3 -15.5t14 -5.5l68 -8q8 -1 8 -6v-10q0 -5 -8 -4q-70 4 -119 4q-64 0 -116 -4q-5 0 -5 4v11q0 4 8 5q12 1 65 9q12 2 12 19v546q0 19 -17 21q-9 1 -20 2.5t-24.5 3l-22.5 2.5q-6 1 -6 6v8q0 5 6 5q41 -2 120 -2q83 0 118 2z" />
    <glyph glyph-name="germandbls" unicode="&#xdf;" horiz-adv-x="485" 
d="M455 108q0 -40 -32.5 -76.5t-97.5 -36.5q-50 0 -77 13q-7 4 -7 9q0 47 -2 73q0 6 3 6h6q3 0 4 -6q6 -26 20 -47q4 -6 6 -8q22 -21 59 -21q33 0 50.5 21t17.5 48q0 35 -31 59q-6 4 -22.5 16.5t-37 28t-24.5 18.5q-40 31 -40 74q0 28 12 49t40 46q41 38 41 116
q0 131 -98 131q-44 0 -72 -30t-28 -84v-459q0 -22 14 -24q10 -2 27.5 -4t21.5 -3q6 -1 6 -6v-7q0 -4 -6 -4q-50 3 -92 3q-54 0 -89 -3q-6 0 -6 5v7q0 4 5 5q46 7 47 7q9 2 11.5 6t2.5 18v300q0 6 -3 6q-8 0 -24.5 -1t-20.5 -1q-7 0 -7 6v20q0 4 5 4h47q3 0 3 5q0 12 0.5 38
t0.5 32q0 91 45.5 141t112.5 50q64 0 100 -40.5t36 -100.5q0 -96 -63 -150q-26 -22 -26 -48q0 -30 32 -56q38 -30 87 -65q43 -30 43 -80z" />
    <glyph glyph-name="agrave" unicode="&#xe0;" horiz-adv-x="380" 
d="M308 68q0 -45 28 -45q8 0 20 5q5 3 9 -2q5 -7 -7 -12q-42 -18 -64 -18q-30 0 -42 42q-3 11 -14 5q-52 -31 -103 -45q-13 -4 -28 -4q-19 0 -33 13q-36 32 -36 78q0 52 43 74q14 7 162 74q8 4 8 14v38q-1 51 -18 70.5t-56 19.5q-28 0 -47.5 -10t-24.5 -23q-1 -2 -2 -9
t-1 -9q-3 -10 -13 -15q-14 -6 -29 -6q-11 0 -11 10q0 30 52.5 60.5t117.5 30.5q41 0 65 -24.5t24 -67.5v-244zM250 76v129q0 7 -1 8.5t-7 -0.5q-64 -27 -102 -48q-43 -25 -43 -70q0 -29 13 -47.5t33 -18.5q15 0 46.5 11t51.5 22q9 4 9 14zM241 465q5 -5 1 -10q-1 -1 -4 -1
t-5 1q-9 6 -55.5 33t-52.5 31q-21 12 -21 28q0 10 6.5 16.5t16.5 6.5q11 0 22 -11q6 -6 44 -45t48 -49z" />
    <glyph glyph-name="aacute" unicode="&#xe1;" horiz-adv-x="380" 
d="M308 68q0 -45 28 -45q8 0 20 5q5 3 9 -2q5 -7 -7 -12q-42 -18 -64 -18q-30 0 -42 42q-3 11 -14 5q-52 -31 -103 -45q-13 -4 -28 -4q-19 0 -33 13q-36 32 -36 78q0 52 43 74q14 7 162 74q8 4 8 14v38q-1 51 -18 70.5t-56 19.5q-28 0 -47.5 -10t-24.5 -23q-1 -2 -2 -9
t-1 -9q-3 -10 -13 -15q-14 -6 -29 -6q-11 0 -11 10q0 30 52.5 60.5t117.5 30.5q41 0 65 -24.5t24 -67.5v-244zM250 76v129q0 7 -1 8.5t-7 -0.5q-64 -27 -102 -48q-43 -25 -43 -70q0 -29 13 -47.5t33 -18.5q15 0 46.5 11t51.5 22q9 4 9 14zM138 465q10 10 48 49t44 45
q11 11 22 11q10 0 16.5 -6.5t6.5 -16.5q0 -15 -21 -28q-6 -4 -52.5 -31t-55.5 -33q-2 -1 -5 -1t-4 1q-4 5 1 10z" />
    <glyph glyph-name="acircumflex" unicode="&#xe2;" horiz-adv-x="380" 
d="M308 68q0 -45 28 -45q8 0 20 5q5 3 9 -2q5 -7 -7 -12q-42 -18 -64 -18q-30 0 -42 42q-3 11 -14 5q-52 -31 -103 -45q-13 -4 -28 -4q-19 0 -33 13q-36 32 -36 78q0 52 43 74q14 7 162 74q8 4 8 14v38q-1 51 -18 70.5t-56 19.5q-28 0 -47.5 -10t-24.5 -23q-1 -2 -2 -9
t-1 -9q-3 -10 -13 -15q-14 -6 -29 -6q-11 0 -11 10q0 30 52.5 60.5t117.5 30.5q41 0 65 -24.5t24 -67.5v-244zM250 76v129q0 7 -1 8.5t-7 -0.5q-64 -27 -102 -48q-43 -25 -43 -70q0 -29 13 -47.5t33 -18.5q15 0 46.5 11t51.5 22q9 4 9 14zM289 466q4 -4 1 -9.5t-8 -2.5
q-53 29 -88 51q-4 2 -7 0q-48 -28 -89 -51q-3 -1 -5.5 0.5t-3 5t3.5 7.5q61 61 93 95q5 4 9 0q11 -11 31 -31.5t39.5 -40.5t23.5 -24z" />
    <glyph glyph-name="atilde" unicode="&#xe3;" horiz-adv-x="380" 
d="M308 68q0 -45 28 -45q8 0 20 5q5 3 9 -2q5 -7 -7 -12q-42 -18 -64 -18q-30 0 -42 42q-3 11 -14 5q-52 -31 -103 -45q-13 -4 -28 -4q-19 0 -33 13q-36 32 -36 78q0 52 43 74q14 7 162 74q8 4 8 14v38q-1 51 -18 70.5t-56 19.5q-28 0 -47.5 -10t-24.5 -23q-1 -2 -2 -9
t-1 -9q-3 -10 -13 -15q-14 -6 -29 -6q-11 0 -11 10q0 30 52.5 60.5t117.5 30.5q41 0 65 -24.5t24 -67.5v-244zM250 76v129q0 7 -1 8.5t-7 -0.5q-64 -27 -102 -48q-43 -25 -43 -70q0 -29 13 -47.5t33 -18.5q15 0 46.5 11t51.5 22q9 4 9 14zM295 511q6 -6 -3 -18
q-29 -38 -61 -38q-23 0 -54 13q-29 12 -47 12q-20 0 -32 -12q-9 -9 -15 -5q-7 4 3 18q28 39 65 39q18 0 54 -12q38 -12 49 -12q13 0 26 10q11 9 15 5z" />
    <glyph glyph-name="adieresis" unicode="&#xe4;" horiz-adv-x="380" 
d="M308 68q0 -45 28 -45q8 0 20 5q5 3 9 -2q5 -7 -7 -12q-42 -18 -64 -18q-30 0 -42 42q-3 11 -14 5q-52 -31 -103 -45q-13 -4 -28 -4q-19 0 -33 13q-36 32 -36 78q0 52 43 74q14 7 162 74q8 4 8 14v38q-1 51 -18 70.5t-56 19.5q-28 0 -47.5 -10t-24.5 -23q-1 -2 -2 -9
t-1 -9q-3 -10 -13 -15q-14 -6 -29 -6q-11 0 -11 10q0 30 52.5 60.5t117.5 30.5q41 0 65 -24.5t24 -67.5v-244zM250 76v129q0 7 -1 8.5t-7 -0.5q-64 -27 -102 -48q-43 -25 -43 -70q0 -29 13 -47.5t33 -18.5q15 0 46.5 11t51.5 22q9 4 9 14zM296 484q0 -13 -9.5 -22t-22.5 -9
t-22 9t-9 22q0 14 9 23t22 9t22.5 -9t9.5 -23zM146 484q0 -13 -9.5 -22t-22.5 -9t-22.5 9t-9.5 22q0 14 9.5 23t22.5 9t22.5 -9t9.5 -23z" />
    <glyph glyph-name="aring" unicode="&#xe5;" horiz-adv-x="380" 
d="M308 68q0 -45 28 -45q8 0 20 5q5 3 9 -2q5 -7 -7 -12q-42 -18 -64 -18q-30 0 -42 42q-3 11 -14 5q-52 -31 -103 -45q-13 -4 -28 -4q-19 0 -33 13q-36 32 -36 78q0 52 43 74q14 7 162 74q8 4 8 14v38q-1 51 -18 70.5t-56 19.5q-28 0 -47.5 -10t-24.5 -23q-1 -2 -2 -9
t-1 -9q-3 -10 -13 -15q-14 -6 -29 -6q-11 0 -11 10q0 30 52.5 60.5t117.5 30.5q41 0 65 -24.5t24 -67.5v-244zM250 76v129q0 7 -1 8.5t-7 -0.5q-64 -27 -102 -48q-43 -25 -43 -70q0 -29 13 -47.5t33 -18.5q15 0 46.5 11t51.5 22q9 4 9 14zM244 508q0 -24 -15.5 -39
t-39.5 -15q-23 0 -39 15t-16 39q0 23 16 39t39 16t39 -16t16 -39zM219 508q0 12 -9 21.5t-21 9.5q-11 0 -20 -9.5t-9 -21.5t9 -21.5t20 -9.5q12 0 21 9.5t9 21.5z" />
    <glyph glyph-name="ae" unicode="&#xe6;" horiz-adv-x="584" 
d="M298 339q52 59 124 59q60 0 93 -38.5t36 -85.5q0 -10 -11 -10q-33 -1 -234 -1q-7 0 -8 -4q-7 -30 -7 -48q0 -72 39.5 -121.5t111.5 -49.5q50 0 103 40q4 4 8 1q3 -1 5 -6q3 -4 -3 -10q-71 -71 -148 -71q-86 0 -133 69q-4 6 -11 2q-68 -41 -113 -63q-18 -8 -38 -8
q-18 0 -32 7q-16 10 -29 33t-13 46q0 24 9.5 38t34.5 28q24 14 148 72q8 5 8 13v48q-1 49 -16.5 68.5t-51.5 19.5q-53 0 -68 -34q0 -2 -1 -8.5t-2 -8.5q-3 -11 -13 -15q-14 -6 -25 -6q-12 0 -12 11q0 31 48.5 61t111.5 30q32 0 54 -15t30 -41q2 -5 5 -2zM492 295
q-1 32 -21.5 56.5t-57.5 24.5q-34 0 -62.5 -24.5t-43.5 -62.5q-3 -7 2 -7q101 0 178 8q5 0 5 5zM256 94q-18 38 -18 92q0 12 -2 14t-8 -1q-32 -15 -85 -46q-42 -27 -42 -61q0 -27 13.5 -44.5t36.5 -17.5t101 48q9 5 4 16z" />
    <glyph glyph-name="ccedilla" unicode="&#xe7;" horiz-adv-x="388" 
d="M193 -6q-63 4 -110 56t-47 130q0 101 66.5 162.5t149.5 61.5q68 0 102 -29q11 -8 11 -20q0 -14 -14 -26q-10 -9 -19 -9t-19 13q-33 42 -88 42q-50 0 -92 -44t-42 -122q0 -77 43.5 -124.5t103.5 -47.5t113 45q6 5 9 3l6 -6q3 -5 -6 -14q-63 -66 -146 -71q-7 -20 -20 -33
q8 4 18 4q24 0 39.5 -15.5t15.5 -40.5q0 -23 -17 -39.5t-44 -16.5q-30 0 -52 22q-3 3 -1 8q3 6 10 3q22 -9 36 -9q16 0 26 9t10 24q0 32 -33 32q-9 0 -18 -3q-4 -1 -8 1q-8 6 -9 10q-1 5 2 8q16 15 24 36z" />
    <glyph glyph-name="egrave" unicode="&#xe8;" horiz-adv-x="392" 
d="M360 262q0 -10 -11 -10q-33 -1 -248 -1q-6 0 -7 -4q-5 -18 -5 -43q0 -72 43 -120t107 -48q58 0 113 42q6 4 9 1q2 -2 4 -6q4 -7 -1 -12q-25 -24 -67 -45.5t-87 -21.5q-79 0 -125.5 57t-46.5 137q0 91 56.5 153.5t130.5 62.5q61 0 97 -42.5t38 -99.5zM303 285
q-2 41 -24 69.5t-62 28.5q-37 0 -70 -28.5t-47 -76.5q-2 -7 2 -7q80 0 196 8q5 0 5 6zM256 465q5 -5 1 -10q-1 -1 -4 -1t-5 1q-9 6 -55.5 33t-52.5 31q-21 12 -21 28q0 10 6.5 16.5t16.5 6.5q11 0 22 -11q6 -6 44 -45t48 -49z" />
    <glyph glyph-name="eacute" unicode="&#xe9;" horiz-adv-x="392" 
d="M360 262q0 -10 -11 -10q-33 -1 -248 -1q-6 0 -7 -4q-5 -18 -5 -43q0 -72 43 -120t107 -48q58 0 113 42q6 4 9 1q2 -2 4 -6q4 -7 -1 -12q-25 -24 -67 -45.5t-87 -21.5q-79 0 -125.5 57t-46.5 137q0 91 56.5 153.5t130.5 62.5q61 0 97 -42.5t38 -99.5zM303 285
q-2 41 -24 69.5t-62 28.5q-37 0 -70 -28.5t-47 -76.5q-2 -7 2 -7q80 0 196 8q5 0 5 6zM150 465q10 10 48 49t44 45q11 11 22 11q10 0 16.5 -6.5t6.5 -16.5q0 -15 -21 -28q-6 -4 -52.5 -31t-55.5 -33q-2 -1 -5 -1t-4 1q-4 5 1 10z" />
    <glyph glyph-name="ecircumflex" unicode="&#xea;" horiz-adv-x="392" 
d="M360 262q0 -10 -11 -10q-33 -1 -248 -1q-6 0 -7 -4q-5 -18 -5 -43q0 -72 43 -120t107 -48q58 0 113 42q6 4 9 1q2 -2 4 -6q4 -7 -1 -12q-25 -24 -67 -45.5t-87 -21.5q-79 0 -125.5 57t-46.5 137q0 91 56.5 153.5t130.5 62.5q61 0 97 -42.5t38 -99.5zM303 285
q-2 41 -24 69.5t-62 28.5q-37 0 -70 -28.5t-47 -76.5q-2 -7 2 -7q80 0 196 8q5 0 5 6zM302 466q4 -4 1 -9.5t-8 -2.5q-53 29 -88 51q-4 2 -7 0q-48 -28 -89 -51q-3 -1 -5.5 0.5t-3 5t3.5 7.5q61 61 93 95q5 4 9 0q11 -11 31 -31.5t39.5 -40.5t23.5 -24z" />
    <glyph glyph-name="edieresis" unicode="&#xeb;" horiz-adv-x="392" 
d="M360 262q0 -10 -11 -10q-33 -1 -248 -1q-6 0 -7 -4q-5 -18 -5 -43q0 -72 43 -120t107 -48q58 0 113 42q6 4 9 1q2 -2 4 -6q4 -7 -1 -12q-25 -24 -67 -45.5t-87 -21.5q-79 0 -125.5 57t-46.5 137q0 91 56.5 153.5t130.5 62.5q61 0 97 -42.5t38 -99.5zM303 285
q-2 41 -24 69.5t-62 28.5q-37 0 -70 -28.5t-47 -76.5q-2 -7 2 -7q80 0 196 8q5 0 5 6zM313 484q0 -13 -9.5 -22t-22.5 -9t-22 9t-9 22q0 14 9 23t22 9t22.5 -9t9.5 -23zM163 484q0 -13 -9.5 -22t-22.5 -9t-22.5 9t-9.5 22q0 14 9.5 23t22.5 9t22.5 -9t9.5 -23z" />
    <glyph glyph-name="igrave" unicode="&#xec;" horiz-adv-x="229" 
d="M214 4q0 -4 -5 -4q-63 3 -86 3q-34 0 -82 -3q-7 0 -7 4v9q0 3 7 4l44 8q11 2 11 17v243q0 24 -10 36t-36 15q-7 1 -7 9q0 9 10 9q30 0 50 7q22 9 36 30q5 7 9 7q9 0 7 -9q-2 -14 -2 -45v-301q0 -15 14 -18q20 -5 42 -8q5 -1 5 -5v-8zM170 465q5 -5 1 -10q-1 -1 -4 -1
t-5 1q-9 6 -55.5 33t-52.5 31q-21 12 -21 28q0 10 6.5 16.5t16.5 6.5q11 0 22 -11q6 -6 44 -45t48 -49z" />
    <glyph glyph-name="iacute" unicode="&#xed;" horiz-adv-x="229" 
d="M214 4q0 -4 -5 -4q-63 3 -86 3q-34 0 -82 -3q-7 0 -7 4v9q0 3 7 4l44 8q11 2 11 17v243q0 24 -10 36t-36 15q-7 1 -7 9q0 9 10 9q30 0 50 7q22 9 36 30q5 7 9 7q9 0 7 -9q-2 -14 -2 -45v-301q0 -15 14 -18q20 -5 42 -8q5 -1 5 -5v-8zM67 465q10 10 48 49t44 45
q11 11 22 11q10 0 16.5 -6.5t6.5 -16.5q0 -15 -21 -28q-6 -4 -52.5 -31t-55.5 -33q-2 -1 -5 -1t-4 1q-4 5 1 10z" />
    <glyph glyph-name="icircumflex" unicode="&#xee;" horiz-adv-x="229" 
d="M214 4q0 -4 -5 -4q-63 3 -86 3q-34 0 -82 -3q-7 0 -7 4v9q0 3 7 4l44 8q11 2 11 17v243q0 24 -10 36t-36 15q-7 1 -7 9q0 9 10 9q30 0 50 7q22 9 36 30q5 7 9 7q9 0 7 -9q-2 -14 -2 -45v-301q0 -15 14 -18q20 -5 42 -8q5 -1 5 -5v-8zM216 466q4 -4 1 -9.5t-8 -2.5
q-53 29 -88 51q-4 2 -7 0q-48 -28 -89 -51q-3 -1 -5.5 0.5t-3 5t3.5 7.5q61 61 93 95q5 4 9 0q11 -11 31 -31.5t39.5 -40.5t23.5 -24z" />
    <glyph glyph-name="idieresis" unicode="&#xef;" horiz-adv-x="229" 
d="M214 4q0 -4 -5 -4q-63 3 -86 3q-34 0 -82 -3q-7 0 -7 4v9q0 3 7 4l44 8q11 2 11 17v243q0 24 -10 36t-36 15q-7 1 -7 9q0 9 10 9q30 0 50 7q22 9 36 30q5 7 9 7q9 0 7 -9q-2 -14 -2 -45v-301q0 -15 14 -18q20 -5 42 -8q5 -1 5 -5v-8zM225 484q0 -13 -9.5 -22t-22.5 -9
t-22 9t-9 22q0 14 9 23t22 9t22.5 -9t9.5 -23zM75 484q0 -13 -9.5 -22t-22.5 -9t-22.5 9t-9.5 22q0 14 9.5 23t22.5 9t22.5 -9t9.5 -23z" />
    <glyph glyph-name="eth" unicode="&#xf0;" horiz-adv-x="426" 
d="M326 220q0 74 -13 102q-21 37 -89 37q-55 0 -95 -44.5t-40 -114.5q0 -71 34 -119t99 -48q104 0 104 187zM282 540q-13 -6 -30 -14t-27.5 -12.5t-13.5 -6.5q-6 -3 -9 1q-6 13 -7 16q-1 5 5 8q42 19 69 32q-38 58 -98 58q-43 0 -90 -41q-4 -3 -9 2q-6 5 -12 17q-3 6 1 10
q45 39 104 39q96 0 146 -64q51 24 52 24q6 3 8 0q5 -9 8 -17q1 -5 -7 -10q-4 -1 -45 -21q52 -89 52 -307q0 -93 -11 -147q-24 -44 -73 -78.5t-106 -34.5q-79 0 -119 58.5t-40 126.5q0 92 60.5 148.5t137.5 56.5q43 0 90 -20q-5 109 -36 176z" />
    <glyph glyph-name="ntilde" unicode="&#xf1;" horiz-adv-x="511" 
d="M424 290v-241q0 -21 15 -24q28 -6 41 -8q7 -1 7 -5q0 -5 -1 -8q-1 -4 -6 -4q-37 4 -84 4q-49 0 -86 -4q-6 0 -7 4v8q0 4 7 5q5 1 19 4t21 4q17 3 17 23v230q0 89 -93 89q-53 0 -113 -38q-5 -3 -5 -10v-268q0 -23 14 -26q23 -5 45 -8q7 -1 7 -5v-8q0 -4 -5 -4q-64 4 -90 4
q-47 0 -84 -4q-7 -1 -7 3v9q1 4 7 5q19 3 41 8q15 4 15 26v234q0 46 -42 54q-8 1 -10 3q-6 4 0 10q3 3 10 3q53 3 84 38q6 7 9 7q6 0 6 -7v-43q0 -3 2 -2q91 56 155 56q111 0 111 -114zM364 511q6 -6 -3 -18q-29 -38 -61 -38q-23 0 -54 13q-29 12 -47 12q-20 0 -32 -12
q-9 -9 -15 -5q-7 4 3 18q28 39 65 39q18 0 54 -12q38 -12 49 -12q13 0 26 10q11 9 15 5z" />
    <glyph glyph-name="ograve" unicode="&#xf2;" horiz-adv-x="466" 
d="M429 198q0 -82 -56 -143t-139 -61q-85 0 -141 61t-56 143t56 144t140 62q86 0 141 -62t55 -144zM363 200q0 75 -35 129t-95 54q-62 0 -96 -53.5t-34 -129.5t33.5 -130t95.5 -54q64 0 97.5 53.5t33.5 130.5zM283 465q5 -5 1 -10q-1 -1 -4 -1t-5 1q-9 6 -55.5 33t-52.5 31
q-21 12 -21 28q0 10 6.5 16.5t16.5 6.5q11 0 22 -11q6 -6 44 -45t48 -49z" />
    <glyph glyph-name="oacute" unicode="&#xf3;" horiz-adv-x="466" 
d="M429 198q0 -82 -56 -143t-139 -61q-85 0 -141 61t-56 143t56 144t140 62q86 0 141 -62t55 -144zM363 200q0 75 -35 129t-95 54q-62 0 -96 -53.5t-34 -129.5t33.5 -130t95.5 -54q64 0 97.5 53.5t33.5 130.5zM180 465q10 10 48 49t44 45q11 11 22 11q10 0 16.5 -6.5
t6.5 -16.5q0 -15 -21 -28q-6 -4 -52.5 -31t-55.5 -33q-2 -1 -5 -1t-4 1q-4 5 1 10z" />
    <glyph glyph-name="ocircumflex" unicode="&#xf4;" horiz-adv-x="466" 
d="M429 198q0 -82 -56 -143t-139 -61q-85 0 -141 61t-56 143t56 144t140 62q86 0 141 -62t55 -144zM363 200q0 75 -35 129t-95 54q-62 0 -96 -53.5t-34 -129.5t33.5 -130t95.5 -54q64 0 97.5 53.5t33.5 130.5zM329 466q4 -4 1 -9.5t-8 -2.5q-53 29 -88 51q-4 2 -7 0
q-48 -28 -89 -51q-3 -1 -5.5 0.5t-3 5t3.5 7.5q61 61 93 95q5 4 9 0q11 -11 31 -31.5t39.5 -40.5t23.5 -24z" />
    <glyph glyph-name="otilde" unicode="&#xf5;" horiz-adv-x="466" 
d="M429 198q0 -82 -56 -143t-139 -61q-85 0 -141 61t-56 143t56 144t140 62q86 0 141 -62t55 -144zM363 200q0 75 -35 129t-95 54q-62 0 -96 -53.5t-34 -129.5t33.5 -130t95.5 -54q64 0 97.5 53.5t33.5 130.5zM337 511q6 -6 -3 -18q-29 -38 -61 -38q-23 0 -54 13
q-29 12 -47 12q-20 0 -32 -12q-9 -9 -15 -5q-7 4 3 18q28 39 65 39q18 0 54 -12q38 -12 49 -12q13 0 26 10q11 9 15 5z" />
    <glyph glyph-name="odieresis" unicode="&#xf6;" horiz-adv-x="466" 
d="M429 198q0 -82 -56 -143t-139 -61q-85 0 -141 61t-56 143t56 144t140 62q86 0 141 -62t55 -144zM363 200q0 75 -35 129t-95 54q-62 0 -96 -53.5t-34 -129.5t33.5 -130t95.5 -54q64 0 97.5 53.5t33.5 130.5zM338 484q0 -13 -9.5 -22t-22.5 -9t-22 9t-9 22q0 14 9 23t22 9
t22.5 -9t9.5 -23zM188 484q0 -13 -9.5 -22t-22.5 -9t-22.5 9t-9.5 22q0 14 9.5 23t22.5 9t22.5 -9t9.5 -23z" />
    <glyph glyph-name="divide" unicode="&#xf7;" 
d="M418 394q-31 -5 -41 4q-9 8 -4 41q3 18 -7 29q-6 7 -17 7q-4 1 -1 5q15 9 31 -6q15 -13 15 -40q37 65 8 94q-14 14 -25 2q-13 -12 -2 -23q5 9 14 2q8 -6 0 -14q-11 -11 -22 2q-23 25 0 48q13 14 30.5 8t24.5 -27q4 21 18 33q14 13 33.5 16.5t35.5 -4.5q12 -6 1 -9
q-21 -8 -39 -26q-39 -39 -65 -109q68 24 109 65q18 18 26 39q3 11 9 -1q8 -16 4.5 -35.5t-16.5 -33.5q-12 -13 -33 -18q21 -7 27 -24.5t-8 -30.5q-23 -23 -48 0q-13 11 -2 22q6 6 14 0q10 -7 -2 -14q10 -10 23 2q11 12 -2 25q-29 29 -94 -8q27 0 40 -15q15 -16 6 -31
q-3 -3 -5 1q0 11 -7 17q-11 10 -29 7zM180 394q-18 3 -29 -7q-7 -6 -7 -17q-1 -4 -5 -1q-9 15 6 31q13 15 40 15q-65 37 -94 8q-13 -13 -2 -25q13 -12 23 -2q-12 7 -2 14q8 6 14 0q11 -11 -2 -22q-25 -23 -48 0q-14 13 -8 30.5t27 24.5q-21 5 -33 18q-13 14 -16.5 33.5
t4.5 35.5q6 12 9 1q8 -21 26 -39q41 -41 109 -65q-26 70 -65 109q-18 18 -39 26q-11 3 1 9q16 8 35.5 4.5t33.5 -16.5q14 -12 18 -33q7 21 24.5 27t30.5 -8q23 -23 0 -48q-11 -13 -22 -2q-8 8 0 14q9 7 14 -2q11 11 -2 23q-11 12 -25 -2q-29 -29 8 -94q0 27 15 40
q16 15 31 6q3 -3 -1 -5q-11 0 -17 -7q-10 -11 -7 -29q5 -33 -4 -41q-10 -9 -41 -4zM404 321q-38 -25 -59 -46q-19 -19 -46 -58q-27 36 -49 58q-25 25 -58 49q34 22 59 46q21 20 46 58q21 -31 49 -57q33 -31 58 -50zM418 248q18 -3 29 7q7 6 7 17q1 4 5 1q9 -15 -6 -31
q-13 -15 -40 -15q65 -37 94 -8q13 13 2 25q-13 12 -23 2q12 -7 2 -14q-8 -6 -14 0q-11 11 2 22q25 23 48 0q14 -13 8 -30.5t-27 -24.5q21 -5 33 -18q13 -14 16.5 -33.5t-4.5 -35.5q-6 -12 -9 -1q-8 21 -26 39q-41 41 -109 65q26 -70 65 -109q18 -18 39 -26q11 -3 -1 -9
q-16 -8 -35.5 -4.5t-33.5 16.5q-14 12 -18 33q-7 -21 -24.5 -27t-30.5 8q-23 23 0 48q11 13 22 2q8 -8 0 -14q-9 -7 -14 2q-11 -11 2 -23q11 -12 25 2q29 29 -8 94q0 -26 -15 -40q-16 -15 -31 -6q-3 3 1 5q11 0 17 7q10 11 7 29q-5 33 4 41q10 9 41 4zM180 248q31 5 41 -4
q9 -8 4 -41q-3 -18 7 -29q6 -7 17 -7q4 -1 1 -5q-15 -9 -31 6q-15 14 -15 40q-37 -65 -8 -94q14 -14 25 -2q13 12 2 23q-5 -9 -14 -2q-8 6 0 14q11 11 22 -2q23 -25 0 -48q-13 -14 -30.5 -8t-24.5 27q-4 -21 -18 -33q-14 -13 -33.5 -16.5t-35.5 4.5q-12 6 -1 9q21 8 39 26
q39 39 65 109q-68 -24 -109 -65q-18 -18 -26 -39q-3 -11 -9 1q-8 16 -4.5 35.5t16.5 33.5q12 13 33 18q-21 7 -27 24.5t8 30.5q23 23 48 0q13 -11 2 -22q-6 -6 -14 0q-10 7 2 14q-10 10 -23 -2q-11 -12 2 -25q29 -29 94 8q-27 0 -40 15q-15 16 -6 31q3 3 5 -1q0 -11 7 -17
q11 -10 29 -7zM334 367q-23 23 -29 33q-14 -27 -34 -43l27 -27zM375 330q-12 6 -34 28l-36 -35l27 -26q30 25 43 33zM291 323l-27 26q-16 -16 -44 -34q20 -11 35 -27zM324 288l-27 27l-34 -35q20 -21 28 -34q5 12 33 42z" />
    <glyph glyph-name="oslash" unicode="&#xf8;" horiz-adv-x="460" 
d="M306 344q-58 -138 -130 -314q26 -13 55 -13q62 0 94 52.5t32 126.5q0 97 -51 148zM155 45q61 145 131 315q-25 15 -55 15q-61 0 -94.5 -52.5t-33.5 -129.5q0 -102 52 -148zM142 13q-49 24 -77 71.5t-28 107.5q0 84 57.5 145t140.5 61q32 0 62 -11q3 6 13 31q5 11 7 12
q4 3 9 1q8 -4 10 -7q3 -3 -2 -14q-3 -6 -8 -18.5t-6 -15.5q47 -26 75 -75t28 -107q0 -81 -55 -140.5t-137 -59.5q-33 0 -66 10q-5 -13 -17 -41q-4 -7 -8 -7q-8 1 -14 7q-4 4 1 13q2 6 7 18.5t8 18.5z" />
    <glyph glyph-name="ugrave" unicode="&#xf9;" horiz-adv-x="494" 
d="M407 43q0 -9 1 -11t6 -2q6 0 25.5 2t21.5 2q5 0 6 -4q1 -2 1 -10q0 -5 -8 -5q-25 -2 -52 -7q-4 -1 -52 -12q-8 -1 -8 5v40q0 6 -1 6.5t-9 -3.5q-76 -50 -140 -50q-48 0 -77.5 30t-29.5 91v227q0 13 -3 17.5t-11 6.5q-19 3 -42 6q-6 1 -6 5v8q0 4 7 4q36 -2 52 -2
q9 0 27.5 1t23.5 1q10 0 10 -9v-262q0 -43 21.5 -65t71.5 -22q51 0 102 38q5 4 5 11v263q0 14 -1.5 17.5t-9.5 4.5q-6 1 -15.5 2.5t-19.5 3t-14 2.5q-7 2 -7 3v9q1 4 6 4q9 0 31 -1t32 -1q8 0 24.5 1t23.5 1q8 0 8 -8v-338zM295 465q5 -5 1 -10q-1 -1 -4 -1t-5 1
q-9 6 -55.5 33t-52.5 31q-21 12 -21 28q0 10 6.5 16.5t16.5 6.5q11 0 22 -11q6 -6 44 -45t48 -49z" />
    <glyph glyph-name="uacute" unicode="&#xfa;" horiz-adv-x="494" 
d="M407 43q0 -9 1 -11t6 -2q6 0 25.5 2t21.5 2q5 0 6 -4q1 -2 1 -10q0 -5 -8 -5q-25 -2 -52 -7q-4 -1 -52 -12q-8 -1 -8 5v40q0 6 -1 6.5t-9 -3.5q-76 -50 -140 -50q-48 0 -77.5 30t-29.5 91v227q0 13 -3 17.5t-11 6.5q-19 3 -42 6q-6 1 -6 5v8q0 4 7 4q36 -2 52 -2
q9 0 27.5 1t23.5 1q10 0 10 -9v-262q0 -43 21.5 -65t71.5 -22q51 0 102 38q5 4 5 11v263q0 14 -1.5 17.5t-9.5 4.5q-6 1 -15.5 2.5t-19.5 3t-14 2.5q-7 2 -7 3v9q1 4 6 4q9 0 31 -1t32 -1q8 0 24.5 1t23.5 1q8 0 8 -8v-338zM192 465q10 10 48 49t44 45q11 11 22 11
q10 0 16.5 -6.5t6.5 -16.5q0 -15 -21 -28q-6 -4 -52.5 -31t-55.5 -33q-2 -1 -5 -1t-4 1q-4 5 1 10z" />
    <glyph glyph-name="ucircumflex" unicode="&#xfb;" horiz-adv-x="494" 
d="M407 43q0 -9 1 -11t6 -2q6 0 25.5 2t21.5 2q5 0 6 -4q1 -2 1 -10q0 -5 -8 -5q-25 -2 -52 -7q-4 -1 -52 -12q-8 -1 -8 5v40q0 6 -1 6.5t-9 -3.5q-76 -50 -140 -50q-48 0 -77.5 30t-29.5 91v227q0 13 -3 17.5t-11 6.5q-19 3 -42 6q-6 1 -6 5v8q0 4 7 4q36 -2 52 -2
q9 0 27.5 1t23.5 1q10 0 10 -9v-262q0 -43 21.5 -65t71.5 -22q51 0 102 38q5 4 5 11v263q0 14 -1.5 17.5t-9.5 4.5q-6 1 -15.5 2.5t-19.5 3t-14 2.5q-7 2 -7 3v9q1 4 6 4q9 0 31 -1t32 -1q8 0 24.5 1t23.5 1q8 0 8 -8v-338zM338 466q4 -4 1 -9.5t-8 -2.5q-53 29 -88 51
q-4 2 -7 0q-48 -28 -89 -51q-3 -1 -5.5 0.5t-3 5t3.5 7.5q61 61 93 95q5 4 9 0q11 -11 31 -31.5t39.5 -40.5t23.5 -24z" />
    <glyph glyph-name="udieresis" unicode="&#xfc;" horiz-adv-x="494" 
d="M407 43q0 -9 1 -11t6 -2q6 0 25.5 2t21.5 2q5 0 6 -4q1 -2 1 -10q0 -5 -8 -5q-25 -2 -52 -7q-4 -1 -52 -12q-8 -1 -8 5v40q0 6 -1 6.5t-9 -3.5q-76 -50 -140 -50q-48 0 -77.5 30t-29.5 91v227q0 13 -3 17.5t-11 6.5q-19 3 -42 6q-6 1 -6 5v8q0 4 7 4q36 -2 52 -2
q9 0 27.5 1t23.5 1q10 0 10 -9v-262q0 -43 21.5 -65t71.5 -22q51 0 102 38q5 4 5 11v263q0 14 -1.5 17.5t-9.5 4.5q-6 1 -15.5 2.5t-19.5 3t-14 2.5q-7 2 -7 3v9q1 4 6 4q9 0 31 -1t32 -1q8 0 24.5 1t23.5 1q8 0 8 -8v-338zM347 484q0 -13 -9.5 -22t-22.5 -9t-22 9t-9 22
q0 14 9 23t22 9t22.5 -9t9.5 -23zM197 484q0 -13 -9.5 -22t-22.5 -9t-22.5 9t-9.5 22q0 14 9.5 23t22.5 9t22.5 -9t9.5 -23z" />
    <glyph glyph-name="yacute" unicode="&#xfd;" horiz-adv-x="437" 
d="M436 376q0 -3 -7 -4q-16 -2 -26 -4q-11 -2 -20 -25q-99 -241 -137 -344q-45 -121 -87 -212q-31 -66 -77 -66q-16 0 -27 9t-11 24t12.5 25t29.5 10q10 0 25 -6q13 -6 21 11q63 126 81 175q5 13 4.5 18.5t-6.5 21.5q-8 18 -78.5 173t-76.5 169q-6 13 -15 15q-5 1 -11 2.5
t-11 3t-6 1.5q-6 1 -6 4q0 8 1 10t3 2q56 -2 80 -2q37 0 83 2q4 0 6 -3q2 -4 2 -9q0 -4 -5 -4q-27 -3 -47 -7q-11 -3 -4 -20q12 -28 58.5 -137t56.5 -133q4 -12 6.5 -12t6.5 10q71 199 90 275q4 16 -10 18q-3 1 -16 2.5t-22 3.5q-7 1 -7 4t2 9q1 3 5 3q3 0 31.5 -1.5
t43.5 -1.5q10 0 20 0.5t21 1.5t18 1q4 0 5 -3l1 -4v-6zM164 465q10 10 48 49t44 45q11 11 22 11q10 0 16.5 -6.5t6.5 -16.5q0 -15 -21 -28q-6 -4 -52.5 -31t-55.5 -33q-2 -1 -5 -1t-4 1q-4 5 1 10z" />
    <glyph glyph-name="thorn" unicode="&#xfe;" horiz-adv-x="486" 
d="M450 220q0 -97 -61.5 -161.5t-144.5 -64.5q-45 0 -90 14q-2 1 -3 0.5t-1 -4.5v-235q0 -11 3 -15.5t13 -6.5q7 -2 50 -7q6 -1 6 -5v-10q0 -4 -6 -4q-40 4 -94 4q-37 0 -85 -4q-5 0 -6 4v10q1 5 5 5q22 2 43 7q14 4 14 25v786q0 29 -9 39.5t-34 11.5q-8 0 -11 4q-3 3 -1 7
t7 5q54 12 93 46q4 4 7 4q5 0 5 -6v-308q0 -5 5 -2q75 45 132 45q74 0 118.5 -55t44.5 -129zM389 195q0 78 -41 127t-98 49q-42 0 -88 -28q-12 -8 -12 -23v-265q0 -9 6 -13q45 -27 89 -27q66 0 105 50t39 130z" />
    <glyph glyph-name="ydieresis" unicode="&#xff;" horiz-adv-x="437" 
d="M436 376q0 -3 -7 -4q-16 -2 -26 -4q-11 -2 -20 -25q-99 -241 -137 -344q-45 -121 -87 -212q-31 -66 -77 -66q-16 0 -27 9t-11 24t12.5 25t29.5 10q10 0 25 -6q13 -6 21 11q63 126 81 175q5 13 4.5 18.5t-6.5 21.5q-8 18 -78.5 173t-76.5 169q-6 13 -15 15q-5 1 -11 2.5
t-11 3t-6 1.5q-6 1 -6 4q0 8 1 10t3 2q56 -2 80 -2q37 0 83 2q4 0 6 -3q2 -4 2 -9q0 -4 -5 -4q-27 -3 -47 -7q-11 -3 -4 -20q12 -28 58.5 -137t56.5 -133q4 -12 6.5 -12t6.5 10q71 199 90 275q4 16 -10 18q-3 1 -16 2.5t-22 3.5q-7 1 -7 4t2 9q1 3 5 3q3 0 31.5 -1.5
t43.5 -1.5q10 0 20 0.5t21 1.5t18 1q4 0 5 -3l1 -4v-6zM322 484q0 -13 -9.5 -22t-22.5 -9t-22 9t-9 22q0 14 9 23t22 9t22.5 -9t9.5 -23zM172 484q0 -13 -9.5 -22t-22.5 -9t-22.5 9t-9.5 22q0 14 9.5 23t22.5 9t22.5 -9t9.5 -23z" />
    <glyph glyph-name="dotlessi" unicode="&#x131;" horiz-adv-x="229" 
d="M214 4q0 -4 -5 -4q-63 3 -86 3q-34 0 -82 -3q-7 0 -7 4v9q0 3 7 4l44 8q11 2 11 17v243q0 24 -10 36t-36 15q-7 1 -7 9q0 9 10 9q30 0 50 7q22 9 36 30q5 7 9 7q9 0 7 -9q-2 -14 -2 -45v-301q0 -15 14 -18q20 -5 42 -8q5 -1 5 -5v-8z" />
    <glyph glyph-name="Lslash" unicode="&#x141;" horiz-adv-x="537" 
d="M188 272v-218q0 -17 3 -21t17 -4q174 0 248 10q14 3 23 14q7 9 49 61q4 5 8 4q7 -2 9 -7q3 -4 1 -7q-22 -29 -55 -95q-4 -7 -6.5 -8.5t-10.5 -1.5q-66 0 -162 2t-158 2q-23 0 -61.5 -1.5t-47.5 -1.5q-7 0 -7 3v13q0 5 6 5q3 0 15 1.5t24 2.5t18 2q12 2 15 7t3 20v199
q-9 -3 -22.5 -7t-17.5 -5q-30 -8 -39 -6q-10 2 -7 15q2 6 18 11q9 3 32.5 10.5t35.5 11.5v305q0 17 -2.5 21.5t-12.5 5.5q-42 4 -63 7q-8 1 -8 5q0 8 1 11q1 4 7 4q70 -5 112 -5q24 0 116 5q8 0 8 -4v-11q0 -4 -7 -5q-49 -6 -66 -7q-10 -1 -13 -5.5t-3 -18.5v-286
q89 28 107 34q37 12 37 4v-2q-4 -16 -9 -25t-40 -18q-4 -1 -37.5 -10.5t-57.5 -15.5z" />
    <glyph glyph-name="lslash" unicode="&#x142;" horiz-adv-x="234" 
d="M151 271v-224q0 -19 14 -22q32 -7 46 -8q7 -1 7 -4q0 -8 -1 -10q-1 -3 -6 -3q-40 4 -88 4q-53 0 -86 -4q-6 0 -6 3v10q0 3 5 4q40 7 42 8q15 3 15 21v209q-20 -4 -31 -8q-25 -7 -31 -4q-10 4 -8 11q3 8 22 14q7 3 48 16v318q0 12 -7 16q-9 4 -25 10q-6 2 -6 6t7 7
q48 18 79 32q10 4 10 -4v-366q45 15 53 17q13 4 20 5t9 -1t1 -5t-3 -10t-4 -10q-4 -9 -28 -15q-7 -2 -24.5 -6.5t-23.5 -6.5z" />
    <glyph glyph-name="OE" unicode="&#x152;" horiz-adv-x="908" 
d="M881 114q-31 -90 -34 -109q-2 -9 -16 -8q-116 4 -321 4q-40 0 -56 -1q-9 0 -15 -1q-40 -6 -67 -6q-147 0 -239 96t-92 237q0 137 91.5 234t239.5 97q42 0 84 -8q6 -2 13 -2q8 -1 46 -1q259 0 307 3q7 1 9 -0.5t4 -8.5q14 -57 28 -97q1 -6 -1 -7q-6 -4 -10 -4q-3 -2 -7 5
q-5 10 -17.5 35.5t-14.5 30.5q-5 11 -25 12q-131 8 -219 8q-9 0 -11 -2.5t-2 -13.5v-255q0 -10 7 -10q96 0 201 12q11 1 14 4t6 17q2 7 5 24t4 25q1 7 6 7h6q4 0 3 -8q0 -8 -1.5 -42t-1.5 -49q0 -50 2 -92q0 -8 -3 -8q-1 0 -3.5 -0.5t-3.5 -0.5q-5 0 -6 6q-9 62 -9 64
q-2 10 -4.5 12.5t-13.5 3.5q-93 3 -199 3q-6 0 -7.5 -1t-1.5 -8v-273q0 -9 2 -11t10 -2q7 0 21 -0.5t20 -0.5q130 0 205 13q8 1 14 11q21 42 37 72q3 6 7 5q7 -2 8 -4q2 -1 1 -7zM480 59v532q0 5 -4 9q-51 30 -112 30q-110 0 -175 -89t-65 -215q0 -127 62.5 -216.5
t177.5 -89.5q66 0 112 29q4 3 4 10z" />
    <glyph glyph-name="oe" unicode="&#x153;" horiz-adv-x="702" 
d="M612 297q-2 30 -22 54.5t-56 24.5q-34 0 -63 -23.5t-44 -62.5q-3 -7 2 -7q62 0 178 8q5 0 5 6zM354 196q0 73 -33 126t-92 53q-62 0 -95.5 -53.5t-33.5 -129.5q0 -73 32.5 -124.5t95.5 -51.5q62 0 94 53t32 127zM379 74q-23 -34 -64 -57t-87 -23q-85 0 -138 56.5
t-53 140.5t56.5 145t139.5 61q95 0 152 -88q4 -5 8 1q23 36 63.5 61.5t86.5 25.5q59 0 91.5 -38.5t34.5 -82.5q0 -10 -11 -10q-33 -1 -232 -1q-7 0 -7 -4q-8 -29 -8 -51q0 -79 39 -125t112 -46q55 0 102 40q5 4 8 2q4 -4 5 -6q2 -6 -3 -11q-70 -70 -147 -70q-46 0 -82.5 22
t-58.5 57q-4 5 -7 1z" />
    <glyph glyph-name="Scaron" unicode="&#x160;" horiz-adv-x="453" 
d="M398 175q0 -75 -56 -128.5t-142 -53.5q-66 0 -137 34q-9 3 -9 17q-3 33 -11 86q-1 5 2 7q4 1 12 1q3 0 4 -4q19 -54 25 -64q2 -4 5 -7q41 -44 111 -44q59 0 97.5 36.5t38.5 95.5q0 40 -16 65t-53 53q-6 4 -124 90q-87 62 -87 138q0 61 50.5 106t132.5 45q60 0 103 -15
q14 -5 15 -14q1 -5 7 -36.5t9 -42.5q1 -6 -2 -8q-6 -3 -10 -3q-5 0 -7 8q-11 31 -18 49q-2 5 -6 8q-39 31 -97 31q-56 0 -89 -31.5t-33 -71.5q0 -35 25.5 -64t81.5 -66q80 -52 110 -78q68 -59 68 -139zM318 792q-7 -6 -44 -44t-47 -47q-4 -4 -9 0l-50 50t-40 41q-3 3 -3.5 6
t2 3.5t5.5 -0.5q15 -7 88 -48q4 -2 7 0q41 25 86 48q5 2 7.5 -1t-2.5 -8z" />
    <glyph glyph-name="scaron" unicode="&#x161;" horiz-adv-x="311" 
d="M273 107q0 -44 -37 -78.5t-87 -34.5q-51 0 -91 17q-6 3 -6 7q-1 16 -3.5 41.5t-2.5 32.5q0 4 3 6q4 2 7 2q4 0 5 -6q6 -27 14 -43q1 -2 7 -10q21 -26 64 -26q33 0 53.5 20.5t20.5 49.5q0 38 -36 68q-40 34 -83 65q-48 37 -48 86q0 42 32.5 71t80.5 29q19 0 74 -13
q8 -1 8 -11q0 -33 4 -57q1 -9 -2 -10q-2 -1 -7 -1q-4 0 -6 8q-2 15 -11 33q-3 7 -9 11q-23 19 -56 19q-30 0 -46 -16t-16 -39q0 -20 9 -32.5t34 -31.5q23 -15 69 -53q34 -27 48 -50.5t14 -53.5zM251 547q-7 -6 -44 -44t-47 -47q-4 -4 -9 0l-50 50t-40 41q-3 3 -3.5 6t2 3.5
t5.5 -0.5q15 -7 88 -48q4 -2 7 0q41 25 86 48q5 2 7.5 -1t-2.5 -8z" />
    <glyph glyph-name="Ydieresis" unicode="&#x178;" horiz-adv-x="623" 
d="M618 629q0 -6 -7 -6q-4 0 -21 -2.5t-24 -3.5q-3 0 -6 -1t-4.5 -2t-3.5 -3.5t-2.5 -3.5t-3 -5t-3.5 -6q-169 -269 -180 -286q-8 -13 -8 -35v-219q0 -15 3.5 -20t15.5 -7q7 -1 19 -2.5t26 -3t19 -2.5q8 -1 8 -5q0 -7 -1 -12q-1 -4 -5 -4q-49 5 -116 5q-61 0 -116 -5
q-8 -1 -8 4v10q0 5 6 6q47 4 65 9q10 2 13 7.5t3 20.5v215q0 10 -9 25q-16 26 -94.5 146t-101.5 154q-6 9 -8.5 12t-6 5t-10.5 3q-4 1 -12.5 2.5t-15 2.5t-11.5 1q-7 0 -7 5v10q1 5 9 4q53 -4 99 -4q76 0 118 4q7 1 7 -4v-10q0 -4 -7 -4q-4 -1 -19 -3t-27 -3.5t-17 -2.5
q-19 -4 -8 -22q15 -23 83 -129.5t80 -124.5q8 -13 12 -14t12 12q118 202 136 245q8 20 5.5 26.5t-16.5 8.5q-40 5 -46 5q-7 1 -7 5q0 8 1 10q0 5 7 5q51 -4 96 -4q33 0 85 4q5 0 5 -4q0 -2 -0.5 -5t-0.5 -4zM413 729q0 -13 -9.5 -22t-22.5 -9t-22 9t-9 22q0 14 9 23t22 9
t22.5 -9t9.5 -23zM263 729q0 -13 -9.5 -22t-22.5 -9t-22.5 9t-9.5 22q0 14 9.5 23t22.5 9t22.5 -9t9.5 -23z" />
    <glyph glyph-name="Zcaron" unicode="&#x17d;" horiz-adv-x="586" 
d="M488 39q15 1 20 14q21 51 35 79q3 7 7 7t10 -3q4 -2 1 -10q-13 -42 -31 -123q-1 -7 -9 -7q-156 6 -421 6q-7 0 -31.5 -1t-38.5 -1q-18 0 -6 17q38 53 137 189t182 249.5t106 147.5q4 5 5 8t-1 4t-7 1q-191 0 -333 -15q-16 -1 -22 -14q-24 -52 -36 -89q-2 -7 -7 -5
q-1 0 -3 1t-3.5 1.5t-2.5 0.5q-5 2 -3 9q20 69 32 138q1 7 6 7h6q5 0 7 -4q5 -8 18 -8q56 0 237.5 2t203.5 2q12 0 6 -10q-21 -30 -192 -264t-242 -336q-5 -6 4 -6q252 0 366 13zM381 792q-7 -6 -44 -44t-47 -47q-4 -4 -9 0l-50 50t-40 41q-3 3 -3.5 6t2 3.5t5.5 -0.5
q15 -7 88 -48q4 -2 7 0q41 25 86 48q5 2 7.5 -1t-2.5 -8z" />
    <glyph glyph-name="zcaron" unicode="&#x17e;" horiz-adv-x="386" 
d="M363 84q-11 -48 -15 -80q-1 -9 -12 -8q-23 2 -73 4q-22 1 -208 1q-7 0 -17.5 -0.5t-16.5 -0.5q-11 0 -3 9q20 24 62 83q12 16 40.5 56t35.5 49q22 29 68.5 91t51.5 69q6 9 -4 9q-122 0 -170 -6q-15 -3 -20 -11q-2 -4 -7.5 -12t-13 -17.5t-10.5 -14.5q-7 -9 -9 -8
q-6 2 -7 3q-3 3 0 8q21 40 36 76q3 5 9 5q73 -3 145 -3q69 0 131 2q9 0 3 -9q-18 -26 -88 -118t-102 -137q-10 -15 -67 -94q-3 -5 -4 -7t0.5 -2.5t5.5 -0.5q126 0 203 7q15 1 22 15q11 22 18 43q3 10 6 10q4 0 8 -2q4 -1 2 -9zM289 547q-7 -6 -44 -44t-47 -47q-4 -4 -9 0
l-50 50t-40 41q-3 3 -3.5 6t2 3.5t5.5 -0.5q15 -7 88 -48q4 -2 7 0q41 25 86 48q5 2 7.5 -1t-2.5 -8z" />
    <glyph glyph-name="florin" unicode="&#x192;" horiz-adv-x="356" 
d="M128 -86q-10 -72 -56 -133t-89 -61q-12 0 -18.5 6t-6.5 13q0 15 14.5 25t34.5 10q12 0 24 -6q2 0 4 2q17 17 23 64q17 127 72 463q1 4 -3 4h-40q-7 0 -7 2v4q0 5 3 17q1 5 6 5h41q5 0 6 7q1 4 11 71q11 73 56.5 133t88.5 60q28 0 25 -23q-1 -13 -15.5 -21.5t-32.5 -8.5
q-13 0 -23 5q-4 1 -7 -2q-16 -18 -21 -64q-7 -49 -26 -154q0 -4 3 -4q14 0 40.5 0.5t27.5 0.5q7 0 7 -6q0 -3 -0.5 -9t-0.5 -8q-1 -6 -7 -6q-3 0 -31.5 0.5t-39.5 0.5q-4 0 -4 -4q-55 -345 -59 -383z" />
    <glyph glyph-name="circumflex" unicode="&#x2c6;" horiz-adv-x="500" 
d="M348 466q4 -4 1 -9.5t-8 -2.5q-53 29 -88 51q-4 2 -7 0q-48 -28 -89 -51q-3 -1 -5.5 0.5t-3 5t3.5 7.5q61 61 93 95q5 4 9 0q11 -11 31 -31.5t39.5 -40.5t23.5 -24z" />
    <glyph glyph-name="caron" unicode="&#x2c7;" horiz-adv-x="500" 
d="M347 547q-7 -6 -44 -44t-47 -47q-4 -4 -9 0l-50 50t-40 41q-3 3 -3.5 6t2 3.5t5.5 -0.5q15 -7 88 -48q4 -2 7 0q41 25 86 48q5 2 7.5 -1t-2.5 -8z" />
    <glyph glyph-name="breve" unicode="&#x2d8;" horiz-adv-x="500" 
d="M250 493q24 0 46 15t31 41q2 4 5 4h7q5 0 4 -5q-6 -44 -32.5 -69t-60.5 -25q-33 0 -60 25t-33 69q-1 5 4 5h7q5 0 6 -4q9 -26 31 -41t45 -15z" />
    <glyph glyph-name="dotaccent" unicode="&#x2d9;" horiz-adv-x="500" 
d="M288 490q0 -14 -12 -25t-27 -11q-18 0 -27.5 10t-9.5 26q0 18 11.5 28.5t30.5 10.5q15 0 24.5 -10.5t9.5 -28.5z" />
    <glyph glyph-name="ring" unicode="&#x2da;" horiz-adv-x="500" 
d="M305 508q0 -24 -15.5 -39t-39.5 -15q-23 0 -39 15t-16 39q0 23 16 39t39 16t39 -16t16 -39zM280 508q0 12 -9 21.5t-21 9.5q-11 0 -20 -9.5t-9 -21.5t9 -21.5t20 -9.5q12 0 21 9.5t9 21.5z" />
    <glyph glyph-name="ogonek" unicode="&#x2db;" horiz-adv-x="500" 
d="M248 8q-23 -17 -23 -44q0 -16 10 -27.5t28 -11.5q15 0 38 10q5 2 7 0q3 -3 3 -6q0 -2 -4 -6q-25 -25 -60 -25q-27 0 -43 16t-16 37q0 36 41 60q2 1 6 1h13q4 0 0 -4z" />
    <glyph glyph-name="tilde" unicode="&#x2dc;" horiz-adv-x="500" 
d="M356 511q6 -6 -3 -18q-29 -38 -61 -38q-23 0 -54 13q-29 12 -47 12q-20 0 -32 -12q-9 -9 -15 -5q-7 4 3 18q28 39 65 39q18 0 54 -12q38 -12 49 -12q13 0 26 10q11 9 15 5z" />
    <glyph glyph-name="hungarumlaut" unicode="&#x2dd;" horiz-adv-x="500" 
d="M147 464q48 61 71 93q7 11 19 13q20 2 24 -18q3 -13 -16 -28q-6 -4 -27 -20t-39 -29.5t-24 -18.5q-1 -1 -4 -1.5t-4 0.5q-4 4 0 9zM241 464q48 61 71 93q7 11 19 13q20 2 24 -18q3 -13 -16 -28q-6 -4 -27 -20t-39 -29.5t-24 -18.5q-1 -1 -4 -1.5t-4 0.5q-4 4 0 9z" />
    <glyph glyph-name="Delta" unicode="&#x394;" 
d="M418 394q-31 -5 -41 4q-9 8 -4 41q3 18 -7 29q-6 7 -17 7q-4 1 -1 5q15 9 31 -6q15 -13 15 -40q37 65 8 94q-14 14 -25 2q-13 -12 -2 -23q5 9 14 2q8 -6 0 -14q-11 -11 -22 2q-23 25 0 48q13 14 30.5 8t24.5 -27q4 21 18 33q14 13 33.5 16.5t35.5 -4.5q12 -6 1 -9
q-21 -8 -39 -26q-39 -39 -65 -109q68 24 109 65q18 18 26 39q3 11 9 -1q8 -16 4.5 -35.5t-16.5 -33.5q-12 -13 -33 -18q21 -7 27 -24.5t-8 -30.5q-23 -23 -48 0q-13 11 -2 22q6 6 14 0q10 -7 -2 -14q10 -10 23 2q11 12 -2 25q-29 29 -94 -8q27 0 40 -15q15 -16 6 -31
q-3 -3 -5 1q0 11 -7 17q-11 10 -29 7zM180 394q-18 3 -29 -7q-7 -6 -7 -17q-1 -4 -5 -1q-9 15 6 31q13 15 40 15q-65 37 -94 8q-13 -13 -2 -25q13 -12 23 -2q-12 7 -2 14q8 6 14 0q11 -11 -2 -22q-25 -23 -48 0q-14 13 -8 30.5t27 24.5q-21 5 -33 18q-13 14 -16.5 33.5
t4.5 35.5q6 12 9 1q8 -21 26 -39q41 -41 109 -65q-26 70 -65 109q-18 18 -39 26q-11 3 1 9q16 8 35.5 4.5t33.5 -16.5q14 -12 18 -33q7 21 24.5 27t30.5 -8q23 -23 0 -48q-11 -13 -22 -2q-8 8 0 14q9 7 14 -2q11 11 -2 23q-11 12 -25 -2q-29 -29 8 -94q0 27 15 40
q16 15 31 6q3 -3 -1 -5q-11 0 -17 -7q-10 -11 -7 -29q5 -33 -4 -41q-10 -9 -41 -4zM404 321q-38 -25 -59 -46q-19 -19 -46 -58q-27 36 -49 58q-25 25 -58 49q34 22 59 46q21 20 46 58q21 -31 49 -57q33 -31 58 -50zM418 248q18 -3 29 7q7 6 7 17q1 4 5 1q9 -15 -6 -31
q-13 -15 -40 -15q65 -37 94 -8q13 13 2 25q-13 12 -23 2q12 -7 2 -14q-8 -6 -14 0q-11 11 2 22q25 23 48 0q14 -13 8 -30.5t-27 -24.5q21 -5 33 -18q13 -14 16.5 -33.5t-4.5 -35.5q-6 -12 -9 -1q-8 21 -26 39q-41 41 -109 65q26 -70 65 -109q18 -18 39 -26q11 -3 -1 -9
q-16 -8 -35.5 -4.5t-33.5 16.5q-14 12 -18 33q-7 -21 -24.5 -27t-30.5 8q-23 23 0 48q11 13 22 2q8 -8 0 -14q-9 -7 -14 2q-11 -11 2 -23q11 -12 25 2q29 29 -8 94q0 -26 -15 -40q-16 -15 -31 -6q-3 3 1 5q11 0 17 7q10 11 7 29q-5 33 4 41q10 9 41 4zM180 248q31 5 41 -4
q9 -8 4 -41q-3 -18 7 -29q6 -7 17 -7q4 -1 1 -5q-15 -9 -31 6q-15 14 -15 40q-37 -65 -8 -94q14 -14 25 -2q13 12 2 23q-5 -9 -14 -2q-8 6 0 14q11 11 22 -2q23 -25 0 -48q-13 -14 -30.5 -8t-24.5 27q-4 -21 -18 -33q-14 -13 -33.5 -16.5t-35.5 4.5q-12 6 -1 9q21 8 39 26
q39 39 65 109q-68 -24 -109 -65q-18 -18 -26 -39q-3 -11 -9 1q-8 16 -4.5 35.5t16.5 33.5q12 13 33 18q-21 7 -27 24.5t8 30.5q23 23 48 0q13 -11 2 -22q-6 -6 -14 0q-10 7 2 14q-10 10 -23 -2q-11 -12 2 -25q29 -29 94 8q-27 0 -40 15q-15 16 -6 31q3 3 5 -1q0 -11 7 -17
q11 -10 29 -7zM334 367q-23 23 -29 33q-14 -27 -34 -43l27 -27zM375 330q-12 6 -34 28l-36 -35l27 -26q30 25 43 33zM291 323l-27 26q-16 -16 -44 -34q20 -11 35 -27zM324 288l-27 27l-34 -35q20 -21 28 -34q5 12 33 42z" />
    <glyph glyph-name="Delta" unicode="&#x2206;" 
d="M418 394q-31 -5 -41 4q-9 8 -4 41q3 18 -7 29q-6 7 -17 7q-4 1 -1 5q15 9 31 -6q15 -13 15 -40q37 65 8 94q-14 14 -25 2q-13 -12 -2 -23q5 9 14 2q8 -6 0 -14q-11 -11 -22 2q-23 25 0 48q13 14 30.5 8t24.5 -27q4 21 18 33q14 13 33.5 16.5t35.5 -4.5q12 -6 1 -9
q-21 -8 -39 -26q-39 -39 -65 -109q68 24 109 65q18 18 26 39q3 11 9 -1q8 -16 4.5 -35.5t-16.5 -33.5q-12 -13 -33 -18q21 -7 27 -24.5t-8 -30.5q-23 -23 -48 0q-13 11 -2 22q6 6 14 0q10 -7 -2 -14q10 -10 23 2q11 12 -2 25q-29 29 -94 -8q27 0 40 -15q15 -16 6 -31
q-3 -3 -5 1q0 11 -7 17q-11 10 -29 7zM180 394q-18 3 -29 -7q-7 -6 -7 -17q-1 -4 -5 -1q-9 15 6 31q13 15 40 15q-65 37 -94 8q-13 -13 -2 -25q13 -12 23 -2q-12 7 -2 14q8 6 14 0q11 -11 -2 -22q-25 -23 -48 0q-14 13 -8 30.5t27 24.5q-21 5 -33 18q-13 14 -16.5 33.5
t4.5 35.5q6 12 9 1q8 -21 26 -39q41 -41 109 -65q-26 70 -65 109q-18 18 -39 26q-11 3 1 9q16 8 35.5 4.5t33.5 -16.5q14 -12 18 -33q7 21 24.5 27t30.5 -8q23 -23 0 -48q-11 -13 -22 -2q-8 8 0 14q9 7 14 -2q11 11 -2 23q-11 12 -25 -2q-29 -29 8 -94q0 27 15 40
q16 15 31 6q3 -3 -1 -5q-11 0 -17 -7q-10 -11 -7 -29q5 -33 -4 -41q-10 -9 -41 -4zM404 321q-38 -25 -59 -46q-19 -19 -46 -58q-27 36 -49 58q-25 25 -58 49q34 22 59 46q21 20 46 58q21 -31 49 -57q33 -31 58 -50zM418 248q18 -3 29 7q7 6 7 17q1 4 5 1q9 -15 -6 -31
q-13 -15 -40 -15q65 -37 94 -8q13 13 2 25q-13 12 -23 2q12 -7 2 -14q-8 -6 -14 0q-11 11 2 22q25 23 48 0q14 -13 8 -30.5t-27 -24.5q21 -5 33 -18q13 -14 16.5 -33.5t-4.5 -35.5q-6 -12 -9 -1q-8 21 -26 39q-41 41 -109 65q26 -70 65 -109q18 -18 39 -26q11 -3 -1 -9
q-16 -8 -35.5 -4.5t-33.5 16.5q-14 12 -18 33q-7 -21 -24.5 -27t-30.5 8q-23 23 0 48q11 13 22 2q8 -8 0 -14q-9 -7 -14 2q-11 -11 2 -23q11 -12 25 2q29 29 -8 94q0 -26 -15 -40q-16 -15 -31 -6q-3 3 1 5q11 0 17 7q10 11 7 29q-5 33 4 41q10 9 41 4zM180 248q31 5 41 -4
q9 -8 4 -41q-3 -18 7 -29q6 -7 17 -7q4 -1 1 -5q-15 -9 -31 6q-15 14 -15 40q-37 -65 -8 -94q14 -14 25 -2q13 12 2 23q-5 -9 -14 -2q-8 6 0 14q11 11 22 -2q23 -25 0 -48q-13 -14 -30.5 -8t-24.5 27q-4 -21 -18 -33q-14 -13 -33.5 -16.5t-35.5 4.5q-12 6 -1 9q21 8 39 26
q39 39 65 109q-68 -24 -109 -65q-18 -18 -26 -39q-3 -11 -9 1q-8 16 -4.5 35.5t16.5 33.5q12 13 33 18q-21 7 -27 24.5t8 30.5q23 23 48 0q13 -11 2 -22q-6 -6 -14 0q-10 7 2 14q-10 10 -23 -2q-11 -12 2 -25q29 -29 94 8q-27 0 -40 15q-15 16 -6 31q3 3 5 -1q0 -11 7 -17
q11 -10 29 -7zM334 367q-23 23 -29 33q-14 -27 -34 -43l27 -27zM375 330q-12 6 -34 28l-36 -35l27 -26q30 25 43 33zM291 323l-27 26q-16 -16 -44 -34q20 -11 35 -27zM324 288l-27 27l-34 -35q20 -21 28 -34q5 12 33 42z" />
    <glyph glyph-name="pi" unicode="&#x3c0;" horiz-adv-x="666" 
d="M621 357q0 -118 -83.5 -201.5t-202.5 -83.5t-202 83t-83 202t83 202t202 83t202.5 -83.5t83.5 -201.5zM594 357q0 107 -76 183.5t-183 76.5t-182.5 -76.5t-75.5 -183.5t75.5 -183.5t182.5 -76.5t183 76.5t76 183.5zM474 439q0 -51 -34 -77t-82 -26q-22 0 -22 3q0 6 1 7
q1 2 17 2q36 0 56.5 21.5t20.5 61.5q0 85 -83 85q-22 0 -29 -2t-7 -10v-283q0 -10 8 -12t38 -5q3 0 3 -3v-7q0 -3 -3 -3q-20 2 -67 2q-39 0 -61 -2q-3 0 -3 2v9q0 2 4 2q21 2 31 5q7 1 7 11v284q0 8 -7 10q-15 3 -34 5q-3 0 -3 2v8q0 3 4 3q44 -2 60 -2q8 0 33 1.5t39 1.5
q49 0 81 -25t32 -69z" />
    <glyph glyph-name="endash" unicode="&#x2013;" horiz-adv-x="635" 
d="M562 210q0 -13 -2 -17q-3 -12 -12 -13q-19 -3 -441 -3q-29 0 -32 6q-2 4 -2 12q0 9 3 15q2 6 12 7q49 6 435 6q25 0 31 -2q8 -3 8 -11z" />
    <glyph glyph-name="emdash" unicode="&#x2014;" horiz-adv-x="773" 
d="M698 188q-2 -7 -12 -8q-19 -3 -579 -3q-29 0 -32 6q-2 4 -2 10q0 11 3 17q2 6 12 7q49 6 573 6q25 0 31 -2q8 -3 8 -11q0 -18 -2 -22z" />
    <glyph glyph-name="quoteleft" unicode="&#x2018;" horiz-adv-x="193" 
d="M95 529q7 3 20 1q15 -3 26 -13t11 -26q0 -19 -13.5 -31.5t-31.5 -12.5q-27 0 -42.5 22t-15.5 54q0 40 21 73t54 51q4 1 7 0q2 -1 4 -6q1 -3 -3 -7q-47 -39 -47 -85q0 -11 3 -16q3 -6 7 -4z" />
    <glyph glyph-name="quoteright" unicode="&#x2019;" horiz-adv-x="193" 
d="M109 566q-7 -3 -20 -1q-15 3 -26 13t-11 26q0 19 13.5 31.5t31.5 12.5q27 0 42.5 -22t15.5 -54q0 -40 -21 -73t-54 -51q-4 -1 -7 0q-2 1 -4 6q-1 3 3 7q47 39 47 85q0 10 -3 16t-7 4z" />
    <glyph glyph-name="quotesinglbase" unicode="&#x201a;" horiz-adv-x="176" 
d="M95 1q-5 -1 -16 -1q-14 1 -24.5 12t-10.5 26q0 16 12 28t29 12q26 0 39.5 -20.5t13.5 -52.5q0 -40 -19 -72t-50 -49q-3 -2 -6 0t-6 6q-2 3 3 8q44 39 44 82q0 3 -3 18q0 3 -6 3z" />
    <glyph glyph-name="quotedblleft" unicode="&#x201c;" horiz-adv-x="341" 
d="M226 529q7 3 20 1q15 -3 26 -13t11 -26q0 -19 -13.5 -31.5t-31.5 -12.5q-27 0 -42.5 22t-15.5 54q0 40 21 73t54 51q4 1 7 0q2 -1 4 -6q1 -3 -3 -7q-47 -39 -47 -85q0 -11 3 -16q3 -6 7 -4zM82 529q7 3 20 1q15 -3 26 -13t11 -26q0 -19 -13.5 -31.5t-31.5 -12.5
q-27 0 -42.5 22t-15.5 54q0 40 21 73t54 51q4 1 7 0q2 -1 4 -6q1 -3 -3 -7q-47 -39 -47 -85q0 -11 3 -16q3 -6 7 -4z" />
    <glyph glyph-name="quotedblright" unicode="&#x201d;" horiz-adv-x="341" 
d="M113 566q-7 -3 -20 -1q-15 3 -26 13t-11 26q0 19 13.5 31.5t31.5 12.5q27 0 42.5 -22t15.5 -54q0 -40 -21 -73t-54 -51q-4 -1 -7 0q-2 1 -4 6q-1 3 3 7q47 39 47 85q0 10 -3 16t-7 4zM257 566q-7 -3 -20 -1q-15 3 -26 13t-11 26q0 19 13.5 31.5t31.5 12.5q27 0 42.5 -22
t15.5 -54q0 -40 -21 -73t-54 -51q-4 -1 -7 0q-2 1 -4 6q-1 3 3 7q47 39 47 85q0 10 -3 16t-7 4z" />
    <glyph glyph-name="quotedblbase" unicode="&#x201e;" horiz-adv-x="304" 
d="M223 1q-5 -1 -15 -1q-14 1 -24.5 11.5t-10.5 26.5q0 17 11.5 28.5t27.5 11.5q27 0 41.5 -20.5t14.5 -52.5q0 -40 -20 -72t-51 -49q-3 -2 -7 1q-3 3 -4 5q-2 4 2 8q44 37 44 82q0 11 -3 18q-2 4 -6 3zM95 1q-5 -1 -16 -1q-14 1 -24.5 12t-10.5 26q0 16 12 28t29 12
q26 0 39.5 -20.5t13.5 -52.5q0 -40 -19 -72t-50 -49q-4 -2 -7 0q-2 1 -5 6q-2 3 3 8q44 39 44 82q0 3 -3 18q0 3 -6 3z" />
    <glyph glyph-name="dagger" unicode="&#x2020;" horiz-adv-x="338" 
d="M133 365q-2 10 4 34q2 6 7 20t9.5 28.5t5.5 26.5q1 4 -0.5 5t-5.5 0q-67 -13 -99 -19q-16 -3 -16 12q0 36 7 45q4 6 22 4q15 -2 88 -19q2 -1 3 0t1.5 3.5t-0.5 6.5q-5 34 -21 124q-1 7 2.5 12t9.5 5q33 0 45 -9q8 -5 6 -22q-2 -15 -10.5 -60t-9.5 -51q-1 -4 -0.5 -6
t1.5 -3t3 0q46 10 96 19q7 1 12.5 -2.5t5.5 -8.5q0 -34 -8 -45q-7 -8 -22 -5q-35 7 -81 19q-4 1 -5.5 0t-0.5 -6q4 -34 17 -74q6 -21 4 -34q-9 -49 -15 -158q-3 -42 -9 -192q0 -18 -9 -18q-12 0 -12 18q-2 56 -6 118.5t-4 73.5q-4 107 -15 158z" />
    <glyph glyph-name="daggerdbl" unicode="&#x2021;" horiz-adv-x="338" 
d="M132 309q-3 10 4 34q14 42 23 127q1 4 -1 5t-5 0q-9 -1 -43 -8.5t-56 -10.5q-16 -3 -16 12q0 36 7 45q5 7 22 4q13 -2 88 -19q2 -1 3 0t1.5 3.5t-0.5 6.5q-4 30 -21 124q-1 7 2.5 12t9.5 5q33 0 45 -9q8 -5 6 -22q-2 -15 -10.5 -60t-9.5 -51q-1 -4 -0.5 -6t1.5 -3t3 0
q50 11 96 19q7 1 12.5 -2.5t5.5 -8.5q0 -32 -8 -45q-5 -8 -22 -5q-35 7 -81 19q-4 1 -5.5 0t-0.5 -6q12 -105 18 -126q6 -20 2 -36q-14 -49 -23 -135q-1 -4 1 -5t5 0q9 1 43 8.5t56 10.5q16 3 16 -12q0 -36 -7 -45q-4 -6 -22 -4t-88 19q-2 1 -3 0t-1.5 -3.5t0.5 -6.5
q5 -34 21 -124q1 -7 -2.5 -12t-9.5 -5q-33 0 -45 9q-8 5 -6 22q2 15 10.5 60t9.5 51q1 4 0.5 6t-1.5 3t-3 0q-4 -1 -38 -8t-58 -11q-7 -1 -12.5 2.5t-5.5 8.5q0 34 8 45q7 8 22 5q22 -4 81 -19q4 -1 5.5 0t0.5 6q-10 94 -24 136z" />
    <glyph glyph-name="bullet" unicode="&#x2022;" horiz-adv-x="237" 
d="M193 322q0 -31 -22 -52.5t-53 -21.5t-52.5 21.5t-21.5 52.5t21.5 52.5t52.5 21.5t53 -21.5t22 -52.5z" />
    <glyph glyph-name="ellipsis" unicode="&#x2026;" horiz-adv-x="664" 
d="M597 44q0 -21 -14.5 -36t-36.5 -15q-21 0 -35.5 15t-14.5 36q0 19 14.5 34t35.5 15q22 0 36.5 -15t14.5 -34zM383 44q0 -21 -14.5 -36t-36.5 -15q-21 0 -35.5 15t-14.5 36q0 19 14.5 34t35.5 15q22 0 36.5 -15t14.5 -34zM168 44q0 -21 -14.5 -36t-36.5 -15
q-21 0 -35.5 15t-14.5 36q0 19 14.5 34t35.5 15q22 0 36.5 -15t14.5 -34z" />
    <glyph glyph-name="perthousand" unicode="&#x2030;" horiz-adv-x="961" 
d="M282 510q3 -4 8 -4q62 0 135 29.5t107 71.5q6 8 12 5q2 -1 8 -5t8 -5q5 -4 -2 -18q-113 -202 -434 -765q-5 -11 -12 -6q-19 13 -40 24q-8 4 1 16q125 192 261 409t165 270q2 4 -0.5 5t-5.5 -1q-107 -51 -194 -61q-6 -1 -5 -6q3 -12 3 -19q1 -87 -50.5 -159.5
t-106.5 -72.5q-33 0 -54.5 24.5t-21.5 69.5q0 96 55 158t111 62q38 0 52 -22zM636 221q0 -75 -50.5 -150.5t-107.5 -75.5q-36 0 -57.5 24.5t-21.5 66.5q0 85 52 154t114 69q71 0 71 -88zM252 450q0 54 -34 54q-35 0 -70 -58.5t-35 -132.5q0 -59 37 -59t69.5 62t32.5 134z
M588 225q0 53 -36 53q-37 0 -71.5 -64.5t-34.5 -120.5q0 -64 40 -64q37 0 69.5 62t32.5 134zM902 221q0 -75 -50.5 -150.5t-107.5 -75.5q-36 0 -57.5 24.5t-21.5 66.5q0 85 52 154t114 69q71 0 71 -88zM854 225q0 53 -36 53q-37 0 -71.5 -64.5t-34.5 -120.5q0 -64 40 -64
q37 0 69.5 62t32.5 134z" />
    <glyph glyph-name="guilsinglleft" unicode="&#x2039;" horiz-adv-x="245" 
d="M204 80q5 -5 -4 -11q-8 -6 -16 2q-10 9 -149 134q-10 9 -10 14.5t10 14.5q12 12 80 73.5t69 62.5q8 8 16 1t4 -11q-15 -15 -61 -67.5t-59 -68.5q-3 -4 1 -9q4 -4 56.5 -63t62.5 -72z" />
    <glyph glyph-name="guilsinglright" unicode="&#x203a;" horiz-adv-x="244" 
d="M211 205q-16 -15 -79 -71.5t-70 -62.5q-9 -8 -17 -2q-7 6 -4 11q9 13 63 72.5t57 62.5q3 4 0 9q-15 19 -120 136q-5 5 4 11q8 7 15 0q18 -17 79.5 -73t70.5 -64q10 -9 10.5 -14t-9.5 -15z" />
    <glyph glyph-name="fraction" unicode="&#x2044;" horiz-adv-x="311" 
d="M286 669q2 -3 -3 -17q-88 -246 -239 -685q-3 -10 -10 -7l-10 5q-2 2 0 10q41 117 239 688q4 10 8 14q4 2 8 -1q5 -4 7 -7z" />
    <glyph glyph-name="fraction" unicode="&#x2215;" horiz-adv-x="311" 
d="M286 669q2 -3 -3 -17q-88 -246 -239 -685q-3 -10 -10 -7l-10 5q-2 2 0 10q41 117 239 688q4 10 8 14q4 2 8 -1q5 -4 7 -7z" />
    <glyph glyph-name="Euro" unicode="&#x20ac;" horiz-adv-x="547" 
d="M23 287q-2 9 -1 16q0 1 5 3q8 2 66 11q27 100 103.5 158t162.5 58q46 0 82.5 -14.5t55.5 -32.5q13 -13 13 -25q0 -11 -13 -27t-26 -16q-15 0 -27 16q-47 63 -119 63q-61 0 -106.5 -46t-59.5 -125q146 21 199 28q7 1 11 -1q7 -4 10 -21q0 -4 -4 -4q-11 -3 -219 -28
q-3 -20 -3 -40q0 -30 8 -60q152 21 201 29q10 2 12 -2q6 -8 6 -20q0 -4 -7 -5q-76 -9 -205 -28q15 -61 60.5 -94t108.5 -33q48 0 82.5 16.5t67.5 48.5q2 2 6 1q4 -2 7 -8q2 -3 -1 -7q-29 -43 -78 -72.5t-110 -29.5q-79 0 -136.5 45t-80.5 122q-51 -8 -54 -8q-5 0 -6 2
q-1 3 -4 14q-2 6 2 6q5 1 23.5 4t33.5 6q-5 27 -5 53q0 27 3 51q-46 -5 -53 -6q-8 0 -11 2z" />
    <glyph glyph-name="trademark" unicode="&#x2122;" horiz-adv-x="653" 
d="M632 639v-6q0 -2 -5 -3q-3 -1 -13.5 -2t-12.5 -1q-5 -1 -5 -6v-223q0 -7 7 -8q5 0 12 -0.5t12 -1.5q5 0 5 -4v-6q0 -4 -5 -3q-11 2 -52 2q-34 0 -51 -2q-5 0 -5 3v5q0 3 5 4l26 4q5 1 5 7v190q0 5 -2 1q-8 -14 -39 -82q-44 -98 -57 -124q-5 -12 -11 -1l-48 98
q-48 97 -55 111q-2 4 -2 0q-2 -24 -2 -49q0 -92 1 -140q0 -11 7 -12q4 0 13.5 -1t13.5 -2q4 0 4 -4v-5q0 -3 -4 -3q-26 2 -45 2q-27 0 -46 -2q-5 0 -5 2v7q0 3 4 3q6 1 12 1.5t9.5 1t5.5 0.5q5 1 7 12q4 28 7 212q0 12 -6 13q-14 2 -25 2q-5 0 -5 3v8q0 2 4 2q13 -1 34 -1
q26 0 32 1q4 0 7 -7q51 -110 98 -199q2 -3 3 0q2 6 13 29.5t26 56t25 55.5q23 50 25 57q2 8 10 8q13 -1 30 -1q6 0 17 0.5t16 0.5t5 -3zM274 584q-1 -1 -5 -1q-3 0 -4 2q-2 5 -10 29q-2 7 -12 7h-66q-4 0 -4 -4v-219q0 -6 6 -7q2 0 9 -1l14 -2t12 -2q3 0 3 -3v-5q0 -3 -3 -3
q-18 2 -58 2q-43 0 -62 -2q-5 0 -5 2v6q0 2 5 3q8 2 35 5q5 1 5 7v219q0 4 -4 4h-67q-8 0 -9 -5q-4 -16 -10 -30q-2 -3 -3 -3q-3 0 -7 2q-2 2 -1 5q3 10 11 55q0 3 4 3t4 -3q5 -7 13 -7h185q6 0 10 7q2 3 5 3t3 -4q0 -30 8 -56q1 -2 -2 -4z" />
    <glyph glyph-name="partialdiff" unicode="&#x2202;" 
d="M418 394q-31 -5 -41 4q-9 8 -4 41q3 18 -7 29q-6 7 -17 7q-4 1 -1 5q15 9 31 -6q15 -13 15 -40q37 65 8 94q-14 14 -25 2q-13 -12 -2 -23q5 9 14 2q8 -6 0 -14q-11 -11 -22 2q-23 25 0 48q13 14 30.5 8t24.5 -27q4 21 18 33q14 13 33.5 16.5t35.5 -4.5q12 -6 1 -9
q-21 -8 -39 -26q-39 -39 -65 -109q68 24 109 65q18 18 26 39q3 11 9 -1q8 -16 4.5 -35.5t-16.5 -33.5q-12 -13 -33 -18q21 -7 27 -24.5t-8 -30.5q-23 -23 -48 0q-13 11 -2 22q6 6 14 0q10 -7 -2 -14q10 -10 23 2q11 12 -2 25q-29 29 -94 -8q27 0 40 -15q15 -16 6 -31
q-3 -3 -5 1q0 11 -7 17q-11 10 -29 7zM180 394q-18 3 -29 -7q-7 -6 -7 -17q-1 -4 -5 -1q-9 15 6 31q13 15 40 15q-65 37 -94 8q-13 -13 -2 -25q13 -12 23 -2q-12 7 -2 14q8 6 14 0q11 -11 -2 -22q-25 -23 -48 0q-14 13 -8 30.5t27 24.5q-21 5 -33 18q-13 14 -16.5 33.5
t4.5 35.5q6 12 9 1q8 -21 26 -39q41 -41 109 -65q-26 70 -65 109q-18 18 -39 26q-11 3 1 9q16 8 35.5 4.5t33.5 -16.5q14 -12 18 -33q7 21 24.5 27t30.5 -8q23 -23 0 -48q-11 -13 -22 -2q-8 8 0 14q9 7 14 -2q11 11 -2 23q-11 12 -25 -2q-29 -29 8 -94q0 27 15 40
q16 15 31 6q3 -3 -1 -5q-11 0 -17 -7q-10 -11 -7 -29q5 -33 -4 -41q-10 -9 -41 -4zM404 321q-38 -25 -59 -46q-19 -19 -46 -58q-27 36 -49 58q-25 25 -58 49q34 22 59 46q21 20 46 58q21 -31 49 -57q33 -31 58 -50zM418 248q18 -3 29 7q7 6 7 17q1 4 5 1q9 -15 -6 -31
q-13 -15 -40 -15q65 -37 94 -8q13 13 2 25q-13 12 -23 2q12 -7 2 -14q-8 -6 -14 0q-11 11 2 22q25 23 48 0q14 -13 8 -30.5t-27 -24.5q21 -5 33 -18q13 -14 16.5 -33.5t-4.5 -35.5q-6 -12 -9 -1q-8 21 -26 39q-41 41 -109 65q26 -70 65 -109q18 -18 39 -26q11 -3 -1 -9
q-16 -8 -35.5 -4.5t-33.5 16.5q-14 12 -18 33q-7 -21 -24.5 -27t-30.5 8q-23 23 0 48q11 13 22 2q8 -8 0 -14q-9 -7 -14 2q-11 -11 2 -23q11 -12 25 2q29 29 -8 94q0 -26 -15 -40q-16 -15 -31 -6q-3 3 1 5q11 0 17 7q10 11 7 29q-5 33 4 41q10 9 41 4zM180 248q31 5 41 -4
q9 -8 4 -41q-3 -18 7 -29q6 -7 17 -7q4 -1 1 -5q-15 -9 -31 6q-15 14 -15 40q-37 -65 -8 -94q14 -14 25 -2q13 12 2 23q-5 -9 -14 -2q-8 6 0 14q11 11 22 -2q23 -25 0 -48q-13 -14 -30.5 -8t-24.5 27q-4 -21 -18 -33q-14 -13 -33.5 -16.5t-35.5 4.5q-12 6 -1 9q21 8 39 26
q39 39 65 109q-68 -24 -109 -65q-18 -18 -26 -39q-3 -11 -9 1q-8 16 -4.5 35.5t16.5 33.5q12 13 33 18q-21 7 -27 24.5t8 30.5q23 23 48 0q13 -11 2 -22q-6 -6 -14 0q-10 7 2 14q-10 10 -23 -2q-11 -12 2 -25q29 -29 94 8q-27 0 -40 15q-15 16 -6 31q3 3 5 -1q0 -11 7 -17
q11 -10 29 -7zM334 367q-23 23 -29 33q-14 -27 -34 -43l27 -27zM375 330q-12 6 -34 28l-36 -35l27 -26q30 25 43 33zM291 323l-27 26q-16 -16 -44 -34q20 -11 35 -27zM324 288l-27 27l-34 -35q20 -21 28 -34q5 12 33 42z" />
    <glyph glyph-name="product" unicode="&#x220f;" 
d="M418 394q-31 -5 -41 4q-9 8 -4 41q3 18 -7 29q-6 7 -17 7q-4 1 -1 5q15 9 31 -6q15 -13 15 -40q37 65 8 94q-14 14 -25 2q-13 -12 -2 -23q5 9 14 2q8 -6 0 -14q-11 -11 -22 2q-23 25 0 48q13 14 30.5 8t24.5 -27q4 21 18 33q14 13 33.5 16.5t35.5 -4.5q12 -6 1 -9
q-21 -8 -39 -26q-39 -39 -65 -109q68 24 109 65q18 18 26 39q3 11 9 -1q8 -16 4.5 -35.5t-16.5 -33.5q-12 -13 -33 -18q21 -7 27 -24.5t-8 -30.5q-23 -23 -48 0q-13 11 -2 22q6 6 14 0q10 -7 -2 -14q10 -10 23 2q11 12 -2 25q-29 29 -94 -8q27 0 40 -15q15 -16 6 -31
q-3 -3 -5 1q0 11 -7 17q-11 10 -29 7zM180 394q-18 3 -29 -7q-7 -6 -7 -17q-1 -4 -5 -1q-9 15 6 31q13 15 40 15q-65 37 -94 8q-13 -13 -2 -25q13 -12 23 -2q-12 7 -2 14q8 6 14 0q11 -11 -2 -22q-25 -23 -48 0q-14 13 -8 30.5t27 24.5q-21 5 -33 18q-13 14 -16.5 33.5
t4.5 35.5q6 12 9 1q8 -21 26 -39q41 -41 109 -65q-26 70 -65 109q-18 18 -39 26q-11 3 1 9q16 8 35.5 4.5t33.5 -16.5q14 -12 18 -33q7 21 24.5 27t30.5 -8q23 -23 0 -48q-11 -13 -22 -2q-8 8 0 14q9 7 14 -2q11 11 -2 23q-11 12 -25 -2q-29 -29 8 -94q0 27 15 40
q16 15 31 6q3 -3 -1 -5q-11 0 -17 -7q-10 -11 -7 -29q5 -33 -4 -41q-10 -9 -41 -4zM404 321q-38 -25 -59 -46q-19 -19 -46 -58q-27 36 -49 58q-25 25 -58 49q34 22 59 46q21 20 46 58q21 -31 49 -57q33 -31 58 -50zM418 248q18 -3 29 7q7 6 7 17q1 4 5 1q9 -15 -6 -31
q-13 -15 -40 -15q65 -37 94 -8q13 13 2 25q-13 12 -23 2q12 -7 2 -14q-8 -6 -14 0q-11 11 2 22q25 23 48 0q14 -13 8 -30.5t-27 -24.5q21 -5 33 -18q13 -14 16.5 -33.5t-4.5 -35.5q-6 -12 -9 -1q-8 21 -26 39q-41 41 -109 65q26 -70 65 -109q18 -18 39 -26q11 -3 -1 -9
q-16 -8 -35.5 -4.5t-33.5 16.5q-14 12 -18 33q-7 -21 -24.5 -27t-30.5 8q-23 23 0 48q11 13 22 2q8 -8 0 -14q-9 -7 -14 2q-11 -11 2 -23q11 -12 25 2q29 29 -8 94q0 -26 -15 -40q-16 -15 -31 -6q-3 3 1 5q11 0 17 7q10 11 7 29q-5 33 4 41q10 9 41 4zM180 248q31 5 41 -4
q9 -8 4 -41q-3 -18 7 -29q6 -7 17 -7q4 -1 1 -5q-15 -9 -31 6q-15 14 -15 40q-37 -65 -8 -94q14 -14 25 -2q13 12 2 23q-5 -9 -14 -2q-8 6 0 14q11 11 22 -2q23 -25 0 -48q-13 -14 -30.5 -8t-24.5 27q-4 -21 -18 -33q-14 -13 -33.5 -16.5t-35.5 4.5q-12 6 -1 9q21 8 39 26
q39 39 65 109q-68 -24 -109 -65q-18 -18 -26 -39q-3 -11 -9 1q-8 16 -4.5 35.5t16.5 33.5q12 13 33 18q-21 7 -27 24.5t8 30.5q23 23 48 0q13 -11 2 -22q-6 -6 -14 0q-10 7 2 14q-10 10 -23 -2q-11 -12 2 -25q29 -29 94 8q-27 0 -40 15q-15 16 -6 31q3 3 5 -1q0 -11 7 -17
q11 -10 29 -7zM334 367q-23 23 -29 33q-14 -27 -34 -43l27 -27zM375 330q-12 6 -34 28l-36 -35l27 -26q30 25 43 33zM291 323l-27 26q-16 -16 -44 -34q20 -11 35 -27zM324 288l-27 27l-34 -35q20 -21 28 -34q5 12 33 42z" />
    <glyph glyph-name="summation" unicode="&#x2211;" 
d="M418 394q-31 -5 -41 4q-9 8 -4 41q3 18 -7 29q-6 7 -17 7q-4 1 -1 5q15 9 31 -6q15 -13 15 -40q37 65 8 94q-14 14 -25 2q-13 -12 -2 -23q5 9 14 2q8 -6 0 -14q-11 -11 -22 2q-23 25 0 48q13 14 30.5 8t24.5 -27q4 21 18 33q14 13 33.5 16.5t35.5 -4.5q12 -6 1 -9
q-21 -8 -39 -26q-39 -39 -65 -109q68 24 109 65q18 18 26 39q3 11 9 -1q8 -16 4.5 -35.5t-16.5 -33.5q-12 -13 -33 -18q21 -7 27 -24.5t-8 -30.5q-23 -23 -48 0q-13 11 -2 22q6 6 14 0q10 -7 -2 -14q10 -10 23 2q11 12 -2 25q-29 29 -94 -8q27 0 40 -15q15 -16 6 -31
q-3 -3 -5 1q0 11 -7 17q-11 10 -29 7zM180 394q-18 3 -29 -7q-7 -6 -7 -17q-1 -4 -5 -1q-9 15 6 31q13 15 40 15q-65 37 -94 8q-13 -13 -2 -25q13 -12 23 -2q-12 7 -2 14q8 6 14 0q11 -11 -2 -22q-25 -23 -48 0q-14 13 -8 30.5t27 24.5q-21 5 -33 18q-13 14 -16.5 33.5
t4.5 35.5q6 12 9 1q8 -21 26 -39q41 -41 109 -65q-26 70 -65 109q-18 18 -39 26q-11 3 1 9q16 8 35.5 4.5t33.5 -16.5q14 -12 18 -33q7 21 24.5 27t30.5 -8q23 -23 0 -48q-11 -13 -22 -2q-8 8 0 14q9 7 14 -2q11 11 -2 23q-11 12 -25 -2q-29 -29 8 -94q0 27 15 40
q16 15 31 6q3 -3 -1 -5q-11 0 -17 -7q-10 -11 -7 -29q5 -33 -4 -41q-10 -9 -41 -4zM404 321q-38 -25 -59 -46q-19 -19 -46 -58q-27 36 -49 58q-25 25 -58 49q34 22 59 46q21 20 46 58q21 -31 49 -57q33 -31 58 -50zM418 248q18 -3 29 7q7 6 7 17q1 4 5 1q9 -15 -6 -31
q-13 -15 -40 -15q65 -37 94 -8q13 13 2 25q-13 12 -23 2q12 -7 2 -14q-8 -6 -14 0q-11 11 2 22q25 23 48 0q14 -13 8 -30.5t-27 -24.5q21 -5 33 -18q13 -14 16.5 -33.5t-4.5 -35.5q-6 -12 -9 -1q-8 21 -26 39q-41 41 -109 65q26 -70 65 -109q18 -18 39 -26q11 -3 -1 -9
q-16 -8 -35.5 -4.5t-33.5 16.5q-14 12 -18 33q-7 -21 -24.5 -27t-30.5 8q-23 23 0 48q11 13 22 2q8 -8 0 -14q-9 -7 -14 2q-11 -11 2 -23q11 -12 25 2q29 29 -8 94q0 -26 -15 -40q-16 -15 -31 -6q-3 3 1 5q11 0 17 7q10 11 7 29q-5 33 4 41q10 9 41 4zM180 248q31 5 41 -4
q9 -8 4 -41q-3 -18 7 -29q6 -7 17 -7q4 -1 1 -5q-15 -9 -31 6q-15 14 -15 40q-37 -65 -8 -94q14 -14 25 -2q13 12 2 23q-5 -9 -14 -2q-8 6 0 14q11 11 22 -2q23 -25 0 -48q-13 -14 -30.5 -8t-24.5 27q-4 -21 -18 -33q-14 -13 -33.5 -16.5t-35.5 4.5q-12 6 -1 9q21 8 39 26
q39 39 65 109q-68 -24 -109 -65q-18 -18 -26 -39q-3 -11 -9 1q-8 16 -4.5 35.5t16.5 33.5q12 13 33 18q-21 7 -27 24.5t8 30.5q23 23 48 0q13 -11 2 -22q-6 -6 -14 0q-10 7 2 14q-10 10 -23 -2q-11 -12 2 -25q29 -29 94 8q-27 0 -40 15q-15 16 -6 31q3 3 5 -1q0 -11 7 -17
q11 -10 29 -7zM334 367q-23 23 -29 33q-14 -27 -34 -43l27 -27zM375 330q-12 6 -34 28l-36 -35l27 -26q30 25 43 33zM291 323l-27 26q-16 -16 -44 -34q20 -11 35 -27zM324 288l-27 27l-34 -35q20 -21 28 -34q5 12 33 42z" />
    <glyph glyph-name="minus" unicode="&#x2212;" 
d="M418 394q-31 -5 -41 4q-9 8 -4 41q3 18 -7 29q-6 7 -17 7q-4 1 -1 5q15 9 31 -6q15 -13 15 -40q37 65 8 94q-14 14 -25 2q-13 -12 -2 -23q5 9 14 2q8 -6 0 -14q-11 -11 -22 2q-23 25 0 48q13 14 30.5 8t24.5 -27q4 21 18 33q14 13 33.5 16.5t35.5 -4.5q12 -6 1 -9
q-21 -8 -39 -26q-39 -39 -65 -109q68 24 109 65q18 18 26 39q3 11 9 -1q8 -16 4.5 -35.5t-16.5 -33.5q-12 -13 -33 -18q21 -7 27 -24.5t-8 -30.5q-23 -23 -48 0q-13 11 -2 22q6 6 14 0q10 -7 -2 -14q10 -10 23 2q11 12 -2 25q-29 29 -94 -8q27 0 40 -15q15 -16 6 -31
q-3 -3 -5 1q0 11 -7 17q-11 10 -29 7zM180 394q-18 3 -29 -7q-7 -6 -7 -17q-1 -4 -5 -1q-9 15 6 31q13 15 40 15q-65 37 -94 8q-13 -13 -2 -25q13 -12 23 -2q-12 7 -2 14q8 6 14 0q11 -11 -2 -22q-25 -23 -48 0q-14 13 -8 30.5t27 24.5q-21 5 -33 18q-13 14 -16.5 33.5
t4.5 35.5q6 12 9 1q8 -21 26 -39q41 -41 109 -65q-26 70 -65 109q-18 18 -39 26q-11 3 1 9q16 8 35.5 4.5t33.5 -16.5q14 -12 18 -33q7 21 24.5 27t30.5 -8q23 -23 0 -48q-11 -13 -22 -2q-8 8 0 14q9 7 14 -2q11 11 -2 23q-11 12 -25 -2q-29 -29 8 -94q0 27 15 40
q16 15 31 6q3 -3 -1 -5q-11 0 -17 -7q-10 -11 -7 -29q5 -33 -4 -41q-10 -9 -41 -4zM404 321q-38 -25 -59 -46q-19 -19 -46 -58q-27 36 -49 58q-25 25 -58 49q34 22 59 46q21 20 46 58q21 -31 49 -57q33 -31 58 -50zM418 248q18 -3 29 7q7 6 7 17q1 4 5 1q9 -15 -6 -31
q-13 -15 -40 -15q65 -37 94 -8q13 13 2 25q-13 12 -23 2q12 -7 2 -14q-8 -6 -14 0q-11 11 2 22q25 23 48 0q14 -13 8 -30.5t-27 -24.5q21 -5 33 -18q13 -14 16.5 -33.5t-4.5 -35.5q-6 -12 -9 -1q-8 21 -26 39q-41 41 -109 65q26 -70 65 -109q18 -18 39 -26q11 -3 -1 -9
q-16 -8 -35.5 -4.5t-33.5 16.5q-14 12 -18 33q-7 -21 -24.5 -27t-30.5 8q-23 23 0 48q11 13 22 2q8 -8 0 -14q-9 -7 -14 2q-11 -11 2 -23q11 -12 25 2q29 29 -8 94q0 -26 -15 -40q-16 -15 -31 -6q-3 3 1 5q11 0 17 7q10 11 7 29q-5 33 4 41q10 9 41 4zM180 248q31 5 41 -4
q9 -8 4 -41q-3 -18 7 -29q6 -7 17 -7q4 -1 1 -5q-15 -9 -31 6q-15 14 -15 40q-37 -65 -8 -94q14 -14 25 -2q13 12 2 23q-5 -9 -14 -2q-8 6 0 14q11 11 22 -2q23 -25 0 -48q-13 -14 -30.5 -8t-24.5 27q-4 -21 -18 -33q-14 -13 -33.5 -16.5t-35.5 4.5q-12 6 -1 9q21 8 39 26
q39 39 65 109q-68 -24 -109 -65q-18 -18 -26 -39q-3 -11 -9 1q-8 16 -4.5 35.5t16.5 33.5q12 13 33 18q-21 7 -27 24.5t8 30.5q23 23 48 0q13 -11 2 -22q-6 -6 -14 0q-10 7 2 14q-10 10 -23 -2q-11 -12 2 -25q29 -29 94 8q-27 0 -40 15q-15 16 -6 31q3 3 5 -1q0 -11 7 -17
q11 -10 29 -7zM334 367q-23 23 -29 33q-14 -27 -34 -43l27 -27zM375 330q-12 6 -34 28l-36 -35l27 -26q30 25 43 33zM291 323l-27 26q-16 -16 -44 -34q20 -11 35 -27zM324 288l-27 27l-34 -35q20 -21 28 -34q5 12 33 42z" />
    <glyph glyph-name="radical" unicode="&#x221a;" horiz-adv-x="588" 
d="M586 649q11 -6 -1 -24q-36 -57 -209 -390q-76 -144 -122 -239q-14 -29 -23 7q-12 45 -134 255q-13 24 -35 28q-7 1 -22.5 2t-17.5 1q-3 0 -6 3q-1 1 -1.5 5t-1.5 5q0 4 6 4h61q33 0 57 2q7 1 13 -10q27 -56 108 -203q4 -7 6.5 -9.5t4.5 -1.5t5 7q65 127 84 167
q124 263 167 360q10 24 17.5 32t18.5 7q15 -2 25 -8z" />
    <glyph glyph-name="infinity" unicode="&#x221e;" horiz-adv-x="673" 
d="M526 643q0 -26 -33 -26q-22 0 -46 9q-11 5 -21 5q-50 -30 -50 -138v-100q0 -4 3 -4h145q50 0 67 14q4 4 8 2t3 -9q-3 -23 -3 -45v-310q0 -14 12 -16q1 0 18 -3t24 -5q5 -1 5 -4v-9q0 -4 -5 -4q-60 3 -81 3q-38 0 -86 -3q-6 0 -6 4v9q0 3 6 4q7 1 22 4t23 4q9 1 9 15v297
q0 14 -4.5 19t-20.5 5h-135q-4 0 -4 -6v-309q0 -20 12 -22q6 -1 25.5 -3.5t25.5 -3.5t6 -5v-8q0 -4 -6 -4q-47 3 -92 3q-55 0 -88 -3q-6 0 -6 5v7q0 4 6 5t46 8q8 1 10 4.5t2 16.5v308q0 7 -4 7h-156q-4 0 -4 -5v-310q0 -20 13 -22q48 -6 51 -7q6 -1 6 -5v-8q0 -4 -6 -4
q-48 3 -93 3q-53 0 -87 -3q-5 0 -5 5v8q0 4 5 5q16 1 45 7q8 1 10.5 4.5t2.5 16.5v309q0 6 -3 6q-7 0 -23 -1t-20 -1q-7 0 -7 7v19q0 4 5 4h45q3 0 3 5v61q0 84 50 148t119 64q40 0 40 -27q0 -26 -33 -26q-25 0 -49 10q-10 4 -18 3q-51 -29 -51 -137v-97q0 -4 3 -4h157
q4 0 4 5v64q0 84 50 148t119 64q40 0 40 -27z" />
    <glyph glyph-name="integral" unicode="&#x222b;" 
d="M418 394q-31 -5 -41 4q-9 8 -4 41q3 18 -7 29q-6 7 -17 7q-4 1 -1 5q15 9 31 -6q15 -13 15 -40q37 65 8 94q-14 14 -25 2q-13 -12 -2 -23q5 9 14 2q8 -6 0 -14q-11 -11 -22 2q-23 25 0 48q13 14 30.5 8t24.5 -27q4 21 18 33q14 13 33.5 16.5t35.5 -4.5q12 -6 1 -9
q-21 -8 -39 -26q-39 -39 -65 -109q68 24 109 65q18 18 26 39q3 11 9 -1q8 -16 4.5 -35.5t-16.5 -33.5q-12 -13 -33 -18q21 -7 27 -24.5t-8 -30.5q-23 -23 -48 0q-13 11 -2 22q6 6 14 0q10 -7 -2 -14q10 -10 23 2q11 12 -2 25q-29 29 -94 -8q27 0 40 -15q15 -16 6 -31
q-3 -3 -5 1q0 11 -7 17q-11 10 -29 7zM180 394q-18 3 -29 -7q-7 -6 -7 -17q-1 -4 -5 -1q-9 15 6 31q13 15 40 15q-65 37 -94 8q-13 -13 -2 -25q13 -12 23 -2q-12 7 -2 14q8 6 14 0q11 -11 -2 -22q-25 -23 -48 0q-14 13 -8 30.5t27 24.5q-21 5 -33 18q-13 14 -16.5 33.5
t4.5 35.5q6 12 9 1q8 -21 26 -39q41 -41 109 -65q-26 70 -65 109q-18 18 -39 26q-11 3 1 9q16 8 35.5 4.5t33.5 -16.5q14 -12 18 -33q7 21 24.5 27t30.5 -8q23 -23 0 -48q-11 -13 -22 -2q-8 8 0 14q9 7 14 -2q11 11 -2 23q-11 12 -25 -2q-29 -29 8 -94q0 27 15 40
q16 15 31 6q3 -3 -1 -5q-11 0 -17 -7q-10 -11 -7 -29q5 -33 -4 -41q-10 -9 -41 -4zM404 321q-38 -25 -59 -46q-19 -19 -46 -58q-27 36 -49 58q-25 25 -58 49q34 22 59 46q21 20 46 58q21 -31 49 -57q33 -31 58 -50zM418 248q18 -3 29 7q7 6 7 17q1 4 5 1q9 -15 -6 -31
q-13 -15 -40 -15q65 -37 94 -8q13 13 2 25q-13 12 -23 2q12 -7 2 -14q-8 -6 -14 0q-11 11 2 22q25 23 48 0q14 -13 8 -30.5t-27 -24.5q21 -5 33 -18q13 -14 16.5 -33.5t-4.5 -35.5q-6 -12 -9 -1q-8 21 -26 39q-41 41 -109 65q26 -70 65 -109q18 -18 39 -26q11 -3 -1 -9
q-16 -8 -35.5 -4.5t-33.5 16.5q-14 12 -18 33q-7 -21 -24.5 -27t-30.5 8q-23 23 0 48q11 13 22 2q8 -8 0 -14q-9 -7 -14 2q-11 -11 2 -23q11 -12 25 2q29 29 -8 94q0 -26 -15 -40q-16 -15 -31 -6q-3 3 1 5q11 0 17 7q10 11 7 29q-5 33 4 41q10 9 41 4zM180 248q31 5 41 -4
q9 -8 4 -41q-3 -18 7 -29q6 -7 17 -7q4 -1 1 -5q-15 -9 -31 6q-15 14 -15 40q-37 -65 -8 -94q14 -14 25 -2q13 12 2 23q-5 -9 -14 -2q-8 6 0 14q11 11 22 -2q23 -25 0 -48q-13 -14 -30.5 -8t-24.5 27q-4 -21 -18 -33q-14 -13 -33.5 -16.5t-35.5 4.5q-12 6 -1 9q21 8 39 26
q39 39 65 109q-68 -24 -109 -65q-18 -18 -26 -39q-3 -11 -9 1q-8 16 -4.5 35.5t16.5 33.5q12 13 33 18q-21 7 -27 24.5t8 30.5q23 23 48 0q13 -11 2 -22q-6 -6 -14 0q-10 7 2 14q-10 10 -23 -2q-11 -12 2 -25q29 -29 94 8q-27 0 -40 15q-15 16 -6 31q3 3 5 -1q0 -11 7 -17
q11 -10 29 -7zM334 367q-23 23 -29 33q-14 -27 -34 -43l27 -27zM375 330q-12 6 -34 28l-36 -35l27 -26q30 25 43 33zM291 323l-27 26q-16 -16 -44 -34q20 -11 35 -27zM324 288l-27 27l-34 -35q20 -21 28 -34q5 12 33 42z" />
    <glyph glyph-name="approxequal" unicode="&#x2248;" 
d="M418 394q-31 -5 -41 4q-9 8 -4 41q3 18 -7 29q-6 7 -17 7q-4 1 -1 5q15 9 31 -6q15 -13 15 -40q37 65 8 94q-14 14 -25 2q-13 -12 -2 -23q5 9 14 2q8 -6 0 -14q-11 -11 -22 2q-23 25 0 48q13 14 30.5 8t24.5 -27q4 21 18 33q14 13 33.5 16.5t35.5 -4.5q12 -6 1 -9
q-21 -8 -39 -26q-39 -39 -65 -109q68 24 109 65q18 18 26 39q3 11 9 -1q8 -16 4.5 -35.5t-16.5 -33.5q-12 -13 -33 -18q21 -7 27 -24.5t-8 -30.5q-23 -23 -48 0q-13 11 -2 22q6 6 14 0q10 -7 -2 -14q10 -10 23 2q11 12 -2 25q-29 29 -94 -8q27 0 40 -15q15 -16 6 -31
q-3 -3 -5 1q0 11 -7 17q-11 10 -29 7zM180 394q-18 3 -29 -7q-7 -6 -7 -17q-1 -4 -5 -1q-9 15 6 31q13 15 40 15q-65 37 -94 8q-13 -13 -2 -25q13 -12 23 -2q-12 7 -2 14q8 6 14 0q11 -11 -2 -22q-25 -23 -48 0q-14 13 -8 30.5t27 24.5q-21 5 -33 18q-13 14 -16.5 33.5
t4.5 35.5q6 12 9 1q8 -21 26 -39q41 -41 109 -65q-26 70 -65 109q-18 18 -39 26q-11 3 1 9q16 8 35.5 4.5t33.5 -16.5q14 -12 18 -33q7 21 24.5 27t30.5 -8q23 -23 0 -48q-11 -13 -22 -2q-8 8 0 14q9 7 14 -2q11 11 -2 23q-11 12 -25 -2q-29 -29 8 -94q0 27 15 40
q16 15 31 6q3 -3 -1 -5q-11 0 -17 -7q-10 -11 -7 -29q5 -33 -4 -41q-10 -9 -41 -4zM404 321q-38 -25 -59 -46q-19 -19 -46 -58q-27 36 -49 58q-25 25 -58 49q34 22 59 46q21 20 46 58q21 -31 49 -57q33 -31 58 -50zM418 248q18 -3 29 7q7 6 7 17q1 4 5 1q9 -15 -6 -31
q-13 -15 -40 -15q65 -37 94 -8q13 13 2 25q-13 12 -23 2q12 -7 2 -14q-8 -6 -14 0q-11 11 2 22q25 23 48 0q14 -13 8 -30.5t-27 -24.5q21 -5 33 -18q13 -14 16.5 -33.5t-4.5 -35.5q-6 -12 -9 -1q-8 21 -26 39q-41 41 -109 65q26 -70 65 -109q18 -18 39 -26q11 -3 -1 -9
q-16 -8 -35.5 -4.5t-33.5 16.5q-14 12 -18 33q-7 -21 -24.5 -27t-30.5 8q-23 23 0 48q11 13 22 2q8 -8 0 -14q-9 -7 -14 2q-11 -11 2 -23q11 -12 25 2q29 29 -8 94q0 -26 -15 -40q-16 -15 -31 -6q-3 3 1 5q11 0 17 7q10 11 7 29q-5 33 4 41q10 9 41 4zM180 248q31 5 41 -4
q9 -8 4 -41q-3 -18 7 -29q6 -7 17 -7q4 -1 1 -5q-15 -9 -31 6q-15 14 -15 40q-37 -65 -8 -94q14 -14 25 -2q13 12 2 23q-5 -9 -14 -2q-8 6 0 14q11 11 22 -2q23 -25 0 -48q-13 -14 -30.5 -8t-24.5 27q-4 -21 -18 -33q-14 -13 -33.5 -16.5t-35.5 4.5q-12 6 -1 9q21 8 39 26
q39 39 65 109q-68 -24 -109 -65q-18 -18 -26 -39q-3 -11 -9 1q-8 16 -4.5 35.5t16.5 33.5q12 13 33 18q-21 7 -27 24.5t8 30.5q23 23 48 0q13 -11 2 -22q-6 -6 -14 0q-10 7 2 14q-10 10 -23 -2q-11 -12 2 -25q29 -29 94 8q-27 0 -40 15q-15 16 -6 31q3 3 5 -1q0 -11 7 -17
q11 -10 29 -7zM334 367q-23 23 -29 33q-14 -27 -34 -43l27 -27zM375 330q-12 6 -34 28l-36 -35l27 -26q30 25 43 33zM291 323l-27 26q-16 -16 -44 -34q20 -11 35 -27zM324 288l-27 27l-34 -35q20 -21 28 -34q5 12 33 42z" />
    <glyph glyph-name="notequal" unicode="&#x2260;" horiz-adv-x="465" 
d="M314 393v74q0 79 39 147t86 68q27 0 27 -24q0 -15 -14 -24t-34 -9q-14 0 -27 6q-4 3 -7 -2q-12 -19 -12 -68v-169q0 -3 2 -3h76q7 0 8 -5t1 -17q0 -6 -5 -6h-78q-4 0 -4 -5v-308q0 -22 14 -24q7 -1 27 -3.5t25 -3.5q6 -1 6 -6v-7q0 -4 -6 -4q-50 3 -95 3q-52 0 -87 -3
q-5 0 -5 5v7q0 4 5 5q9 1 25 4t19 3q9 2 11.5 6t2.5 18v308q0 5 -4 5h-150q-4 0 -4 -5v-308q0 -13 2.5 -17.5t11.5 -6.5q4 -1 13 -2t20.5 -2.5t15.5 -2.5q6 -1 6 -6v-7q0 -4 -6 -4q-49 3 -92 3q-54 0 -89 -3q-6 0 -6 5v7q0 4 5 5q11 1 47 7q9 2 11.5 6t2.5 18v307q0 6 -3 6
q-8 0 -24.5 -1t-20.5 -1q-7 0 -7 6v20q0 4 5 4h47q3 0 3 5v68q0 85 50 147t117 62q18 0 28 -7.5t10 -18.5t-10 -19t-25 -8q-25 0 -55 13q-5 3 -11 0q-24 -15 -35 -44.5t-11 -90.5v-104q0 -3 2 -3h153q3 0 3 4z" />
    <glyph glyph-name="lessequal" unicode="&#x2264;" 
d="M418 394q-31 -5 -41 4q-9 8 -4 41q3 18 -7 29q-6 7 -17 7q-4 1 -1 5q15 9 31 -6q15 -13 15 -40q37 65 8 94q-14 14 -25 2q-13 -12 -2 -23q5 9 14 2q8 -6 0 -14q-11 -11 -22 2q-23 25 0 48q13 14 30.5 8t24.5 -27q4 21 18 33q14 13 33.5 16.5t35.5 -4.5q12 -6 1 -9
q-21 -8 -39 -26q-39 -39 -65 -109q68 24 109 65q18 18 26 39q3 11 9 -1q8 -16 4.5 -35.5t-16.5 -33.5q-12 -13 -33 -18q21 -7 27 -24.5t-8 -30.5q-23 -23 -48 0q-13 11 -2 22q6 6 14 0q10 -7 -2 -14q10 -10 23 2q11 12 -2 25q-29 29 -94 -8q27 0 40 -15q15 -16 6 -31
q-3 -3 -5 1q0 11 -7 17q-11 10 -29 7zM180 394q-18 3 -29 -7q-7 -6 -7 -17q-1 -4 -5 -1q-9 15 6 31q13 15 40 15q-65 37 -94 8q-13 -13 -2 -25q13 -12 23 -2q-12 7 -2 14q8 6 14 0q11 -11 -2 -22q-25 -23 -48 0q-14 13 -8 30.5t27 24.5q-21 5 -33 18q-13 14 -16.5 33.5
t4.5 35.5q6 12 9 1q8 -21 26 -39q41 -41 109 -65q-26 70 -65 109q-18 18 -39 26q-11 3 1 9q16 8 35.5 4.5t33.5 -16.5q14 -12 18 -33q7 21 24.5 27t30.5 -8q23 -23 0 -48q-11 -13 -22 -2q-8 8 0 14q9 7 14 -2q11 11 -2 23q-11 12 -25 -2q-29 -29 8 -94q0 27 15 40
q16 15 31 6q3 -3 -1 -5q-11 0 -17 -7q-10 -11 -7 -29q5 -33 -4 -41q-10 -9 -41 -4zM404 321q-38 -25 -59 -46q-19 -19 -46 -58q-27 36 -49 58q-25 25 -58 49q34 22 59 46q21 20 46 58q21 -31 49 -57q33 -31 58 -50zM418 248q18 -3 29 7q7 6 7 17q1 4 5 1q9 -15 -6 -31
q-13 -15 -40 -15q65 -37 94 -8q13 13 2 25q-13 12 -23 2q12 -7 2 -14q-8 -6 -14 0q-11 11 2 22q25 23 48 0q14 -13 8 -30.5t-27 -24.5q21 -5 33 -18q13 -14 16.5 -33.5t-4.5 -35.5q-6 -12 -9 -1q-8 21 -26 39q-41 41 -109 65q26 -70 65 -109q18 -18 39 -26q11 -3 -1 -9
q-16 -8 -35.5 -4.5t-33.5 16.5q-14 12 -18 33q-7 -21 -24.5 -27t-30.5 8q-23 23 0 48q11 13 22 2q8 -8 0 -14q-9 -7 -14 2q-11 -11 2 -23q11 -12 25 2q29 29 -8 94q0 -26 -15 -40q-16 -15 -31 -6q-3 3 1 5q11 0 17 7q10 11 7 29q-5 33 4 41q10 9 41 4zM180 248q31 5 41 -4
q9 -8 4 -41q-3 -18 7 -29q6 -7 17 -7q4 -1 1 -5q-15 -9 -31 6q-15 14 -15 40q-37 -65 -8 -94q14 -14 25 -2q13 12 2 23q-5 -9 -14 -2q-8 6 0 14q11 11 22 -2q23 -25 0 -48q-13 -14 -30.5 -8t-24.5 27q-4 -21 -18 -33q-14 -13 -33.5 -16.5t-35.5 4.5q-12 6 -1 9q21 8 39 26
q39 39 65 109q-68 -24 -109 -65q-18 -18 -26 -39q-3 -11 -9 1q-8 16 -4.5 35.5t16.5 33.5q12 13 33 18q-21 7 -27 24.5t8 30.5q23 23 48 0q13 -11 2 -22q-6 -6 -14 0q-10 7 2 14q-10 10 -23 -2q-11 -12 2 -25q29 -29 94 8q-27 0 -40 15q-15 16 -6 31q3 3 5 -1q0 -11 7 -17
q11 -10 29 -7zM334 367q-23 23 -29 33q-14 -27 -34 -43l27 -27zM375 330q-12 6 -34 28l-36 -35l27 -26q30 25 43 33zM291 323l-27 26q-16 -16 -44 -34q20 -11 35 -27zM324 288l-27 27l-34 -35q20 -21 28 -34q5 12 33 42z" />
    <glyph glyph-name="greaterequal" unicode="&#x2265;" horiz-adv-x="308" 
d="M124 364q0 9 -10 10q-6 1 -30 5.5t-27 5.5q-6 1 -6 4v11q0 4 7 4q72 -4 94 -4q8 0 104 4q5 0 5 -3v-12q0 -4 -4 -4q-5 0 -15 -2t-24 -4t-25 -4q-9 -1 -9 -10v-325q0 -11 9 -12q5 -1 33 -5t31 -4q4 0 4 -4v-12q0 -3 -5 -3q-72 3 -99 3q-49 0 -103 -3q-3 0 -3 4v11q0 4 3 4
l60 10q10 1 10 9v326z" />
    <glyph glyph-name="lozenge" unicode="&#x25ca;" 
d="M418 394q-31 -5 -41 4q-9 8 -4 41q3 18 -7 29q-6 7 -17 7q-4 1 -1 5q15 9 31 -6q15 -13 15 -40q37 65 8 94q-14 14 -25 2q-13 -12 -2 -23q5 9 14 2q8 -6 0 -14q-11 -11 -22 2q-23 25 0 48q13 14 30.5 8t24.5 -27q4 21 18 33q14 13 33.5 16.5t35.5 -4.5q12 -6 1 -9
q-21 -8 -39 -26q-39 -39 -65 -109q68 24 109 65q18 18 26 39q3 11 9 -1q8 -16 4.5 -35.5t-16.5 -33.5q-12 -13 -33 -18q21 -7 27 -24.5t-8 -30.5q-23 -23 -48 0q-13 11 -2 22q6 6 14 0q10 -7 -2 -14q10 -10 23 2q11 12 -2 25q-29 29 -94 -8q27 0 40 -15q15 -16 6 -31
q-3 -3 -5 1q0 11 -7 17q-11 10 -29 7zM180 394q-18 3 -29 -7q-7 -6 -7 -17q-1 -4 -5 -1q-9 15 6 31q13 15 40 15q-65 37 -94 8q-13 -13 -2 -25q13 -12 23 -2q-12 7 -2 14q8 6 14 0q11 -11 -2 -22q-25 -23 -48 0q-14 13 -8 30.5t27 24.5q-21 5 -33 18q-13 14 -16.5 33.5
t4.5 35.5q6 12 9 1q8 -21 26 -39q41 -41 109 -65q-26 70 -65 109q-18 18 -39 26q-11 3 1 9q16 8 35.5 4.5t33.5 -16.5q14 -12 18 -33q7 21 24.5 27t30.5 -8q23 -23 0 -48q-11 -13 -22 -2q-8 8 0 14q9 7 14 -2q11 11 -2 23q-11 12 -25 -2q-29 -29 8 -94q0 27 15 40
q16 15 31 6q3 -3 -1 -5q-11 0 -17 -7q-10 -11 -7 -29q5 -33 -4 -41q-10 -9 -41 -4zM404 321q-38 -25 -59 -46q-19 -19 -46 -58q-27 36 -49 58q-25 25 -58 49q34 22 59 46q21 20 46 58q21 -31 49 -57q33 -31 58 -50zM418 248q18 -3 29 7q7 6 7 17q1 4 5 1q9 -15 -6 -31
q-13 -15 -40 -15q65 -37 94 -8q13 13 2 25q-13 12 -23 2q12 -7 2 -14q-8 -6 -14 0q-11 11 2 22q25 23 48 0q14 -13 8 -30.5t-27 -24.5q21 -5 33 -18q13 -14 16.5 -33.5t-4.5 -35.5q-6 -12 -9 -1q-8 21 -26 39q-41 41 -109 65q26 -70 65 -109q18 -18 39 -26q11 -3 -1 -9
q-16 -8 -35.5 -4.5t-33.5 16.5q-14 12 -18 33q-7 -21 -24.5 -27t-30.5 8q-23 23 0 48q11 13 22 2q8 -8 0 -14q-9 -7 -14 2q-11 -11 2 -23q11 -12 25 2q29 29 -8 94q0 -26 -15 -40q-16 -15 -31 -6q-3 3 1 5q11 0 17 7q10 11 7 29q-5 33 4 41q10 9 41 4zM180 248q31 5 41 -4
q9 -8 4 -41q-3 -18 7 -29q6 -7 17 -7q4 -1 1 -5q-15 -9 -31 6q-15 14 -15 40q-37 -65 -8 -94q14 -14 25 -2q13 12 2 23q-5 -9 -14 -2q-8 6 0 14q11 11 22 -2q23 -25 0 -48q-13 -14 -30.5 -8t-24.5 27q-4 -21 -18 -33q-14 -13 -33.5 -16.5t-35.5 4.5q-12 6 -1 9q21 8 39 26
q39 39 65 109q-68 -24 -109 -65q-18 -18 -26 -39q-3 -11 -9 1q-8 16 -4.5 35.5t16.5 33.5q12 13 33 18q-21 7 -27 24.5t8 30.5q23 23 48 0q13 -11 2 -22q-6 -6 -14 0q-10 7 2 14q-10 10 -23 -2q-11 -12 2 -25q29 -29 94 8q-27 0 -40 15q-15 16 -6 31q3 3 5 -1q0 -11 7 -17
q11 -10 29 -7zM334 367q-23 23 -29 33q-14 -27 -34 -43l27 -27zM375 330q-12 6 -34 28l-36 -35l27 -26q30 25 43 33zM291 323l-27 26q-16 -16 -44 -34q20 -11 35 -27zM324 288l-27 27l-34 -35q20 -21 28 -34q5 12 33 42z" />
    <glyph glyph-name="apple" unicode="&#xf8ff;" 
d="M418 394q-31 -5 -41 4q-9 8 -4 41q3 18 -7 29q-6 7 -17 7q-4 1 -1 5q15 9 31 -6q15 -13 15 -40q37 65 8 94q-14 14 -25 2q-13 -12 -2 -23q5 9 14 2q8 -6 0 -14q-11 -11 -22 2q-23 25 0 48q13 14 30.5 8t24.5 -27q4 21 18 33q14 13 33.5 16.5t35.5 -4.5q12 -6 1 -9
q-21 -8 -39 -26q-39 -39 -65 -109q68 24 109 65q18 18 26 39q3 11 9 -1q8 -16 4.5 -35.5t-16.5 -33.5q-12 -13 -33 -18q21 -7 27 -24.5t-8 -30.5q-23 -23 -48 0q-13 11 -2 22q6 6 14 0q10 -7 -2 -14q10 -10 23 2q11 12 -2 25q-29 29 -94 -8q27 0 40 -15q15 -16 6 -31
q-3 -3 -5 1q0 11 -7 17q-11 10 -29 7zM180 394q-18 3 -29 -7q-7 -6 -7 -17q-1 -4 -5 -1q-9 15 6 31q13 15 40 15q-65 37 -94 8q-13 -13 -2 -25q13 -12 23 -2q-12 7 -2 14q8 6 14 0q11 -11 -2 -22q-25 -23 -48 0q-14 13 -8 30.5t27 24.5q-21 5 -33 18q-13 14 -16.5 33.5
t4.5 35.5q6 12 9 1q8 -21 26 -39q41 -41 109 -65q-26 70 -65 109q-18 18 -39 26q-11 3 1 9q16 8 35.5 4.5t33.5 -16.5q14 -12 18 -33q7 21 24.5 27t30.5 -8q23 -23 0 -48q-11 -13 -22 -2q-8 8 0 14q9 7 14 -2q11 11 -2 23q-11 12 -25 -2q-29 -29 8 -94q0 27 15 40
q16 15 31 6q3 -3 -1 -5q-11 0 -17 -7q-10 -11 -7 -29q5 -33 -4 -41q-10 -9 -41 -4zM404 321q-38 -25 -59 -46q-19 -19 -46 -58q-27 36 -49 58q-25 25 -58 49q34 22 59 46q21 20 46 58q21 -31 49 -57q33 -31 58 -50zM418 248q18 -3 29 7q7 6 7 17q1 4 5 1q9 -15 -6 -31
q-13 -15 -40 -15q65 -37 94 -8q13 13 2 25q-13 12 -23 2q12 -7 2 -14q-8 -6 -14 0q-11 11 2 22q25 23 48 0q14 -13 8 -30.5t-27 -24.5q21 -5 33 -18q13 -14 16.5 -33.5t-4.5 -35.5q-6 -12 -9 -1q-8 21 -26 39q-41 41 -109 65q26 -70 65 -109q18 -18 39 -26q11 -3 -1 -9
q-16 -8 -35.5 -4.5t-33.5 16.5q-14 12 -18 33q-7 -21 -24.5 -27t-30.5 8q-23 23 0 48q11 13 22 2q8 -8 0 -14q-9 -7 -14 2q-11 -11 2 -23q11 -12 25 2q29 29 -8 94q0 -26 -15 -40q-16 -15 -31 -6q-3 3 1 5q11 0 17 7q10 11 7 29q-5 33 4 41q10 9 41 4zM180 248q31 5 41 -4
q9 -8 4 -41q-3 -18 7 -29q6 -7 17 -7q4 -1 1 -5q-15 -9 -31 6q-15 14 -15 40q-37 -65 -8 -94q14 -14 25 -2q13 12 2 23q-5 -9 -14 -2q-8 6 0 14q11 11 22 -2q23 -25 0 -48q-13 -14 -30.5 -8t-24.5 27q-4 -21 -18 -33q-14 -13 -33.5 -16.5t-35.5 4.5q-12 6 -1 9q21 8 39 26
q39 39 65 109q-68 -24 -109 -65q-18 -18 -26 -39q-3 -11 -9 1q-8 16 -4.5 35.5t16.5 33.5q12 13 33 18q-21 7 -27 24.5t8 30.5q23 23 48 0q13 -11 2 -22q-6 -6 -14 0q-10 7 2 14q-10 10 -23 -2q-11 -12 2 -25q29 -29 94 8q-27 0 -40 15q-15 16 -6 31q3 3 5 -1q0 -11 7 -17
q11 -10 29 -7zM334 367q-23 23 -29 33q-14 -27 -34 -43l27 -27zM375 330q-12 6 -34 28l-36 -35l27 -26q30 25 43 33zM291 323l-27 26q-16 -16 -44 -34q20 -11 35 -27zM324 288l-27 27l-34 -35q20 -21 28 -34q5 12 33 42z" />
    <glyph glyph-name="NUL" horiz-adv-x="0" 
 />
    </font>
</defs>
</svg>
