<?xml version="1.0" standalone="no"?>
<!DOCTYPE svg PUBLIC "-//W3C//DTD SVG 1.1//EN" "http://www.w3.org/Graphics/SVG/1.1/DTD/svg11.dtd" >
<svg xmlns="http://www.w3.org/2000/svg" xmlns:xlink="http://www.w3.org/1999/xlink" version="1.1">
<metadata>
Created by FontForge 20150824 at Sun May  1 14:22:57 2016
 By Everything Fonts
Copyright (c) The Font Bureau, Inc., 2003. All rights reserved.
</metadata>
<defs>
<font id="GaramondFBText-Regular" horiz-adv-x="599" >
  <font-face 
    font-family="GaramondFBText Regular"
    font-weight="400"
    font-stretch="normal"
    units-per-em="1000"
    panose-1="2 0 6 3 7 0 0 2 0 4"
    ascent="700"
    descent="-300"
    x-height="389"
    cap-height="642"
    bbox="-49 -279 1059 809"
    underline-thickness="20"
    underline-position="-153"
    unicode-range="U+0020-FB02"
  />
<missing-glyph horiz-adv-x="500" 
 />
    <glyph glyph-name="fi" unicode="fi" horiz-adv-x="507" 
d="M327 640q0 -16 -10.5 -25t-27.5 -9q-24 0 -49 18q-7 8 -16 6q-25 -8 -40 -42.5t-15 -88.5v-111q0 -4 2 -4h205q22 0 40 20q5 6 12 3.5t7 -11.5q0 -4 -2 -26t-2 -35v-292q0 -10 7 -11t26 -3.5t26 -3.5q5 -1 5 -7v-12q0 -6 -5 -6q-63 3 -89 3q-51 0 -99 -3q-6 0 -6 5
q0 1 -0.5 6t-0.5 8q0 5 7 6q33 4 52 7q6 1 6 11v242q0 43 -12.5 54t-53.5 11h-51t-48 0.5t-22 0.5q-4 0 -4 -6v-303q0 -9 7 -10q11 -2 34 -4l23 -3q7 -1 7 -6v-14q0 -5 -7 -5q-48 3 -99 3q-46 0 -95 -3q-6 0 -6 6v12q0 5 5 7q3 0 51 7q6 1 7 2.5t1 7.5v302q0 7 -3 7
t-20.5 -0.5t-21.5 -0.5q-8 0 -8 7q0 3 0.5 11.5t0.5 10.5q0 5 6 5h43q3 0 3 7v70q0 87 56.5 151t122.5 64q22 0 36.5 -10.5t14.5 -25.5z" />
    <glyph glyph-name="fl" unicode="fl" horiz-adv-x="508" 
d="M349 646q24 8 63 30q10 5 10 -7v-626q0 -10 7 -11q8 -1 25 -3.5t26 -3.5q6 0 6 -5q0 -13 -1 -17q-1 -3 -6 -3q-41 3 -91 3q-60 0 -93 -3q-6 0 -6 4q0 2 -0.5 8t-0.5 7q0 6 6 6q2 0 50 7q6 1 6 11v574q-20 -11 -51 -11q-24 0 -49 18q-8 10 -22 6q-59 -19 -59 -131v-111
q0 -4 2 -4h76q8 0 9 -5q2 -12 2 -23q0 -6 -7 -6q-1 0 -35 0.5t-43 0.5q-4 0 -4 -6v-303q0 -9 7 -10q11 -2 34 -4l23 -3q7 -1 7 -6v-14q0 -5 -7 -5q-48 3 -99 3q-46 0 -95 -3q-6 0 -6 6v12q0 5 5 7q3 0 51 7q6 1 7 2.5t1 7.5v302q0 7 -3 7t-20.5 -0.5t-21.5 -0.5q-8 0 -8 7
q0 3 0.5 11.5t0.5 10.5q0 5 6 5h43q3 0 3 7v70q0 88 57.5 151.5t132.5 63.5q55 0 62 -30z" />
    <glyph glyph-name="f_f_l" unicode="ffl" horiz-adv-x="768" 
d="M682 669v-626q0 -10 7 -11q8 -1 25 -3.5t26 -3.5q6 0 6 -5q0 -13 -1 -17q-1 -3 -6 -3q-41 3 -91 3q-60 0 -95 -3q-6 0 -6 4q0 2 -0.5 8t-0.5 7q0 6 6 6q2 0 50 7q7 1 7 11v574q-22 -11 -50 -11q-24 0 -48 18q-10 10 -23 6q-59 -19 -59 -131v-111q0 -4 2 -4h76q8 0 9 -5
q2 -12 2 -23q0 -6 -6 -6q-1 0 -35.5 0.5t-43.5 0.5q-4 0 -4 -6v-303q0 -9 7 -10q10 -2 31.5 -4t25.5 -3q7 -1 7 -6v-14q0 -5 -7 -5q-48 3 -99 3q-46 0 -95 -3q-6 0 -6 6v12q0 5 5 7q8 0 17.5 1.5t19.5 3t15 2.5q7 1 7 10v303q0 5 -5 5h-69t-74.5 0.5t-35.5 0.5q-4 0 -4 -6
v-303q0 -9 7 -10q11 -2 34 -4l23 -3q7 -1 7 -6v-14q0 -5 -7 -5q-48 3 -99 3q-46 0 -95 -3q-6 0 -6 6v12q0 5 5 7q3 0 51 7q6 1 7 2.5t1 7.5v302q0 7 -3 7t-20.5 -0.5t-21.5 -0.5q-8 0 -8 7q0 3 0.5 11.5t0.5 10.5q0 5 6 5h43q3 0 3 7v62q0 87 56.5 151t122.5 64
q22 0 36.5 -10.5t14.5 -25.5q0 -16 -10.5 -25t-27.5 -9q-24 0 -49 18q-7 7 -16 5q-25 -8 -40 -42t-15 -89v-102q0 -4 2 -4h183q3 0 3 6v71q0 88 57.5 151.5t132.5 63.5q53 0 61 -30q29 10 65 30q9 5 9 -7z" />
    <glyph glyph-name="f_f_i" unicode="ffi" horiz-adv-x="767" 
d="M587 640q0 -16 -10.5 -25t-27.5 -9q-24 0 -49 18q-7 8 -16 6q-25 -8 -40 -42.5t-15 -88.5v-111q0 -4 2 -4h183q40 0 62 20q6 6 12.5 3.5t6.5 -11.5q0 -4 -2 -26t-2 -35v-292q0 -10 7 -11q45 -6 52 -7q5 -1 5 -7v-12q0 -6 -5 -6q-63 3 -89 3q-51 0 -99 -3q-6 0 -6 5
q0 1 -0.5 6t-0.5 8q0 5 7 6q36 4 53 7q5 1 5 11v278q0 19 -4.5 24t-23.5 5h-60.5t-67 0.5t-31.5 0.5q-4 0 -4 -6v-303q0 -9 7 -10q10 -2 31.5 -4t25.5 -3q7 -1 7 -6v-14q0 -5 -7 -5q-48 3 -99 3q-46 0 -95 -3q-6 0 -6 6v12q0 5 5 7q8 0 17.5 1.5t19.5 3t15 2.5q7 1 7 10v299
q0 9 -6 9h-69t-74 0.5t-35 0.5q-4 0 -4 -6v-303q0 -9 7 -10q11 -2 34 -4l23 -3q7 -1 7 -6v-14q0 -5 -7 -5q-48 3 -99 3q-46 0 -95 -3q-6 0 -6 6v12q0 5 5 7q3 0 51 7q6 1 7 2.5t1 7.5v302q0 7 -3 7t-20.5 -0.5t-21.5 -0.5q-8 0 -8 7q0 3 0.5 11.5t0.5 10.5q0 5 6 5h43
q3 0 3 7v62q0 87 56.5 151t122.5 64q22 0 36.5 -10.5t14.5 -25.5q0 -16 -10.5 -25t-27.5 -9q-24 0 -49 18q-7 7 -16 5q-25 -8 -40 -42t-15 -89v-102q0 -4 2 -4h180q6 0 6 7v70q0 87 56.5 151t122.5 64q22 0 36.5 -10.5t14.5 -25.5z" />
    <glyph glyph-name="f_f" unicode="ff" horiz-adv-x="525" 
d="M528 645q0 -32 -36 -32q-21 0 -38 13q-7 5 -10 0q-15 -22 -15 -90v-148q0 -4 2 -4h76q8 0 9 -5q2 -12 2 -23q0 -6 -6 -6q-1 0 -35.5 0.5t-43.5 0.5q-4 0 -4 -6v-303q0 -9 7 -10q10 -2 31.5 -4t25.5 -3q7 -1 7 -6v-14q0 -5 -7 -5q-48 3 -99 3q-46 0 -95 -3q-6 0 -6 6v12
q0 5 5 7q8 0 17.5 1.5t19.5 3t15 2.5q7 1 7 10v303q0 5 -5 5h-69t-74.5 0.5t-35.5 0.5q-4 0 -4 -6v-303q0 -9 7 -10q11 -2 34 -4l23 -3q7 -1 7 -6v-14q0 -5 -7 -5q-48 3 -99 3q-46 0 -95 -3q-6 0 -6 6v12q0 5 5 7q3 0 51 7q6 1 7 2.5t1 7.5v302q0 7 -3 7t-20.5 -0.5
t-21.5 -0.5q-8 0 -8 7q0 3 0.5 11.5t0.5 10.5q0 5 6 5h43q3 0 3 7v62q0 87 56.5 151t122.5 64q22 0 36.5 -10.5t14.5 -25.5q0 -16 -10.5 -25t-27.5 -9q-24 0 -49 18q-7 7 -16 5q-25 -8 -40 -42t-15 -89v-102q0 -4 2 -4h183q3 0 3 5v79q0 84 40.5 146t91.5 62q18 0 28.5 -9
t10.5 -22z" />
    <glyph glyph-name=".notdef" horiz-adv-x="500" 
 />
    <glyph glyph-name=".null" horiz-adv-x="0" 
 />
    <glyph glyph-name="nonmarkingreturn" horiz-adv-x="333" 
 />
    <glyph glyph-name="space" unicode=" " horiz-adv-x="228" 
 />
    <glyph glyph-name="space" unicode="&#xa0;" horiz-adv-x="228" 
 />
    <glyph glyph-name="exclam" unicode="!" horiz-adv-x="258" 
d="M175 583q0 -13 -14 -179q-2 -26 -7 -80t-8 -95t-4 -65q0 -17 -14 -17t-14 16q-1 35 -17 242q-14 174 -14 177q0 69 46 69t46 -68zM172 39q0 -20 -13 -32.5t-32 -12.5t-32 12.5t-13 32.5t13.5 33t32.5 13t31.5 -13.5t12.5 -32.5z" />
    <glyph glyph-name="quotedbl" unicode="&#x22;" horiz-adv-x="271" 
d="M91 522q4 20 12 58t10 49q3 16 -6.5 31.5t-27.5 15.5q-19 0 -28 -15.5t-6 -31.5q2 -13 10.5 -51.5t11.5 -55.5q2 -11 12 -11t12 11zM204 522q4 20 12 58t10 49q3 16 -6.5 31.5t-27.5 15.5q-19 0 -28 -15.5t-6 -31.5q2 -13 10.5 -51.5t11.5 -55.5q2 -11 12 -11t12 11z" />
    <glyph glyph-name="numbersign" unicode="#" horiz-adv-x="580" 
d="M403 389q50 -1 88 -1q7 0 11 -10q7 -18 -1 -51q-2 -9 -15 -9h-104q-5 -17 -15 -52t-15 -52q54 -1 100 -1q15 0 22 -9q2 -3 1.5 -23.5t-2.5 -26.5q-2 -9 -11 -9q-61 0 -131 -1q-8 -26 -21.5 -71.5t-17.5 -59.5q-6 -23 -24 -21q-7 1 -8 4t4 18q15 50 38 130
q-20 0 -64.5 -0.5t-66.5 -0.5l-21 -69l-21 -69q-6 -18 -21 -11q-6 3 -6.5 6.5t4.5 19.5q5 18 17.5 59t19.5 63h-79q-12 0 -14 11q-2 6 -2 25t2 27q4 11 12 11q45 0 103 -1q5 16 16 51t16 53q-54 1 -102 0q-15 0 -17 11v50q0 11 6 11q65 0 134 -1q31 103 35 118q5 15 8 19
t12 4t11 -3.5t-2 -16.5q-9 -32 -36 -121q22 0 65 -0.5t62 -0.5q34 114 37 123q7 20 19 20q15 0 10 -18q-5 -15 -36 -125zM353 319h-128q-5 -18 -16 -53t-16 -51q21 0 65 -0.5t65 -0.5q4 15 14.5 50.5t15.5 54.5z" />
    <glyph glyph-name="dollar" unicode="$" horiz-adv-x="415" 
d="M226 531q63 -4 95.5 -31t32.5 -55q0 -13 -8.5 -22t-20.5 -9q-27 0 -38 32q-1 3 -3 10.5t-3 11.5t-4 9.5t-7 8.5q-17 14 -44 16q0 -14 -1 -49.5t-1.5 -70.5t-1.5 -68q46 -34 60 -47q43 -38 61 -65.5t18 -62.5q0 -57 -43.5 -96.5t-100.5 -46.5v-21t-0.5 -17.5t-0.5 -13
v-8.5v-4q0 -10 -6 -10q-1 0 -6 0.5t-7 0.5q-7 0 -7 10q0 25 1 61q-62 1 -104.5 26t-42.5 55q0 16 9 26t23 10q26 0 42 -42q17 -41 73 -44q3 177 4 212q-21 18 -67 56q-65 55 -65 110q0 52 42 89.5t94 39.5q1 10 1 37q0 11 8 11h15q4 0 4 -10q0 -25 -1 -39zM217 26
q34 7 54.5 30.5t20.5 59.5q0 40 -49 81q-14 12 -22 19q-1 -41 -2.5 -109t-1.5 -81zM199 503q-36 -2 -55.5 -24.5t-19.5 -52.5q0 -23 15 -41.5t51 -46.5l6 -5q2 121 3 170z" />
    <glyph glyph-name="percent" unicode="%" horiz-adv-x="702" 
d="M282 509q3 -3 6 -3q61 0 130.5 29t103.5 70q7 8 15 6q7 -3 16 -11q7 -5 -1 -20q-301 -559 -415 -764q-5 -10 -18 -6q-3 1 -20 11.5t-22 12.5q-11 7 -2 22q403 648 414 674v2q-1 1 -3 -1q-43 -28 -84 -40.5t-105 -19.5q-3 0 -2 -6q2 -12 2 -17q1 -87 -51 -160t-108 -73
q-32 0 -55 24.5t-23 69.5q0 96 55.5 159t112.5 63q39 0 54 -22zM643 219q0 -75 -51 -150t-108 -75q-37 0 -59 24.5t-22 66.5q0 85 52.5 154t115.5 69q72 0 72 -89zM246 449q0 52 -31 52q-33 0 -66.5 -57t-33.5 -131q0 -27 11 -42.5t28 -15.5q33 0 62.5 61t29.5 133zM591 227
q0 51 -34 51q-36 0 -69 -63t-33 -118q0 -25 11 -44.5t28 -19.5q35 0 66 60.5t31 133.5z" />
    <glyph glyph-name="ampersand" unicode="&#x26;" horiz-adv-x="704" 
d="M269 376q36 16 49.5 33.5t13.5 40.5q0 24 -17.5 43t-51.5 19q-26 0 -41 -14t-15 -38q0 -25 62 -84zM214 326q-48 -25 -71 -61.5t-23 -69.5q0 -62 40 -101.5t98 -39.5q67 0 140 79q-164 173 -184 193zM449 191q68 86 95 136q9 15 9.5 20t-8.5 8q-7 1 -43 9q-3 1 -3 5
q0 3 0.5 8.5t1.5 7.5q1 3 7 3q62 -2 82 -2q16 0 49.5 1.5t36.5 1.5q6 0 7 -2q3 -6 3 -17q0 -6 -5 -7q-6 -2 -26.5 -5.5t-23.5 -4.5q-10 -3 -15 -9q-2 -2 -58 -70t-88 -106q73 -82 90 -96q37 -30 63 -30q17 0 33 9q5 2 9 -2q4 -3 8 -12q1 -4 -2 -8q-35 -35 -87 -35
q-49 0 -99 46q-14 13 -40 42l-26 28q-67 -72 -106 -95t-90 -23q-79 0 -127.5 51.5t-48.5 123.5q0 63 38 104.5t110 73.5q-55 57 -55 99q0 39 32.5 69t89.5 30q63 0 96 -28t33 -62q0 -31 -23 -54.5t-77 -43.5q41 -39 158 -164z" />
    <glyph glyph-name="quotesingle" unicode="'" horiz-adv-x="158" 
d="M91 522q4 20 12 58t10 49q3 16 -6.5 31.5t-27.5 15.5q-19 0 -28 -15.5t-6 -31.5q2 -13 10.5 -51.5t11.5 -55.5q2 -11 12 -11t12 11z" />
    <glyph glyph-name="parenleft" unicode="(" horiz-adv-x="288" 
d="M136 214q0 -129 32 -245.5t85 -192.5q11 -17 8 -23q-2 -5 -9 -9t-19 11q-69 81 -122.5 206t-53.5 253q0 129 50.5 249.5t120.5 210.5q9 11 17 9q6 -2 11 -9q3 -4 -7 -21q-50 -79 -81.5 -196.5t-31.5 -242.5z" />
    <glyph glyph-name="parenright" unicode=")" horiz-adv-x="288" 
d="M231 214q0 -128 -53.5 -253t-122.5 -206q-12 -15 -19 -11t-9 9q-3 6 8 23q53 76 85 192.5t32 245.5q0 125 -31.5 242.5t-81.5 196.5q-10 17 -7 21q5 7 11 9q8 2 17 -9q70 -90 120.5 -210.5t50.5 -249.5z" />
    <glyph glyph-name="asterisk" unicode="*" horiz-adv-x="320" 
d="M251 467q6 -6 5.5 -12.5t-5.5 -8.5q-28 -14 -35 -14q-9 0 -14 12q-18 46 -36 73q-3 4 -4 1q-24 -46 -39 -78q-6 -13 -16 -6q-17 11 -24 28q-5 9 6 19q32 29 52 53q3 3 -2 5q-20 4 -88 16q-15 3 -11 13q8 26 20 35q8 5 19 0q45 -27 69 -40q5 -3 5 3q-2 17 -10 50.5
t-10 43.5q-1 7 2 11.5t8 4.5q25 0 42 -7q10 -4 6 -19q-5 -21 -12 -86q0 -4 3 -2q15 7 45 23t31 17q16 8 19 -6q3 -12 3 -33q0 -12 -13 -15q-2 0 -14 -2t-29 -4.5t-30 -4.5q-6 -1 -2 -5q34 -40 59 -65z" />
    <glyph glyph-name="plus" unicode="+" horiz-adv-x="389" 
d="M334 219q4 -12 4 -27q0 -12 -11 -14q-22 -4 -106 -4q-5 0 -5 -6q0 -23 0.5 -54.5t0.5 -34.5q0 -17 -9 -20q-12 -4 -18 -4q-11 0 -11 12v101q0 5 -5 5h-90q-16 0 -26 10q-7 8 -7 25q0 13 12 15q28 4 110 4q6 0 6 6q0 21 -1 57l-1 35q0 13 8 15q15 5 21 5q8 0 10 -12
q1 -4 1 -18.5t-0.5 -39.5t-0.5 -41q0 -6 6 -6q16 0 34.5 0.5t31 1t14.5 0.5q29 0 32 -11z" />
    <glyph glyph-name="comma" unicode="," horiz-adv-x="234" 
d="M121 -1q-3 1 -9 1.5t-9 0.5q-17 2 -28.5 14.5t-11.5 31.5q0 22 14.5 36t33.5 14q28 0 46.5 -24t18.5 -66q0 -45 -26.5 -82.5t-67.5 -56.5q-4 -1 -9 2q-6 4 -6 13q0 4 8 9q27 19 41 43.5t14 43.5q0 6 -2 14q-2 6 -7 6z" />
    <glyph glyph-name="hyphen" unicode="-" horiz-adv-x="335" 
d="M281 186q-4 -4 -10 -5q-17 -3 -194 -3q-13 0 -17.5 2t-8.5 9q-6 8 -4.5 14t12.5 17q6 6 9 6q201 7 212 -1q9 -6 9 -18q-4 -17 -8 -21z" />
    <glyph glyph-name="hyphen" unicode="&#xad;" horiz-adv-x="335" 
d="M281 186q-4 -4 -10 -5q-17 -3 -194 -3q-13 0 -17.5 2t-8.5 9q-6 8 -4.5 14t12.5 17q6 6 9 6q201 7 212 -1q9 -6 9 -18q-4 -17 -8 -21z" />
    <glyph glyph-name="period" unicode="." horiz-adv-x="234" 
d="M168 44q0 -22 -14.5 -36t-36.5 -14q-21 0 -35.5 14t-14.5 35q0 23 14 38t36 15q21 0 36 -15t15 -37z" />
    <glyph glyph-name="slash" unicode="/" horiz-adv-x="288" 
d="M276 661q0 -2 -4 -16q-79 -236 -230 -662q-2 -7 -5 -10t-7 -2q-5 1 -17 8q-5 3 -3 9q0 2 2 5t2 4q69 201 231 663q4 11 9 15q1 1 3.5 0.5t4.5 -1.5q14 -8 14 -13z" />
    <glyph glyph-name="zero" unicode="0" horiz-adv-x="494" 
d="M453 207q0 -88 -60.5 -150t-145.5 -62t-145.5 62t-60.5 150t60.5 150t145.5 62t145.5 -62t60.5 -150zM378 207q0 71 -35 121t-96 50q-59 0 -95 -50t-36 -121q0 -69 36.5 -119t94.5 -50q62 0 96.5 49t34.5 120z" />
    <glyph glyph-name="one" unicode="1" horiz-adv-x="304" 
d="M114 374h-60q-6 0 -6 3v20q0 4 6 4q97 8 131 20q10 3 10 -6v-371q0 -9 7 -10q52 -8 72 -9q6 0 6 -7v-9q0 -9 -7 -9q-72 3 -116 3q-53 0 -107 -3q-10 0 -10 6v12q0 7 9 7q7 0 67 10q7 1 7 7v320q0 8 -1.5 10t-7.5 2z" />
    <glyph glyph-name="two" unicode="2" horiz-adv-x="379" 
d="M368 8q0 -8 -8 -8q-267 0 -293 -1q-13 0 -13 11q0 7 9 16q16 17 112 137q52 65 52 123q0 39 -24.5 63.5t-62.5 24.5q-54 0 -106 -48q-8 -7 -16 -2q-3 2 -8 8q-3 5 3 13q24 32 63.5 55.5t90.5 23.5q56 0 94.5 -33.5t38.5 -85.5q0 -36 -21 -72.5t-67 -87.5q-45 -51 -67 -78
q-4 -4 2 -4q3 0 21 1.5t23 1.5h171q7 0 7 -8q0 -33 -1 -50z" />
    <glyph glyph-name="three" unicode="3" horiz-adv-x="346" 
d="M324 22q0 -90 -69 -150t-174 -60q-56 0 -96 21q-10 5 -9 13q2 13 8 17q3 2 18 -1q40 -8 70 -8q79 0 126.5 43t47.5 117q0 49 -31.5 84t-86.5 35q-6 0 -24 -2q-9 -2 -10 4q-3 15 -3 16q0 6 6 9q128 54 128 142q0 32 -20 50.5t-53 18.5q-45 0 -92 -35q-5 -3 -11 0
q-3 1 -9 11q-3 6 4 13q26 30 62 47t70 17q55 0 85.5 -31t30.5 -73q0 -82 -98 -141q-5 -4 0 -5q130 -38 130 -152z" />
    <glyph glyph-name="four" unicode="4" horiz-adv-x="424" 
d="M329 -9v-164q0 -15 -10 -15q-1 0 -24 -0.5t-31 -0.5q-11 0 -11 12q3 75 3 168q0 9 -4 9q-44 0 -129 -0.5t-91 -0.5q-17 0 -17 13q0 10 7 20q134 195 289 383q4 5 9 5q9 0 9 -10q0 -9 -0.5 -169.5t-0.5 -174.5q0 -12 8 -12q5 0 38.5 0.5t39.5 0.5q7 0 7 -7q0 -29 1 -41
q0 -7 -4 -7h-82q-7 0 -7 -9zM103 54q11 0 61 0.5t83 0.5q9 0 9 8q0 24 3 114.5t3 106.5q0 12 -8 2q-120 -164 -156 -221q-10 -11 5 -11z" />
    <glyph glyph-name="five" unicode="5" horiz-adv-x="341" 
d="M52 -186q-42 0 -69 16q-5 3 -5 11q0 6 4 16q3 8 12 4q24 -8 58 -8q90 0 134.5 56t44.5 137q0 63 -45 110.5t-123 69.5q-13 3 -7 16q9 22 28 79t28 79q4 9 11 9h131q15 0 20 4l6 6q4 4 7 4h13q8 0 5 -7q-4 -11 -12.5 -36.5t-10.5 -30.5q-3 -8 -12 -8q-96 3 -141 3
q-7 0 -9 -6q-2 -5 -5 -20.5t-5 -23.5q-1 -7 2 -8q95 -29 144.5 -90.5t49.5 -141.5q0 -99 -65.5 -169.5t-188.5 -70.5z" />
    <glyph glyph-name="six" unicode="6" horiz-adv-x="493" 
d="M270 377q82 0 131.5 -50t49.5 -125q0 -89 -50 -148.5t-136 -59.5q-102 0 -160 70t-58 174q0 146 103 261t293 140q12 1 16 -6q3 -5 3 -20q0 -7 -11 -9q-164 -28 -243.5 -123t-79.5 -215q0 -234 143 -234q55 0 83.5 39.5t28.5 109.5q0 74 -39 112t-101 38q-23 0 -63 -16
q-7 -3 -10 4q-1 3 -3 14q-1 5 8 12q13 11 42.5 21.5t52.5 10.5z" />
    <glyph glyph-name="seven" unicode="7" horiz-adv-x="420" 
d="M47 -178q-9 -13 -16 -10q-16 6 -30 18q-7 7 0 16q295 426 335 481q5 7 -4 7h-236q-15 0 -21 -10q-18 -28 -19 -30q-4 -6 -8 -6q-10 1 -16 9q-4 4 1 13q13 24 42 97q3 7 11 7q77 -3 162 -3q103 0 153 2q20 0 8 -20q-149 -242 -362 -571z" />
    <glyph glyph-name="eight" unicode="8" horiz-adv-x="434" 
d="M374 507q0 -82 -106 -157q-6 -3 -2 -7q55 -46 61 -51q76 -69 76 -126q0 -75 -50.5 -124.5t-146.5 -49.5q-81 0 -126.5 44.5t-45.5 106.5q0 98 134 178q7 4 1 9q-9 7 -28.5 24.5t-21.5 19.5q-69 59 -69 122q0 62 47 106t117 44q76 0 118 -41t42 -98zM323 506
q0 41 -29.5 72.5t-83.5 31.5q-41 0 -68 -26.5t-27 -60.5q0 -54 45 -91q37 -34 76 -64q4 -4 10 1q77 67 77 137zM329 135q0 30 -10 52t-37 47q-33 32 -83 70q-4 3 -9 -1q-99 -75 -99 -159q0 -50 34 -82.5t89 -32.5q53 0 84 31.5t31 74.5z" />
    <glyph glyph-name="nine" unicode="9" horiz-adv-x="476" 
d="M437 200q0 -71 -24.5 -136t-73.5 -119.5t-131.5 -90t-188.5 -41.5q-12 -1 -16 6q-2 3 -2 17q0 9 10 10q91 15 160.5 48.5t108.5 78t58 92.5t19 99q0 109 -32.5 168t-91.5 59q-53 0 -88.5 -42.5t-35.5 -107.5q0 -82 41.5 -128t95.5 -46q32 0 45 5q8 3 10 -4q1 -3 3 -14
q2 -9 -8 -12q-1 0 -7 -4t-13.5 -7t-24 -6t-36.5 -3q-72 0 -123.5 57.5t-51.5 132.5q0 90 54 153t138 63q92 0 148.5 -68.5t56.5 -159.5z" />
    <glyph glyph-name="colon" unicode=":" horiz-adv-x="245" 
d="M173 357q0 -21 -15 -35.5t-35 -14.5q-22 0 -36.5 14.5t-14.5 35.5t14.5 36t36.5 15t36 -15t14 -36zM173 42q0 -21 -14.5 -35t-35.5 -14q-22 0 -36.5 14t-14.5 35t15 36.5t36 15.5t35.5 -15.5t14.5 -36.5z" />
    <glyph glyph-name="semicolon" unicode=";" horiz-adv-x="249" 
d="M176 357q0 -23 -14 -37.5t-36 -14.5t-36.5 15t-14.5 37q0 21 14.5 36t35.5 15q22 0 36.5 -14.5t14.5 -36.5zM129 -1q-3 1 -9 1.5t-9 0.5q-17 2 -29 14.5t-12 31.5q0 22 14.5 36t34.5 14q28 0 46.5 -24t18.5 -66q0 -45 -26.5 -82.5t-67.5 -56.5q-5 -2 -8 1q-7 7 -7 14
q0 4 8 9q27 19 41 43.5t14 43.5q0 6 -2 14q-2 6 -7 6z" />
    <glyph glyph-name="less" unicode="&#x3c;" horiz-adv-x="286" 
d="M238 44q5 -6 -2 -14q-10 -12 -18 -3q-40 43 -158 158q-18 17 1 35q20 19 85 84t74 73t15 -1q7 -10 2 -18q-8 -11 -30.5 -41.5t-48.5 -66.5t-31 -43q-4 -5 1 -11q2 -3 50 -70t60 -82z" />
    <glyph glyph-name="equal" unicode="=" horiz-adv-x="341" 
d="M298 246q-2 -9 -7 -12t-20 -3h-200q-24 0 -24 12q0 14 6 29q4 10 19 10q26 0 112 -1t98 -1t15 -10q3 -14 1 -24zM288 138q-6 -11 -20 -11h-200q-15 0 -22 10q-1 8 -1 29q0 8 5.5 10t22.5 2q26 0 109 -0.5t96 -0.5q18 0 18 -11q0 -15 -8 -28z" />
    <glyph glyph-name="greater" unicode="&#x3e;" horiz-adv-x="286" 
d="M50 44q5 7 51 72t58 80q5 6 1 11q-6 8 -52 72.5t-57 78.5q-7 10 1 18q9 9 17 1q124 -124 158 -157q18 -18 1 -35q-118 -115 -158 -158q-9 -9 -19 3q-7 7 -1 14z" />
    <glyph glyph-name="question" unicode="?" horiz-adv-x="349" 
d="M316 458q0 -142 -157 -229q-5 -3 -5 -8q-6 -55 -6 -58q-2 -20 -12 -20q-5 0 -9 2q-7 4 -7 19q0 7 -1 26t-2.5 47t-2.5 48q-2 15 11 21q65 26 103.5 74.5t38.5 110.5q0 50 -30.5 79.5t-64.5 29.5q-25 0 -53.5 -12t-37.5 -12q-14 0 -23.5 8.5t-9.5 21.5q0 20 20 33t64 13
q75 0 129.5 -54t54.5 -140zM178 40q0 -20 -12.5 -32.5t-32.5 -12.5q-19 0 -31.5 12.5t-12.5 32.5t13.5 33t31.5 13q19 0 31.5 -13.5t12.5 -32.5z" />
    <glyph glyph-name="at" unicode="@" horiz-adv-x="730" 
d="M675 333q0 -89 -51 -139.5t-127 -50.5q-52 0 -76 37q-4 7 -6 8t-10 -3q-48 -27 -84 -42q-17 -6 -38 9q-33 25 -38 75q0 18 6 28t23 24q22 18 123 68q8 4 10.5 8t1.5 14q0 8 -0.5 25.5t-1.5 24.5q-3 29 -15.5 40.5t-38.5 11.5q-25 0 -42.5 -10.5t-19.5 -24.5
q-3 -18 -13 -25q-4 -2 -20 -6q-4 -1 -7.5 2t-3.5 11q0 26 44.5 55.5t101.5 29.5q34 0 54 -22.5t21 -52.5q1 -16 3 -106.5t2 -106.5q2 -45 33 -45q47 0 85 41.5t38 111.5q0 113 -70 186.5t-188 73.5q-98 0 -174.5 -85t-76.5 -218q0 -108 67 -181.5t185 -73.5q72 0 145 43
q4 3 10 -1t7 -10q2 -7 -5 -12q-69 -50 -163 -50q-139 0 -222.5 89t-83.5 221q0 128 92 219t220 90q145 -1 224 -79.5t79 -201.5zM413 223q-3 21 -3 80q0 14 -2 17t-8 2q-52 -28 -86 -55q-11 -9 -9 -33q2 -53 38 -53q9 0 64 26q7 4 6 16z" />
    <glyph glyph-name="A" unicode="A" horiz-adv-x="685" 
d="M685 3q0 -3 -6 -3q-61 3 -111 3q-66 0 -137 -3q-7 0 -7 4q0 1 -0.5 6t-0.5 7q0 7 9 8q53 5 71 8q11 1 3 21q-4 10 -22.5 55.5t-35 86t-26.5 63.5q-3 7 -8 7h-199q-8 0 -11 -8q-70 -198 -74 -209q-5 -13 5 -14q51 -9 69 -11q6 0 6 -6v-13q0 -5 -8 -5q-7 0 -52 2t-60 2
q-24 0 -82 -4q-10 -1 -10 5v12q1 7 9 8q16 2 48 8q9 2 16 19q102 224 261 599q2 5 4.5 7t6 0.5t5.5 -7.5q3 -7 58.5 -139t117.5 -279t78 -186q5 -12 14 -13q62 -9 64 -9q6 0 6 -7v-8zM404 304q-8 21 -47.5 118.5t-41.5 102.5q-4 10 -8 0q-3 -8 -85 -223q-1 -4 -0.5 -5
t5.5 -1h173q7 0 4 8z" />
    <glyph glyph-name="B" unicode="B" horiz-adv-x="585" 
d="M542 190q0 -82 -55 -135.5t-168 -53.5q-39 0 -89.5 1t-63.5 1q-52 0 -124 -3q-6 0 -6 5v14q0 6 6 6q22 1 71 10q9 1 9 12v550q0 9 -9 10q-50 8 -66 9q-8 0 -8 6v15q0 6 7 6q63 -3 111 -3q21 0 74 2.5t79 2.5q89 0 133.5 -40.5t44.5 -97.5q0 -51 -31.5 -88.5t-85.5 -54.5
q-8 -2 0 -4q75 -11 123 -53.5t48 -116.5zM404 497q0 52 -33 83t-95 31q-8 0 -19 -0.5t-25.5 -1.5t-22.5 -1q-4 0 -4 -7v-230q0 -8 5 -8q61 3 66 3q60 6 94 40t34 91zM454 190q0 62 -42 103t-119 41q-10 0 -40.5 -0.5t-41.5 -0.5q-6 0 -6 -8v-276q0 -7 1.5 -9t7.5 -2
q38 -5 74 -5q166 0 166 157z" />
    <glyph glyph-name="C" unicode="C" horiz-adv-x="652" 
d="M606 159q0 -3 -5 -45.5t-6 -62.5q0 -11 -8 -15q-92 -45 -208 -45q-144 0 -241.5 86.5t-97.5 238.5q0 144 101.5 240t242.5 96q108 0 197 -47q9 -4 10 -15q7 -50 17 -98q1 -8 -4 -11q-6 -3 -15 -3q-6 0 -9 9l-8 24t-11 31q-7 16 -17 23q-69 51 -159 51q-107 0 -178.5 -81
t-71.5 -219q0 -131 69.5 -210t177.5 -79q90 0 164 46q10 6 15 21q4 11 10.5 37.5t7.5 28.5q2 9 7 9h15q6 -2 5 -10z" />
    <glyph glyph-name="D" unicode="D" horiz-adv-x="745" 
d="M703 321q0 -142 -87.5 -232.5t-239.5 -90.5q-63 0 -131 2.5t-79 2.5q-14 0 -60.5 -1.5t-63.5 -1.5q-7 0 -7 7v11q0 6 6 7q9 1 34 5t37 5q7 1 8.5 3.5t1.5 11.5v543q0 11 -8 12q-10 1 -33.5 5t-37.5 6q-6 0 -6 7v13q1 6 8 6q60 -3 118 -3q22 0 74.5 2.5t87.5 2.5
q187 0 282.5 -90t95.5 -233zM611 320q0 127 -74 207.5t-223 80.5q-46 0 -101 -5q-6 0 -6 -10v-543q0 -10 7 -11q40 -6 126 -6q134 0 202.5 82t68.5 205z" />
    <glyph glyph-name="E" unicode="E" horiz-adv-x="565" 
d="M535 122q-1 -5 -8.5 -28.5t-12.5 -38.5q-10 -35 -15 -50q-1 -8 -12 -8q-93 3 -322 6q-75 1 -131 -3q-8 0 -8 5v14q0 7 8 7q17 1 81 10q7 1 7 8v542q0 22 -11 23q-35 3 -73 8q-7 1 -7 7q0 1 1 6t1 7q0 6 7 6q62 -3 118 -3q24 0 167.5 2t157.5 2q8 0 10 -10q15 -65 27 -99
q2 -9 -2 -11q-6 -4 -13 -4t-8 5q-6 16 -28 63q-5 10 -17 11q-116 11 -231 11q-9 0 -11.5 -3t-2.5 -13v-239q0 -11 9 -11q130 0 211 9q7 1 8 9q1 10 10 61q1 8 9 8h9q6 0 5 -11q-4 -68 -4 -91q0 -57 3 -92q1 -7 -5 -9h-13q-5 0 -7 7q-6 43 -8 69q-1 6 -2 7.5t-7 1.5
q-83 4 -209 4q-6 0 -7.5 -1.5t-1.5 -9.5v-261q0 -6 1.5 -7.5t6.5 -1.5q148 0 248 10q11 1 16 13q5 11 11.5 25t13 27t8.5 18q4 8 9 7q9 -3 12 -5t2 -9z" />
    <glyph glyph-name="F" unicode="F" horiz-adv-x="568" 
d="M543 515q-6 -4 -13 -5q-4 -1 -8 4q-9 17 -35 71q-5 11 -19 12q-88 8 -251 8q-7 0 -8.5 -1.5t-1.5 -8.5v-246q0 -8 6 -8q86 0 206 9q9 1 10 8q2 14 6 36t5 28q2 6 6 6h15q7 0 5 -7q-6 -54 -6 -97q0 -58 3 -101q0 -6 -5 -7q-3 -1 -13 -1q-6 0 -7 5q-7 56 -10 74q0 3 -0.5 4
t-1.5 2.5t-3 2t-6 0.5q-81 9 -202 9q-8 0 -8 -8v-255q0 -13 9 -14q20 -2 52 -5.5t43 -4.5q7 -1 7 -7v-13q0 -5 -8 -5q-78 3 -142 3q-76 0 -125 -3q-8 0 -8 5v12q0 7 7 8q10 1 33 4.5t37 5.5q10 1 10 14v547q0 8 -10 10q-56 9 -74 11q-9 1 -9 6q0 10 2 16q1 4 9 4
q80 -4 122 -4q60 0 166 2t170 2q10 0 12 -7q3 -10 17 -56t18 -56q2 -6 -2 -9z" />
    <glyph glyph-name="G" unicode="G" horiz-adv-x="721" 
d="M697 249q2 -8 -7 -9q-37 -5 -61 -10q-10 -2 -10 -9q0 -79 1 -110q0 -10 0.5 -26.5t0.5 -22.5q0 -18 -7 -20q-129 -51 -234 -51q-154 0 -247 92t-93 235q0 138 99.5 235.5t252.5 97.5q120 0 211 -47q7 -4 9 -15q2 -9 6.5 -33t8 -42.5t6.5 -29.5q2 -9 -5 -12q-2 -1 -7 -2
t-6 -1q-6 -1 -10 9q-9 26 -29 70q-5 11 -11 15q-71 51 -174 51q-113 0 -185.5 -83t-72.5 -214q0 -128 68.5 -208t181.5 -80q70 0 141 29q8 4 9.5 7t1.5 16v140q0 7 -6 8q-53 7 -69 9q-10 1 -10 8v12q0 8 10 8q70 -4 112 -4q66 0 115 7q4 1 6 -4q2 -4 4 -16z" />
    <glyph glyph-name="H" unicode="H" horiz-adv-x="783" 
d="M661 50q0 -9 2 -11.5t10 -3.5q14 -2 37 -5.5t33 -4.5q7 -1 7 -6v-14q0 -5 -8 -5q-74 4 -122 4q-45 0 -129 -4q-6 0 -6 5v14q0 5 7 6q12 1 24 3t25.5 4t20.5 3q9 1 11 4t2 13v251q0 8 -6 8h-354q-5 0 -6.5 -1.5t-1.5 -7.5v-252q0 -14 10 -15q9 -1 35.5 -5t37.5 -5
q7 0 7 -6v-15q0 -4 -6 -4q-92 4 -127 4q-51 0 -127 -4q-9 0 -9 5v14q0 5 9 6q54 8 77 10q8 1 8 14v543q0 7 -1 10t-3 3.5l-6 1.5q-11 1 -34.5 5t-37.5 5q-11 1 -11 7v11q0 7 11 7q102 -3 125 -3q19 0 66.5 1.5t60.5 1.5q5 0 6 -5q1 -2 1 -12q0 -8 -8 -8l-72 -9
q-8 -1 -10 -3.5t-2 -11.5v-235q0 -8 7 -8h356q5 0 5 8v235q0 13 -10 14q-9 1 -36.5 5t-38.5 5q-5 1 -7 7q-1 3 1 13q2 5 7 5q126 -3 127 -3q74 0 126 3q8 0 9 -4q1 -2 1 -8v-7q1 -3 -0.5 -4t-6.5 -2q-10 -1 -36 -5t-38 -5t-12 -15v-542z" />
    <glyph glyph-name="I" unicode="I" horiz-adv-x="337" 
d="M211 44q0 -8 7 -9q12 -1 40 -5t40 -5q5 0 5 -6v-14q-1 -5 -7 -5q-48 4 -127 4q-49 0 -123 -4q-8 0 -8 6v13q0 5 9 6q10 1 38 5l35 5q6 0 6 8v556q0 7 -7 8q-56 8 -74 10q-7 1 -7 6q0 2 0.5 7.5t0.5 6.5q0 5 7 5q55 -3 121 -3q75 0 126 3q8 0 8 -6v-13q0 -6 -8 -6
q-13 -1 -38 -5t-37 -5q-7 0 -7 -10v-553z" />
    <glyph glyph-name="J" unicode="J" horiz-adv-x="326" 
d="M205 -33q0 -111 -58 -169q-43 -43 -98 -43q-32 0 -50.5 14t-18.5 33q0 15 9.5 26t24.5 11t42 -22q3 -2 8 -7t7 -6.5t6.5 -3.5t9.5 -2q19 0 27 17.5t8 65.5v713q0 12 -10 13q-5 1 -19.5 3l-29 4t-24.5 3q-8 1 -8 5q0 10 2 14q3 6 8 6q114 -3 121 -3q70 0 123 3q8 0 8 -7
v-10q0 -6 -8 -8q-9 -1 -32.5 -4.5t-36.5 -5.5q-8 -1 -9.5 -2.5t-1.5 -7.5v-630z" />
    <glyph glyph-name="K" unicode="K" horiz-adv-x="665" 
d="M600 40q4 -4 13 -5q13 -2 32.5 -5.5t28.5 -4.5q5 -1 5 -8q0 -11 -3 -14q-2 -3 -8 -3q-93 3 -102 3q-30 0 -117 -3q-13 0 -14 4q-1 2 -1 13q0 7 6 8q25 2 45 5q10 2 -1 14q-28 29 -129 136.5t-142 148.5q-6 6 -6 -1v-283q0 -9 7 -10q64 -8 84 -10q6 -1 6 -7v-13
q-2 -5 -6 -5q-66 4 -140 4q-76 0 -120 -4q-5 0 -5 4v14q0 6 8 7q13 2 38 5.5t36 4.5q7 1 7 10v553q0 9 -9 10q-25 4 -74 9q-5 0 -5 5q0 2 0.5 8.5t0.5 7.5q0 4 6 4q60 -3 124 -3q67 0 126 4q5 0 6 -5q2 -6 2 -16q0 -4 -9 -5q-40 -4 -76 -10q-7 -1 -7 -11v-231q0 -10 7 -3
q107 100 245 238q8 8 -1 10q-45 6 -56 7q-7 1 -7 7q0 9 2 13q1 5 7 5q33 -2 103 -2q23 0 60 1t51 1q7 0 8 -4q2 -8 2 -15q0 -6 -6 -6q-24 -2 -75 -9q-8 -1 -15 -7q-45 -38 -248 -216q-6 -5 -1 -10q243 -253 317 -335z" />
    <glyph glyph-name="L" unicode="L" horiz-adv-x="565" 
d="M563 112q-9 -14 -55 -105q-4 -6 -11 -6q-71 0 -184.5 2t-147.5 2q-25 0 -63.5 -2.5t-53.5 -2.5q-8 0 -8 4v17q0 5 6 6q7 1 31.5 4t36.5 4q8 1 8 10v551q0 10 -7 11q-11 1 -39.5 5t-34.5 5q-9 1 -9 6q0 2 3 14q1 5 7 5q86 -4 123 -4q24 0 72.5 2t59.5 2q6 0 7 -4
q2 -6 2 -15q0 -5 -8 -6q-48 -5 -83 -10q-8 -1 -8 -10v-552q0 -4 0.5 -5.5t2.5 -2.5t7 -1q159 0 260 14q8 1 16 12q17 24 47 64q4 6 10 4q7 -3 13 -10q3 -3 0 -8z" />
    <glyph glyph-name="M" unicode="M" horiz-adv-x="866" 
d="M832 4q0 -6 -9 -5q-37 4 -118 4q-87 0 -129 -3q-9 0 -9 4v15q0 6 7 6q42 4 79 10q8 1 8 11v480q0 14 -5 3q-25 -52 -112 -235t-129 -271q-8 -17 -16 0q-23 49 -130.5 266t-121.5 246q-6 13 -8 -1q-2 -31 -2 -129q0 -158 5 -356v-7t1 -4t3 -2.5t6 -0.5q10 -1 37.5 -5
t42.5 -5q6 0 6 -7v-14q0 -4 -7 -4q-64 4 -113 4q-56 0 -104 -4q-8 -1 -8 5v14q0 5 7 6q13 2 39.5 6t31.5 4q7 1 8.5 3.5t2.5 11.5q11 154 16 544q0 11 -9 12q-49 9 -69 10q-12 1 -12 7q0 11 2 14q3 5 7 5q56 -2 71 -2q47 0 77 2q9 1 13 -7q18 -37 75 -152.5t106 -215
t60 -124.5q4 -10 10 1q53 111 230 490q4 7 14 7q11 0 31 -0.5t29 -0.5q39 0 78 3q6 0 8 -6q1 -4 1 -14q0 -5 -5 -6q-18 -2 -75 -10q-9 -1 -9 -16v-546q0 -6 1.5 -7.5t8.5 -2.5q21 -2 75 -11q5 -2 5 -5q-2 -14 -2 -15z" />
    <glyph glyph-name="N" unicode="N" horiz-adv-x="767" 
d="M656 55q0 -10 0.5 -27.5t0.5 -26.5q0 -11 -6 -11h-8q-6 0 -13 8q-68 83 -235.5 279.5t-245.5 283.5q-5 6 -6.5 5.5t-1.5 -8.5q0 -46 2 -148.5t5 -221.5t4 -143q0 -8 9 -9q67 -10 86 -11q7 0 7 -5q0 -1 -0.5 -7t-0.5 -8q0 -5 -6 -5q-41 3 -116 3q-72 0 -104 -3q-7 -1 -9 5
q-1 4 -1 14q0 6 5 6q15 2 41.5 5.5t32.5 4.5t6 8q9 324 9 548q0 14 -9 15q-6 1 -20.5 3t-28 4t-25.5 4q-7 1 -7 4q0 13 1 17q2 5 7 5q42 -3 83 -3q30 0 74 2q9 0 14 -6q31 -38 211 -248t212 -251q4 -5 4 1q0 312 -9 458q-1 10 -9 11q-5 1 -33 4.5t-41 4.5q-7 1 -7 6
q0 1 0.5 7.5t0.5 8.5q0 4 6 4q33 -3 106 -3q59 0 96 4q4 0 6 -5q2 -6 2 -15q0 -5 -7 -6q-10 -1 -28.5 -4t-28.5 -5q-9 -1 -11 -3t-2 -8q0 -22 -3.5 -148t-6 -236.5t-2.5 -157.5z" />
    <glyph glyph-name="O" unicode="O" horiz-adv-x="743" 
d="M703 321q0 -136 -92 -233t-240 -97t-239.5 97t-91.5 233q0 134 93.5 232t237.5 98q146 0 239 -98.5t93 -231.5zM610 322q0 76 -26.5 141t-82.5 107.5t-130 42.5q-110 0 -174 -82t-64 -210q0 -118 64 -205t174 -87q113 0 176 86t63 207z" />
    <glyph glyph-name="P" unicode="P" horiz-adv-x="549" 
d="M525 447q0 -92 -66.5 -143.5t-155.5 -51.5q-52 0 -52 12q0 1 2 11q1 4 23 4q81 0 121 45t40 120q0 80 -39.5 123t-115.5 43q-32 0 -64 -5q-11 -1 -11 -14v-545q0 -7 2 -8.5t10 -2.5q11 -1 37.5 -5t38.5 -5q9 -1 9 -7v-13q0 -5 -8 -5q-70 4 -130 4q-42 0 -124 -4
q-5 0 -5 4v15q0 5 8 6q11 1 34 5t37 5q6 1 6 11v543q0 15 -12 16q-5 1 -33 5.5t-42 5.5q-7 1 -7 6q0 2 0.5 7.5t0.5 6.5q0 6 8 6q26 -2 125 -2q15 0 64.5 2.5t80.5 2.5q103 0 160.5 -52t57.5 -146z" />
    <glyph glyph-name="Q" unicode="Q" horiz-adv-x="743" 
d="M709 -210v-10q0 -10 -10 -12q-26 -4 -63 -4q-132 0 -222.5 58t-113.5 163q-1 10 -12 12q-122 32 -185 119t-63 200q0 84 37.5 158.5t115.5 124.5t181 50q79 0 143 -28t104 -75t61 -106t21 -123q0 -125 -78 -216t-218 -109q-7 -1 -9 -3t0 -8q23 -87 92 -133.5t171 -46.5
q7 0 20.5 -0.5t16.5 -0.5q11 0 11 -10zM610 317q0 56 -15 108t-44 93.5t-75.5 66.5t-105.5 25q-108 0 -172.5 -85.5t-64.5 -207.5q0 -123 61.5 -207.5t173.5 -84.5q111 0 176.5 85t65.5 207z" />
    <glyph glyph-name="R" unicode="R" horiz-adv-x="619" 
d="M482 489q0 -56 -38.5 -99t-101.5 -56q-7 -2 -1 -5q23 -11 47 -50q94 -150 99 -157q43 -64 57 -74q26 -19 68 -21q5 0 7 -3q4 -7 2 -12q-1 -6 -5 -7q-24 -7 -62 -7q-55 0 -82 17t-49 52q-1 3 -6 9q-5 8 -54 85t-70 109q-16 24 -28 32.5t-34 8.5h-15q-10 0 -10 -12v-253
q0 -10 10 -11q7 0 37 -4.5t42 -5.5q8 -1 8 -7q0 -1 -0.5 -6t-0.5 -7q0 -5 -6 -5q-72 4 -130 4q-65 0 -125 -4q-7 0 -7 5q0 1 -0.5 6t-0.5 7q0 6 7 7q10 1 38.5 5t35.5 5q8 1 8 10v551q0 8 -9 11q-10 1 -73 10q-6 1 -6 6v12q0 7 7 7q84 -3 122 -3q17 0 62.5 3t61.5 3
q98 0 146.5 -45t48.5 -111zM395 480q0 59 -34.5 95t-95.5 36q-24 0 -50 -4q-9 -1 -9 -15v-246q0 -6 7 -6q109 3 152 52q30 35 30 88z" />
    <glyph glyph-name="S" unicode="S" horiz-adv-x="470" 
d="M414 179q0 -79 -57 -133.5t-148 -54.5q-88 0 -147 34q-7 5 -7 10q-3 38 -13 97q-2 7 3 9q6 3 16 3q4 0 7 -9q15 -45 25 -65q2 -8 9 -13q38 -32 103 -32q61 0 96 34.5t35 88.5q0 39 -18.5 66t-58.5 56q-87 64 -110 80q-89 60 -89 138q0 65 51.5 114t151.5 49q55 0 105 -18
q8 -2 10 -14q2 -7 18 -85q2 -8 -1 -9q-12 -4 -16 -4q-5 0 -7 6q-10 31 -22 54q-3 5 -8 9q-35 26 -94 26q-53 0 -83.5 -26.5t-30.5 -67.5q0 -29 17 -53.5t62 -56.5q10 -7 52 -35.5t57 -39.5q49 -37 70.5 -73.5t21.5 -84.5z" />
    <glyph glyph-name="T" unicode="T" horiz-adv-x="582" 
d="M333 44q0 -8 10 -9q14 -1 90 -10q7 -1 7 -6v-13q0 -7 -9 -6q-37 3 -140 3q-95 0 -141 -3q-9 -1 -9 5v13q0 7 9 7q8 0 26.5 2.5t39.5 5t26 3.5q7 1 7 9v554q0 7 -9 7h-67t-67.5 -0.5t-32.5 -0.5q-11 0 -13 -6q-28 -73 -30 -77q-4 -7 -8 -6q-14 4 -14 5q-4 2 -2 7
q7 23 17 65q7 29 12 55q1 8 8 8q8 0 10 -6q3 -7 4.5 -7.5t10.5 -0.5q116 -4 221 -4q86 0 234 4q10 0 13 4t5 8q2 3 8 3q9 0 9 -8q1 -12 7 -54q4 -25 12 -65q1 -7 -2 -10q-6 -4 -13 -4q-5 0 -8 7q-4 9 -13 35.5t-12 35.5q-2 6 -4.5 7t-12.5 2q-75 3 -171 3q-5 0 -6.5 -1.5
t-1.5 -6.5v-554z" />
    <glyph glyph-name="U" unicode="U" horiz-adv-x="723" 
d="M708 624q0 -6 -11 -7q-17 -1 -71 -10q-8 -1 -8 -14q-4 -174 -4 -362q0 -122 -60.5 -180t-198.5 -58q-115 0 -179.5 55t-64.5 171v377q0 9 -7 10q-4 1 -32.5 5t-39.5 5q-7 0 -7 6q0 12 1 16t5 4q53 -3 118 -3q28 0 130 3q6 0 7 -4t1 -14q0 -6 -7 -7q-58 -7 -77 -10
q-6 -1 -6 -9v-381q0 -183 185 -183q98 0 142 47t44 144q0 138 -6 368q0 12 -10 13q-12 1 -37.5 5t-41.5 6q-6 1 -6 5v15q0 5 8 5q54 -2 115 -2q76 0 113 2q5 0 5 -4v-14z" />
    <glyph glyph-name="V" unicode="V" horiz-adv-x="714" 
d="M698 623q0 -5 -8 -6q-5 -1 -22.5 -3.5t-30.5 -4.5q-10 -2 -14 -10q-118 -250 -227 -517q-5 -12 -14.5 -35.5t-14.5 -36.5q-6 -17 -18 -17q-6 0 -15 20q-13 31 -110 265.5t-131 317.5q-4 10 -10 11q-9 1 -31.5 4.5t-34.5 4.5q-14 1 -14 7q0 8 2 14t11 5q48 -3 111 -3
q13 0 141 4q4 0 6 -3q2 -6 2 -16q0 -6 -9 -7q-7 -1 -75 -9q-11 -1 -7 -11q156 -394 180 -452q10 -25 12 -25t13 25q85 193 172 449q4 13 -5 14q-53 8 -73 9q-10 1 -10 6q0 10 2 16q1 3 7 3q28 -3 112 -3q59 0 95 3q6 0 7 -5t1 -14z" />
    <glyph glyph-name="W" unicode="W" horiz-adv-x="1068" 
d="M1059 623q0 -6 -7 -7q-2 0 -11 -1.5t-22 -3t-22 -2.5q-11 -1 -17 -15q-47 -106 -237 -532q-18 -42 -23 -55t-12 -13q-10 0 -16 13q-72 188 -153 381q-5 13 -10 1q-87 -201 -148 -335q-16 -37 -20 -48q-5 -13 -12 -13q-10 0 -17 17q-199 487 -241 587q-3 9 -10 10
q-10 2 -22 4t-23.5 3.5t-15.5 2.5q-8 2 -8 5q0 1 0.5 7.5t0.5 8.5q0 4 10 4q60 -3 105 -3q73 0 133 3q4 0 5 -4t1 -16q0 -6 -5 -6q-13 -1 -75 -9q-8 -1 -5 -8q25 -60 98 -243t86 -213q9 -21 11 -21l11 23q22 50 125 283q4 10 0 21q-14 33 -39 90t-25 58q-5 10 -11 11
q-12 1 -31.5 4t-25.5 4q-12 1 -12 8q0 2 0.5 7t0.5 6q0 6 10 5q48 -3 109 -3q41 0 131 3q8 0 10 -4q3 -6 3 -14q0 -7 -7 -8q-33 -3 -79 -7q-10 -1 -6 -11q132 -323 182 -451q9 -23 12 -23q2 0 13 25q105 244 178 445q5 14 -4 14q-15 1 -73 8q-10 1 -10 5q0 13 2 17q1 4 7 4
q64 -2 111 -2q56 0 92 3q7 0 7 -5q0 -2 0.5 -8t0.5 -7z" />
    <glyph glyph-name="X" unicode="X" horiz-adv-x="689" 
d="M666 4q0 -4 -9 -4q-78 4 -113 4q-77 0 -133 -4q-8 0 -8 6v11q0 7 7 8q9 1 32.5 4.5t31.5 4.5q9 1 3 12q-81 132 -149 238q-5 7 -8 1q-73 -102 -163 -238q-8 -12 2 -13q44 -6 62 -9q6 -1 6 -7v-12q0 -6 -7 -6q-66 3 -110 3q-49 0 -97 -3q-3 0 -5 4v15q0 5 7 6q9 1 31 5
t28 5q13 2 19 11q166 208 209 263q5 7 0 14q-38 62 -172 268q-7 14 -20 17q-10 1 -37 5l-27 4q-6 1 -6 5q0 10 2 16q2 4 9 4q38 -2 112 -2q46 0 122 2q7 0 8 -4q2 -6 2 -14q0 -6 -7 -7q-16 -2 -56 -8q-11 -1 -2 -15q1 -1 55 -86t74 -117q5 -9 12 0q84 116 146 211q5 7 -2 7
q-49 7 -65 8q-7 0 -7 5v14q1 6 7 6q44 -3 100 -3q48 0 98 3q6 0 6 -4v-18q0 -3 -8 -4q-27 -3 -57 -8q-8 -1 -15 -9q-163 -202 -190 -236q-3 -4 0 -10q128 -200 193 -304q9 -14 15 -14q12 -1 37.5 -5t30.5 -5q7 -1 7 -5q0 -1 -0.5 -7.5t-0.5 -8.5z" />
    <glyph glyph-name="Y" unicode="Y" horiz-adv-x="637" 
d="M630 624q0 -6 -8 -7q-3 -1 -22 -4.5t-29 -5.5q-9 -2 -14 -9q-99 -152 -190 -285q-5 -7 -5 -20v-247q0 -10 11 -11q8 0 77 -7q8 -1 8 -7q0 -2 -2 -16q-1 -5 -5 -5q-48 4 -127 4q-86 0 -129 -4q-4 0 -7 4q-2 2 -2 16q0 6 6 6q4 1 80 9q7 1 7 11v244q0 11 -7 21
q-78 119 -189 283q-6 11 -17 13q-41 9 -52 10q-7 2 -7 7q0 6 2 14q1 4 10 4q53 -3 102 -3q87 0 129 3q7 0 8 -4q1 -3 1 -15q0 -6 -6 -6q-44 -4 -68 -9q-9 -2 -2 -13q81 -123 160 -247q6 -10 12 0q76 120 139 244q7 14 -3 15q-11 2 -34.5 5t-28.5 4q-7 1 -7 6q0 7 3 16
q1 4 8 4q99 -3 100 -3q31 0 91 3q8 0 8 -4q0 -3 -0.5 -8t-0.5 -6z" />
    <glyph glyph-name="Z" unicode="Z" horiz-adv-x="598" 
d="M507 51q8 0 14 14q35 77 36 80q3 7 8 7q10 0 16 -6q3 -3 0 -12q-15 -45 -35 -125q-2 -9 -12 -9q-80 3 -420 3q-16 0 -45 -2t-38 -2q-19 0 -5 20q90 127 421 580q6 9 -3 9q-99 0 -337 -17q-6 0 -9 -7q-19 -42 -43 -92q-2 -6 -7 -6q-6 0 -13 5q-6 3 -3 13q26 78 40 141
q2 6 7 6h4q5 0 7 -4q4 -6 14 -6q69 0 252 0.5t202 0.5q17 0 6 -16q-63 -89 -146.5 -204.5t-166.5 -229t-109 -149.5q-6 -9 5 -9q53 0 120.5 3t149 8.5t90.5 5.5z" />
    <glyph glyph-name="bracketleft" unicode="[" horiz-adv-x="320" 
d="M117 699h155q8 0 8 -14q0 -12 -8 -12h-65q-10 0 -13 -2.5t-3 -12.5v-830q0 -13 4 -16.5t18 -3.5h59q8 0 8 -11q0 -10 -1.5 -12.5t-6.5 -2.5h-151q-9 0 -9 8v904q0 5 5 5z" />
    <glyph glyph-name="backslash" unicode="\" horiz-adv-x="288" 
d="M8 663q0 5 14 12q7 2 9 1q4 -1 9 -15q12 -37 62 -180.5t106.5 -306t61.5 -177.5q2 -6 4 -9q4 -4 -3 -9q-8 -6 -17 -8q-4 -1 -6.5 1.5t-5.5 10.5q-14 41 -116 332.5t-115 330.5q-3 9 -3 17z" />
    <glyph glyph-name="bracketright" unicode="]" horiz-adv-x="320" 
d="M203 699q4 0 4 -5v-904q0 -6 -1.5 -7t-6.5 -1h-150q-5 0 -6.5 2.5t-1.5 12.5q0 11 8 11h58q14 0 18 3.5t4 16.5v829q0 11 -3 13.5t-14 2.5h-63q-8 0 -8 12q0 14 8 14h154z" />
    <glyph glyph-name="asciicircum" unicode="^" horiz-adv-x="339" 
d="M288 334q5 -10 5 -26q0 -12 -11 -13q-18 -3 -201 -3q-27 0 -29 9q-5 17 -3 25q1 8 12 10q45 6 192 6q31 0 35 -8z" />
    <glyph glyph-name="underscore" unicode="_" horiz-adv-x="526" 
d="M533 -182q0 -6 -19 -6h-493q-22 0 -22 5v22q0 9 30 9q242 -2 481 0q16 0 19.5 -1.5t3.5 -6.5v-22z" />
    <glyph glyph-name="grave" unicode="`" horiz-adv-x="528" 
d="M329 466q0 -4 -5 -5q-3 -1 -8 1q-8 6 -51 34t-52 34q-18 13 -18 25q0 11 8.5 19.5t19.5 8.5q13 0 24 -12q60 -68 76 -88q8 -10 6 -17z" />
    <glyph glyph-name="a" unicode="a" horiz-adv-x="378" 
d="M306 61q0 -35 23 -35q10 0 24 7q7 3 11 -4q6 -8 -2 -14q-25 -21 -66 -21q-23 0 -39.5 12.5t-20.5 34.5q-1 4 -6 1q-43 -26 -76 -40q-19 -8 -44 -8q-28 0 -50 30q-23 31 -23 67q0 50 59 80q21 11 71 32.5t61 26.5q5 2 5 11v58q0 69 -58 69q-51 0 -66 -29q-2 -4 -2 -22
q-1 -12 -15 -17q-12 -5 -31 -5q-14 0 -14 14q0 33 50 64t106 31q48 0 75.5 -25.5t27.5 -75.5v-242zM233 74v127q0 5 -5 3q-76 -36 -82 -40q-40 -26 -40 -65q0 -23 13 -42t35 -19q27 0 73 27q6 4 6 9z" />
    <glyph glyph-name="b" unicode="b" horiz-adv-x="492" 
d="M456 220q0 -100 -64.5 -161t-156.5 -61q-57 0 -104 31q-7 4 -11 0q-5 -6 -13 -15t-13 -15q-5 -5 -11 -4q-8 1 -8 15v584q0 11 -5 14q-5 2 -16 7t-19 9t-8 8q0 6 7 8q55 17 100 34q14 5 14 -7v-311q0 -7 6 -2q74 53 145 53q69 0 113 -50.5t44 -136.5zM384 195
q0 73 -36.5 115.5t-99.5 42.5q-51 0 -95 -30q-5 -4 -5 -10v-235q0 -8 8 -15q37 -32 88 -32q60 0 100 44.5t40 119.5z" />
    <glyph glyph-name="c" unicode="c" horiz-adv-x="404" 
d="M384 343q0 -14 -14 -28q-11 -11 -22 -11q-12 0 -29 18q-21 23 -38 32.5t-46 9.5q-51 0 -86.5 -42t-35.5 -118q0 -75 40 -116t98 -41q61 0 107 44q7 7 12 4q6 -3 9 -8q4 -7 -3 -16q-60 -77 -164 -77q-75 0 -124.5 53.5t-49.5 132.5q0 96 67 160t155 64q39 0 70 -11.5
t43 -25.5q11 -13 11 -24z" />
    <glyph glyph-name="d" unicode="d" horiz-adv-x="497" 
d="M418 58q0 -8 9 -7q28 4 41 7q9 2 11 -1q3 -3 3 -13q0 -8 -7 -10q-46 -9 -120 -40q-12 -5 -12 5q0 16 2 38q0 8 -7 2q-59 -44 -133 -44q-70 0 -119.5 51t-49.5 135q0 101 66 162t149 61q48 0 88 -23q6 -4 6 5v219q0 9 -8 11q-7 2 -18 5.5t-16 5.5q-9 2 -12 6q-4 7 0 12
q5 5 12 6q45 7 102 24q13 3 13 -8v-609zM345 326q0 6 -5 11q-32 30 -89 30q-60 0 -98.5 -44t-38.5 -121q0 -75 36.5 -118t97.5 -43q54 0 91 28q6 5 6 12v245z" />
    <glyph glyph-name="e" unicode="e" horiz-adv-x="411" 
d="M377 249q0 -11 -11 -11h-78.5h-104.5h-68q-5 0 -6 -4q-3 -10 -3 -31q0 -67 37 -111t110 -44q50 0 107 39q6 4 11 0q3 -1 5 -6q5 -8 -1 -14q-27 -27 -69.5 -50t-88.5 -23q-81 0 -130.5 53t-49.5 135q0 100 60 161t135 61q58 0 99.5 -40t45.5 -115zM304 275q0 43 -20 70
t-60 27q-39 0 -68.5 -26.5t-42.5 -74.5q-2 -7 2 -7q114 0 184 5q5 0 5 6z" />
    <glyph glyph-name="f" unicode="f" horiz-adv-x="265" 
d="M94 357q-3 0 -20.5 -0.5t-21.5 -0.5q-8 0 -8 7q0 3 0.5 11.5t0.5 10.5q0 5 6 5h43q3 0 3 7v71q0 84 40.5 146t91.5 62q18 0 28.5 -9t10.5 -22q0 -32 -36 -32q-18 0 -37 14q-9 6 -13 1q-13 -19 -13 -92v-142q0 -4 3 -4h75q8 0 9 -5q2 -12 2 -23q0 -6 -7 -6q-1 0 -35 0.5
t-43 0.5q-4 0 -4 -6v-309q0 -9 7 -10q17 -3 57 -8q7 -1 7 -6v-13q0 -5 -7 -5q-48 3 -99 3q-46 0 -95 -3q-6 0 -6 6v11q0 6 5 7q6 1 26.5 4t24.5 4q6 1 7 2.5t1 7.5v308q0 7 -3 7z" />
    <glyph glyph-name="g" unicode="g" horiz-adv-x="424" 
d="M422 -63q0 -80 -71.5 -148t-178.5 -68q-73 0 -108.5 29.5t-35.5 78.5q0 54 69 120q6 6 0 7q-22 6 -36 22.5t-14 36.5q0 49 74 90q5 3 0 6q-81 47 -81 138q0 65 45 110t112 45q33 0 61.5 -12t42.5 -26q3 -3 12 -3q11 0 46.5 2t37.5 2q6 0 7 -7q2 -14 2 -30q0 -7 -6 -7
q-9 0 -31.5 1t-32.5 1q-5 0 -2 -5q18 -29 18 -71q0 -66 -45.5 -110.5t-111.5 -44.5q-17 0 -41 4q-6 1 -10 -2q-34 -23 -34 -51q0 -32 50 -32q22 0 89 9.5t88 9.5q41 0 63 -25.5t22 -69.5zM280 249q0 123 -83 123q-42 0 -63.5 -33t-21.5 -90q0 -126 84 -126t84 126zM376 -91
q0 52 -55 50q-1 0 -105 -9q-31 -3 -81 -3q-2 1 -7 -4q-43 -43 -43 -92q0 -37 28 -60.5t84 -23.5q74 0 126.5 46t52.5 96z" />
    <glyph glyph-name="h" unicode="h" horiz-adv-x="514" 
d="M430 282v-235q0 -13 8 -15q21 -4 51 -8q6 0 6 -6v-14q0 -4 -8 -4q-72 3 -93 3q-59 0 -93 -3q-6 0 -6 4v13q0 6 7 7q16 2 48 8q8 1 8 15v223q0 42 -21.5 64.5t-60.5 22.5q-48 0 -101 -31q-6 -4 -6 -13v-269q0 -7 1 -9t7 -3q21 -4 46 -8q6 -2 6 -6v-14q0 -4 -6 -4
q-26 3 -95 3q-54 0 -86 -3q-7 -1 -7 5v13q0 5 6 6q28 3 47 9q7 2 7 11v549q0 13 -7 16t-19.5 9t-13.5 7q-5 3 -5 7t6 6q86 31 102 37q11 3 11 -7v-309q0 -7 6 -3q71 48 137 48q56 0 87 -31.5t31 -90.5z" />
    <glyph glyph-name="i" unicode="i" horiz-adv-x="243" 
d="M181 550q0 -18 -12 -30.5t-32 -12.5q-17 0 -29.5 13t-12.5 30q0 18 13 30.5t30 12.5q19 0 31 -12.5t12 -30.5zM231 6q0 -6 -5 -6q-63 3 -96 3q-44 0 -92 -3q-6 0 -6 5q0 1 -0.5 5.5t-0.5 7.5q0 5 7 6q25 3 53 8q5 1 5 11v242q0 24 -9.5 33.5t-35.5 14.5q-11 0 -11 12
q0 13 13 13q32 1 56 10q29 13 41 32q3 5 11 5q10 0 10 -13q0 -4 -2 -24t-2 -33v-292q0 -10 7 -11q20 -4 52 -8q5 -1 5 -7v-11z" />
    <glyph glyph-name="j" unicode="j" horiz-adv-x="243" 
d="M139 507q-17 0 -29.5 12.5t-12.5 29.5q0 18 13 31t31 13q20 0 31.5 -12.5t11.5 -31.5t-12.5 -30.5t-32.5 -11.5zM170 -81q0 -80 -35.5 -132t-81.5 -52q-24 0 -35.5 11.5t-11.5 26.5q0 13 9 22.5t24 9.5q18 0 39 -26q5 -7 9 -1q11 12 11 70v438q0 22 -10.5 31.5
t-33.5 11.5q-14 2 -14 13q0 5 4 9.5t10 4.5q28 1 59 17q17 9 42 32q5 7 11.5 5t6.5 -11q0 -5 -1.5 -24t-1.5 -31v-425z" />
    <glyph glyph-name="k" unicode="k" horiz-adv-x="476" 
d="M428 39q6 -7 12 -8q9 -1 23 -4t18 -3q5 0 5 -6q0 -7 -2 -15q-2 -3 -8 -2q-15 2 -68 2q-17 0 -53 -1.5t-44 -1.5q-5 0 -6 3q-3 6 -3 14q0 6 3 6q2 1 12.5 3t13.5 2q9 2 0 12q-6 7 -33 36t-43 46q-45 49 -84 86q-4 4 -4 -2v-166q0 -7 9 -8q42 -6 50 -7q6 -1 6 -6v-15
q0 -4 -6 -4q-60 4 -92 4q-51 0 -94 -4q-6 0 -6 4v16q0 5 4 5q10 1 51 7q6 1 6 8v548q0 9 -8 14q-6 3 -18 8t-19 9q-5 3 -5 7q0 5 5 7q37 12 107 42q10 3 10 -7v-441q0 -2 1.5 -2.5t3.5 0.5q23 19 74.5 61t73.5 60q11 9 -3 13q-22 5 -28 6q-5 1 -5 6q0 10 1 12q1 5 5 5
q56 -2 75 -2q12 0 39.5 1t33.5 1q7 0 8 -6v-14q0 -5 -7 -5q-10 -1 -45 -6q-4 -1 -13 -7q-113 -80 -143 -102q-4 -2 0 -6q60 -60 190 -203z" />
    <glyph glyph-name="l" unicode="l" horiz-adv-x="253" 
d="M230 3q-2 -3 -6 -3q-40 3 -91 3q-59 0 -94 -3q-6 0 -6 4q0 2 -0.5 7.5t-0.5 6.5q0 4 6 6q35 5 50 8q7 1 7 11v550q0 10 -6 12q-20 9 -31 15q-6 4 -6 7q0 5 7 7q55 21 99 41q9 5 9 -5v-627q0 -10 7 -11q42 -7 51 -8q6 0 6 -5q0 -12 -1 -16z" />
    <glyph glyph-name="m" unicode="m" horiz-adv-x="762" 
d="M738 3q0 -3 -6 -3q-54 3 -99 3q-51 0 -84 -3q-7 0 -7 5v14q0 5 8 6q12 1 27 3.5t20 3.5t5 6v236q0 80 -78 80q-46 0 -96 -31q-4 -3 -4 -8v-275q0 -7 6 -8q40 -7 49 -8t9 -7v-11q0 -6 -5 -6q-24 2 -89 2q-70 0 -98 -2q-6 0 -6 4v15q0 5 6 5q1 0 46 7q10 2 10 10v231
q0 82 -79 82q-47 0 -98 -33q-5 -3 -5 -11v-270q0 -7 8 -9q1 -1 2 -1q11 -3 46 -7q7 -1 7 -8v-9q0 -6 -8 -6q-27 2 -94 2q-66 0 -93 -2q-6 0 -6 5v12q0 6 7 7q36 4 49 7q9 2 9 10v237q0 35 -11 46q-9 9 -31 10q-7 0 -9 5t0 11q2 5 9 6q35 5 55 14q29 15 43 31q7 8 13 7
q5 -1 5 -12q0 -4 -0.5 -19t-0.5 -23q0 -9 7 -3q66 53 132 53q75 0 106 -56q3 -4 7 0q65 56 135 56q52 0 85.5 -31t33.5 -90v-242q0 -8 5 -9q37 -7 50 -8q8 -1 8 -5q0 -1 -1 -9v-7z" />
    <glyph glyph-name="n" unicode="n" horiz-adv-x="522" 
d="M436 286v-246q0 -6 10 -8q21 -5 46 -8q7 -1 7 -7l-1 -5v-7q0 -5 -7 -5q-36 3 -88 3q-59 0 -93 -3q-6 0 -7 5v12q0 6 7 7q16 2 46 7q7 1 7 7v223q0 88 -88 88q-49 0 -100 -34q-5 -3 -5 -8v-261q0 -12 8 -14q30 -7 45 -8q8 0 8 -7v-11q0 -6 -7 -6q-45 3 -90 3q-50 0 -92 -3
q-5 0 -6 5q-2 4 0 12q2 7 6 7q9 1 46 8q9 2 9 15v237q0 26 -9.5 36.5t-34.5 11.5q-4 0 -7 3q-9 9 1 19q3 3 7 3q66 7 97 39q9 9 13 9q7 0 7 -11q0 -3 -0.5 -21.5t-0.5 -26.5q0 -5 4 -3q78 61 154 61q51 0 79.5 -32.5t28.5 -85.5z" />
    <glyph glyph-name="o" unicode="o" horiz-adv-x="480" 
d="M444 198q0 -85 -57 -144.5t-147 -59.5t-147 59t-57 145q0 84 59 145t145 61t145 -60t59 -146zM364 198q0 77 -32.5 125t-91.5 48t-91.5 -48t-32.5 -125t32 -125t92 -48q61 0 92.5 49t31.5 124z" />
    <glyph glyph-name="p" unicode="p" horiz-adv-x="509" 
d="M473 222q0 -95 -61.5 -160t-148.5 -65q-48 0 -90 22q-5 -1 -5 -5v-244q0 -14 7 -15q17 -3 61 -7q6 0 6 -5q0 -11 -1 -15q-2 -5 -5 -5q-56 2 -101 2q-65 0 -101 -2q-5 0 -6 5q-1 2 -1 7t1 7q2 6 6 6q15 1 54 7q7 1 7 15v499q0 35 -8.5 46t-35.5 16q-8 2 -10 5q-5 5 -1 13
q3 6 9 6q58 5 102 52q5 6 11 4t6 -8v-38q0 -7 5 -4q64 43 132 43q77 0 122.5 -52.5t45.5 -129.5zM396 199q0 71 -37 114t-97 43q-49 0 -85 -21q-9 -5 -9 -16v-256q0 -5 4 -8q37 -26 90 -26q60 0 97 47.5t37 122.5z" />
    <glyph glyph-name="q" unicode="q" horiz-adv-x="498" 
d="M423 400v-634q0 -9 7 -10q25 -4 47 -9q6 -1 6 -7v-12q0 -6 -7 -5q-50 5 -92 5q-45 0 -110 -5q-5 0 -6 6q0 1 -0.5 6t-0.5 7q0 5 8 7q52 7 70 9q6 1 6 10v266q0 7 -5 3q-63 -42 -135 -42q-78 0 -126.5 55t-48.5 136q0 93 60 155.5t152 62.5q65 0 119 -35q8 -5 14 3
q11 13 27 34q3 4 9 4t6 -10zM351 75v241q0 8 -5 13q-15 15 -42.5 27t-56.5 12q-58 0 -97.5 -43.5t-39.5 -108.5q0 -76 39.5 -125.5t107.5 -49.5q50 0 89 24q5 5 5 10z" />
    <glyph glyph-name="r" unicode="r" horiz-adv-x="330" 
d="M333 359q0 -16 -10.5 -27t-26.5 -11q-12 0 -28 10q-24 15 -41 15q-28 0 -54 -31q-5 -6 -5 -15v-259q0 -8 7 -9q20 -3 60 -8q7 -1 7 -7v-5q-1 -6 -1 -7q0 -5 -6 -5q-39 3 -105 3q-45 0 -86 -3q-7 0 -8 4q-1 2 0 8t1 7q0 4 6 5q3 0 21.5 3.5t27.5 4.5q6 1 6 10v235
q0 30 -10.5 42t-37.5 14q-6 0 -8 7q-2 4 0 9q2 6 10 6q61 4 100 46q4 4 9 4q7 0 7 -11q-1 -11 -1 -49q0 -6 5 -1q57 60 106 60q25 0 40 -12.5t15 -32.5z" />
    <glyph glyph-name="s" unicode="s" horiz-adv-x="323" 
d="M285 115q0 -50 -38.5 -85t-95.5 -35q-56 0 -92 16q-8 3 -8 10q-2 23 -9 72q-1 10 4 12q8 2 10 2q4 0 7 -7q11 -33 19 -45q5 -7 9 -12q22 -20 60 -20q32 0 52.5 19t20.5 45q0 19 -8.5 31t-29.5 28q-5 4 -19.5 14t-34.5 24l-30 21q-52 36 -52 90q0 46 35.5 77.5t86.5 31.5
q39 0 81 -14q7 -2 8 -11q5 -57 6 -64q1 -8 -6 -11h-3q-3 -1 -4 -1q-6 0 -8 9q-3 13 -11 32q-4 8 -10 13q-24 19 -58 19q-30 0 -46.5 -15.5t-16.5 -36.5q0 -17 10.5 -28.5t36.5 -28.5q62 -41 71 -47q63 -45 63 -105z" />
    <glyph glyph-name="t" unicode="t" horiz-adv-x="310" 
d="M296 51q1 -7 -5 -13q-46 -44 -116 -44q-39 0 -63 21.5t-24 66.5v267q0 4 -6 4h-39q-7 0 -7 8q0 5 5 8q30 17 50 31q37 29 55 56q4 6 9 6q6 0 6 -9v-60q0 -6 7 -6q16 0 64 0.5t49 0.5q9 0 10 -7q1 -10 1 -19t-9 -9h-116q-6 0 -6 -6v-254q0 -60 53 -60q30 0 64 26q7 5 12 0
q6 -6 6 -8z" />
    <glyph glyph-name="u" unicode="u" horiz-adv-x="513" 
d="M426 44q0 -9 6 -9q32 3 44 4q7 1 9 -5q1 -2 1 -13q0 -7 -8 -8q-15 -1 -57 -8q-43 -6 -58 -11q-10 -1 -10 8v41q0 6 -5 3q-77 -53 -148 -53q-49 0 -79.5 30.5t-30.5 85.5v239q0 10 -8 10q-6 1 -20 3t-23 3q-8 1 -8 7q0 8 1 11q2 6 10 6q10 0 29 -0.5t28 -0.5q10 0 29 1
t25 1t7.5 -2t1.5 -9v-252q0 -84 87 -84q51 0 99 32q5 3 5 13v261q0 7 -6 8q-35 7 -46 8q-10 1 -10 6q0 7 2 13q2 5 6 5q18 -1 69 -1q8 0 26 1t23 1q9 0 9 -10v-335z" />
    <glyph glyph-name="v" unicode="v" horiz-adv-x="443" 
d="M223 2q-4 -8 -10 -8q-5 0 -9 9q-48 115 -151 347q-4 8 -19 10l-30 6q-5 1 -5 9v8q0 6 5 6q9 0 40.5 -1t45.5 -1q25 0 60.5 1t37.5 1q4 0 4 -6v-12q0 -5 -5 -5q-4 0 -16.5 -2.5t-19.5 -3.5q-20 -1 -13 -16q9 -21 44.5 -105.5t52.5 -120.5q5 -11 9 -1q62 128 95 228
q4 13 -15 16q-20 4 -29 6q-4 1 -4 7v11q0 4 5 4q23 -1 73 -1q13 0 32 0.5t30 0.5q7 0 8 -3q2 -4 2 -13q0 -4 -7 -6q-3 -1 -23 -7q-15 -5 -19 -12q-32 -56 -125 -249q-29 -64 -44 -97z" />
    <glyph glyph-name="w" unicode="w" horiz-adv-x="687" 
d="M520 87q-21 -48 -32 -82q-4 -12 -13 -12q-8 0 -11 10q-42 102 -114 255q-2 5 -5 0q-12 -24 -41.5 -86t-32.5 -68q-29 -63 -40 -99q-3 -12 -12 -12t-12 10q-28 74 -151 343q-4 9 -14 11q-5 1 -17 3t-17 3q-6 1 -6 9v11q0 6 6 6q48 -2 80 -2q59 0 101 2q4 0 4 -3
q2 -8 2 -17q0 -5 -5 -5q-12 -1 -48 -6q-10 -1 -6 -10q46 -102 104 -240q4 -8 7 0q7 15 27 58t35.5 76t20.5 44q3 5 -1 16q-8 20 -20 44q-5 11 -15 12q-16 2 -38 6q-8 1 -8 8q0 5 2 13q1 4 6 4q49 -3 87 -3q48 0 96 3q6 0 6 -4q2 -8 2 -15q0 -5 -6 -6t-24.5 -3t-24.5 -3
q-10 -2 -4 -14q73 -162 105 -238q3 -9 7 0q56 127 91 230q5 13 3.5 17.5t-9.5 5.5q-5 1 -17 2.5t-17 2.5q-8 2 -8 7v12q0 6 8 6q30 -2 65 -2q21 0 59 2q7 0 8 -7q2 -6 0 -13q-1 -4 -7 -5q-9 -2 -24 -5q-10 -2 -13 -4.5t-7 -11.5q-14 -32 -58.5 -134t-53.5 -122z" />
    <glyph glyph-name="x" unicode="x" horiz-adv-x="442" 
d="M436 5q-2 -5 -8 -5q-26 2 -81 2q-68 0 -95 -2q-8 0 -8 5q0 2 -0.5 6t-0.5 6q0 7 7 7q15 2 41 6q11 2 4 13q-25 38 -83 116q-5 7 -10 0q-9 -12 -38.5 -53.5t-46.5 -64.5q-6 -9 3 -10q8 -1 27 -3t27 -3q5 -1 5 -6v-13q0 -6 -6 -6q-66 3 -88 3q-38 0 -68 -3q-6 -1 -6 4
q0 1 -0.5 7.5t-0.5 7.5q0 5 5 6l18 3t17 3q2 0 4 0.5t3.5 1.5l3 2t3 3.5t3 4l4.5 4.5t5 6q57 63 112 131q3 4 -1 10q-45 64 -116 153q-9 10 -13 11q-30 6 -34 6q-9 2 -9 8q0 11 2 12q0 5 7 5q62 -2 84 -2q44 0 90 2q5 0 6 -4q1 -2 1 -15q0 -5 -5 -5q-3 -1 -19 -2.5t-19 -1.5
q-10 -1 -4 -11q69 -96 76 -106q4 -6 9 0q76 103 78 105q5 11 -4 12q-3 0 -11.5 1t-15 2t-9.5 1q-4 1 -6 7v11q0 6 5 6q40 -2 76 -2q30 0 64 2q6 0 6 -5v-11q0 -9 -6 -9q-3 0 -10 -1t-14 -1.5t-13 -1.5t-11 -7q-11 -13 -57.5 -66t-55.5 -64q-4 -5 -1 -10q76 -101 125 -173
q8 -9 16 -10q5 -1 29 -5q9 -1 9 -7q0 -8 -1 -13z" />
    <glyph glyph-name="y" unicode="y" horiz-adv-x="445" 
d="M441 368q0 -4 -8 -5q-21 -3 -27 -4q-8 -1 -12 -12q-78 -183 -130 -319q-12 -30 -91 -219q-35 -84 -88 -84q-21 0 -33 11t-12 28t13 27.5t33 10.5q10 0 28 -7q7 -4 11 -2t9 13q65 139 81 182q2 7 -2 16q-134 294 -154 342q-4 9 -12 11q-7 2 -19 4.5t-17 3.5q-5 2 -5 5
q0 10 2 16q1 3 5 3q64 -2 82 -2q51 0 89 2q7 0 8 -2q4 -6 4 -15q0 -4 -3 -5q-10 -2 -47 -9q-9 -1 -5 -11q11 -26 50.5 -118t60.5 -142l1 -2q2 -5 2.5 -4.5t3.5 6.5q41 111 84 258q3 11 -6 12q-1 0 -17.5 2.5t-29.5 4.5q-7 1 -7 7q0 10 2 14q3 4 9 4q66 -3 78 -3q14 0 59 3
q8 0 9 -5q1 -4 1 -16z" />
    <glyph glyph-name="z" unicode="z" horiz-adv-x="412" 
d="M386 102q-3 -12 -17 -95q-1 -8 -12 -7q-15 1 -92 1q-24 0 -96 0.5t-87 0.5q-19 0 -51 -2q-3 0 -4 2.5t-0.5 6.5t3.5 8q108 150 143 196q21 28 58.5 75t49.5 63q5 7 -2 7q-86 0 -165 -9q-11 -1 -16 -8q-10 -13 -34 -50q-5 -7 -11 -6q-9 4 -11 6q-3 3 0 10q22 40 37 82
q2 6 13 6q10 0 72.5 -1t95.5 0h59t56 1q16 0 5 -16q-18 -25 -76 -100.5t-88 -117.5q-19 -27 -50 -68t-36 -47q-6 -9 3 -9q124 0 199 9q8 2 10 10l21 57q2 6 7 6q8 0 12 -2q5 -1 4 -9z" />
    <glyph glyph-name="braceleft" unicode="{" horiz-adv-x="318" 
d="M277 -207q0 -11 -7 -11q-72 0 -108 29t-36 115q0 63 -0.5 86t-3.5 66t-10 63t-20.5 45t-34.5 45q-10 8 0 18q26 25 40.5 52t20.5 73t7 75.5t1 104.5q0 86 34.5 115.5t109.5 29.5q7 0 7 -12t-8 -12q-44 0 -55.5 -31t-11.5 -123q0 -97 -15 -158.5t-61 -123.5
q46 -59 61 -121.5t15 -157.5q0 -90 12 -122t55 -32q8 0 8 -13z" />
    <glyph glyph-name="bar" unicode="|" horiz-adv-x="229" 
d="M131 -42q0 -12 -7 -18q-2 -1 -18 -1q-8 0 -8 21v718q0 14 1 16q3 5 13 5q18 0 18 -6q0 -1 0.5 -6.5t0.5 -8.5v-720z" />
    <glyph glyph-name="braceright" unicode="}" horiz-adv-x="318" 
d="M38 -207q0 13 7 13q43 0 55 32t12 122q0 95 15 157.5t61 121.5q-46 62 -61 123.5t-15 158.5q0 91 -11.5 122.5t-55.5 31.5q-7 0 -7 12t6 12q75 0 110 -29.5t35 -115.5v-17q0 -67 1 -97.5t7 -72t21 -68t40 -50.5q10 -10 0 -18q-47 -44 -58 -102.5t-11 -184.5v-18
q0 -86 -36 -115t-109 -29q-6 0 -6 11z" />
    <glyph glyph-name="asciitilde" unicode="~" horiz-adv-x="371" 
d="M321 208q-12 -18 -35 -32.5t-51 -14.5q-31 0 -62 13q-49 20 -68 20q-17 0 -36 -12q-10 -7 -13 -5l-3 3q-7 8 3 23q31 45 82 45q18 0 63 -15q52 -18 70 -18q15 0 36 12q11 7 15 2q7 -9 -1 -21z" />
    <glyph glyph-name="exclamdown" unicode="&#xa1;" horiz-adv-x="258" 
d="M72 62q0 13 14 179q2 26 7 80t8 95t4 65q0 17 14 17t14 -16q1 -35 17 -242q14 -174 14 -177q0 -69 -46 -69t-46 68zM75 606q0 20 13 32.5t32 12.5t32 -12.5t13 -32.5t-13.5 -33t-32.5 -13t-31.5 13.5t-12.5 32.5z" />
    <glyph glyph-name="cent" unicode="&#xa2;" horiz-adv-x="389" 
d="M261 400q31 77 33 83t11 0q12 -7 8 -18l-25 -67q36 -4 67 -28q12 -8 12 -26q0 -11 -13 -26q-8 -9 -21 -9q-12 0 -26 17q-16 20 -36 29q-17 -44 -53.5 -139t-47.5 -124q29 -23 73 -23q67 0 103 38q7 7 12 2q1 -1 2.5 -2t2.5 -2.5t2 -2.5q3 -4 -3 -12q-62 -72 -152 -72
q-34 0 -64 12q-8 -20 -16 -42t-12 -32l-4 -9q-4 -9 -7 -10.5t-13 0.5q-10 3 -5 16q0 1 4 12t12.5 33t17.5 44q-74 48 -74 150q0 92 62.5 150t141.5 58h8zM150 112q16 41 97 250q-12 2 -17 2q-45 0 -79 -39.5t-34 -109.5q0 -64 33 -103z" />
    <glyph glyph-name="sterling" unicode="&#xa3;" horiz-adv-x="492" 
d="M304 224q6 -26 6 -46q0 -58 -47 -110q45 -34 98 -34q33 0 68 8q10 2 13 -2q4 -4 4 -11q0 -9 -11 -14q-69 -25 -104 -25q-65 0 -111 38q-43 -32 -104 -32q-34 0 -54.5 18t-20.5 45q0 32 25.5 52.5t59.5 18.5q40 -1 90 -30q17 31 17 70q0 24 -7 52q-1 4 -5 4h-82
q-9 0 -14 6q-4 4 -4 15q0 12 10 12q11 0 38 -0.5t39 -0.5q3 0 2 4q-3 7 -11 19.5t-10 16.5q-3 5 -10 17t-9.5 17.5t-8.5 16t-8 17t-5.5 15.5t-4.5 16.5t-1 15.5q0 51 44 85t104 34q46 0 79.5 -26.5t43.5 -68.5q3 -14 1 -15q-10 -4 -21 -4q-5 0 -8 8q-27 71 -95 71
q-31 0 -54 -20t-23 -56q0 -7 2 -15t4 -14.5t7.5 -17t8.5 -16t11 -19t11 -18.5q4 -7 17 -28.5t18 -31.5q1 -4 6 -4q32 -1 86 -1q9 0 9 -10q0 -2 -3 -14q-1 -5 -12 -5h-71q-3 0 -3 -3zM186 55q-34 36 -67 36q-20 0 -30.5 -9.5t-10.5 -23.5q0 -15 10 -25t29 -10q40 0 69 32z
" />
    <glyph glyph-name="currency" unicode="&#xa4;" horiz-adv-x="547" 
d="M34 282q-11 0 -14 2q-5 7 -3 21q0 3 9 5q6 2 62 10q27 97 105.5 155t165.5 58q88 0 140 -47q13 -12 13 -29q0 -12 -13 -28t-27 -16t-33 21q-27 30 -50 44t-62 14q-61 0 -104.5 -43t-56.5 -118q98 14 191 26q10 1 15 -2q8 -4 12 -27q0 -2 -6 -4t-216 -28q-2 -14 -2 -25
q0 -37 8 -67q172 25 189 28q16 3 19 1q10 -13 10 -29q0 -3 -14 -6q-17 -2 -194 -27q20 -55 63 -85t102 -30q47 0 78.5 15.5t64.5 47.5q4 3 9 2q5 -2 10 -12q3 -5 -3 -13q-31 -42 -83 -71t-123 -29q-75 0 -129.5 45t-76.5 118q-12 -1 -24 -2.5t-18.5 -2.5t-7.5 -1q-8 0 -9 2
q-5 10 -5 21q0 4 3 4q26 5 54 9q-4 23 -4 51t2 46q-27 -2 -47 -4z" />
    <glyph glyph-name="yen" unicode="&#xa5;" horiz-adv-x="597" 
d="M192 345q-23 34 -56 82t-37 54q-4 9 -13 10q-8 2 -21 4t-20 3q-5 1 -5 6v17q0 3 9 3q43 -3 92 -3q70 0 103 3q6 0 7 -3t1 -18q0 -5 -5 -5q-32 -3 -55 -7q-8 -2 -2 -10q13 -18 82 -125q11 2 50 7t57 7q14 25 31 54.5t31 54.5q6 10 -3 12q-11 3 -49 6q-6 0 -6 5q0 13 2 19
q1 3 6 3q9 0 26 -1t30.5 -1.5t24.5 -0.5q31 0 79 3q7 0 7 -3q0 -2 -0.5 -9.5t-0.5 -8.5q0 -4 -7 -6q-2 -1 -17 -3t-23 -4q-10 -3 -12 -7q-10 -17 -34.5 -52t-37.5 -54q42 7 45 7q11 1 16 -2q13 -9 15 -23q0 -5 -7 -6q-6 -2 -94 -13q-6 -10 -57 -84q-5 -7 -5 -16v-24
q24 3 52 7t45 6.5t19 2.5q13 1 17 0q11 -4 13 -10q3 -13 0 -18q-2 -3 -14 -5q-6 -1 -26.5 -4t-51 -7.5t-54.5 -7.5v-134q0 -8 10 -9q5 -1 29 -4.5t34 -4.5q6 -1 6 -5q0 -8 -2 -18q-1 -5 -3 -5q-43 3 -112 3q-85 0 -111 -3q-4 0 -5 4q-2 4 -2 18q0 5 5 5q10 1 34 5l30 5t6 9
v122q-33 -4 -107 -13q-6 -1 -14 -1q-7 0 -9 2q-6 6 -6 23q0 4 5 6q15 3 131 19v28q0 10 -4 17q-7 11 -13 21t-14 22l-14 21q-62 -8 -77 -11q-7 -1 -18 -1q-8 0 -11 3q-6 6 -4 22q0 4 12 6q4 1 36.5 6t40.5 7zM292 325q11 -14 28 -42q2 -4 3 -5t2.5 0t4.5 5q17 28 29 51
q-13 -1 -67 -9z" />
    <glyph glyph-name="brokenbar" unicode="&#xa6;" 
d="M418 394q-31 -5 -41 4q-9 8 -4 41q3 18 -7 29q-6 7 -17 7q-4 1 -1 5q15 9 31 -6q15 -13 15 -40q37 65 8 94q-14 14 -25 2q-13 -12 -2 -23q5 9 14 2q8 -6 0 -14q-11 -11 -22 2q-23 25 0 48q13 14 30.5 8t24.5 -27q4 21 18 33q14 13 33.5 16.5t35.5 -4.5q12 -6 1 -9
q-21 -8 -39 -26q-39 -39 -65 -109q68 24 109 65q18 18 26 39q3 11 9 -1q8 -16 4.5 -35.5t-16.5 -33.5q-12 -13 -33 -18q21 -7 27 -24.5t-8 -30.5q-23 -23 -48 0q-13 11 -2 22q6 6 14 0q10 -7 -2 -14q10 -10 23 2q11 12 -2 25q-29 29 -94 -8q27 0 40 -15q15 -16 6 -31
q-3 -3 -5 1q0 11 -7 17q-11 10 -29 7zM180 394q-18 3 -29 -7q-7 -6 -7 -17q-1 -4 -5 -1q-9 15 6 31q13 15 40 15q-65 37 -94 8q-13 -13 -2 -25q13 -12 23 -2q-12 7 -2 14q8 6 14 0q11 -11 -2 -22q-25 -23 -48 0q-14 13 -8 30.5t27 24.5q-21 5 -33 18q-13 14 -16.5 33.5
t4.5 35.5q6 12 9 1q8 -21 26 -39q41 -41 109 -65q-26 70 -65 109q-18 18 -39 26q-11 3 1 9q16 8 35.5 4.5t33.5 -16.5q14 -12 18 -33q7 21 24.5 27t30.5 -8q23 -23 0 -48q-11 -13 -22 -2q-8 8 0 14q9 7 14 -2q11 11 -2 23q-11 12 -25 -2q-29 -29 8 -94q0 27 15 40
q16 15 31 6q3 -3 -1 -5q-11 0 -17 -7q-10 -11 -7 -29q5 -33 -4 -41q-10 -9 -41 -4zM404 321q-38 -25 -59 -46q-19 -19 -46 -58q-27 36 -49 58q-25 25 -58 49q34 22 59 46q21 20 46 58q21 -31 49 -57q33 -31 58 -50zM418 248q18 -3 29 7q7 6 7 17q1 4 5 1q9 -15 -6 -31
q-13 -15 -40 -15q65 -37 94 -8q13 13 2 25q-13 12 -23 2q12 -7 2 -14q-8 -6 -14 0q-11 11 2 22q25 23 48 0q14 -13 8 -30.5t-27 -24.5q21 -5 33 -18q13 -14 16.5 -33.5t-4.5 -35.5q-6 -12 -9 -1q-8 21 -26 39q-41 41 -109 65q26 -70 65 -109q18 -18 39 -26q11 -3 -1 -9
q-16 -8 -35.5 -4.5t-33.5 16.5q-14 12 -18 33q-7 -21 -24.5 -27t-30.5 8q-23 23 0 48q11 13 22 2q8 -8 0 -14q-9 -7 -14 2q-11 -11 2 -23q11 -12 25 2q29 29 -8 94q0 -26 -15 -40q-16 -15 -31 -6q-3 3 1 5q11 0 17 7q10 11 7 29q-5 33 4 41q10 9 41 4zM180 248q31 5 41 -4
q9 -8 4 -41q-3 -18 7 -29q6 -7 17 -7q4 -1 1 -5q-15 -9 -31 6q-15 14 -15 40q-37 -65 -8 -94q14 -14 25 -2q13 12 2 23q-5 -9 -14 -2q-8 6 0 14q11 11 22 -2q23 -25 0 -48q-13 -14 -30.5 -8t-24.5 27q-4 -21 -18 -33q-14 -13 -33.5 -16.5t-35.5 4.5q-12 6 -1 9q21 8 39 26
q39 39 65 109q-68 -24 -109 -65q-18 -18 -26 -39q-3 -11 -9 1q-8 16 -4.5 35.5t16.5 33.5q12 13 33 18q-21 7 -27 24.5t8 30.5q23 23 48 0q13 -11 2 -22q-6 -6 -14 0q-10 7 2 14q-10 10 -23 -2q-11 -12 2 -25q29 -29 94 8q-27 0 -40 15q-15 16 -6 31q3 3 5 -1q0 -11 7 -17
q11 -10 29 -7zM334 367q-23 23 -29 33q-14 -27 -34 -43l27 -27zM375 330q-12 6 -34 28l-36 -35l27 -26q30 25 43 33zM291 323l-27 26q-16 -16 -44 -34q20 -11 35 -27zM324 288l-27 27l-34 -35q20 -21 28 -34q5 12 33 42z" />
    <glyph glyph-name="section" unicode="&#xa7;" horiz-adv-x="397" 
d="M104 469q-19 26 -19 70q0 41 33.5 76t96.5 35q47 0 79 -10q15 -4 16 -11q3 -28 12 -59q3 -9 -2 -12q-3 -3 -11 -3t-10 9q-2 6 -14 37q-1 3 -9 7.5t-25 8.5t-37 4q-40 0 -60.5 -20t-20.5 -47q0 -19 13 -35t45 -39q10 -7 49.5 -34t49.5 -35q52 -41 52 -102
q0 -22 -11.5 -49.5t-32.5 -48.5q31 -35 31 -81q0 -57 -44.5 -96t-111.5 -39q-31 0 -65 12q-7 3 -17.5 8.5t-13.5 5.5q-4 1 -5.5 1.5t-2.5 3.5t-1.5 5t-1.5 9q-1 5 -3.5 29.5t-3.5 32.5q-1 9 3 9q1 0 5.5 1.5t5.5 1.5q4 0 5 -1t4 -8q14 -36 20 -44q25 -35 76 -35
q41 0 69.5 23t28.5 61q0 22 -13.5 40t-43.5 42q-32 25 -96 70q-65 46 -65 106q0 49 46 101zM276 232q18 29 18 51q0 38 -37 66q-5 4 -41.5 29.5t-48.5 34.5q-39 30 -44 34q-21 -27 -21 -55q0 -33 57 -75q68 -46 93 -66q3 -2 11 -9t13 -10z" />
    <glyph glyph-name="dieresis" unicode="&#xa8;" horiz-adv-x="529" 
d="M384 496q0 -14 -10.5 -24.5t-25.5 -10.5q-14 0 -24.5 10.5t-10.5 24.5q0 16 10.5 26t24.5 10q15 0 25.5 -10t10.5 -26zM224 496q0 -14 -10.5 -24.5t-25.5 -10.5t-25.5 10.5t-10.5 24.5q0 16 10.5 26t25.5 10t25.5 -10t10.5 -26z" />
    <glyph glyph-name="copyright" unicode="&#xa9;" horiz-adv-x="680" 
d="M615 321q0 -119 -83.5 -202.5t-202.5 -83.5t-202.5 83.5t-83.5 202.5t83.5 203t202.5 84t202.5 -84t83.5 -203zM591 321q0 110 -76 187.5t-186 77.5t-186 -77t-76 -188q0 -109 77 -186.5t185 -77.5q110 0 186 77.5t76 186.5zM461 237q0 -5 -3 -28.5t-4 -32.5q0 -4 -6 -8
q-46 -28 -112 -28q-83 0 -136 51t-53 128q0 73 54 127t140 54q54 0 103 -23q4 -2 4 -7q5 -40 9 -57q1 -4 -1 -6q-3 -1 -10 -1q-3 0 -4 4q-12 29 -17 35q-26 32 -85 32t-97 -44t-38 -113q0 -66 34.5 -111t96.5 -45q45 0 90 25q7 5 9 12q2 8 6 20.5t5 15.5q1 6 4 6h8q3 0 3 -6
z" />
    <glyph glyph-name="ordfeminine" unicode="&#xaa;" horiz-adv-x="300" 
d="M222 367q-32 0 -41 29q0 2 -2 0q-21 -12 -46 -23q-14 -6 -25 -6q-19 0 -32 16q-16 20 -16 39q0 32 34 48q9 5 40 18.5t40 18.5q4 1 4 6v30q0 42 -34 42q-36 0 -36 -20q0 -14 -11 -18q-6 -2 -18 -2q-11 0 -11 11q0 20 29.5 37.5t65.5 17.5q28 0 46 -15.5t18 -44.5v-138
q0 -19 13 -19q1 0 13 3q6 1 10 -5q3 -9 -4 -13q-19 -12 -37 -12zM251 314q-5 -5 -16 -5q-18 0 -78.5 -0.5t-80.5 -0.5q-14 0 -14 7q0 4 2 12q4 7 18 7q35 0 93 0.5t67 0.5q12 0 15 -2.5t1 -7.5q-2 -8 -7 -11zM176 488q-31 -12 -51 -28q-18 -12 -18 -30q0 -14 7 -24t19 -10
q16 0 40 18q5 2 5 5v67q0 3 -2 2z" />
    <glyph glyph-name="guillemotleft" unicode="&#xab;" horiz-adv-x="415" 
d="M368 74q4 -4 -4 -13q-10 -11 -20 -1q-6 6 -72.5 65.5t-83.5 75.5q-11 11 -11 17t11 17q12 12 80.5 73.5t76.5 69.5t19 -1q9 -8 3 -16q-22 -25 -112 -138q-4 -4 1 -10q77 -93 112 -139zM215 74q3 -5 -4 -13q-9 -11 -21 -1q-6 6 -72.5 65.5t-83.5 75.5q-10 10 -10 17t10 17
q12 12 80.5 73.5t76.5 69.5t20 -1q10 -9 3 -16q-22 -24 -113 -138q-4 -4 1 -10q59 -71 113 -139z" />
    <glyph glyph-name="logicalnot" unicode="&#xac;" 
d="M418 394q-31 -5 -41 4q-9 8 -4 41q3 18 -7 29q-6 7 -17 7q-4 1 -1 5q15 9 31 -6q15 -13 15 -40q37 65 8 94q-14 14 -25 2q-13 -12 -2 -23q5 9 14 2q8 -6 0 -14q-11 -11 -22 2q-23 25 0 48q13 14 30.5 8t24.5 -27q4 21 18 33q14 13 33.5 16.5t35.5 -4.5q12 -6 1 -9
q-21 -8 -39 -26q-39 -39 -65 -109q68 24 109 65q18 18 26 39q3 11 9 -1q8 -16 4.5 -35.5t-16.5 -33.5q-12 -13 -33 -18q21 -7 27 -24.5t-8 -30.5q-23 -23 -48 0q-13 11 -2 22q6 6 14 0q10 -7 -2 -14q10 -10 23 2q11 12 -2 25q-29 29 -94 -8q27 0 40 -15q15 -16 6 -31
q-3 -3 -5 1q0 11 -7 17q-11 10 -29 7zM180 394q-18 3 -29 -7q-7 -6 -7 -17q-1 -4 -5 -1q-9 15 6 31q13 15 40 15q-65 37 -94 8q-13 -13 -2 -25q13 -12 23 -2q-12 7 -2 14q8 6 14 0q11 -11 -2 -22q-25 -23 -48 0q-14 13 -8 30.5t27 24.5q-21 5 -33 18q-13 14 -16.5 33.5
t4.5 35.5q6 12 9 1q8 -21 26 -39q41 -41 109 -65q-26 70 -65 109q-18 18 -39 26q-11 3 1 9q16 8 35.5 4.5t33.5 -16.5q14 -12 18 -33q7 21 24.5 27t30.5 -8q23 -23 0 -48q-11 -13 -22 -2q-8 8 0 14q9 7 14 -2q11 11 -2 23q-11 12 -25 -2q-29 -29 8 -94q0 27 15 40
q16 15 31 6q3 -3 -1 -5q-11 0 -17 -7q-10 -11 -7 -29q5 -33 -4 -41q-10 -9 -41 -4zM404 321q-38 -25 -59 -46q-19 -19 -46 -58q-27 36 -49 58q-25 25 -58 49q34 22 59 46q21 20 46 58q21 -31 49 -57q33 -31 58 -50zM418 248q18 -3 29 7q7 6 7 17q1 4 5 1q9 -15 -6 -31
q-13 -15 -40 -15q65 -37 94 -8q13 13 2 25q-13 12 -23 2q12 -7 2 -14q-8 -6 -14 0q-11 11 2 22q25 23 48 0q14 -13 8 -30.5t-27 -24.5q21 -5 33 -18q13 -14 16.5 -33.5t-4.5 -35.5q-6 -12 -9 -1q-8 21 -26 39q-41 41 -109 65q26 -70 65 -109q18 -18 39 -26q11 -3 -1 -9
q-16 -8 -35.5 -4.5t-33.5 16.5q-14 12 -18 33q-7 -21 -24.5 -27t-30.5 8q-23 23 0 48q11 13 22 2q8 -8 0 -14q-9 -7 -14 2q-11 -11 2 -23q11 -12 25 2q29 29 -8 94q0 -26 -15 -40q-16 -15 -31 -6q-3 3 1 5q11 0 17 7q10 11 7 29q-5 33 4 41q10 9 41 4zM180 248q31 5 41 -4
q9 -8 4 -41q-3 -18 7 -29q6 -7 17 -7q4 -1 1 -5q-15 -9 -31 6q-15 14 -15 40q-37 -65 -8 -94q14 -14 25 -2q13 12 2 23q-5 -9 -14 -2q-8 6 0 14q11 11 22 -2q23 -25 0 -48q-13 -14 -30.5 -8t-24.5 27q-4 -21 -18 -33q-14 -13 -33.5 -16.5t-35.5 4.5q-12 6 -1 9q21 8 39 26
q39 39 65 109q-68 -24 -109 -65q-18 -18 -26 -39q-3 -11 -9 1q-8 16 -4.5 35.5t16.5 33.5q12 13 33 18q-21 7 -27 24.5t8 30.5q23 23 48 0q13 -11 2 -22q-6 -6 -14 0q-10 7 2 14q-10 10 -23 -2q-11 -12 2 -25q29 -29 94 8q-27 0 -40 15q-15 16 -6 31q3 3 5 -1q0 -11 7 -17
q11 -10 29 -7zM334 367q-23 23 -29 33q-14 -27 -34 -43l27 -27zM375 330q-12 6 -34 28l-36 -35l27 -26q30 25 43 33zM291 323l-27 26q-16 -16 -44 -34q20 -11 35 -27zM324 288l-27 27l-34 -35q20 -21 28 -34q5 12 33 42z" />
    <glyph glyph-name="registered" unicode="&#xae;" horiz-adv-x="680" 
d="M615 321q0 -119 -83.5 -202.5t-202.5 -83.5t-202.5 83.5t-83.5 202.5t83.5 203t202.5 84t202.5 -84t83.5 -203zM591 321q0 110 -76 187.5t-186 77.5t-186 -77t-76 -188q0 -109 77 -186.5t185 -77.5q110 0 186 77.5t76 186.5zM448 420q0 -64 -75 -87q-3 -1 0 -5
q9 -13 44.5 -68t45.5 -70q11 -17 24 -19q12 -1 23 -1q5 0 5 -3q0 -5 -1 -8q0 -2 -3 -2h-63q-25 0 -35 15q-89 136 -90 137q-8 11 -20 11q-11 0 -11 -5v-129q0 -8 6 -9q24 -5 46 -9q1 0 1 -2v-9q-1 -2 -3 -2q-40 2 -78 2q-24 0 -70 -2q-2 0 -4 4q-1 2 1 8q0 2 3 2
q3 1 18.5 2.5t18.5 1.5q7 1 7 12v291q0 8 -7 9q-5 0 -11.5 1t-14 2t-10.5 1q-5 0 -5 3v10q0 4 4 4q48 -3 67 -3q9 0 39.5 1.5t46.5 1.5q47 0 74 -24.5t27 -61.5zM391 417q0 32 -18 50.5t-52 18.5q-13 0 -23 -3q-6 -1 -6 -10v-129q0 -4 7 -4q92 0 92 77z" />
    <glyph glyph-name="macron" unicode="&#xaf;" horiz-adv-x="529" 
d="M364 469q-2 -10 -12 -10h-181q-4 0 -8 3t-4 7q0 14 2 18q3 8 11 8h178q7 0 12 -8q4 -6 2 -18z" />
    <glyph glyph-name="macron" unicode="&#x2c9;" horiz-adv-x="529" 
d="M364 469q-2 -10 -12 -10h-181q-4 0 -8 3t-4 7q0 14 2 18q3 8 11 8h178q7 0 12 -8q4 -6 2 -18z" />
    <glyph glyph-name="degree" unicode="&#xb0;" horiz-adv-x="256" 
d="M213 531q0 -34 -25 -59t-59 -25q-35 0 -60 24.5t-25 59.5q0 32 25 56t59 24q35 0 60 -23t25 -57zM176 531q0 20 -13.5 33.5t-34.5 13.5t-35 -14t-14 -33q0 -20 14.5 -35t35.5 -15q19 0 33 15t14 35z" />
    <glyph glyph-name="plusminus" unicode="&#xb1;" horiz-adv-x="768" 
d="M682 669v-626q0 -10 7 -11q8 -1 25 -3.5t26 -3.5q6 0 6 -5q0 -13 -1 -17q-1 -3 -6 -3q-41 3 -91 3q-60 0 -95 -3q-6 0 -6 4q0 2 -0.5 8t-0.5 7q0 6 6 6q2 0 50 7q7 1 7 11v574q-22 -11 -50 -11q-24 0 -48 18q-10 10 -23 6q-59 -19 -59 -131v-111q0 -4 2 -4h76q8 0 9 -5
q2 -12 2 -23q0 -6 -6 -6q-1 0 -35.5 0.5t-43.5 0.5q-4 0 -4 -6v-303q0 -9 7 -10q10 -2 31.5 -4t25.5 -3q7 -1 7 -6v-14q0 -5 -7 -5q-48 3 -99 3q-46 0 -95 -3q-6 0 -6 6v12q0 5 5 7q8 0 17.5 1.5t19.5 3t15 2.5q7 1 7 10v303q0 5 -5 5h-69t-74.5 0.5t-35.5 0.5q-4 0 -4 -6
v-303q0 -9 7 -10q11 -2 34 -4l23 -3q7 -1 7 -6v-14q0 -5 -7 -5q-48 3 -99 3q-46 0 -95 -3q-6 0 -6 6v12q0 5 5 7q3 0 51 7q6 1 7 2.5t1 7.5v302q0 7 -3 7t-20.5 -0.5t-21.5 -0.5q-8 0 -8 7q0 3 0.5 11.5t0.5 10.5q0 5 6 5h43q3 0 3 7v62q0 87 56.5 151t122.5 64
q22 0 36.5 -10.5t14.5 -25.5q0 -16 -10.5 -25t-27.5 -9q-24 0 -49 18q-7 7 -16 5q-25 -8 -40 -42t-15 -89v-102q0 -4 2 -4h183q3 0 3 6v71q0 88 57.5 151.5t132.5 63.5q53 0 61 -30q29 10 65 30q9 5 9 -7z" />
    <glyph glyph-name="twosuperior" unicode="&#xb2;" 
d="M418 394q-31 -5 -41 4q-9 8 -4 41q3 18 -7 29q-6 7 -17 7q-4 1 -1 5q15 9 31 -6q15 -13 15 -40q37 65 8 94q-14 14 -25 2q-13 -12 -2 -23q5 9 14 2q8 -6 0 -14q-11 -11 -22 2q-23 25 0 48q13 14 30.5 8t24.5 -27q4 21 18 33q14 13 33.5 16.5t35.5 -4.5q12 -6 1 -9
q-21 -8 -39 -26q-39 -39 -65 -109q68 24 109 65q18 18 26 39q3 11 9 -1q8 -16 4.5 -35.5t-16.5 -33.5q-12 -13 -33 -18q21 -7 27 -24.5t-8 -30.5q-23 -23 -48 0q-13 11 -2 22q6 6 14 0q10 -7 -2 -14q10 -10 23 2q11 12 -2 25q-29 29 -94 -8q27 0 40 -15q15 -16 6 -31
q-3 -3 -5 1q0 11 -7 17q-11 10 -29 7zM180 394q-18 3 -29 -7q-7 -6 -7 -17q-1 -4 -5 -1q-9 15 6 31q13 15 40 15q-65 37 -94 8q-13 -13 -2 -25q13 -12 23 -2q-12 7 -2 14q8 6 14 0q11 -11 -2 -22q-25 -23 -48 0q-14 13 -8 30.5t27 24.5q-21 5 -33 18q-13 14 -16.5 33.5
t4.5 35.5q6 12 9 1q8 -21 26 -39q41 -41 109 -65q-26 70 -65 109q-18 18 -39 26q-11 3 1 9q16 8 35.5 4.5t33.5 -16.5q14 -12 18 -33q7 21 24.5 27t30.5 -8q23 -23 0 -48q-11 -13 -22 -2q-8 8 0 14q9 7 14 -2q11 11 -2 23q-11 12 -25 -2q-29 -29 8 -94q0 27 15 40
q16 15 31 6q3 -3 -1 -5q-11 0 -17 -7q-10 -11 -7 -29q5 -33 -4 -41q-10 -9 -41 -4zM404 321q-38 -25 -59 -46q-19 -19 -46 -58q-27 36 -49 58q-25 25 -58 49q34 22 59 46q21 20 46 58q21 -31 49 -57q33 -31 58 -50zM418 248q18 -3 29 7q7 6 7 17q1 4 5 1q9 -15 -6 -31
q-13 -15 -40 -15q65 -37 94 -8q13 13 2 25q-13 12 -23 2q12 -7 2 -14q-8 -6 -14 0q-11 11 2 22q25 23 48 0q14 -13 8 -30.5t-27 -24.5q21 -5 33 -18q13 -14 16.5 -33.5t-4.5 -35.5q-6 -12 -9 -1q-8 21 -26 39q-41 41 -109 65q26 -70 65 -109q18 -18 39 -26q11 -3 -1 -9
q-16 -8 -35.5 -4.5t-33.5 16.5q-14 12 -18 33q-7 -21 -24.5 -27t-30.5 8q-23 23 0 48q11 13 22 2q8 -8 0 -14q-9 -7 -14 2q-11 -11 2 -23q11 -12 25 2q29 29 -8 94q0 -26 -15 -40q-16 -15 -31 -6q-3 3 1 5q11 0 17 7q10 11 7 29q-5 33 4 41q10 9 41 4zM180 248q31 5 41 -4
q9 -8 4 -41q-3 -18 7 -29q6 -7 17 -7q4 -1 1 -5q-15 -9 -31 6q-15 14 -15 40q-37 -65 -8 -94q14 -14 25 -2q13 12 2 23q-5 -9 -14 -2q-8 6 0 14q11 11 22 -2q23 -25 0 -48q-13 -14 -30.5 -8t-24.5 27q-4 -21 -18 -33q-14 -13 -33.5 -16.5t-35.5 4.5q-12 6 -1 9q21 8 39 26
q39 39 65 109q-68 -24 -109 -65q-18 -18 -26 -39q-3 -11 -9 1q-8 16 -4.5 35.5t16.5 33.5q12 13 33 18q-21 7 -27 24.5t8 30.5q23 23 48 0q13 -11 2 -22q-6 -6 -14 0q-10 7 2 14q-10 10 -23 -2q-11 -12 2 -25q29 -29 94 8q-27 0 -40 15q-15 16 -6 31q3 3 5 -1q0 -11 7 -17
q11 -10 29 -7zM334 367q-23 23 -29 33q-14 -27 -34 -43l27 -27zM375 330q-12 6 -34 28l-36 -35l27 -26q30 25 43 33zM291 323l-27 26q-16 -16 -44 -34q20 -11 35 -27zM324 288l-27 27l-34 -35q20 -21 28 -34q5 12 33 42z" />
    <glyph glyph-name="threesuperior" unicode="&#xb3;" 
d="M418 394q-31 -5 -41 4q-9 8 -4 41q3 18 -7 29q-6 7 -17 7q-4 1 -1 5q15 9 31 -6q15 -13 15 -40q37 65 8 94q-14 14 -25 2q-13 -12 -2 -23q5 9 14 2q8 -6 0 -14q-11 -11 -22 2q-23 25 0 48q13 14 30.5 8t24.5 -27q4 21 18 33q14 13 33.5 16.5t35.5 -4.5q12 -6 1 -9
q-21 -8 -39 -26q-39 -39 -65 -109q68 24 109 65q18 18 26 39q3 11 9 -1q8 -16 4.5 -35.5t-16.5 -33.5q-12 -13 -33 -18q21 -7 27 -24.5t-8 -30.5q-23 -23 -48 0q-13 11 -2 22q6 6 14 0q10 -7 -2 -14q10 -10 23 2q11 12 -2 25q-29 29 -94 -8q27 0 40 -15q15 -16 6 -31
q-3 -3 -5 1q0 11 -7 17q-11 10 -29 7zM180 394q-18 3 -29 -7q-7 -6 -7 -17q-1 -4 -5 -1q-9 15 6 31q13 15 40 15q-65 37 -94 8q-13 -13 -2 -25q13 -12 23 -2q-12 7 -2 14q8 6 14 0q11 -11 -2 -22q-25 -23 -48 0q-14 13 -8 30.5t27 24.5q-21 5 -33 18q-13 14 -16.5 33.5
t4.5 35.5q6 12 9 1q8 -21 26 -39q41 -41 109 -65q-26 70 -65 109q-18 18 -39 26q-11 3 1 9q16 8 35.5 4.5t33.5 -16.5q14 -12 18 -33q7 21 24.5 27t30.5 -8q23 -23 0 -48q-11 -13 -22 -2q-8 8 0 14q9 7 14 -2q11 11 -2 23q-11 12 -25 -2q-29 -29 8 -94q0 27 15 40
q16 15 31 6q3 -3 -1 -5q-11 0 -17 -7q-10 -11 -7 -29q5 -33 -4 -41q-10 -9 -41 -4zM404 321q-38 -25 -59 -46q-19 -19 -46 -58q-27 36 -49 58q-25 25 -58 49q34 22 59 46q21 20 46 58q21 -31 49 -57q33 -31 58 -50zM418 248q18 -3 29 7q7 6 7 17q1 4 5 1q9 -15 -6 -31
q-13 -15 -40 -15q65 -37 94 -8q13 13 2 25q-13 12 -23 2q12 -7 2 -14q-8 -6 -14 0q-11 11 2 22q25 23 48 0q14 -13 8 -30.5t-27 -24.5q21 -5 33 -18q13 -14 16.5 -33.5t-4.5 -35.5q-6 -12 -9 -1q-8 21 -26 39q-41 41 -109 65q26 -70 65 -109q18 -18 39 -26q11 -3 -1 -9
q-16 -8 -35.5 -4.5t-33.5 16.5q-14 12 -18 33q-7 -21 -24.5 -27t-30.5 8q-23 23 0 48q11 13 22 2q8 -8 0 -14q-9 -7 -14 2q-11 -11 2 -23q11 -12 25 2q29 29 -8 94q0 -26 -15 -40q-16 -15 -31 -6q-3 3 1 5q11 0 17 7q10 11 7 29q-5 33 4 41q10 9 41 4zM180 248q31 5 41 -4
q9 -8 4 -41q-3 -18 7 -29q6 -7 17 -7q4 -1 1 -5q-15 -9 -31 6q-15 14 -15 40q-37 -65 -8 -94q14 -14 25 -2q13 12 2 23q-5 -9 -14 -2q-8 6 0 14q11 11 22 -2q23 -25 0 -48q-13 -14 -30.5 -8t-24.5 27q-4 -21 -18 -33q-14 -13 -33.5 -16.5t-35.5 4.5q-12 6 -1 9q21 8 39 26
q39 39 65 109q-68 -24 -109 -65q-18 -18 -26 -39q-3 -11 -9 1q-8 16 -4.5 35.5t16.5 33.5q12 13 33 18q-21 7 -27 24.5t8 30.5q23 23 48 0q13 -11 2 -22q-6 -6 -14 0q-10 7 2 14q-10 10 -23 -2q-11 -12 2 -25q29 -29 94 8q-27 0 -40 15q-15 16 -6 31q3 3 5 -1q0 -11 7 -17
q11 -10 29 -7zM334 367q-23 23 -29 33q-14 -27 -34 -43l27 -27zM375 330q-12 6 -34 28l-36 -35l27 -26q30 25 43 33zM291 323l-27 26q-16 -16 -44 -34q20 -11 35 -27zM324 288l-27 27l-34 -35q20 -21 28 -34q5 12 33 42z" />
    <glyph glyph-name="acute" unicode="&#xb4;" horiz-adv-x="528" 
d="M329 558q0 -17 -17 -28q-7 -5 -27.5 -18.5t-40.5 -26.5t-36 -23q-3 -2 -7.5 -1.5t-6.5 2.5q-6 8 1 15t25 27t36 40.5t21 23.5q15 15 25 15q11 0 19 -6.5t8 -19.5z" />
    <glyph glyph-name="mu" unicode="&#xb5;" 
d="M418 394q-31 -5 -41 4q-9 8 -4 41q3 18 -7 29q-6 7 -17 7q-4 1 -1 5q15 9 31 -6q15 -13 15 -40q37 65 8 94q-14 14 -25 2q-13 -12 -2 -23q5 9 14 2q8 -6 0 -14q-11 -11 -22 2q-23 25 0 48q13 14 30.5 8t24.5 -27q4 21 18 33q14 13 33.5 16.5t35.5 -4.5q12 -6 1 -9
q-21 -8 -39 -26q-39 -39 -65 -109q68 24 109 65q18 18 26 39q3 11 9 -1q8 -16 4.5 -35.5t-16.5 -33.5q-12 -13 -33 -18q21 -7 27 -24.5t-8 -30.5q-23 -23 -48 0q-13 11 -2 22q6 6 14 0q10 -7 -2 -14q10 -10 23 2q11 12 -2 25q-29 29 -94 -8q27 0 40 -15q15 -16 6 -31
q-3 -3 -5 1q0 11 -7 17q-11 10 -29 7zM180 394q-18 3 -29 -7q-7 -6 -7 -17q-1 -4 -5 -1q-9 15 6 31q13 15 40 15q-65 37 -94 8q-13 -13 -2 -25q13 -12 23 -2q-12 7 -2 14q8 6 14 0q11 -11 -2 -22q-25 -23 -48 0q-14 13 -8 30.5t27 24.5q-21 5 -33 18q-13 14 -16.5 33.5
t4.5 35.5q6 12 9 1q8 -21 26 -39q41 -41 109 -65q-26 70 -65 109q-18 18 -39 26q-11 3 1 9q16 8 35.5 4.5t33.5 -16.5q14 -12 18 -33q7 21 24.5 27t30.5 -8q23 -23 0 -48q-11 -13 -22 -2q-8 8 0 14q9 7 14 -2q11 11 -2 23q-11 12 -25 -2q-29 -29 8 -94q0 27 15 40
q16 15 31 6q3 -3 -1 -5q-11 0 -17 -7q-10 -11 -7 -29q5 -33 -4 -41q-10 -9 -41 -4zM404 321q-38 -25 -59 -46q-19 -19 -46 -58q-27 36 -49 58q-25 25 -58 49q34 22 59 46q21 20 46 58q21 -31 49 -57q33 -31 58 -50zM418 248q18 -3 29 7q7 6 7 17q1 4 5 1q9 -15 -6 -31
q-13 -15 -40 -15q65 -37 94 -8q13 13 2 25q-13 12 -23 2q12 -7 2 -14q-8 -6 -14 0q-11 11 2 22q25 23 48 0q14 -13 8 -30.5t-27 -24.5q21 -5 33 -18q13 -14 16.5 -33.5t-4.5 -35.5q-6 -12 -9 -1q-8 21 -26 39q-41 41 -109 65q26 -70 65 -109q18 -18 39 -26q11 -3 -1 -9
q-16 -8 -35.5 -4.5t-33.5 16.5q-14 12 -18 33q-7 -21 -24.5 -27t-30.5 8q-23 23 0 48q11 13 22 2q8 -8 0 -14q-9 -7 -14 2q-11 -11 2 -23q11 -12 25 2q29 29 -8 94q0 -26 -15 -40q-16 -15 -31 -6q-3 3 1 5q11 0 17 7q10 11 7 29q-5 33 4 41q10 9 41 4zM180 248q31 5 41 -4
q9 -8 4 -41q-3 -18 7 -29q6 -7 17 -7q4 -1 1 -5q-15 -9 -31 6q-15 14 -15 40q-37 -65 -8 -94q14 -14 25 -2q13 12 2 23q-5 -9 -14 -2q-8 6 0 14q11 11 22 -2q23 -25 0 -48q-13 -14 -30.5 -8t-24.5 27q-4 -21 -18 -33q-14 -13 -33.5 -16.5t-35.5 4.5q-12 6 -1 9q21 8 39 26
q39 39 65 109q-68 -24 -109 -65q-18 -18 -26 -39q-3 -11 -9 1q-8 16 -4.5 35.5t16.5 33.5q12 13 33 18q-21 7 -27 24.5t8 30.5q23 23 48 0q13 -11 2 -22q-6 -6 -14 0q-10 7 2 14q-10 10 -23 -2q-11 -12 2 -25q29 -29 94 8q-27 0 -40 15q-15 16 -6 31q3 3 5 -1q0 -11 7 -17
q11 -10 29 -7zM334 367q-23 23 -29 33q-14 -27 -34 -43l27 -27zM375 330q-12 6 -34 28l-36 -35l27 -26q30 25 43 33zM291 323l-27 26q-16 -16 -44 -34q20 -11 35 -27zM324 288l-27 27l-34 -35q20 -21 28 -34q5 12 33 42z" />
    <glyph glyph-name="mu" unicode="&#x3bc;" 
d="M418 394q-31 -5 -41 4q-9 8 -4 41q3 18 -7 29q-6 7 -17 7q-4 1 -1 5q15 9 31 -6q15 -13 15 -40q37 65 8 94q-14 14 -25 2q-13 -12 -2 -23q5 9 14 2q8 -6 0 -14q-11 -11 -22 2q-23 25 0 48q13 14 30.5 8t24.5 -27q4 21 18 33q14 13 33.5 16.5t35.5 -4.5q12 -6 1 -9
q-21 -8 -39 -26q-39 -39 -65 -109q68 24 109 65q18 18 26 39q3 11 9 -1q8 -16 4.5 -35.5t-16.5 -33.5q-12 -13 -33 -18q21 -7 27 -24.5t-8 -30.5q-23 -23 -48 0q-13 11 -2 22q6 6 14 0q10 -7 -2 -14q10 -10 23 2q11 12 -2 25q-29 29 -94 -8q27 0 40 -15q15 -16 6 -31
q-3 -3 -5 1q0 11 -7 17q-11 10 -29 7zM180 394q-18 3 -29 -7q-7 -6 -7 -17q-1 -4 -5 -1q-9 15 6 31q13 15 40 15q-65 37 -94 8q-13 -13 -2 -25q13 -12 23 -2q-12 7 -2 14q8 6 14 0q11 -11 -2 -22q-25 -23 -48 0q-14 13 -8 30.5t27 24.5q-21 5 -33 18q-13 14 -16.5 33.5
t4.5 35.5q6 12 9 1q8 -21 26 -39q41 -41 109 -65q-26 70 -65 109q-18 18 -39 26q-11 3 1 9q16 8 35.5 4.5t33.5 -16.5q14 -12 18 -33q7 21 24.5 27t30.5 -8q23 -23 0 -48q-11 -13 -22 -2q-8 8 0 14q9 7 14 -2q11 11 -2 23q-11 12 -25 -2q-29 -29 8 -94q0 27 15 40
q16 15 31 6q3 -3 -1 -5q-11 0 -17 -7q-10 -11 -7 -29q5 -33 -4 -41q-10 -9 -41 -4zM404 321q-38 -25 -59 -46q-19 -19 -46 -58q-27 36 -49 58q-25 25 -58 49q34 22 59 46q21 20 46 58q21 -31 49 -57q33 -31 58 -50zM418 248q18 -3 29 7q7 6 7 17q1 4 5 1q9 -15 -6 -31
q-13 -15 -40 -15q65 -37 94 -8q13 13 2 25q-13 12 -23 2q12 -7 2 -14q-8 -6 -14 0q-11 11 2 22q25 23 48 0q14 -13 8 -30.5t-27 -24.5q21 -5 33 -18q13 -14 16.5 -33.5t-4.5 -35.5q-6 -12 -9 -1q-8 21 -26 39q-41 41 -109 65q26 -70 65 -109q18 -18 39 -26q11 -3 -1 -9
q-16 -8 -35.5 -4.5t-33.5 16.5q-14 12 -18 33q-7 -21 -24.5 -27t-30.5 8q-23 23 0 48q11 13 22 2q8 -8 0 -14q-9 -7 -14 2q-11 -11 2 -23q11 -12 25 2q29 29 -8 94q0 -26 -15 -40q-16 -15 -31 -6q-3 3 1 5q11 0 17 7q10 11 7 29q-5 33 4 41q10 9 41 4zM180 248q31 5 41 -4
q9 -8 4 -41q-3 -18 7 -29q6 -7 17 -7q4 -1 1 -5q-15 -9 -31 6q-15 14 -15 40q-37 -65 -8 -94q14 -14 25 -2q13 12 2 23q-5 -9 -14 -2q-8 6 0 14q11 11 22 -2q23 -25 0 -48q-13 -14 -30.5 -8t-24.5 27q-4 -21 -18 -33q-14 -13 -33.5 -16.5t-35.5 4.5q-12 6 -1 9q21 8 39 26
q39 39 65 109q-68 -24 -109 -65q-18 -18 -26 -39q-3 -11 -9 1q-8 16 -4.5 35.5t16.5 33.5q12 13 33 18q-21 7 -27 24.5t8 30.5q23 23 48 0q13 -11 2 -22q-6 -6 -14 0q-10 7 2 14q-10 10 -23 -2q-11 -12 2 -25q29 -29 94 8q-27 0 -40 15q-15 16 -6 31q3 3 5 -1q0 -11 7 -17
q11 -10 29 -7zM334 367q-23 23 -29 33q-14 -27 -34 -43l27 -27zM375 330q-12 6 -34 28l-36 -35l27 -26q30 25 43 33zM291 323l-27 26q-16 -16 -44 -34q20 -11 35 -27zM324 288l-27 27l-34 -35q20 -21 28 -34q5 12 33 42z" />
    <glyph glyph-name="paragraph" unicode="&#xb6;" horiz-adv-x="535" 
d="M496 627q-2 -7 -7 -7h-60q-14 -1 -17 -3.5t-3 -15.5v-729q0 -6 1 -8.5t5 -5.5t14 -6q5 -2 12.5 -3t20.5 -3t24 -4q8 -1 8 -5v-20q0 -3 -5 -3q-112 8 -144 8q-94 0 -166 -6q-8 -1 -8 4v19q0 5 8 6q5 1 37.5 3t38.5 4q18 4 22.5 11.5t4.5 27.5q0 31 2.5 367t2.5 344
q0 9 -3 13t-7.5 5t-13.5 1q-10 0 -13.5 -4t-4.5 -15q-4 -63 -1 -180q1 -28 2 -71t2 -72t3 -46q3 -20 -13 -20q-77 0 -143 61t-66 163q0 97 64.5 155.5t165.5 58.5q28 0 69.5 -0.5t51.5 -0.5q79 0 110 -2q7 0 7 -9q0 -7 -1 -12zM371 -128v733q0 11 -3.5 13t-18.5 2
q-17 0 -20.5 -2t-3.5 -13q-4 -132 -4 -734q0 -11 11 -13q4 0 13.5 -1t11.5 -1q9 1 11.5 4t2.5 12z" />
    <glyph glyph-name="periodcentered" unicode="&#xb7;" horiz-adv-x="234" 
d="M168 321q0 -22 -14.5 -36t-36.5 -14q-21 0 -35.5 14t-14.5 35q0 23 14 38t36 15q21 0 36 -15t15 -37z" />
    <glyph glyph-name="periodcentered" unicode="&#x2219;" horiz-adv-x="234" 
d="M168 321q0 -22 -14.5 -36t-36.5 -14q-21 0 -35.5 14t-14.5 35q0 23 14 38t36 15q21 0 36 -15t15 -37z" />
    <glyph glyph-name="cedilla" unicode="&#xb8;" horiz-adv-x="529" 
d="M320 -91q0 -25 -19.5 -43t-50.5 -18q-35 0 -57 22q-5 5 -2 12q4 9 11 5q25 -11 42 -11t27 9t10 24q0 32 -34 32q-11 0 -21 -3q-6 -2 -9 1q-7 7 -10 13q-2 4 7 12q17 15 25 36q2 5 7 5h17q4 0 2 -4q-7 -19 -23 -34q12 3 15 3q30 0 46.5 -17t16.5 -44z" />
    <glyph glyph-name="onesuperior" unicode="&#xb9;" 
d="M418 394q-31 -5 -41 4q-9 8 -4 41q3 18 -7 29q-6 7 -17 7q-4 1 -1 5q15 9 31 -6q15 -13 15 -40q37 65 8 94q-14 14 -25 2q-13 -12 -2 -23q5 9 14 2q8 -6 0 -14q-11 -11 -22 2q-23 25 0 48q13 14 30.5 8t24.5 -27q4 21 18 33q14 13 33.5 16.5t35.5 -4.5q12 -6 1 -9
q-21 -8 -39 -26q-39 -39 -65 -109q68 24 109 65q18 18 26 39q3 11 9 -1q8 -16 4.5 -35.5t-16.5 -33.5q-12 -13 -33 -18q21 -7 27 -24.5t-8 -30.5q-23 -23 -48 0q-13 11 -2 22q6 6 14 0q10 -7 -2 -14q10 -10 23 2q11 12 -2 25q-29 29 -94 -8q27 0 40 -15q15 -16 6 -31
q-3 -3 -5 1q0 11 -7 17q-11 10 -29 7zM180 394q-18 3 -29 -7q-7 -6 -7 -17q-1 -4 -5 -1q-9 15 6 31q13 15 40 15q-65 37 -94 8q-13 -13 -2 -25q13 -12 23 -2q-12 7 -2 14q8 6 14 0q11 -11 -2 -22q-25 -23 -48 0q-14 13 -8 30.5t27 24.5q-21 5 -33 18q-13 14 -16.5 33.5
t4.5 35.5q6 12 9 1q8 -21 26 -39q41 -41 109 -65q-26 70 -65 109q-18 18 -39 26q-11 3 1 9q16 8 35.5 4.5t33.5 -16.5q14 -12 18 -33q7 21 24.5 27t30.5 -8q23 -23 0 -48q-11 -13 -22 -2q-8 8 0 14q9 7 14 -2q11 11 -2 23q-11 12 -25 -2q-29 -29 8 -94q0 27 15 40
q16 15 31 6q3 -3 -1 -5q-11 0 -17 -7q-10 -11 -7 -29q5 -33 -4 -41q-10 -9 -41 -4zM404 321q-38 -25 -59 -46q-19 -19 -46 -58q-27 36 -49 58q-25 25 -58 49q34 22 59 46q21 20 46 58q21 -31 49 -57q33 -31 58 -50zM418 248q18 -3 29 7q7 6 7 17q1 4 5 1q9 -15 -6 -31
q-13 -15 -40 -15q65 -37 94 -8q13 13 2 25q-13 12 -23 2q12 -7 2 -14q-8 -6 -14 0q-11 11 2 22q25 23 48 0q14 -13 8 -30.5t-27 -24.5q21 -5 33 -18q13 -14 16.5 -33.5t-4.5 -35.5q-6 -12 -9 -1q-8 21 -26 39q-41 41 -109 65q26 -70 65 -109q18 -18 39 -26q11 -3 -1 -9
q-16 -8 -35.5 -4.5t-33.5 16.5q-14 12 -18 33q-7 -21 -24.5 -27t-30.5 8q-23 23 0 48q11 13 22 2q8 -8 0 -14q-9 -7 -14 2q-11 -11 2 -23q11 -12 25 2q29 29 -8 94q0 -26 -15 -40q-16 -15 -31 -6q-3 3 1 5q11 0 17 7q10 11 7 29q-5 33 4 41q10 9 41 4zM180 248q31 5 41 -4
q9 -8 4 -41q-3 -18 7 -29q6 -7 17 -7q4 -1 1 -5q-15 -9 -31 6q-15 14 -15 40q-37 -65 -8 -94q14 -14 25 -2q13 12 2 23q-5 -9 -14 -2q-8 6 0 14q11 11 22 -2q23 -25 0 -48q-13 -14 -30.5 -8t-24.5 27q-4 -21 -18 -33q-14 -13 -33.5 -16.5t-35.5 4.5q-12 6 -1 9q21 8 39 26
q39 39 65 109q-68 -24 -109 -65q-18 -18 -26 -39q-3 -11 -9 1q-8 16 -4.5 35.5t16.5 33.5q12 13 33 18q-21 7 -27 24.5t8 30.5q23 23 48 0q13 -11 2 -22q-6 -6 -14 0q-10 7 2 14q-10 10 -23 -2q-11 -12 2 -25q29 -29 94 8q-27 0 -40 15q-15 16 -6 31q3 3 5 -1q0 -11 7 -17
q11 -10 29 -7zM334 367q-23 23 -29 33q-14 -27 -34 -43l27 -27zM375 330q-12 6 -34 28l-36 -35l27 -26q30 25 43 33zM291 323l-27 26q-16 -16 -44 -34q20 -11 35 -27zM324 288l-27 27l-34 -35q20 -21 28 -34q5 12 33 42z" />
    <glyph glyph-name="ordmasculine" unicode="&#xba;" horiz-adv-x="321" 
d="M286 488q0 -50 -35.5 -86t-89.5 -36q-55 0 -90 35t-35 86q0 50 36.5 87t89.5 37q52 0 88 -36t36 -87zM286 326q-2 -8 -8 -12q-6 -6 -15 -6q-17 0 -104 -0.5t-106 -0.5q-15 0 -16 6q-2 8 2 14q5 8 20 8q4 0 100.5 0.5t109.5 0.5q12 0 15.5 -2.5t1.5 -7.5zM233 488
q0 44 -18.5 71.5t-53.5 27.5t-53.5 -28t-18.5 -72q0 -41 18.5 -69t53.5 -28t53.5 28.5t18.5 69.5z" />
    <glyph glyph-name="guillemotright" unicode="&#xbb;" horiz-adv-x="415" 
d="M227 201q-17 -16 -83.5 -75.5t-72.5 -65.5q-11 -9 -20 1q-9 7 -5 13q54 68 113 139q5 6 1 10q-91 114 -113 138q-8 8 4 16t19 1q8 -8 76.5 -69.5t80.5 -73.5q18 -18 0 -34zM381 201q-15 -14 -81.5 -73.5t-74.5 -67.5q-10 -10 -21 1q-8 7 -4 13q54 68 113 139q5 6 1 10
q-91 114 -113 138q-7 7 3 16q13 10 20 1q8 -9 77 -71t80 -72q18 -17 0 -34z" />
    <glyph glyph-name="onequarter" unicode="&#xbc;" 
d="M418 394q-31 -5 -41 4q-9 8 -4 41q3 18 -7 29q-6 7 -17 7q-4 1 -1 5q15 9 31 -6q15 -13 15 -40q37 65 8 94q-14 14 -25 2q-13 -12 -2 -23q5 9 14 2q8 -6 0 -14q-11 -11 -22 2q-23 25 0 48q13 14 30.5 8t24.5 -27q4 21 18 33q14 13 33.5 16.5t35.5 -4.5q12 -6 1 -9
q-21 -8 -39 -26q-39 -39 -65 -109q68 24 109 65q18 18 26 39q3 11 9 -1q8 -16 4.5 -35.5t-16.5 -33.5q-12 -13 -33 -18q21 -7 27 -24.5t-8 -30.5q-23 -23 -48 0q-13 11 -2 22q6 6 14 0q10 -7 -2 -14q10 -10 23 2q11 12 -2 25q-29 29 -94 -8q27 0 40 -15q15 -16 6 -31
q-3 -3 -5 1q0 11 -7 17q-11 10 -29 7zM180 394q-18 3 -29 -7q-7 -6 -7 -17q-1 -4 -5 -1q-9 15 6 31q13 15 40 15q-65 37 -94 8q-13 -13 -2 -25q13 -12 23 -2q-12 7 -2 14q8 6 14 0q11 -11 -2 -22q-25 -23 -48 0q-14 13 -8 30.5t27 24.5q-21 5 -33 18q-13 14 -16.5 33.5
t4.5 35.5q6 12 9 1q8 -21 26 -39q41 -41 109 -65q-26 70 -65 109q-18 18 -39 26q-11 3 1 9q16 8 35.5 4.5t33.5 -16.5q14 -12 18 -33q7 21 24.5 27t30.5 -8q23 -23 0 -48q-11 -13 -22 -2q-8 8 0 14q9 7 14 -2q11 11 -2 23q-11 12 -25 -2q-29 -29 8 -94q0 27 15 40
q16 15 31 6q3 -3 -1 -5q-11 0 -17 -7q-10 -11 -7 -29q5 -33 -4 -41q-10 -9 -41 -4zM404 321q-38 -25 -59 -46q-19 -19 -46 -58q-27 36 -49 58q-25 25 -58 49q34 22 59 46q21 20 46 58q21 -31 49 -57q33 -31 58 -50zM418 248q18 -3 29 7q7 6 7 17q1 4 5 1q9 -15 -6 -31
q-13 -15 -40 -15q65 -37 94 -8q13 13 2 25q-13 12 -23 2q12 -7 2 -14q-8 -6 -14 0q-11 11 2 22q25 23 48 0q14 -13 8 -30.5t-27 -24.5q21 -5 33 -18q13 -14 16.5 -33.5t-4.5 -35.5q-6 -12 -9 -1q-8 21 -26 39q-41 41 -109 65q26 -70 65 -109q18 -18 39 -26q11 -3 -1 -9
q-16 -8 -35.5 -4.5t-33.5 16.5q-14 12 -18 33q-7 -21 -24.5 -27t-30.5 8q-23 23 0 48q11 13 22 2q8 -8 0 -14q-9 -7 -14 2q-11 -11 2 -23q11 -12 25 2q29 29 -8 94q0 -26 -15 -40q-16 -15 -31 -6q-3 3 1 5q11 0 17 7q10 11 7 29q-5 33 4 41q10 9 41 4zM180 248q31 5 41 -4
q9 -8 4 -41q-3 -18 7 -29q6 -7 17 -7q4 -1 1 -5q-15 -9 -31 6q-15 14 -15 40q-37 -65 -8 -94q14 -14 25 -2q13 12 2 23q-5 -9 -14 -2q-8 6 0 14q11 11 22 -2q23 -25 0 -48q-13 -14 -30.5 -8t-24.5 27q-4 -21 -18 -33q-14 -13 -33.5 -16.5t-35.5 4.5q-12 6 -1 9q21 8 39 26
q39 39 65 109q-68 -24 -109 -65q-18 -18 -26 -39q-3 -11 -9 1q-8 16 -4.5 35.5t16.5 33.5q12 13 33 18q-21 7 -27 24.5t8 30.5q23 23 48 0q13 -11 2 -22q-6 -6 -14 0q-10 7 2 14q-10 10 -23 -2q-11 -12 2 -25q29 -29 94 8q-27 0 -40 15q-15 16 -6 31q3 3 5 -1q0 -11 7 -17
q11 -10 29 -7zM334 367q-23 23 -29 33q-14 -27 -34 -43l27 -27zM375 330q-12 6 -34 28l-36 -35l27 -26q30 25 43 33zM291 323l-27 26q-16 -16 -44 -34q20 -11 35 -27zM324 288l-27 27l-34 -35q20 -21 28 -34q5 12 33 42z" />
    <glyph glyph-name="onehalf" unicode="&#xbd;" 
d="M418 394q-31 -5 -41 4q-9 8 -4 41q3 18 -7 29q-6 7 -17 7q-4 1 -1 5q15 9 31 -6q15 -13 15 -40q37 65 8 94q-14 14 -25 2q-13 -12 -2 -23q5 9 14 2q8 -6 0 -14q-11 -11 -22 2q-23 25 0 48q13 14 30.5 8t24.5 -27q4 21 18 33q14 13 33.5 16.5t35.5 -4.5q12 -6 1 -9
q-21 -8 -39 -26q-39 -39 -65 -109q68 24 109 65q18 18 26 39q3 11 9 -1q8 -16 4.5 -35.5t-16.5 -33.5q-12 -13 -33 -18q21 -7 27 -24.5t-8 -30.5q-23 -23 -48 0q-13 11 -2 22q6 6 14 0q10 -7 -2 -14q10 -10 23 2q11 12 -2 25q-29 29 -94 -8q27 0 40 -15q15 -16 6 -31
q-3 -3 -5 1q0 11 -7 17q-11 10 -29 7zM180 394q-18 3 -29 -7q-7 -6 -7 -17q-1 -4 -5 -1q-9 15 6 31q13 15 40 15q-65 37 -94 8q-13 -13 -2 -25q13 -12 23 -2q-12 7 -2 14q8 6 14 0q11 -11 -2 -22q-25 -23 -48 0q-14 13 -8 30.5t27 24.5q-21 5 -33 18q-13 14 -16.5 33.5
t4.5 35.5q6 12 9 1q8 -21 26 -39q41 -41 109 -65q-26 70 -65 109q-18 18 -39 26q-11 3 1 9q16 8 35.5 4.5t33.5 -16.5q14 -12 18 -33q7 21 24.5 27t30.5 -8q23 -23 0 -48q-11 -13 -22 -2q-8 8 0 14q9 7 14 -2q11 11 -2 23q-11 12 -25 -2q-29 -29 8 -94q0 27 15 40
q16 15 31 6q3 -3 -1 -5q-11 0 -17 -7q-10 -11 -7 -29q5 -33 -4 -41q-10 -9 -41 -4zM404 321q-38 -25 -59 -46q-19 -19 -46 -58q-27 36 -49 58q-25 25 -58 49q34 22 59 46q21 20 46 58q21 -31 49 -57q33 -31 58 -50zM418 248q18 -3 29 7q7 6 7 17q1 4 5 1q9 -15 -6 -31
q-13 -15 -40 -15q65 -37 94 -8q13 13 2 25q-13 12 -23 2q12 -7 2 -14q-8 -6 -14 0q-11 11 2 22q25 23 48 0q14 -13 8 -30.5t-27 -24.5q21 -5 33 -18q13 -14 16.5 -33.5t-4.5 -35.5q-6 -12 -9 -1q-8 21 -26 39q-41 41 -109 65q26 -70 65 -109q18 -18 39 -26q11 -3 -1 -9
q-16 -8 -35.5 -4.5t-33.5 16.5q-14 12 -18 33q-7 -21 -24.5 -27t-30.5 8q-23 23 0 48q11 13 22 2q8 -8 0 -14q-9 -7 -14 2q-11 -11 2 -23q11 -12 25 2q29 29 -8 94q0 -26 -15 -40q-16 -15 -31 -6q-3 3 1 5q11 0 17 7q10 11 7 29q-5 33 4 41q10 9 41 4zM180 248q31 5 41 -4
q9 -8 4 -41q-3 -18 7 -29q6 -7 17 -7q4 -1 1 -5q-15 -9 -31 6q-15 14 -15 40q-37 -65 -8 -94q14 -14 25 -2q13 12 2 23q-5 -9 -14 -2q-8 6 0 14q11 11 22 -2q23 -25 0 -48q-13 -14 -30.5 -8t-24.5 27q-4 -21 -18 -33q-14 -13 -33.5 -16.5t-35.5 4.5q-12 6 -1 9q21 8 39 26
q39 39 65 109q-68 -24 -109 -65q-18 -18 -26 -39q-3 -11 -9 1q-8 16 -4.5 35.5t16.5 33.5q12 13 33 18q-21 7 -27 24.5t8 30.5q23 23 48 0q13 -11 2 -22q-6 -6 -14 0q-10 7 2 14q-10 10 -23 -2q-11 -12 2 -25q29 -29 94 8q-27 0 -40 15q-15 16 -6 31q3 3 5 -1q0 -11 7 -17
q11 -10 29 -7zM334 367q-23 23 -29 33q-14 -27 -34 -43l27 -27zM375 330q-12 6 -34 28l-36 -35l27 -26q30 25 43 33zM291 323l-27 26q-16 -16 -44 -34q20 -11 35 -27zM324 288l-27 27l-34 -35q20 -21 28 -34q5 12 33 42z" />
    <glyph glyph-name="threequarters" unicode="&#xbe;" 
d="M418 394q-31 -5 -41 4q-9 8 -4 41q3 18 -7 29q-6 7 -17 7q-4 1 -1 5q15 9 31 -6q15 -13 15 -40q37 65 8 94q-14 14 -25 2q-13 -12 -2 -23q5 9 14 2q8 -6 0 -14q-11 -11 -22 2q-23 25 0 48q13 14 30.5 8t24.5 -27q4 21 18 33q14 13 33.5 16.5t35.5 -4.5q12 -6 1 -9
q-21 -8 -39 -26q-39 -39 -65 -109q68 24 109 65q18 18 26 39q3 11 9 -1q8 -16 4.5 -35.5t-16.5 -33.5q-12 -13 -33 -18q21 -7 27 -24.5t-8 -30.5q-23 -23 -48 0q-13 11 -2 22q6 6 14 0q10 -7 -2 -14q10 -10 23 2q11 12 -2 25q-29 29 -94 -8q27 0 40 -15q15 -16 6 -31
q-3 -3 -5 1q0 11 -7 17q-11 10 -29 7zM180 394q-18 3 -29 -7q-7 -6 -7 -17q-1 -4 -5 -1q-9 15 6 31q13 15 40 15q-65 37 -94 8q-13 -13 -2 -25q13 -12 23 -2q-12 7 -2 14q8 6 14 0q11 -11 -2 -22q-25 -23 -48 0q-14 13 -8 30.5t27 24.5q-21 5 -33 18q-13 14 -16.5 33.5
t4.5 35.5q6 12 9 1q8 -21 26 -39q41 -41 109 -65q-26 70 -65 109q-18 18 -39 26q-11 3 1 9q16 8 35.5 4.5t33.5 -16.5q14 -12 18 -33q7 21 24.5 27t30.5 -8q23 -23 0 -48q-11 -13 -22 -2q-8 8 0 14q9 7 14 -2q11 11 -2 23q-11 12 -25 -2q-29 -29 8 -94q0 27 15 40
q16 15 31 6q3 -3 -1 -5q-11 0 -17 -7q-10 -11 -7 -29q5 -33 -4 -41q-10 -9 -41 -4zM404 321q-38 -25 -59 -46q-19 -19 -46 -58q-27 36 -49 58q-25 25 -58 49q34 22 59 46q21 20 46 58q21 -31 49 -57q33 -31 58 -50zM418 248q18 -3 29 7q7 6 7 17q1 4 5 1q9 -15 -6 -31
q-13 -15 -40 -15q65 -37 94 -8q13 13 2 25q-13 12 -23 2q12 -7 2 -14q-8 -6 -14 0q-11 11 2 22q25 23 48 0q14 -13 8 -30.5t-27 -24.5q21 -5 33 -18q13 -14 16.5 -33.5t-4.5 -35.5q-6 -12 -9 -1q-8 21 -26 39q-41 41 -109 65q26 -70 65 -109q18 -18 39 -26q11 -3 -1 -9
q-16 -8 -35.5 -4.5t-33.5 16.5q-14 12 -18 33q-7 -21 -24.5 -27t-30.5 8q-23 23 0 48q11 13 22 2q8 -8 0 -14q-9 -7 -14 2q-11 -11 2 -23q11 -12 25 2q29 29 -8 94q0 -26 -15 -40q-16 -15 -31 -6q-3 3 1 5q11 0 17 7q10 11 7 29q-5 33 4 41q10 9 41 4zM180 248q31 5 41 -4
q9 -8 4 -41q-3 -18 7 -29q6 -7 17 -7q4 -1 1 -5q-15 -9 -31 6q-15 14 -15 40q-37 -65 -8 -94q14 -14 25 -2q13 12 2 23q-5 -9 -14 -2q-8 6 0 14q11 11 22 -2q23 -25 0 -48q-13 -14 -30.5 -8t-24.5 27q-4 -21 -18 -33q-14 -13 -33.5 -16.5t-35.5 4.5q-12 6 -1 9q21 8 39 26
q39 39 65 109q-68 -24 -109 -65q-18 -18 -26 -39q-3 -11 -9 1q-8 16 -4.5 35.5t16.5 33.5q12 13 33 18q-21 7 -27 24.5t8 30.5q23 23 48 0q13 -11 2 -22q-6 -6 -14 0q-10 7 2 14q-10 10 -23 -2q-11 -12 2 -25q29 -29 94 8q-27 0 -40 15q-15 16 -6 31q3 3 5 -1q0 -11 7 -17
q11 -10 29 -7zM334 367q-23 23 -29 33q-14 -27 -34 -43l27 -27zM375 330q-12 6 -34 28l-36 -35l27 -26q30 25 43 33zM291 323l-27 26q-16 -16 -44 -34q20 -11 35 -27zM324 288l-27 27l-34 -35q20 -21 28 -34q5 12 33 42z" />
    <glyph glyph-name="questiondown" unicode="&#xbf;" horiz-adv-x="349" 
d="M32 187q0 142 157 229q5 2 5 8q6 55 6 58q2 20 12 20q5 0 9 -2q7 -4 7 -19q0 -7 1 -26t2.5 -47t2.5 -48q2 -15 -11 -21q-65 -26 -103.5 -74.5t-38.5 -110.5q0 -50 30.5 -79.5t64.5 -29.5q25 0 53.5 12t37.5 12q14 0 23.5 -8.5t9.5 -21.5q0 -20 -20 -33t-64 -13
q-75 0 -129.5 54t-54.5 140zM170 605q0 20 12.5 32.5t32.5 12.5q19 0 31.5 -12.5t12.5 -32.5t-13.5 -33t-31.5 -13q-19 0 -31.5 13.5t-12.5 32.5z" />
    <glyph glyph-name="Agrave" unicode="&#xc0;" horiz-adv-x="685" 
d="M685 3q0 -3 -6 -3q-61 3 -111 3q-66 0 -137 -3q-7 0 -7 4q0 1 -0.5 6t-0.5 7q0 7 9 8q53 5 71 8q11 1 3 21q-4 10 -22.5 55.5t-35 86t-26.5 63.5q-3 7 -8 7h-199q-8 0 -11 -8q-70 -198 -74 -209q-5 -13 5 -14q51 -9 69 -11q6 0 6 -6v-13q0 -5 -8 -5q-7 0 -52 2t-60 2
q-24 0 -82 -4q-10 -1 -10 5v12q1 7 9 8q16 2 48 8q9 2 16 19q102 224 261 599q2 5 4.5 7t6 0.5t5.5 -7.5q3 -7 58.5 -139t117.5 -279t78 -186q5 -12 14 -13q62 -9 64 -9q6 0 6 -7v-8zM404 304q-8 21 -47.5 118.5t-41.5 102.5q-4 10 -8 0q-3 -8 -85 -223q-1 -4 -0.5 -5
t5.5 -1h173q7 0 4 8zM388 691q0 -4 -5 -5q-3 -1 -8 1q-8 6 -51 34t-52 34q-18 13 -18 25q0 11 8.5 19.5t19.5 8.5q13 0 24 -12q60 -68 76 -88q8 -10 6 -17z" />
    <glyph glyph-name="Aacute" unicode="&#xc1;" horiz-adv-x="685" 
d="M685 3q0 -3 -6 -3q-61 3 -111 3q-66 0 -137 -3q-7 0 -7 4q0 1 -0.5 6t-0.5 7q0 7 9 8q53 5 71 8q11 1 3 21q-4 10 -22.5 55.5t-35 86t-26.5 63.5q-3 7 -8 7h-199q-8 0 -11 -8q-70 -198 -74 -209q-5 -13 5 -14q51 -9 69 -11q6 0 6 -6v-13q0 -5 -8 -5q-7 0 -52 2t-60 2
q-24 0 -82 -4q-10 -1 -10 5v12q1 7 9 8q16 2 48 8q9 2 16 19q102 224 261 599q2 5 4.5 7t6 0.5t5.5 -7.5q3 -7 58.5 -139t117.5 -279t78 -186q5 -12 14 -13q62 -9 64 -9q6 0 6 -7v-8zM404 304q-8 21 -47.5 118.5t-41.5 102.5q-4 10 -8 0q-3 -8 -85 -223q-1 -4 -0.5 -5
t5.5 -1h173q7 0 4 8zM419 781q0 -17 -17 -28q-7 -5 -27.5 -18.5t-40.5 -26.5t-36 -23q-3 -2 -7.5 -1.5t-6.5 2.5q-6 8 1 15t25 27t36 40.5t21 23.5q15 15 25 15q11 0 19 -6.5t8 -19.5z" />
    <glyph glyph-name="Acircumflex" unicode="&#xc2;" horiz-adv-x="685" 
d="M685 3q0 -3 -6 -3q-61 3 -111 3q-66 0 -137 -3q-7 0 -7 4q0 1 -0.5 6t-0.5 7q0 7 9 8q53 5 71 8q11 1 3 21q-4 10 -22.5 55.5t-35 86t-26.5 63.5q-3 7 -8 7h-199q-8 0 -11 -8q-70 -198 -74 -209q-5 -13 5 -14q51 -9 69 -11q6 0 6 -6v-13q0 -5 -8 -5q-7 0 -52 2t-60 2
q-24 0 -82 -4q-10 -1 -10 5v12q1 7 9 8q16 2 48 8q9 2 16 19q102 224 261 599q2 5 4.5 7t6 0.5t5.5 -7.5q3 -7 58.5 -139t117.5 -279t78 -186q5 -12 14 -13q62 -9 64 -9q6 0 6 -7v-8zM404 304q-8 21 -47.5 118.5t-41.5 102.5q-4 10 -8 0q-3 -8 -85 -223q-1 -4 -0.5 -5
t5.5 -1h173q7 0 4 8zM427 688q-5 3 -37 22.5t-45 27.5q-6 4 -12 0q-12 -7 -47 -28t-42 -25q-6 -4 -9 2q-1 6 3 11q4 4 21.5 24l38.5 44t26 29q8 10 13 10t14 -10q25 -28 86 -96q8 -8 4 -12.5t-14 1.5z" />
    <glyph glyph-name="Atilde" unicode="&#xc3;" horiz-adv-x="685" 
d="M685 3q0 -3 -6 -3q-61 3 -111 3q-66 0 -137 -3q-7 0 -7 4q0 1 -0.5 6t-0.5 7q0 7 9 8q53 5 71 8q11 1 3 21q-4 10 -22.5 55.5t-35 86t-26.5 63.5q-3 7 -8 7h-199q-8 0 -11 -8q-70 -198 -74 -209q-5 -13 5 -14q51 -9 69 -11q6 0 6 -6v-13q0 -5 -8 -5q-7 0 -52 2t-60 2
q-24 0 -82 -4q-10 -1 -10 5v12q1 7 9 8q16 2 48 8q9 2 16 19q102 224 261 599q2 5 4.5 7t6 0.5t5.5 -7.5q3 -7 58.5 -139t117.5 -279t78 -186q5 -12 14 -13q62 -9 64 -9q6 0 6 -7v-8zM404 304q-8 21 -47.5 118.5t-41.5 102.5q-4 10 -8 0q-3 -8 -85 -223q-1 -4 -0.5 -5
t5.5 -1h173q7 0 4 8zM451 739q5 -5 -2 -16q-28 -38 -64 -38q-19 0 -58 14q-34 13 -57 13q-17 0 -28 -10q-11 -9 -15 -4q-5 5 3 16q28 37 64 37q28 0 59 -10q45 -15 54 -15q13 0 30 10q10 7 14 3z" />
    <glyph glyph-name="Adieresis" unicode="&#xc4;" horiz-adv-x="685" 
d="M685 3q0 -3 -6 -3q-61 3 -111 3q-66 0 -137 -3q-7 0 -7 4q0 1 -0.5 6t-0.5 7q0 7 9 8q53 5 71 8q11 1 3 21q-4 10 -22.5 55.5t-35 86t-26.5 63.5q-3 7 -8 7h-199q-8 0 -11 -8q-70 -198 -74 -209q-5 -13 5 -14q51 -9 69 -11q6 0 6 -6v-13q0 -5 -8 -5q-7 0 -52 2t-60 2
q-24 0 -82 -4q-10 -1 -10 5v12q1 7 9 8q16 2 48 8q9 2 16 19q102 224 261 599q2 5 4.5 7t6 0.5t5.5 -7.5q3 -7 58.5 -139t117.5 -279t78 -186q5 -12 14 -13q62 -9 64 -9q6 0 6 -7v-8zM404 304q-8 21 -47.5 118.5t-41.5 102.5q-4 10 -8 0q-3 -8 -85 -223q-1 -4 -0.5 -5
t5.5 -1h173q7 0 4 8zM458 721q0 -14 -10.5 -24.5t-25.5 -10.5q-14 0 -24.5 10.5t-10.5 24.5q0 16 10.5 26t24.5 10q15 0 25.5 -10t10.5 -26zM298 721q0 -14 -10.5 -24.5t-25.5 -10.5t-25.5 10.5t-10.5 24.5q0 16 10.5 26t25.5 10t25.5 -10t10.5 -26z" />
    <glyph glyph-name="Aring" unicode="&#xc5;" horiz-adv-x="685" 
d="M356 633q11 -27 119 -283.5t127 -302.5q5 -12 14 -13q62 -9 64 -9q6 0 6 -7v-8l-1 -7q0 -3 -6 -3q-61 3 -111 3q-66 0 -137 -3q-7 0 -7 4q0 1 -0.5 6t-0.5 7q0 7 9 8q53 5 71 8q11 1 3 21q-4 10 -22.5 55.5t-35 86t-26.5 63.5q-3 7 -8 7h-199q-8 0 -11 -8
q-70 -198 -74 -209q-5 -13 5 -14q51 -9 69 -11q6 0 6 -6v-13q0 -5 -8 -5q-7 0 -52 2t-60 2q-24 0 -82 -4q-10 -1 -10 5v12q1 7 9 8q16 2 48 8q9 2 16 19q64 139 253 581q-21 5 -34.5 22t-13.5 40q0 27 18.5 45t45.5 18t46 -18t19 -45q0 -24 -14 -40.5t-35 -21.5zM373 695
q0 14 -10 23t-23 9q-12 0 -21.5 -9.5t-9.5 -22.5t9.5 -22.5t21.5 -9.5q13 0 23 9.5t10 22.5zM404 304q-8 21 -47.5 118.5t-41.5 102.5q-4 10 -8 0q-3 -8 -85 -223q-1 -4 -0.5 -5t5.5 -1h173q7 0 4 8z" />
    <glyph glyph-name="AE" unicode="&#xc6;" horiz-adv-x="922" 
d="M892 122q-3 -12 -18 -59t-18 -58q-1 -8 -13 -8q-95 3 -322 6q-74 1 -130 -3q-7 0 -7 5v15q0 7 7 7q12 1 43 4t38 4t7 8v217q0 6 -3 6h-206q-8 0 -12 -8q-100 -159 -129 -209q-8 -13 1 -14q10 -2 32.5 -5t32.5 -4q5 0 5 -5q0 -2 -1 -8.5t-1 -7.5q0 -5 -8 -5q-7 0 -53 2
t-61 2q-11 0 -43.5 -2t-36.5 -2q-8 0 -9 5v4.5t0.5 6t0.5 4.5q1 6 8 7q41 5 51 7t22 18q49 70 170 246q199 288 203 294q10 14 -5 16q-56 6 -61 7q-7 1 -7 7v15q0 6 8 6q61 -3 138 -3q15 0 66 1t116.5 2t97.5 1h44q8 0 10 -10q22 -82 27 -99q2 -9 -2 -11q-6 -4 -14 -4
q-7 0 -9 5q-13 36 -26 63q-5 10 -18 11q-92 9 -229 9q-9 0 -11.5 -3t-2.5 -13v-236q0 -11 9 -11q129 0 210 9q8 1 9 9q1 10 10 61q1 8 8 8h9q7 0 6 -11q-4 -68 -4 -92q0 -59 3 -94q1 -8 -6 -9h-12q-5 0 -7 7q-6 43 -8 69q-1 6 -2 7.5t-8 1.5q-83 4 -208 4q-6 0 -7.5 -1.5
t-1.5 -9.5v-259q0 -6 1.5 -7.5t6.5 -1.5h47q96 0 200 10q12 1 17 13t16.5 36.5t14.5 33.5q5 8 9 7q13 -4 14 -5q3 -3 2 -9zM479 306v270q0 19 -10 5q-134 -201 -182 -277q-4 -6 5 -6h180q5 0 6 1t1 7z" />
    <glyph glyph-name="Ccedilla" unicode="&#xc7;" horiz-adv-x="652" 
d="M365 -9q-139 5 -232 91t-93 234q0 144 101.5 240t242.5 96q108 0 197 -47q9 -4 10 -15q7 -50 17 -98q1 -8 -4 -11q-6 -3 -15 -3q-6 0 -9 9l-8 24t-11 31q-7 16 -17 23q-69 51 -159 51q-107 0 -178.5 -81t-71.5 -219q0 -131 69.5 -210t177.5 -79q90 0 164 46q10 6 15 21
q4 11 10.5 37.5t7.5 28.5q2 9 7 9h15q6 -2 5 -10q0 -3 -5 -45.5t-6 -62.5q0 -11 -8 -15q-87 -42 -196 -45q-8 -14 -19 -24q12 3 15 3q30 0 46.5 -17t16.5 -44q0 -25 -19.5 -43t-50.5 -18q-35 0 -57 22q-5 5 -2 12q4 9 11 5q25 -11 42 -11t27 9t10 24q0 32 -34 32
q-11 0 -21 -3q-6 -2 -9 1q-7 7 -10 13q-2 4 7 12q13 12 21 27z" />
    <glyph glyph-name="Egrave" unicode="&#xc8;" horiz-adv-x="565" 
d="M535 122q-1 -5 -8.5 -28.5t-12.5 -38.5q-10 -35 -15 -50q-1 -8 -12 -8q-93 3 -322 6q-75 1 -131 -3q-8 0 -8 5v14q0 7 8 7q17 1 81 10q7 1 7 8v542q0 22 -11 23q-35 3 -73 8q-7 1 -7 7q0 1 1 6t1 7q0 6 7 6q62 -3 118 -3q24 0 167.5 2t157.5 2q8 0 10 -10q15 -65 27 -99
q2 -9 -2 -11q-6 -4 -13 -4t-8 5q-6 16 -28 63q-5 10 -17 11q-116 11 -231 11q-9 0 -11.5 -3t-2.5 -13v-239q0 -11 9 -11q130 0 211 9q7 1 8 9q1 10 10 61q1 8 9 8h9q6 0 5 -11q-4 -68 -4 -91q0 -57 3 -92q1 -7 -5 -9h-13q-5 0 -7 7q-6 43 -8 69q-1 6 -2 7.5t-7 1.5
q-83 4 -209 4q-6 0 -7.5 -1.5t-1.5 -9.5v-261q0 -6 1.5 -7.5t6.5 -1.5q148 0 248 10q11 1 16 13q5 11 11.5 25t13 27t8.5 18q4 8 9 7q9 -3 12 -5t2 -9zM332 689q0 -4 -5 -5q-3 -1 -8 1q-8 6 -51 34t-52 34q-18 13 -18 25q0 11 8.5 19.5t19.5 8.5q13 0 24 -12q60 -68 76 -88
q8 -10 6 -17z" />
    <glyph glyph-name="Eacute" unicode="&#xc9;" horiz-adv-x="565" 
d="M535 122q-1 -5 -8.5 -28.5t-12.5 -38.5q-10 -35 -15 -50q-1 -8 -12 -8q-93 3 -322 6q-75 1 -131 -3q-8 0 -8 5v14q0 7 8 7q17 1 81 10q7 1 7 8v542q0 22 -11 23q-35 3 -73 8q-7 1 -7 7q0 1 1 6t1 7q0 6 7 6q62 -3 118 -3q24 0 167.5 2t157.5 2q8 0 10 -10q15 -65 27 -99
q2 -9 -2 -11q-6 -4 -13 -4t-8 5q-6 16 -28 63q-5 10 -17 11q-116 11 -231 11q-9 0 -11.5 -3t-2.5 -13v-239q0 -11 9 -11q130 0 211 9q7 1 8 9q1 10 10 61q1 8 9 8h9q6 0 5 -11q-4 -68 -4 -91q0 -57 3 -92q1 -7 -5 -9h-13q-5 0 -7 7q-6 43 -8 69q-1 6 -2 7.5t-7 1.5
q-83 4 -209 4q-6 0 -7.5 -1.5t-1.5 -9.5v-261q0 -6 1.5 -7.5t6.5 -1.5q148 0 248 10q11 1 16 13q5 11 11.5 25t13 27t8.5 18q4 8 9 7q9 -3 12 -5t2 -9zM367 781q0 -17 -17 -28q-7 -5 -27.5 -18.5t-40.5 -26.5t-36 -23q-3 -2 -7.5 -1.5t-6.5 2.5q-6 8 1 15t25 27t36 40.5
t21 23.5q15 15 25 15q11 0 19 -6.5t8 -19.5z" />
    <glyph glyph-name="Ecircumflex" unicode="&#xca;" horiz-adv-x="565" 
d="M535 122q-1 -5 -8.5 -28.5t-12.5 -38.5q-10 -35 -15 -50q-1 -8 -12 -8q-93 3 -322 6q-75 1 -131 -3q-8 0 -8 5v14q0 7 8 7q17 1 81 10q7 1 7 8v542q0 22 -11 23q-35 3 -73 8q-7 1 -7 7q0 1 1 6t1 7q0 6 7 6q62 -3 118 -3q24 0 167.5 2t157.5 2q8 0 10 -10q15 -65 27 -99
q2 -9 -2 -11q-6 -4 -13 -4t-8 5q-6 16 -28 63q-5 10 -17 11q-116 11 -231 11q-9 0 -11.5 -3t-2.5 -13v-239q0 -11 9 -11q130 0 211 9q7 1 8 9q1 10 10 61q1 8 9 8h9q6 0 5 -11q-4 -68 -4 -91q0 -57 3 -92q1 -7 -5 -9h-13q-5 0 -7 7q-6 43 -8 69q-1 6 -2 7.5t-7 1.5
q-83 4 -209 4q-6 0 -7.5 -1.5t-1.5 -9.5v-261q0 -6 1.5 -7.5t6.5 -1.5q148 0 248 10q11 1 16 13q5 11 11.5 25t13 27t8.5 18q4 8 9 7q9 -3 12 -5t2 -9zM378 688q-5 3 -37 22.5t-45 27.5q-6 4 -12 0q-12 -7 -47 -28t-42 -25q-6 -4 -9 2q-1 6 3 11q4 4 21.5 24l38.5 44t26 29
q8 10 13 10t14 -10q25 -28 86 -96q8 -8 4 -12.5t-14 1.5z" />
    <glyph glyph-name="Edieresis" unicode="&#xcb;" horiz-adv-x="565" 
d="M535 122q-1 -5 -8.5 -28.5t-12.5 -38.5q-10 -35 -15 -50q-1 -8 -12 -8q-93 3 -322 6q-75 1 -131 -3q-8 0 -8 5v14q0 7 8 7q17 1 81 10q7 1 7 8v542q0 22 -11 23q-35 3 -73 8q-7 1 -7 7q0 1 1 6t1 7q0 6 7 6q62 -3 118 -3q24 0 167.5 2t157.5 2q8 0 10 -10q15 -65 27 -99
q2 -9 -2 -11q-6 -4 -13 -4t-8 5q-6 16 -28 63q-5 10 -17 11q-116 11 -231 11q-9 0 -11.5 -3t-2.5 -13v-239q0 -11 9 -11q130 0 211 9q7 1 8 9q1 10 10 61q1 8 9 8h9q6 0 5 -11q-4 -68 -4 -91q0 -57 3 -92q1 -7 -5 -9h-13q-5 0 -7 7q-6 43 -8 69q-1 6 -2 7.5t-7 1.5
q-83 4 -209 4q-6 0 -7.5 -1.5t-1.5 -9.5v-261q0 -6 1.5 -7.5t6.5 -1.5q148 0 248 10q11 1 16 13q5 11 11.5 25t13 27t8.5 18q4 8 9 7q9 -3 12 -5t2 -9zM402 721q0 -14 -10.5 -24.5t-25.5 -10.5q-14 0 -24.5 10.5t-10.5 24.5q0 16 10.5 26t24.5 10q15 0 25.5 -10t10.5 -26z
M242 721q0 -14 -10.5 -24.5t-25.5 -10.5t-25.5 10.5t-10.5 24.5q0 16 10.5 26t25.5 10t25.5 -10t10.5 -26z" />
    <glyph glyph-name="Igrave" unicode="&#xcc;" horiz-adv-x="337" 
d="M211 44q0 -8 7 -9q12 -1 40 -5t40 -5q5 0 5 -6v-14q-1 -5 -7 -5q-48 4 -127 4q-49 0 -123 -4q-8 0 -8 6v13q0 5 9 6q10 1 38 5l35 5q6 0 6 8v556q0 7 -7 8q-56 8 -74 10q-7 1 -7 6q0 2 0.5 7.5t0.5 6.5q0 5 7 5q55 -3 121 -3q75 0 126 3q8 0 8 -6v-13q0 -6 -8 -6
q-13 -1 -38 -5t-37 -5q-7 0 -7 -10v-553zM214 689q0 -4 -5 -5q-3 -1 -8 1q-8 6 -51 34t-52 34q-18 13 -18 25q0 11 8.5 19.5t19.5 8.5q13 0 24 -12q60 -68 76 -88q8 -10 6 -17z" />
    <glyph glyph-name="Iacute" unicode="&#xcd;" horiz-adv-x="337" 
d="M211 44q0 -8 7 -9q12 -1 40 -5t40 -5q5 0 5 -6v-14q-1 -5 -7 -5q-48 4 -127 4q-49 0 -123 -4q-8 0 -8 6v13q0 5 9 6q10 1 38 5l35 5q6 0 6 8v556q0 7 -7 8q-56 8 -74 10q-7 1 -7 6q0 2 0.5 7.5t0.5 6.5q0 5 7 5q55 -3 121 -3q75 0 126 3q8 0 8 -6v-13q0 -6 -8 -6
q-13 -1 -38 -5t-37 -5q-7 0 -7 -10v-553zM263 781q0 -17 -17 -28q-7 -5 -27.5 -18.5t-40.5 -26.5t-36 -23q-3 -2 -7.5 -1.5t-6.5 2.5q-6 8 1 15t25 27t36 40.5t21 23.5q15 15 25 15q11 0 19 -6.5t8 -19.5z" />
    <glyph glyph-name="Icircumflex" unicode="&#xce;" horiz-adv-x="337" 
d="M211 44q0 -8 7 -9q12 -1 40 -5t40 -5q5 0 5 -6v-14q-1 -5 -7 -5q-48 4 -127 4q-49 0 -123 -4q-8 0 -8 6v13q0 5 9 6q10 1 38 5l35 5q6 0 6 8v556q0 7 -7 8q-56 8 -74 10q-7 1 -7 6q0 2 0.5 7.5t0.5 6.5q0 5 7 5q55 -3 121 -3q75 0 126 3q8 0 8 -6v-13q0 -6 -8 -6
q-13 -1 -38 -5t-37 -5q-7 0 -7 -10v-553zM260 687q-5 3 -37 22.5t-45 27.5q-6 4 -12 0q-12 -7 -47 -28t-42 -25q-6 -4 -9 2q-1 6 3 11q4 4 21.5 24l38.5 44t26 29q8 10 13 10t14 -10q25 -28 86 -96q8 -8 4 -12.5t-14 1.5z" />
    <glyph glyph-name="Idieresis" unicode="&#xcf;" horiz-adv-x="337" 
d="M211 44q0 -8 7 -9q12 -1 40 -5t40 -5q5 0 5 -6v-14q-1 -5 -7 -5q-48 4 -127 4q-49 0 -123 -4q-8 0 -8 6v13q0 5 9 6q10 1 38 5l35 5q6 0 6 8v556q0 7 -7 8q-56 8 -74 10q-7 1 -7 6q0 2 0.5 7.5t0.5 6.5q0 5 7 5q55 -3 121 -3q75 0 126 3q8 0 8 -6v-13q0 -6 -8 -6
q-13 -1 -38 -5t-37 -5q-7 0 -7 -10v-553zM288 721q0 -14 -10.5 -24.5t-25.5 -10.5q-14 0 -24.5 10.5t-10.5 24.5q0 16 10.5 26t24.5 10q15 0 25.5 -10t10.5 -26zM128 721q0 -14 -10.5 -24.5t-25.5 -10.5t-25.5 10.5t-10.5 24.5q0 16 10.5 26t25.5 10t25.5 -10t10.5 -26z" />
    <glyph glyph-name="Eth" unicode="&#xd0;" horiz-adv-x="745" 
d="M122 256h-49q-33 0 -34 6q-2 14 0 18q2 5 10 7l73 2v304q0 11 -8 12q-10 1 -33.5 5t-37.5 6q-6 0 -6 7v13q1 6 8 6q60 -3 118 -3q22 0 74.5 2.5t87.5 2.5q187 0 282.5 -90t95.5 -233q0 -142 -87.5 -232.5t-239.5 -90.5q-63 0 -131 2.5t-79 2.5q-14 0 -60.5 -1.5
t-63.5 -1.5q-7 0 -7 7v11q0 6 6 7q9 1 34 5t37 5q7 1 8.5 3.5t1.5 11.5v206zM207 291q17 0 36 0.5t28.5 1t11.5 0.5q33 0 39 -9q1 -2 2 -8.5t1 -7.5q1 -4 -1.5 -5t-11.5 -3q-1 0 -105 -2v-208q0 -10 7 -11q40 -6 126 -6q134 0 202 82t68 205q0 127 -73.5 207t-222.5 80
q-46 0 -101 -5q-6 0 -6 -9v-302z" />
    <glyph glyph-name="Ntilde" unicode="&#xd1;" horiz-adv-x="767" 
d="M656 55q0 -10 0.5 -27.5t0.5 -26.5q0 -11 -6 -11h-8q-6 0 -13 8q-68 83 -235.5 279.5t-245.5 283.5q-5 6 -6.5 5.5t-1.5 -8.5q0 -46 2 -148.5t5 -221.5t4 -143q0 -8 9 -9q67 -10 86 -11q7 0 7 -5q0 -1 -0.5 -7t-0.5 -8q0 -5 -6 -5q-41 3 -116 3q-72 0 -104 -3q-7 -1 -9 5
q-1 4 -1 14q0 6 5 6q15 2 41.5 5.5t32.5 4.5t6 8q9 324 9 548q0 14 -9 15q-6 1 -20.5 3t-28 4t-25.5 4q-7 1 -7 4q0 13 1 17q2 5 7 5q42 -3 83 -3q30 0 74 2q9 0 14 -6q31 -38 211 -248t212 -251q4 -5 4 1q0 312 -9 458q-1 10 -9 11q-5 1 -33 4.5t-41 4.5q-7 1 -7 6
q0 1 0.5 7.5t0.5 8.5q0 4 6 4q33 -3 106 -3q59 0 96 4q4 0 6 -5q2 -6 2 -15q0 -5 -7 -6q-10 -1 -28.5 -4t-28.5 -5q-9 -1 -11 -3t-2 -8q0 -22 -3.5 -148t-6 -236.5t-2.5 -157.5zM503 740q5 -5 -2 -16q-28 -38 -64 -38q-19 0 -58 14q-34 13 -57 13q-17 0 -28 -10
q-11 -9 -15 -4q-5 5 3 16q28 37 64 37q28 0 59 -10q45 -15 54 -15q13 0 30 10q10 7 14 3z" />
    <glyph glyph-name="Ograve" unicode="&#xd2;" horiz-adv-x="743" 
d="M703 321q0 -136 -92 -233t-240 -97t-239.5 97t-91.5 233q0 134 93.5 232t237.5 98q146 0 239 -98.5t93 -231.5zM610 322q0 76 -26.5 141t-82.5 107.5t-130 42.5q-110 0 -174 -82t-64 -210q0 -118 64 -205t174 -87q113 0 176 86t63 207zM431 689q0 -4 -5 -5q-3 -1 -8 1
q-8 6 -51 34t-52 34q-18 13 -18 25q0 11 8.5 19.5t19.5 8.5q13 0 24 -12q60 -68 76 -88q8 -10 6 -17z" />
    <glyph glyph-name="Oacute" unicode="&#xd3;" horiz-adv-x="743" 
d="M703 321q0 -136 -92 -233t-240 -97t-239.5 97t-91.5 233q0 134 93.5 232t237.5 98q146 0 239 -98.5t93 -231.5zM610 322q0 76 -26.5 141t-82.5 107.5t-130 42.5q-110 0 -174 -82t-64 -210q0 -118 64 -205t174 -87q113 0 176 86t63 207zM433 783q0 -17 -17 -28
q-7 -5 -27.5 -18.5t-40.5 -26.5t-36 -23q-3 -2 -7.5 -1.5t-6.5 2.5q-6 8 1 15t25 27t36 40.5t21 23.5q15 15 25 15q11 0 19 -6.5t8 -19.5z" />
    <glyph glyph-name="Ocircumflex" unicode="&#xd4;" horiz-adv-x="743" 
d="M703 321q0 -136 -92 -233t-240 -97t-239.5 97t-91.5 233q0 134 93.5 232t237.5 98q146 0 239 -98.5t93 -231.5zM610 322q0 76 -26.5 141t-82.5 107.5t-130 42.5q-110 0 -174 -82t-64 -210q0 -118 64 -205t174 -87q113 0 176 86t63 207zM454 687q-5 3 -37 22.5t-45 27.5
q-6 4 -12 0q-12 -7 -47 -28t-42 -25q-6 -4 -9 2q-1 6 3 11q4 4 21.5 24l38.5 44t26 29q8 10 13 10t14 -10q25 -28 86 -96q8 -8 4 -12.5t-14 1.5z" />
    <glyph glyph-name="Otilde" unicode="&#xd5;" horiz-adv-x="743" 
d="M703 321q0 -136 -92 -233t-240 -97t-239.5 97t-91.5 233q0 134 93.5 232t237.5 98q146 0 239 -98.5t93 -231.5zM610 322q0 76 -26.5 141t-82.5 107.5t-130 42.5q-110 0 -174 -82t-64 -210q0 -118 64 -205t174 -87q113 0 176 86t63 207zM486 740q5 -5 -2 -16
q-28 -38 -64 -38q-19 0 -58 14q-34 13 -57 13q-17 0 -28 -10q-11 -9 -15 -4q-5 5 3 16q28 37 64 37q28 0 59 -10q45 -15 54 -15q13 0 30 10q10 7 14 3z" />
    <glyph glyph-name="Odieresis" unicode="&#xd6;" horiz-adv-x="743" 
d="M703 321q0 -136 -92 -233t-240 -97t-239.5 97t-91.5 233q0 134 93.5 232t237.5 98q146 0 239 -98.5t93 -231.5zM610 322q0 76 -26.5 141t-82.5 107.5t-130 42.5q-110 0 -174 -82t-64 -210q0 -118 64 -205t174 -87q113 0 176 86t63 207zM490 721q0 -14 -10.5 -24.5
t-25.5 -10.5q-14 0 -24.5 10.5t-10.5 24.5q0 16 10.5 26t24.5 10q15 0 25.5 -10t10.5 -26zM330 721q0 -14 -10.5 -24.5t-25.5 -10.5t-25.5 10.5t-10.5 24.5q0 16 10.5 26t25.5 10t25.5 -10t10.5 -26z" />
    <glyph glyph-name="multiply" unicode="&#xd7;" 
d="M418 394q-31 -5 -41 4q-9 8 -4 41q3 18 -7 29q-6 7 -17 7q-4 1 -1 5q15 9 31 -6q15 -13 15 -40q37 65 8 94q-14 14 -25 2q-13 -12 -2 -23q5 9 14 2q8 -6 0 -14q-11 -11 -22 2q-23 25 0 48q13 14 30.5 8t24.5 -27q4 21 18 33q14 13 33.5 16.5t35.5 -4.5q12 -6 1 -9
q-21 -8 -39 -26q-39 -39 -65 -109q68 24 109 65q18 18 26 39q3 11 9 -1q8 -16 4.5 -35.5t-16.5 -33.5q-12 -13 -33 -18q21 -7 27 -24.5t-8 -30.5q-23 -23 -48 0q-13 11 -2 22q6 6 14 0q10 -7 -2 -14q10 -10 23 2q11 12 -2 25q-29 29 -94 -8q27 0 40 -15q15 -16 6 -31
q-3 -3 -5 1q0 11 -7 17q-11 10 -29 7zM180 394q-18 3 -29 -7q-7 -6 -7 -17q-1 -4 -5 -1q-9 15 6 31q13 15 40 15q-65 37 -94 8q-13 -13 -2 -25q13 -12 23 -2q-12 7 -2 14q8 6 14 0q11 -11 -2 -22q-25 -23 -48 0q-14 13 -8 30.5t27 24.5q-21 5 -33 18q-13 14 -16.5 33.5
t4.5 35.5q6 12 9 1q8 -21 26 -39q41 -41 109 -65q-26 70 -65 109q-18 18 -39 26q-11 3 1 9q16 8 35.5 4.5t33.5 -16.5q14 -12 18 -33q7 21 24.5 27t30.5 -8q23 -23 0 -48q-11 -13 -22 -2q-8 8 0 14q9 7 14 -2q11 11 -2 23q-11 12 -25 -2q-29 -29 8 -94q0 27 15 40
q16 15 31 6q3 -3 -1 -5q-11 0 -17 -7q-10 -11 -7 -29q5 -33 -4 -41q-10 -9 -41 -4zM404 321q-38 -25 -59 -46q-19 -19 -46 -58q-27 36 -49 58q-25 25 -58 49q34 22 59 46q21 20 46 58q21 -31 49 -57q33 -31 58 -50zM418 248q18 -3 29 7q7 6 7 17q1 4 5 1q9 -15 -6 -31
q-13 -15 -40 -15q65 -37 94 -8q13 13 2 25q-13 12 -23 2q12 -7 2 -14q-8 -6 -14 0q-11 11 2 22q25 23 48 0q14 -13 8 -30.5t-27 -24.5q21 -5 33 -18q13 -14 16.5 -33.5t-4.5 -35.5q-6 -12 -9 -1q-8 21 -26 39q-41 41 -109 65q26 -70 65 -109q18 -18 39 -26q11 -3 -1 -9
q-16 -8 -35.5 -4.5t-33.5 16.5q-14 12 -18 33q-7 -21 -24.5 -27t-30.5 8q-23 23 0 48q11 13 22 2q8 -8 0 -14q-9 -7 -14 2q-11 -11 2 -23q11 -12 25 2q29 29 -8 94q0 -26 -15 -40q-16 -15 -31 -6q-3 3 1 5q11 0 17 7q10 11 7 29q-5 33 4 41q10 9 41 4zM180 248q31 5 41 -4
q9 -8 4 -41q-3 -18 7 -29q6 -7 17 -7q4 -1 1 -5q-15 -9 -31 6q-15 14 -15 40q-37 -65 -8 -94q14 -14 25 -2q13 12 2 23q-5 -9 -14 -2q-8 6 0 14q11 11 22 -2q23 -25 0 -48q-13 -14 -30.5 -8t-24.5 27q-4 -21 -18 -33q-14 -13 -33.5 -16.5t-35.5 4.5q-12 6 -1 9q21 8 39 26
q39 39 65 109q-68 -24 -109 -65q-18 -18 -26 -39q-3 -11 -9 1q-8 16 -4.5 35.5t16.5 33.5q12 13 33 18q-21 7 -27 24.5t8 30.5q23 23 48 0q13 -11 2 -22q-6 -6 -14 0q-10 7 2 14q-10 10 -23 -2q-11 -12 2 -25q29 -29 94 8q-27 0 -40 15q-15 16 -6 31q3 3 5 -1q0 -11 7 -17
q11 -10 29 -7zM334 367q-23 23 -29 33q-14 -27 -34 -43l27 -27zM375 330q-12 6 -34 28l-36 -35l27 -26q30 25 43 33zM291 323l-27 26q-16 -16 -44 -34q20 -11 35 -27zM324 288l-27 27l-34 -35q20 -21 28 -34q5 12 33 42z" />
    <glyph glyph-name="Oslash" unicode="&#xd8;" horiz-adv-x="743" 
d="M492 578q-18 -42 -65 -156.5t-88 -213t-66 -156.5q38 -23 98 -23q113 0 176 86t63 207q0 79 -31 148.5t-87 107.5zM247 67q86 209 218 526q-43 20 -94 20q-110 0 -173.5 -81.5t-63.5 -210.5q0 -78 29.5 -146.5t83.5 -107.5zM227 20q-87 40 -137 121.5t-50 179.5
q0 134 93.5 232t237.5 98q61 0 110 -18q10 24 15 35q3 10 10 14q4 3 10 -1q3 -2 11 -6q5 -3 -2 -18l-2 -4q-2 -4 -6 -13.5t-7 -17.5q89 -40 141 -122.5t52 -178.5q0 -136 -92 -233t-240 -97q-61 0 -116 19q-6 -13 -11 -26t-7 -17q-3 -8 -10 -7q-11 3 -18 7q-3 2 0 10
q2 5 9 21t9 22z" />
    <glyph glyph-name="Ugrave" unicode="&#xd9;" horiz-adv-x="723" 
d="M708 624q0 -6 -11 -7q-17 -1 -71 -10q-8 -1 -8 -14q-4 -174 -4 -362q0 -122 -60.5 -180t-198.5 -58q-115 0 -179.5 55t-64.5 171v377q0 9 -7 10q-4 1 -32.5 5t-39.5 5q-7 0 -7 6q0 12 1 16t5 4q53 -3 118 -3q28 0 130 3q6 0 7 -4t1 -14q0 -6 -7 -7q-58 -7 -77 -10
q-6 -1 -6 -9v-381q0 -183 185 -183q98 0 142 47t44 144q0 138 -6 368q0 12 -10 13q-12 1 -37.5 5t-41.5 6q-6 1 -6 5v15q0 5 8 5q54 -2 115 -2q76 0 113 2q5 0 5 -4v-14zM424 689q0 -4 -5 -5q-3 -1 -8 1q-8 6 -51 34t-52 34q-18 13 -18 25q0 11 8.5 19.5t19.5 8.5
q13 0 24 -12q60 -68 76 -88q8 -10 6 -17z" />
    <glyph glyph-name="Uacute" unicode="&#xda;" horiz-adv-x="723" 
d="M708 624q0 -6 -11 -7q-17 -1 -71 -10q-8 -1 -8 -14q-4 -174 -4 -362q0 -122 -60.5 -180t-198.5 -58q-115 0 -179.5 55t-64.5 171v377q0 9 -7 10q-4 1 -32.5 5t-39.5 5q-7 0 -7 6q0 12 1 16t5 4q53 -3 118 -3q28 0 130 3q6 0 7 -4t1 -14q0 -6 -7 -7q-58 -7 -77 -10
q-6 -1 -6 -9v-381q0 -183 185 -183q98 0 142 47t44 144q0 138 -6 368q0 12 -10 13q-12 1 -37.5 5t-41.5 6q-6 1 -6 5v15q0 5 8 5q54 -2 115 -2q76 0 113 2q5 0 5 -4v-14zM426 782q0 -17 -17 -28q-7 -5 -27.5 -18.5t-40.5 -26.5t-36 -23q-3 -2 -7.5 -1.5t-6.5 2.5q-6 8 1 15
t25 27t36 40.5t21 23.5q15 15 25 15q11 0 19 -6.5t8 -19.5z" />
    <glyph glyph-name="Ucircumflex" unicode="&#xdb;" horiz-adv-x="723" 
d="M708 624q0 -6 -11 -7q-17 -1 -71 -10q-8 -1 -8 -14q-4 -174 -4 -362q0 -122 -60.5 -180t-198.5 -58q-115 0 -179.5 55t-64.5 171v377q0 9 -7 10q-4 1 -32.5 5t-39.5 5q-7 0 -7 6q0 12 1 16t5 4q53 -3 118 -3q28 0 130 3q6 0 7 -4t1 -14q0 -6 -7 -7q-58 -7 -77 -10
q-6 -1 -6 -9v-381q0 -183 185 -183q98 0 142 47t44 144q0 138 -6 368q0 12 -10 13q-12 1 -37.5 5t-41.5 6q-6 1 -6 5v15q0 5 8 5q54 -2 115 -2q76 0 113 2q5 0 5 -4v-14zM448 687q-5 3 -37 22.5t-45 27.5q-6 4 -12 0q-12 -7 -47 -28t-42 -25q-6 -4 -9 2q-1 6 3 11
q4 4 21.5 24l38.5 44t26 29q8 10 13 10t14 -10q25 -28 86 -96q8 -8 4 -12.5t-14 1.5z" />
    <glyph glyph-name="Udieresis" unicode="&#xdc;" horiz-adv-x="723" 
d="M708 624q0 -6 -11 -7q-17 -1 -71 -10q-8 -1 -8 -14q-4 -174 -4 -362q0 -122 -60.5 -180t-198.5 -58q-115 0 -179.5 55t-64.5 171v377q0 9 -7 10q-4 1 -32.5 5t-39.5 5q-7 0 -7 6q0 12 1 16t5 4q53 -3 118 -3q28 0 130 3q6 0 7 -4t1 -14q0 -6 -7 -7q-58 -7 -77 -10
q-6 -1 -6 -9v-381q0 -183 185 -183q98 0 142 47t44 144q0 138 -6 368q0 12 -10 13q-12 1 -37.5 5t-41.5 6q-6 1 -6 5v15q0 5 8 5q54 -2 115 -2q76 0 113 2q5 0 5 -4v-14zM488 721q0 -14 -10.5 -24.5t-25.5 -10.5q-14 0 -24.5 10.5t-10.5 24.5q0 16 10.5 26t24.5 10
q15 0 25.5 -10t10.5 -26zM328 721q0 -14 -10.5 -24.5t-25.5 -10.5t-25.5 10.5t-10.5 24.5q0 16 10.5 26t25.5 10t25.5 -10t10.5 -26z" />
    <glyph glyph-name="Yacute" unicode="&#xdd;" horiz-adv-x="637" 
d="M630 624q0 -6 -8 -7q-3 -1 -22 -4.5t-29 -5.5q-9 -2 -14 -9q-99 -152 -190 -285q-5 -7 -5 -20v-247q0 -10 11 -11q8 0 77 -7q8 -1 8 -7q0 -2 -2 -16q-1 -5 -5 -5q-48 4 -127 4q-86 0 -129 -4q-4 0 -7 4q-2 2 -2 16q0 6 6 6q4 1 80 9q7 1 7 11v244q0 11 -7 21
q-78 119 -189 283q-6 11 -17 13q-41 9 -52 10q-7 2 -7 7q0 6 2 14q1 4 10 4q53 -3 102 -3q87 0 129 3q7 0 8 -4q1 -3 1 -15q0 -6 -6 -6q-44 -4 -68 -9q-9 -2 -2 -13q81 -123 160 -247q6 -10 12 0q76 120 139 244q7 14 -3 15q-11 2 -34.5 5t-28.5 4q-7 1 -7 6q0 7 3 16
q1 4 8 4q99 -3 100 -3q31 0 91 3q8 0 8 -4q0 -3 -0.5 -8t-0.5 -6zM406 781q0 -17 -17 -28q-7 -5 -27.5 -18.5t-40.5 -26.5t-36 -23q-3 -2 -7.5 -1.5t-6.5 2.5q-6 8 1 15t25 27t36 40.5t21 23.5q15 15 25 15q11 0 19 -6.5t8 -19.5z" />
    <glyph glyph-name="Thorn" unicode="&#xde;" horiz-adv-x="535" 
d="M509 344q0 -92 -68 -143.5t-154 -51.5q-52 0 -52 12q0 4 2 12q2 5 23 5q76 0 118.5 46t42.5 117q0 79 -40.5 122t-114.5 43q-37 0 -63 -4q-11 -1 -11 -14v-442q0 -7 2 -8.5t10 -2.5q6 -1 22 -2.5t30 -3t24 -2.5q9 -1 9 -7v-15q0 -5 -8 -5q-70 4 -131 4q-42 0 -124 -4
q-5 0 -5 4v17q0 5 8 6q12 1 35 4t36 4q6 1 6 11v544q0 15 -12 16q-4 0 -32.5 4t-42.5 5q-7 1 -7 6q0 2 0.5 8.5t0.5 7.5q0 6 8 6q52 -4 127 -4q77 0 128 3q8 0 8 -6v-15q0 -6 -8 -6q-13 -1 -38 -4t-38 -4q-7 0 -7 -10v-55q0 -7 7 -6q45 6 92 6q103 0 160 -52t57 -146z" />
    <glyph glyph-name="germandbls" unicode="&#xdf;" horiz-adv-x="524" 
d="M491 116q0 -50 -38 -85t-95 -35q-55 0 -92 16q-8 3 -8 9q-3 38 -8 73q0 11 4 12q3 1 9 1q5 0 7 -6q13 -34 19 -43q7 -10 9 -11q23 -20 60 -20q32 0 52.5 18.5t20.5 43.5q0 32 -38 60q-5 3 -40.5 28t-43.5 31q-55 39 -55 87q0 49 57 108q46 46 46 120q0 46 -26 77.5
t-75 31.5q-48 0 -73 -32.5t-25 -82.5v-475q0 -9 7 -10q11 -2 34 -4l23 -3q7 -1 7 -6v-14q0 -5 -7 -5q-48 3 -99 3q-45 0 -95 -3q-6 0 -6 6v12q0 5 5 7q3 0 51 7q6 1 7 2.5t1 7.5v302q0 7 -3 7t-20.5 -0.5t-21.5 -0.5q-8 0 -8 7q0 3 0.5 11.5t0.5 10.5q0 5 6 5h43q3 0 3 7
q0 12 0.5 42t0.5 37q0 89 49 142.5t120 53.5t111 -41t40 -102q0 -47 -15.5 -77t-45.5 -60q-32 -34 -36 -48q-2 -6 -2 -14q0 -26 49 -58q62 -41 71 -47q34 -25 48.5 -48t14.5 -55z" />
    <glyph glyph-name="agrave" unicode="&#xe0;" horiz-adv-x="378" 
d="M306 61q0 -35 23 -35q10 0 24 7q7 3 11 -4q6 -8 -2 -14q-25 -21 -66 -21q-23 0 -39.5 12.5t-20.5 34.5q-1 4 -6 1q-43 -26 -76 -40q-19 -8 -44 -8q-28 0 -50 30q-23 31 -23 67q0 50 59 80q21 11 71 32.5t61 26.5q5 2 5 11v58q0 69 -58 69q-51 0 -66 -29q-2 -4 -2 -22
q-1 -12 -15 -17q-12 -5 -31 -5q-14 0 -14 14q0 33 50 64t106 31q48 0 75.5 -25.5t27.5 -75.5v-242zM233 74v127q0 5 -5 3q-76 -36 -82 -40q-40 -26 -40 -65q0 -23 13 -42t35 -19q27 0 73 27q6 4 6 9zM245 457q0 -4 -5 -5q-3 -1 -8 1q-8 6 -51 34t-52 34q-18 13 -18 25
q0 11 8.5 19.5t19.5 8.5q13 0 24 -12q60 -68 76 -88q8 -10 6 -17z" />
    <glyph glyph-name="aacute" unicode="&#xe1;" horiz-adv-x="378" 
d="M306 61q0 -35 23 -35q10 0 24 7q7 3 11 -4q6 -8 -2 -14q-25 -21 -66 -21q-23 0 -39.5 12.5t-20.5 34.5q-1 4 -6 1q-43 -26 -76 -40q-19 -8 -44 -8q-28 0 -50 30q-23 31 -23 67q0 50 59 80q21 11 71 32.5t61 26.5q5 2 5 11v58q0 69 -58 69q-51 0 -66 -29q-2 -4 -2 -22
q-1 -12 -15 -17q-12 -5 -31 -5q-14 0 -14 14q0 33 50 64t106 31q48 0 75.5 -25.5t27.5 -75.5v-242zM233 74v127q0 5 -5 3q-76 -36 -82 -40q-40 -26 -40 -65q0 -23 13 -42t35 -19q27 0 73 27q6 4 6 9zM251 550q0 -17 -17 -28q-7 -5 -27.5 -18.5t-40.5 -26.5t-36 -23
q-3 -2 -7.5 -1.5t-6.5 2.5q-6 8 1 15t25 27t36 40.5t21 23.5q15 15 25 15q11 0 19 -6.5t8 -19.5z" />
    <glyph glyph-name="acircumflex" unicode="&#xe2;" horiz-adv-x="378" 
d="M306 61q0 -35 23 -35q10 0 24 7q7 3 11 -4q6 -8 -2 -14q-25 -21 -66 -21q-23 0 -39.5 12.5t-20.5 34.5q-1 4 -6 1q-43 -26 -76 -40q-19 -8 -44 -8q-28 0 -50 30q-23 31 -23 67q0 50 59 80q21 11 71 32.5t61 26.5q5 2 5 11v58q0 69 -58 69q-51 0 -66 -29q-2 -4 -2 -22
q-1 -12 -15 -17q-12 -5 -31 -5q-14 0 -14 14q0 33 50 64t106 31q48 0 75.5 -25.5t27.5 -75.5v-242zM233 74v127q0 5 -5 3q-76 -36 -82 -40q-40 -26 -40 -65q0 -23 13 -42t35 -19q27 0 73 27q6 4 6 9zM270 455q-5 3 -37 22.5t-45 27.5q-6 4 -12 0q-12 -7 -47 -28t-42 -25
q-6 -4 -9 2q-1 6 3 11q4 4 21.5 24l38.5 44t26 29q8 10 13 10t14 -10q25 -28 86 -96q8 -8 4 -12.5t-14 1.5z" />
    <glyph glyph-name="atilde" unicode="&#xe3;" horiz-adv-x="378" 
d="M306 61q0 -35 23 -35q10 0 24 7q7 3 11 -4q6 -8 -2 -14q-25 -21 -66 -21q-23 0 -39.5 12.5t-20.5 34.5q-1 4 -6 1q-43 -26 -76 -40q-19 -8 -44 -8q-28 0 -50 30q-23 31 -23 67q0 50 59 80q21 11 71 32.5t61 26.5q5 2 5 11v58q0 69 -58 69q-51 0 -66 -29q-2 -4 -2 -22
q-1 -12 -15 -17q-12 -5 -31 -5q-14 0 -14 14q0 33 50 64t106 31q48 0 75.5 -25.5t27.5 -75.5v-242zM233 74v127q0 5 -5 3q-76 -36 -82 -40q-40 -26 -40 -65q0 -23 13 -42t35 -19q27 0 73 27q6 4 6 9zM301 509q5 -5 -2 -16q-28 -38 -64 -38q-19 0 -58 14q-34 13 -57 13
q-17 0 -28 -10q-11 -9 -15 -4q-5 5 3 16q28 37 64 37q28 0 59 -10q45 -15 54 -15q13 0 30 10q10 7 14 3z" />
    <glyph glyph-name="adieresis" unicode="&#xe4;" horiz-adv-x="378" 
d="M306 61q0 -35 23 -35q10 0 24 7q7 3 11 -4q6 -8 -2 -14q-25 -21 -66 -21q-23 0 -39.5 12.5t-20.5 34.5q-1 4 -6 1q-43 -26 -76 -40q-19 -8 -44 -8q-28 0 -50 30q-23 31 -23 67q0 50 59 80q21 11 71 32.5t61 26.5q5 2 5 11v58q0 69 -58 69q-51 0 -66 -29q-2 -4 -2 -22
q-1 -12 -15 -17q-12 -5 -31 -5q-14 0 -14 14q0 33 50 64t106 31q48 0 75.5 -25.5t27.5 -75.5v-242zM233 74v127q0 5 -5 3q-76 -36 -82 -40q-40 -26 -40 -65q0 -23 13 -42t35 -19q27 0 73 27q6 4 6 9zM306 490q0 -14 -10.5 -24.5t-25.5 -10.5q-14 0 -24.5 10.5t-10.5 24.5
q0 16 10.5 26t24.5 10q15 0 25.5 -10t10.5 -26zM146 490q0 -14 -10.5 -24.5t-25.5 -10.5t-25.5 10.5t-10.5 24.5q0 16 10.5 26t25.5 10t25.5 -10t10.5 -26z" />
    <glyph glyph-name="aring" unicode="&#xe5;" horiz-adv-x="378" 
d="M306 61q0 -35 23 -35q10 0 24 7q7 3 11 -4q6 -8 -2 -14q-25 -21 -66 -21q-23 0 -39.5 12.5t-20.5 34.5q-1 4 -6 1q-43 -26 -76 -40q-19 -8 -44 -8q-28 0 -50 30q-23 31 -23 67q0 50 59 80q21 11 71 32.5t61 26.5q5 2 5 11v58q0 69 -58 69q-51 0 -66 -29q-2 -4 -2 -22
q-1 -12 -15 -17q-12 -5 -31 -5q-14 0 -14 14q0 33 50 64t106 31q48 0 75.5 -25.5t27.5 -75.5v-242zM233 74v127q0 5 -5 3q-76 -36 -82 -40q-40 -26 -40 -65q0 -23 13 -42t35 -19q27 0 73 27q6 4 6 9zM249 517q0 -28 -19 -46t-46 -18t-45.5 18t-18.5 46q0 27 18.5 45t45.5 18
t46 -18t19 -45zM217 517q0 14 -10 23t-23 9q-12 0 -21.5 -9.5t-9.5 -22.5t9.5 -22.5t21.5 -9.5q13 0 23 9.5t10 22.5z" />
    <glyph glyph-name="ae" unicode="&#xe6;" 
d="M298 349q51 55 123 55q65 0 103 -42.5t40 -100.5q0 -11 -11 -11h-77.5h-103h-67.5q-5 0 -6 -4q-4 -12 -4 -31q0 -67 38 -116t109 -49q51 0 105 37q6 4 11 0q3 -1 5 -6q5 -6 -1 -14q-26 -27 -67.5 -50t-87.5 -23q-90 0 -138 65q-7 8 -14 2q-33 -26 -103 -59q-20 -9 -38 -9
q-20 0 -36 9q-15 7 -28 31.5t-13 44.5q0 53 58 84q22 12 72.5 34.5t55.5 24.5q5 3 5 11v64q0 32 -15 51t-44 19q-48 0 -64 -31q-3 -6 -3 -18q-1 -12 -14 -17q-7 -3 -27 -3q-14 0 -14 14q0 32 48 62.5t104 30.5q35 0 59.5 -14t32.5 -38q2 -8 7 -3zM493 287q0 34 -22 59.5
t-59 25.5q-35 0 -63.5 -26.5t-40.5 -62.5q-2 -7 2 -7q108 0 178 5q5 0 5 6zM249 90q-20 40 -20 101q0 5 -1 6t-4 -1q-68 -34 -79 -41q-40 -26 -40 -62q0 -22 13 -38.5t34 -16.5q29 0 92 41q8 5 5 11z" />
    <glyph glyph-name="ccedilla" unicode="&#xe7;" horiz-adv-x="404" 
d="M197 -5q-69 5 -114 58t-45 127q0 96 67 160t155 64q39 0 70 -11.5t43 -25.5q11 -13 11 -24q0 -14 -14 -28q-11 -11 -22 -11q-12 0 -29 18q-21 23 -38 32.5t-46 9.5q-51 0 -86.5 -42t-35.5 -118q0 -75 40 -116t98 -41q61 0 107 44q7 7 12 4q6 -3 9 -8q4 -7 -3 -16
q-59 -73 -154 -77q-6 -14 -20 -27q12 3 15 3q30 0 46.5 -17t16.5 -44q0 -25 -19.5 -43t-50.5 -18q-35 0 -57 22q-5 5 -2 12q4 9 11 5q25 -11 42 -11t27 9t10 24q0 32 -34 32q-11 0 -21 -3q-6 -2 -9 1q-7 7 -10 13q-2 4 7 12q14 12 23 31z" />
    <glyph glyph-name="egrave" unicode="&#xe8;" horiz-adv-x="411" 
d="M377 249q0 -11 -11 -11h-78.5h-104.5h-68q-5 0 -6 -4q-3 -10 -3 -31q0 -67 37 -111t110 -44q50 0 107 39q6 4 11 0q3 -1 5 -6q5 -8 -1 -14q-27 -27 -69.5 -50t-88.5 -23q-81 0 -130.5 53t-49.5 135q0 100 60 161t135 61q58 0 99.5 -40t45.5 -115zM304 275q0 43 -20 70
t-60 27q-39 0 -68.5 -26.5t-42.5 -74.5q-2 -7 2 -7q114 0 184 5q5 0 5 6zM264 458q0 -4 -5 -5q-3 -1 -8 1q-8 6 -51 34t-52 34q-18 13 -18 25q0 11 8.5 19.5t19.5 8.5q13 0 24 -12q60 -68 76 -88q8 -10 6 -17z" />
    <glyph glyph-name="eacute" unicode="&#xe9;" horiz-adv-x="411" 
d="M377 249q0 -11 -11 -11h-78.5h-104.5h-68q-5 0 -6 -4q-3 -10 -3 -31q0 -67 37 -111t110 -44q50 0 107 39q6 4 11 0q3 -1 5 -6q5 -8 -1 -14q-27 -27 -69.5 -50t-88.5 -23q-81 0 -130.5 53t-49.5 135q0 100 60 161t135 61q58 0 99.5 -40t45.5 -115zM304 275q0 43 -20 70
t-60 27q-39 0 -68.5 -26.5t-42.5 -74.5q-2 -7 2 -7q114 0 184 5q5 0 5 6zM295 550q0 -17 -17 -28q-7 -5 -27.5 -18.5t-40.5 -26.5t-36 -23q-3 -2 -7.5 -1.5t-6.5 2.5q-6 8 1 15t25 27t36 40.5t21 23.5q15 15 25 15q11 0 19 -6.5t8 -19.5z" />
    <glyph glyph-name="ecircumflex" unicode="&#xea;" horiz-adv-x="411" 
d="M377 249q0 -11 -11 -11h-78.5h-104.5h-68q-5 0 -6 -4q-3 -10 -3 -31q0 -67 37 -111t110 -44q50 0 107 39q6 4 11 0q3 -1 5 -6q5 -8 -1 -14q-27 -27 -69.5 -50t-88.5 -23q-81 0 -130.5 53t-49.5 135q0 100 60 161t135 61q58 0 99.5 -40t45.5 -115zM304 275q0 43 -20 70
t-60 27q-39 0 -68.5 -26.5t-42.5 -74.5q-2 -7 2 -7q114 0 184 5q5 0 5 6zM303 455q-5 3 -37 22.5t-45 27.5q-6 4 -12 0q-12 -7 -47 -28t-42 -25q-6 -4 -9 2q-1 6 3 11q4 4 21.5 24l38.5 44t26 29q8 10 13 10t14 -10q25 -28 86 -96q8 -8 4 -12.5t-14 1.5z" />
    <glyph glyph-name="edieresis" unicode="&#xeb;" horiz-adv-x="411" 
d="M377 249q0 -11 -11 -11h-78.5h-104.5h-68q-5 0 -6 -4q-3 -10 -3 -31q0 -67 37 -111t110 -44q50 0 107 39q6 4 11 0q3 -1 5 -6q5 -8 -1 -14q-27 -27 -69.5 -50t-88.5 -23q-81 0 -130.5 53t-49.5 135q0 100 60 161t135 61q58 0 99.5 -40t45.5 -115zM304 275q0 43 -20 70
t-60 27q-39 0 -68.5 -26.5t-42.5 -74.5q-2 -7 2 -7q114 0 184 5q5 0 5 6zM338 489q0 -14 -10.5 -24.5t-25.5 -10.5q-14 0 -24.5 10.5t-10.5 24.5q0 16 10.5 26t24.5 10q15 0 25.5 -10t10.5 -26zM178 489q0 -14 -10.5 -24.5t-25.5 -10.5t-25.5 10.5t-10.5 24.5q0 16 10.5 26
t25.5 10t25.5 -10t10.5 -26z" />
    <glyph glyph-name="igrave" unicode="&#xec;" horiz-adv-x="243" 
d="M231 6q0 -6 -5 -6q-63 3 -96 3q-44 0 -92 -3q-6 0 -6 5q0 1 -0.5 5.5t-0.5 7.5q0 5 7 6q25 3 53 8q5 1 5 11v242q0 24 -9.5 33.5t-35.5 14.5q-11 0 -11 12q0 13 13 13q32 1 56 10q29 13 41 32q3 5 11 5q10 0 10 -13q0 -4 -2 -24t-2 -33v-292q0 -10 7 -11q20 -4 52 -8
q5 -1 5 -7v-11zM165 457q0 -4 -5 -5q-3 -1 -8 1q-8 6 -51 34t-52 34q-18 13 -18 25q0 11 8.5 19.5t19.5 8.5q13 0 24 -12q60 -68 76 -88q8 -10 6 -17z" />
    <glyph glyph-name="iacute" unicode="&#xed;" horiz-adv-x="243" 
d="M231 6q0 -6 -5 -6q-63 3 -96 3q-44 0 -92 -3q-6 0 -6 5q0 1 -0.5 5.5t-0.5 7.5q0 5 7 6q25 3 53 8q5 1 5 11v242q0 24 -9.5 33.5t-35.5 14.5q-11 0 -11 12q0 13 13 13q32 1 56 10q29 13 41 32q3 5 11 5q10 0 10 -13q0 -4 -2 -24t-2 -33v-292q0 -10 7 -11q20 -4 52 -8
q5 -1 5 -7v-11zM206 550q0 -17 -17 -28q-7 -5 -27.5 -18.5t-40.5 -26.5t-36 -23q-3 -2 -7.5 -1.5t-6.5 2.5q-6 8 1 15t25 27t36 40.5t21 23.5q15 15 25 15q11 0 19 -6.5t8 -19.5z" />
    <glyph glyph-name="icircumflex" unicode="&#xee;" horiz-adv-x="243" 
d="M231 6q0 -6 -5 -6q-63 3 -96 3q-44 0 -92 -3q-6 0 -6 5q0 1 -0.5 5.5t-0.5 7.5q0 5 7 6q25 3 53 8q5 1 5 11v242q0 24 -9.5 33.5t-35.5 14.5q-11 0 -11 12q0 13 13 13q32 1 56 10q29 13 41 32q3 5 11 5q10 0 10 -13q0 -4 -2 -24t-2 -33v-292q0 -10 7 -11q20 -4 52 -8
q5 -1 5 -7v-11zM202 455q-5 3 -37 22.5t-45 27.5q-6 4 -12 0q-12 -7 -47 -28t-42 -25q-6 -4 -9 2q-1 6 3 11q4 4 21.5 24l38.5 44t26 29q8 10 13 10t14 -10q25 -28 86 -96q8 -8 4 -12.5t-14 1.5z" />
    <glyph glyph-name="idieresis" unicode="&#xef;" horiz-adv-x="243" 
d="M231 6q0 -6 -5 -6q-63 3 -96 3q-44 0 -92 -3q-6 0 -6 5q0 1 -0.5 5.5t-0.5 7.5q0 5 7 6q25 3 53 8q5 1 5 11v242q0 24 -9.5 33.5t-35.5 14.5q-11 0 -11 12q0 13 13 13q32 1 56 10q29 13 41 32q3 5 11 5q10 0 10 -13q0 -4 -2 -24t-2 -33v-292q0 -10 7 -11q20 -4 52 -8
q5 -1 5 -7v-11zM237 489q0 -14 -10.5 -24.5t-25.5 -10.5q-14 0 -24.5 10.5t-10.5 24.5q0 16 10.5 26t24.5 10q15 0 25.5 -10t10.5 -26zM77 489q0 -14 -10.5 -24.5t-25.5 -10.5t-25.5 10.5t-10.5 24.5q0 16 10.5 26t25.5 10t25.5 -10t10.5 -26z" />
    <glyph glyph-name="eth" unicode="&#xf0;" horiz-adv-x="448" 
d="M334 216q0 104 -13 120q-27 27 -81 27q-57 0 -96.5 -44t-39.5 -118q0 -75 34 -119t93 -44q103 0 103 178zM293 538q-67 -32 -72 -35q-6 -3 -10 2q-8 12 -9 19q-1 5 5 9q22 9 70 31q-39 52 -96 52q-48 0 -96 -42q-5 -4 -10 1q-7 6 -14 24q-2 5 2 11q17 16 48.5 28.5
t57.5 12.5q99 0 155 -64l56 27q7 3 8 -1q1 -2 4.5 -10t3.5 -9q2 -6 -7 -11q-2 -1 -8.5 -4t-17.5 -8t-21 -10q59 -92 59 -300q0 -107 -11 -152q-23 -41 -74 -77.5t-116 -36.5q-72 0 -120.5 54t-48.5 139q0 95 63 153.5t146 58.5q48 0 90 -20q-2 91 -37 158z" />
    <glyph glyph-name="ntilde" unicode="&#xf1;" horiz-adv-x="522" 
d="M436 286v-246q0 -6 10 -8q21 -5 46 -8q7 -1 7 -7l-1 -5v-7q0 -5 -7 -5q-36 3 -88 3q-59 0 -93 -3q-6 0 -7 5v12q0 6 7 7q16 2 46 7q7 1 7 7v223q0 88 -88 88q-49 0 -100 -34q-5 -3 -5 -8v-261q0 -12 8 -14q30 -7 45 -8q8 0 8 -7v-11q0 -6 -7 -6q-45 3 -90 3q-50 0 -92 -3
q-5 0 -6 5q-2 4 0 12q2 7 6 7q9 1 46 8q9 2 9 15v237q0 26 -9.5 36.5t-34.5 11.5q-4 0 -7 3q-9 9 1 19q3 3 7 3q66 7 97 39q9 9 13 9q7 0 7 -11q0 -3 -0.5 -21.5t-0.5 -26.5q0 -5 4 -3q78 61 154 61q51 0 79.5 -32.5t28.5 -85.5zM377 508q5 -5 -2 -16q-28 -38 -64 -38
q-19 0 -58 14q-34 13 -57 13q-17 0 -28 -10q-11 -9 -15 -4q-5 5 3 16q28 37 64 37q28 0 59 -10q45 -15 54 -15q13 0 30 10q10 7 14 3z" />
    <glyph glyph-name="ograve" unicode="&#xf2;" horiz-adv-x="480" 
d="M444 198q0 -85 -57 -144.5t-147 -59.5t-147 59t-57 145q0 84 59 145t145 61t145 -60t59 -146zM364 198q0 77 -32.5 125t-91.5 48t-91.5 -48t-32.5 -125t32 -125t92 -48q61 0 92.5 49t31.5 124zM294 458q0 -4 -5 -5q-3 -1 -8 1q-8 6 -51 34t-52 34q-18 13 -18 25
q0 11 8.5 19.5t19.5 8.5q13 0 24 -12q60 -68 76 -88q8 -10 6 -17z" />
    <glyph glyph-name="oacute" unicode="&#xf3;" horiz-adv-x="480" 
d="M444 198q0 -85 -57 -144.5t-147 -59.5t-147 59t-57 145q0 84 59 145t145 61t145 -60t59 -146zM364 198q0 77 -32.5 125t-91.5 48t-91.5 -48t-32.5 -125t32 -125t92 -48q61 0 92.5 49t31.5 124zM304 550q0 -17 -17 -28q-7 -5 -27.5 -18.5t-40.5 -26.5t-36 -23
q-3 -2 -7.5 -1.5t-6.5 2.5q-6 8 1 15t25 27t36 40.5t21 23.5q15 15 25 15q11 0 19 -6.5t8 -19.5z" />
    <glyph glyph-name="ocircumflex" unicode="&#xf4;" horiz-adv-x="480" 
d="M444 198q0 -85 -57 -144.5t-147 -59.5t-147 59t-57 145q0 84 59 145t145 61t145 -60t59 -146zM364 198q0 77 -32.5 125t-91.5 48t-91.5 -48t-32.5 -125t32 -125t92 -48q61 0 92.5 49t31.5 124zM320 455q-5 3 -37 22.5t-45 27.5q-6 4 -12 0q-12 -7 -47 -28t-42 -25
q-6 -4 -9 2q-1 6 3 11q4 4 21.5 24l38.5 44t26 29q8 10 13 10t14 -10q25 -28 86 -96q8 -8 4 -12.5t-14 1.5z" />
    <glyph glyph-name="otilde" unicode="&#xf5;" horiz-adv-x="480" 
d="M444 198q0 -85 -57 -144.5t-147 -59.5t-147 59t-57 145q0 84 59 145t145 61t145 -60t59 -146zM364 198q0 77 -32.5 125t-91.5 48t-91.5 -48t-32.5 -125t32 -125t92 -48q61 0 92.5 49t31.5 124zM347 508q5 -5 -2 -16q-28 -38 -64 -38q-19 0 -58 14q-34 13 -57 13
q-17 0 -28 -10q-11 -9 -15 -4q-5 5 3 16q28 37 64 37q28 0 59 -10q45 -15 54 -15q13 0 30 10q10 7 14 3z" />
    <glyph glyph-name="odieresis" unicode="&#xf6;" horiz-adv-x="480" 
d="M444 198q0 -85 -57 -144.5t-147 -59.5t-147 59t-57 145q0 84 59 145t145 61t145 -60t59 -146zM364 198q0 77 -32.5 125t-91.5 48t-91.5 -48t-32.5 -125t32 -125t92 -48q61 0 92.5 49t31.5 124zM353 489q0 -14 -10.5 -24.5t-25.5 -10.5q-14 0 -24.5 10.5t-10.5 24.5
q0 16 10.5 26t24.5 10q15 0 25.5 -10t10.5 -26zM193 489q0 -14 -10.5 -24.5t-25.5 -10.5t-25.5 10.5t-10.5 24.5q0 16 10.5 26t25.5 10t25.5 -10t10.5 -26z" />
    <glyph glyph-name="divide" unicode="&#xf7;" 
d="M418 394q-31 -5 -41 4q-9 8 -4 41q3 18 -7 29q-6 7 -17 7q-4 1 -1 5q15 9 31 -6q15 -13 15 -40q37 65 8 94q-14 14 -25 2q-13 -12 -2 -23q5 9 14 2q8 -6 0 -14q-11 -11 -22 2q-23 25 0 48q13 14 30.5 8t24.5 -27q4 21 18 33q14 13 33.5 16.5t35.5 -4.5q12 -6 1 -9
q-21 -8 -39 -26q-39 -39 -65 -109q68 24 109 65q18 18 26 39q3 11 9 -1q8 -16 4.5 -35.5t-16.5 -33.5q-12 -13 -33 -18q21 -7 27 -24.5t-8 -30.5q-23 -23 -48 0q-13 11 -2 22q6 6 14 0q10 -7 -2 -14q10 -10 23 2q11 12 -2 25q-29 29 -94 -8q27 0 40 -15q15 -16 6 -31
q-3 -3 -5 1q0 11 -7 17q-11 10 -29 7zM180 394q-18 3 -29 -7q-7 -6 -7 -17q-1 -4 -5 -1q-9 15 6 31q13 15 40 15q-65 37 -94 8q-13 -13 -2 -25q13 -12 23 -2q-12 7 -2 14q8 6 14 0q11 -11 -2 -22q-25 -23 -48 0q-14 13 -8 30.5t27 24.5q-21 5 -33 18q-13 14 -16.5 33.5
t4.5 35.5q6 12 9 1q8 -21 26 -39q41 -41 109 -65q-26 70 -65 109q-18 18 -39 26q-11 3 1 9q16 8 35.5 4.5t33.5 -16.5q14 -12 18 -33q7 21 24.5 27t30.5 -8q23 -23 0 -48q-11 -13 -22 -2q-8 8 0 14q9 7 14 -2q11 11 -2 23q-11 12 -25 -2q-29 -29 8 -94q0 27 15 40
q16 15 31 6q3 -3 -1 -5q-11 0 -17 -7q-10 -11 -7 -29q5 -33 -4 -41q-10 -9 -41 -4zM404 321q-38 -25 -59 -46q-19 -19 -46 -58q-27 36 -49 58q-25 25 -58 49q34 22 59 46q21 20 46 58q21 -31 49 -57q33 -31 58 -50zM418 248q18 -3 29 7q7 6 7 17q1 4 5 1q9 -15 -6 -31
q-13 -15 -40 -15q65 -37 94 -8q13 13 2 25q-13 12 -23 2q12 -7 2 -14q-8 -6 -14 0q-11 11 2 22q25 23 48 0q14 -13 8 -30.5t-27 -24.5q21 -5 33 -18q13 -14 16.5 -33.5t-4.5 -35.5q-6 -12 -9 -1q-8 21 -26 39q-41 41 -109 65q26 -70 65 -109q18 -18 39 -26q11 -3 -1 -9
q-16 -8 -35.5 -4.5t-33.5 16.5q-14 12 -18 33q-7 -21 -24.5 -27t-30.5 8q-23 23 0 48q11 13 22 2q8 -8 0 -14q-9 -7 -14 2q-11 -11 2 -23q11 -12 25 2q29 29 -8 94q0 -26 -15 -40q-16 -15 -31 -6q-3 3 1 5q11 0 17 7q10 11 7 29q-5 33 4 41q10 9 41 4zM180 248q31 5 41 -4
q9 -8 4 -41q-3 -18 7 -29q6 -7 17 -7q4 -1 1 -5q-15 -9 -31 6q-15 14 -15 40q-37 -65 -8 -94q14 -14 25 -2q13 12 2 23q-5 -9 -14 -2q-8 6 0 14q11 11 22 -2q23 -25 0 -48q-13 -14 -30.5 -8t-24.5 27q-4 -21 -18 -33q-14 -13 -33.5 -16.5t-35.5 4.5q-12 6 -1 9q21 8 39 26
q39 39 65 109q-68 -24 -109 -65q-18 -18 -26 -39q-3 -11 -9 1q-8 16 -4.5 35.5t16.5 33.5q12 13 33 18q-21 7 -27 24.5t8 30.5q23 23 48 0q13 -11 2 -22q-6 -6 -14 0q-10 7 2 14q-10 10 -23 -2q-11 -12 2 -25q29 -29 94 8q-27 0 -40 15q-15 16 -6 31q3 3 5 -1q0 -11 7 -17
q11 -10 29 -7zM334 367q-23 23 -29 33q-14 -27 -34 -43l27 -27zM375 330q-12 6 -34 28l-36 -35l27 -26q30 25 43 33zM291 323l-27 26q-16 -16 -44 -34q20 -11 35 -27zM324 288l-27 27l-34 -35q20 -21 28 -34q5 12 33 42z" />
    <glyph glyph-name="oslash" unicode="&#xf8;" horiz-adv-x="480" 
d="M315 343q-15 -35 -59 -142t-68 -164q22 -12 52 -12q61 0 92.5 49t31.5 124q0 98 -49 145zM165 53q65 155 126 306q-23 12 -51 12q-59 0 -91.5 -48t-32.5 -125q0 -99 49 -145zM149 13q-53 26 -83 75t-30 110q0 84 59 145t145 61q32 0 65 -10q7 13 11 25q5 11 9 14q3 2 9 0
q9 -3 12 -7q2 -3 -4 -17q-2 -2 -11 -26q51 -25 82 -75t31 -110q0 -85 -57 -144.5t-147 -59.5q-35 0 -65 9l-18 -42q-6 -11 -11 -11q-7 0 -16 7q-4 3 2 16q0 1 2 6t6.5 14.5t8.5 19.5z" />
    <glyph glyph-name="ugrave" unicode="&#xf9;" horiz-adv-x="513" 
d="M426 44q0 -9 6 -9q32 3 44 4q7 1 9 -5q1 -2 1 -13q0 -7 -8 -8q-15 -1 -57 -8q-43 -6 -58 -11q-10 -1 -10 8v41q0 6 -5 3q-77 -53 -148 -53q-49 0 -79.5 30.5t-30.5 85.5v239q0 10 -8 10q-6 1 -20 3t-23 3q-8 1 -8 7q0 8 1 11q2 6 10 6q10 0 29 -0.5t28 -0.5q10 0 29 1
t25 1t7.5 -2t1.5 -9v-252q0 -84 87 -84q51 0 99 32q5 3 5 13v261q0 7 -6 8q-35 7 -46 8q-10 1 -10 6q0 7 2 13q2 5 6 5q18 -1 69 -1q8 0 26 1t23 1q9 0 9 -10v-335zM303 458q0 -4 -5 -5q-3 -1 -8 1q-8 6 -51 34t-52 34q-18 13 -18 25q0 11 8.5 19.5t19.5 8.5q13 0 24 -12
q60 -68 76 -88q8 -10 6 -17z" />
    <glyph glyph-name="uacute" unicode="&#xfa;" horiz-adv-x="513" 
d="M426 44q0 -9 6 -9q32 3 44 4q7 1 9 -5q1 -2 1 -13q0 -7 -8 -8q-15 -1 -57 -8q-43 -6 -58 -11q-10 -1 -10 8v41q0 6 -5 3q-77 -53 -148 -53q-49 0 -79.5 30.5t-30.5 85.5v239q0 10 -8 10q-6 1 -20 3t-23 3q-8 1 -8 7q0 8 1 11q2 6 10 6q10 0 29 -0.5t28 -0.5q10 0 29 1
t25 1t7.5 -2t1.5 -9v-252q0 -84 87 -84q51 0 99 32q5 3 5 13v261q0 7 -6 8q-35 7 -46 8q-10 1 -10 6q0 7 2 13q2 5 6 5q18 -1 69 -1q8 0 26 1t23 1q9 0 9 -10v-335zM317 550q0 -17 -17 -28q-7 -5 -27.5 -18.5t-40.5 -26.5t-36 -23q-3 -2 -7.5 -1.5t-6.5 2.5q-6 8 1 15t25 27
t36 40.5t21 23.5q15 15 25 15q11 0 19 -6.5t8 -19.5z" />
    <glyph glyph-name="ucircumflex" unicode="&#xfb;" horiz-adv-x="513" 
d="M426 44q0 -9 6 -9q32 3 44 4q7 1 9 -5q1 -2 1 -13q0 -7 -8 -8q-15 -1 -57 -8q-43 -6 -58 -11q-10 -1 -10 8v41q0 6 -5 3q-77 -53 -148 -53q-49 0 -79.5 30.5t-30.5 85.5v239q0 10 -8 10q-6 1 -20 3t-23 3q-8 1 -8 7q0 8 1 11q2 6 10 6q10 0 29 -0.5t28 -0.5q10 0 29 1
t25 1t7.5 -2t1.5 -9v-252q0 -84 87 -84q51 0 99 32q5 3 5 13v261q0 7 -6 8q-35 7 -46 8q-10 1 -10 6q0 7 2 13q2 5 6 5q18 -1 69 -1q8 0 26 1t23 1q9 0 9 -10v-335zM329 455q-5 3 -37 22.5t-45 27.5q-6 4 -12 0q-12 -7 -47 -28t-42 -25q-6 -4 -9 2q-1 6 3 11q4 4 21.5 24
l38.5 44t26 29q8 10 13 10t14 -10q25 -28 86 -96q8 -8 4 -12.5t-14 1.5z" />
    <glyph glyph-name="udieresis" unicode="&#xfc;" horiz-adv-x="513" 
d="M426 44q0 -9 6 -9q32 3 44 4q7 1 9 -5q1 -2 1 -13q0 -7 -8 -8q-15 -1 -57 -8q-43 -6 -58 -11q-10 -1 -10 8v41q0 6 -5 3q-77 -53 -148 -53q-49 0 -79.5 30.5t-30.5 85.5v239q0 10 -8 10q-6 1 -20 3t-23 3q-8 1 -8 7q0 8 1 11q2 6 10 6q10 0 29 -0.5t28 -0.5q10 0 29 1
t25 1t7.5 -2t1.5 -9v-252q0 -84 87 -84q51 0 99 32q5 3 5 13v261q0 7 -6 8q-35 7 -46 8q-10 1 -10 6q0 7 2 13q2 5 6 5q18 -1 69 -1q8 0 26 1t23 1q9 0 9 -10v-335zM363 490q0 -14 -10.5 -24.5t-25.5 -10.5q-14 0 -24.5 10.5t-10.5 24.5q0 16 10.5 26t24.5 10q15 0 25.5 -10
t10.5 -26zM203 490q0 -14 -10.5 -24.5t-25.5 -10.5t-25.5 10.5t-10.5 24.5q0 16 10.5 26t25.5 10t25.5 -10t10.5 -26z" />
    <glyph glyph-name="yacute" unicode="&#xfd;" horiz-adv-x="445" 
d="M441 368q0 -4 -8 -5q-21 -3 -27 -4q-8 -1 -12 -12q-78 -183 -130 -319q-12 -30 -91 -219q-35 -84 -88 -84q-21 0 -33 11t-12 28t13 27.5t33 10.5q10 0 28 -7q7 -4 11 -2t9 13q65 139 81 182q2 7 -2 16q-134 294 -154 342q-4 9 -12 11q-7 2 -19 4.5t-17 3.5q-5 2 -5 5
q0 10 2 16q1 3 5 3q64 -2 82 -2q51 0 89 2q7 0 8 -2q4 -6 4 -15q0 -4 -3 -5q-10 -2 -47 -9q-9 -1 -5 -11q11 -26 50.5 -118t60.5 -142l1 -2q2 -5 2.5 -4.5t3.5 6.5q41 111 84 258q3 11 -6 12q-1 0 -17.5 2.5t-29.5 4.5q-7 1 -7 7q0 10 2 14q3 4 9 4q66 -3 78 -3q14 0 59 3
q8 0 9 -5q1 -4 1 -16zM321 549q0 -17 -17 -28q-7 -5 -27.5 -18.5t-40.5 -26.5t-36 -23q-3 -2 -7.5 -1.5t-6.5 2.5q-6 8 1 15t25 27t36 40.5t21 23.5q15 15 25 15q11 0 19 -6.5t8 -19.5z" />
    <glyph glyph-name="thorn" unicode="&#xfe;" horiz-adv-x="495" 
d="M386 198q0 70 -38 113.5t-96 43.5q-49 0 -85 -21q-9 -5 -9 -16v-253q0 -5 4 -8q37 -26 90 -26q60 0 97 47t37 120zM463 221q0 -95 -61.5 -160t-148.5 -65q-56 0 -90 21q-2 2 -3.5 0.5t-1.5 -5.5v-242q0 -14 7 -15q12 -2 61 -7q6 0 6 -5q0 -11 -1 -15q-1 -5 -5 -5
q-56 2 -101 2q-65 0 -101 -2q-5 0 -6 5q-1 2 -1 7t1 7q2 6 6 6q17 2 54 7q7 1 7 15v771q0 34 -9 45.5t-35 16.5q-10 1 -12 9q-1 3 1 8q2 6 9 6q61 7 102 52q5 6 11 4t6 -8v-310q0 -6 5 -4q65 43 132 43q77 0 122.5 -52.5t45.5 -129.5z" />
    <glyph glyph-name="ydieresis" unicode="&#xff;" horiz-adv-x="445" 
d="M441 368q0 -4 -8 -5q-21 -3 -27 -4q-8 -1 -12 -12q-78 -183 -130 -319q-12 -30 -91 -219q-35 -84 -88 -84q-21 0 -33 11t-12 28t13 27.5t33 10.5q10 0 28 -7q7 -4 11 -2t9 13q65 139 81 182q2 7 -2 16q-134 294 -154 342q-4 9 -12 11q-7 2 -19 4.5t-17 3.5q-5 2 -5 5
q0 10 2 16q1 3 5 3q64 -2 82 -2q51 0 89 2q7 0 8 -2q4 -6 4 -15q0 -4 -3 -5q-10 -2 -47 -9q-9 -1 -5 -11q11 -26 50.5 -118t60.5 -142l1 -2q2 -5 2.5 -4.5t3.5 6.5q41 111 84 258q3 11 -6 12q-1 0 -17.5 2.5t-29.5 4.5q-7 1 -7 7q0 10 2 14q3 4 9 4q66 -3 78 -3q14 0 59 3
q8 0 9 -5q1 -4 1 -16zM359 488q0 -14 -10.5 -24.5t-25.5 -10.5q-14 0 -24.5 10.5t-10.5 24.5q0 16 10.5 26t24.5 10q15 0 25.5 -10t10.5 -26zM199 488q0 -14 -10.5 -24.5t-25.5 -10.5t-25.5 10.5t-10.5 24.5q0 16 10.5 26t25.5 10t25.5 -10t10.5 -26z" />
    <glyph glyph-name="dotlessi" unicode="&#x131;" horiz-adv-x="243" 
d="M231 6q0 -6 -5 -6q-63 3 -96 3q-44 0 -92 -3q-6 0 -6 5q0 1 -0.5 5.5t-0.5 7.5q0 5 7 6q25 3 53 8q5 1 5 11v242q0 24 -9.5 33.5t-35.5 14.5q-11 0 -11 12q0 13 13 13q32 1 56 10q29 13 41 32q3 5 11 5q10 0 10 -13q0 -4 -2 -24t-2 -33v-292q0 -10 7 -11q20 -4 52 -8
q5 -1 5 -7v-11z" />
    <glyph glyph-name="Lslash" unicode="&#x141;" horiz-adv-x="565" 
d="M207 277v-232q0 -4 0.5 -5.5t2.5 -2.5t7 -1q159 0 260 14q8 1 16 12q17 24 47 64q4 6 10 4q7 -3 13 -10q3 -3 0 -8q-9 -14 -55 -105q-4 -6 -11 -6q-71 0 -184.5 2t-147.5 2q-25 0 -63.5 -2.5t-53.5 -2.5q-8 0 -8 4v17q0 5 6 6q7 1 31.5 4t36.5 4q8 1 8 10v208
q-25 -7 -38 -11q-28 -9 -39 -6t-7 16q3 8 20 13q8 3 29.5 9.5t34.5 10.5v311q0 10 -7 11q-11 1 -39.5 5t-34.5 5q-9 1 -9 6q0 2 3 14q1 5 7 5q86 -4 123 -4q24 0 72.5 2t59.5 2q6 0 7 -4q2 -6 2 -15q0 -5 -8 -6q-48 -5 -83 -10q-8 -1 -8 -10v-285q84 27 93 30q37 13 36 4v-3
q-6 -22 -8 -26q-4 -8 -41 -18q-17 -4 -80 -22z" />
    <glyph glyph-name="lslash" unicode="&#x142;" horiz-adv-x="253" 
d="M167 275v-232q0 -10 7 -11q42 -7 51 -8q6 0 6 -5q0 -12 -1 -16q-2 -3 -6 -3q-40 3 -91 3q-59 0 -94 -3q-6 0 -6 4q0 2 -0.5 7.5t-0.5 6.5q0 4 6 6q35 5 50 8q7 1 7 11v212q-5 -1 -10 -2.5t-8.5 -2.5t-4.5 -1q-34 -9 -39 -6q-11 4 -8 14q3 8 22 14l48 16v307q0 10 -6 12
q-20 9 -31 15q-6 4 -6 7q0 5 7 7q55 21 99 41q9 4 9 -5v-361q8 3 18.5 6t16 5t7.5 3q33 10 33 1v-2q-2 -12 -7 -23q-3 -6 -9 -8.5t-32 -9.5q-5 -3 -27 -7z" />
    <glyph glyph-name="OE" unicode="&#x152;" horiz-adv-x="952" 
d="M922 130q-38 -110 -42 -125q-1 -6 -3 -7t-10 -1q-13 0 -86.5 1.5t-155.5 3t-100 1.5q-25 0 -36 -2q-3 0 -9 -0.5t-9 -1.5q-37 -8 -87 -8q-155 0 -249.5 99.5t-94.5 240.5q0 62 22.5 121.5t64.5 109t109 79.5t148 30q60 0 97 -9q16 -4 18 -4q1 0 13.5 -0.5t21.5 -0.5
q25 0 169 3t158 3q3 0 4.5 -0.5t2 -2t1.5 -5.5q19 -72 35 -114q2 -6 -1 -7q-9 -6 -13 -6q-4 -2 -7 5q-13 28 -34 77q-3 9 -22 11q-110 12 -226 12q-9 0 -11 -2.5t-2 -12.5v-256q0 -8 1.5 -10t6.5 -2q82 0 212 14q8 1 9 10q6 34 12 64q1 7 6 7h7q5 0 4 -12q-5 -90 -5 -96
q0 -15 0.5 -33.5t2 -38t1.5 -27.5q0 -5 -1 -6q-3 -3 -11 -3q-5 0 -6 6q-8 38 -11 79q0 3 -0.5 4t-1.5 2.5t-2.5 1.5h-5.5q-105 5 -209 5q-6 0 -7.5 -1.5t-1.5 -9.5v-275q0 -6 1.5 -7.5t6.5 -1.5h46q76 0 206 12q12 1 18 14q20 45 37 78q3 6 8 5l4 -1q4 -2 5 -3q3 -2 2 -7z
M493 63v538q0 6 -5 9q-40 28 -104 28q-110 0 -174.5 -89.5t-64.5 -217.5q0 -131 60.5 -218.5t178.5 -87.5q63 0 103 26q6 4 6 12z" />
    <glyph glyph-name="oe" unicode="&#x153;" horiz-adv-x="737" 
d="M630 286q0 34 -22 60t-58 26t-64 -26.5t-41 -63.5q-2 -7 2 -7q108 0 178 5q5 0 5 6zM363 198q0 75 -32.5 123t-90.5 48q-59 0 -91.5 -48t-32.5 -123t31.5 -123t91.5 -48q61 0 92.5 48t31.5 123zM394 65q-66 -71 -155 -71t-146 59t-57 145q0 84 59 145t145 61
q100 0 161 -82q4 -6 9 1q62 81 149 81q66 0 103.5 -42.5t39.5 -101.5q0 -11 -11 -11h-247q-7 0 -7 -4q-5 -17 -5 -31q0 -67 38.5 -115.5t109.5 -48.5q52 0 104 37q6 4 12 0q5 -2 6 -6q4 -9 -1 -14q-27 -27 -69 -50t-87 -23q-92 0 -143 71q-3 5 -8 0z" />
    <glyph glyph-name="Scaron" unicode="&#x160;" horiz-adv-x="470" 
d="M414 179q0 -79 -57 -133.5t-148 -54.5q-88 0 -147 34q-7 5 -7 10q-3 38 -13 97q-2 7 3 9q6 3 16 3q4 0 7 -9q15 -45 25 -65q2 -8 9 -13q38 -32 103 -32q61 0 96 34.5t35 88.5q0 39 -18.5 66t-58.5 56q-87 64 -110 80q-89 60 -89 138q0 65 51.5 114t151.5 49q55 0 105 -18
q8 -2 10 -14q2 -7 18 -85q2 -8 -1 -9q-12 -4 -16 -4q-5 0 -7 6q-10 31 -22 54q-3 5 -8 9q-35 26 -94 26q-53 0 -83.5 -26.5t-30.5 -67.5q0 -29 17 -53.5t62 -56.5q10 -7 52 -35.5t57 -39.5q49 -37 70.5 -73.5t21.5 -84.5zM342 791q-7 -7 -44 -48.5t-47 -52.5q-7 -7 -10.5 -7
t-10.5 7q-85 95 -90 101q-6 6 -2.5 10.5t10.5 0.5q3 -2 23 -13.5t39.5 -23t28.5 -16.5q4 -2 7 0q78 47 89 53q4 3 7 1.5t3.5 -5t-3.5 -7.5z" />
    <glyph glyph-name="scaron" unicode="&#x161;" horiz-adv-x="323" 
d="M285 115q0 -50 -38.5 -85t-95.5 -35q-56 0 -92 16q-8 3 -8 10q-2 23 -9 72q-1 10 4 12q8 2 10 2q4 0 7 -7q11 -33 19 -45q5 -7 9 -12q22 -20 60 -20q32 0 52.5 19t20.5 45q0 19 -8.5 31t-29.5 28q-5 4 -19.5 14t-34.5 24l-30 21q-52 36 -52 90q0 46 35.5 77.5t86.5 31.5
q39 0 81 -14q7 -2 8 -11q5 -57 6 -64q1 -8 -6 -11h-3q-3 -1 -4 -1q-6 0 -8 9q-3 13 -11 32q-4 8 -10 13q-24 19 -58 19q-30 0 -46.5 -15.5t-16.5 -36.5q0 -17 10.5 -28.5t36.5 -28.5q62 -41 71 -47q63 -45 63 -105zM264 568q-7 -7 -44 -48.5t-47 -52.5q-7 -7 -10.5 -7
t-10.5 7q-85 95 -90 101q-6 6 -2.5 10.5t10.5 0.5q3 -2 23 -13.5t39.5 -23t28.5 -16.5q4 -2 7 0q78 47 89 53q4 3 7 1.5t3.5 -5t-3.5 -7.5z" />
    <glyph glyph-name="Ydieresis" unicode="&#x178;" horiz-adv-x="637" 
d="M630 624q0 -6 -8 -7q-3 -1 -22 -4.5t-29 -5.5q-9 -2 -14 -9q-99 -152 -190 -285q-5 -7 -5 -20v-247q0 -10 11 -11q8 0 77 -7q8 -1 8 -7q0 -2 -2 -16q-1 -5 -5 -5q-48 4 -127 4q-86 0 -129 -4q-4 0 -7 4q-2 2 -2 16q0 6 6 6q4 1 80 9q7 1 7 11v244q0 11 -7 21
q-78 119 -189 283q-6 11 -17 13q-41 9 -52 10q-7 2 -7 7q0 6 2 14q1 4 10 4q53 -3 102 -3q87 0 129 3q7 0 8 -4q1 -3 1 -15q0 -6 -6 -6q-44 -4 -68 -9q-9 -2 -2 -13q81 -123 160 -247q6 -10 12 0q76 120 139 244q7 14 -3 15q-11 2 -34.5 5t-28.5 4q-7 1 -7 6q0 7 3 16
q1 4 8 4q99 -3 100 -3q31 0 91 3q8 0 8 -4q0 -3 -0.5 -8t-0.5 -6zM459 720q0 -14 -10.5 -24.5t-25.5 -10.5q-14 0 -24.5 10.5t-10.5 24.5q0 16 10.5 26t24.5 10q15 0 25.5 -10t10.5 -26zM299 720q0 -14 -10.5 -24.5t-25.5 -10.5t-25.5 10.5t-10.5 24.5q0 16 10.5 26t25.5 10
t25.5 -10t10.5 -26z" />
    <glyph glyph-name="Zcaron" unicode="&#x17d;" horiz-adv-x="598" 
d="M507 51q8 0 14 14q35 77 36 80q3 7 8 7q10 0 16 -6q3 -3 0 -12q-15 -45 -35 -125q-2 -9 -12 -9q-80 3 -420 3q-16 0 -45 -2t-38 -2q-19 0 -5 20q90 127 421 580q6 9 -3 9q-99 0 -337 -17q-6 0 -9 -7q-19 -42 -43 -92q-2 -6 -7 -6q-6 0 -13 5q-6 3 -3 13q26 78 40 141
q2 6 7 6h4q5 0 7 -4q4 -6 14 -6q69 0 252 0.5t202 0.5q17 0 6 -16q-63 -89 -146.5 -204.5t-166.5 -229t-109 -149.5q-6 -9 5 -9q53 0 120.5 3t149 8.5t90.5 5.5zM402 791q-7 -7 -44 -48.5t-47 -52.5q-7 -7 -10.5 -7t-10.5 7q-85 95 -90 101q-6 6 -2.5 10.5t10.5 0.5
q3 -2 23 -13.5t39.5 -23t28.5 -16.5q4 -2 7 0q78 47 89 53q4 3 7 1.5t3.5 -5t-3.5 -7.5z" />
    <glyph glyph-name="zcaron" unicode="&#x17e;" horiz-adv-x="412" 
d="M386 102q-3 -12 -17 -95q-1 -8 -12 -7q-15 1 -92 1q-24 0 -96 0.5t-87 0.5q-19 0 -51 -2q-3 0 -4 2.5t-0.5 6.5t3.5 8q108 150 143 196q21 28 58.5 75t49.5 63q5 7 -2 7q-86 0 -165 -9q-11 -1 -16 -8q-10 -13 -34 -50q-5 -7 -11 -6q-9 4 -11 6q-3 3 0 10q22 40 37 82
q2 6 13 6q10 0 72.5 -1t95.5 0h59t56 1q16 0 5 -16q-18 -25 -76 -100.5t-88 -117.5q-19 -27 -50 -68t-36 -47q-6 -9 3 -9q124 0 199 9q8 2 10 10l21 57q2 6 7 6q8 0 12 -2q5 -1 4 -9zM319 559q-7 -7 -44 -48.5t-47 -52.5q-7 -7 -10.5 -7t-10.5 7q-85 95 -90 101
q-6 6 -2.5 10.5t10.5 0.5q3 -2 23 -13.5t39.5 -23t28.5 -16.5q4 -2 7 0q78 47 89 53q4 3 7 1.5t3.5 -5t-3.5 -7.5z" />
    <glyph glyph-name="florin" unicode="&#x192;" horiz-adv-x="312" 
d="M120 -101q-10 -72 -50 -123.5t-83 -51.5q-15 0 -25.5 7.5t-10.5 18.5q0 14 11 21.5t27 7.5q20 0 30 -10q3 -3 7 0q15 15 22 73q47 358 53 410q0 4 -2 4q-3 0 -18 -0.5t-18 -0.5q-9 0 -9 7q0 12 2 18q2 8 10 8h38q2 0 2 4t3.5 28t4.5 31q7 73 47 123t85 50q16 0 24.5 -8
t8.5 -19q0 -29 -36 -29q-13 0 -33 12q-4 2 -6 0q-15 -16 -18 -76q-1 -14 -7.5 -56.5t-8.5 -59.5l-1 -1q12 0 38.5 0.5t27.5 0.5q5 0 6 -4v-3q1 -6 1 -20q0 -7 -8 -7l-28 1q-29 1 -37 1q-3 0 -3 -5q-1 -14 -46 -352z" />
    <glyph glyph-name="circumflex" unicode="&#x2c6;" horiz-adv-x="529" 
d="M348 463q-5 3 -37 22.5t-45 27.5q-6 4 -12 0q-12 -7 -47 -28t-42 -25q-6 -4 -9 2q-1 6 3 11q4 4 21.5 24l38.5 44t26 29q8 10 13 10t14 -10q25 -28 86 -96q8 -8 4 -12.5t-14 1.5z" />
    <glyph glyph-name="caron" unicode="&#x2c7;" horiz-adv-x="529" 
d="M361 568q-7 -7 -44 -48.5t-47 -52.5q-7 -7 -10.5 -7t-10.5 7q-85 95 -90 101q-6 6 -2.5 10.5t10.5 0.5q3 -2 23 -13.5t39.5 -23t28.5 -16.5q4 -2 7 0q78 47 89 53q4 3 7 1.5t3.5 -5t-3.5 -7.5z" />
    <glyph glyph-name="breve" unicode="&#x2d8;" horiz-adv-x="529" 
d="M260 506q27 0 49.5 14.5t33.5 39.5q0 6 5 6h10q8 0 6 -8q-6 -46 -35.5 -72t-68.5 -26q-36 0 -67 26t-37 72q-2 8 6 8h10q4 0 7 -5q9 -25 32.5 -40t48.5 -15z" />
    <glyph glyph-name="dotaccent" unicode="&#x2d9;" horiz-adv-x="529" 
d="M300 496q0 -15 -11.5 -26t-27.5 -11q-19 0 -29.5 10.5t-10.5 27.5q0 41 45 41q14 0 24 -11.5t10 -30.5z" />
    <glyph glyph-name="ring" unicode="&#x2da;" horiz-adv-x="529" 
d="M326 524q0 -28 -19 -46t-46 -18t-45.5 18t-18.5 46q0 27 18.5 45t45.5 18t46 -18t19 -45zM294 524q0 14 -10 23t-23 9q-12 0 -21.5 -9.5t-9.5 -22.5t9.5 -22.5t21.5 -9.5q13 0 23 9.5t10 22.5z" />
    <glyph glyph-name="ogonek" unicode="&#x2db;" horiz-adv-x="529" 
d="M253 2q-23 -23 -23 -51q0 -15 12 -27t32 -12q18 0 41 12q6 3 9 -1l3 -6q0 -5 -3 -8q-27 -29 -69 -29q-30 0 -49 17.5t-19 42.5q0 40 43 65q3 2 7 2h15q6 0 1 -5z" />
    <glyph glyph-name="tilde" unicode="&#x2dc;" horiz-adv-x="529" 
d="M377 515q5 -5 -2 -16q-28 -38 -64 -38q-19 0 -58 14q-34 13 -57 13q-17 0 -28 -10q-11 -9 -15 -4q-5 5 3 16q28 37 64 37q28 0 59 -10q45 -15 54 -15q13 0 30 10q10 7 14 3z" />
    <glyph glyph-name="hungarumlaut" unicode="&#x2dd;" horiz-adv-x="529" 
d="M278 564q0 -10 -16 -24q-11 -9 -51 -42t-42 -35q-8 -6 -13 -1q-6 6 2 16q1 1 71 96q10 15 25 15q9 0 16.5 -7.5t7.5 -17.5zM384 562q0 -12 -16 -25q-73 -58 -93 -74q-9 -8 -14 -1q-5 8 1 15q4 5 18 23.5t31.5 41t23.5 30.5q12 15 25 15q10 0 17 -7.5t7 -17.5z" />
    <glyph glyph-name="Delta" unicode="&#x394;" 
d="M418 394q-31 -5 -41 4q-9 8 -4 41q3 18 -7 29q-6 7 -17 7q-4 1 -1 5q15 9 31 -6q15 -13 15 -40q37 65 8 94q-14 14 -25 2q-13 -12 -2 -23q5 9 14 2q8 -6 0 -14q-11 -11 -22 2q-23 25 0 48q13 14 30.5 8t24.5 -27q4 21 18 33q14 13 33.5 16.5t35.5 -4.5q12 -6 1 -9
q-21 -8 -39 -26q-39 -39 -65 -109q68 24 109 65q18 18 26 39q3 11 9 -1q8 -16 4.5 -35.5t-16.5 -33.5q-12 -13 -33 -18q21 -7 27 -24.5t-8 -30.5q-23 -23 -48 0q-13 11 -2 22q6 6 14 0q10 -7 -2 -14q10 -10 23 2q11 12 -2 25q-29 29 -94 -8q27 0 40 -15q15 -16 6 -31
q-3 -3 -5 1q0 11 -7 17q-11 10 -29 7zM180 394q-18 3 -29 -7q-7 -6 -7 -17q-1 -4 -5 -1q-9 15 6 31q13 15 40 15q-65 37 -94 8q-13 -13 -2 -25q13 -12 23 -2q-12 7 -2 14q8 6 14 0q11 -11 -2 -22q-25 -23 -48 0q-14 13 -8 30.5t27 24.5q-21 5 -33 18q-13 14 -16.5 33.5
t4.5 35.5q6 12 9 1q8 -21 26 -39q41 -41 109 -65q-26 70 -65 109q-18 18 -39 26q-11 3 1 9q16 8 35.5 4.5t33.5 -16.5q14 -12 18 -33q7 21 24.5 27t30.5 -8q23 -23 0 -48q-11 -13 -22 -2q-8 8 0 14q9 7 14 -2q11 11 -2 23q-11 12 -25 -2q-29 -29 8 -94q0 27 15 40
q16 15 31 6q3 -3 -1 -5q-11 0 -17 -7q-10 -11 -7 -29q5 -33 -4 -41q-10 -9 -41 -4zM404 321q-38 -25 -59 -46q-19 -19 -46 -58q-27 36 -49 58q-25 25 -58 49q34 22 59 46q21 20 46 58q21 -31 49 -57q33 -31 58 -50zM418 248q18 -3 29 7q7 6 7 17q1 4 5 1q9 -15 -6 -31
q-13 -15 -40 -15q65 -37 94 -8q13 13 2 25q-13 12 -23 2q12 -7 2 -14q-8 -6 -14 0q-11 11 2 22q25 23 48 0q14 -13 8 -30.5t-27 -24.5q21 -5 33 -18q13 -14 16.5 -33.5t-4.5 -35.5q-6 -12 -9 -1q-8 21 -26 39q-41 41 -109 65q26 -70 65 -109q18 -18 39 -26q11 -3 -1 -9
q-16 -8 -35.5 -4.5t-33.5 16.5q-14 12 -18 33q-7 -21 -24.5 -27t-30.5 8q-23 23 0 48q11 13 22 2q8 -8 0 -14q-9 -7 -14 2q-11 -11 2 -23q11 -12 25 2q29 29 -8 94q0 -26 -15 -40q-16 -15 -31 -6q-3 3 1 5q11 0 17 7q10 11 7 29q-5 33 4 41q10 9 41 4zM180 248q31 5 41 -4
q9 -8 4 -41q-3 -18 7 -29q6 -7 17 -7q4 -1 1 -5q-15 -9 -31 6q-15 14 -15 40q-37 -65 -8 -94q14 -14 25 -2q13 12 2 23q-5 -9 -14 -2q-8 6 0 14q11 11 22 -2q23 -25 0 -48q-13 -14 -30.5 -8t-24.5 27q-4 -21 -18 -33q-14 -13 -33.5 -16.5t-35.5 4.5q-12 6 -1 9q21 8 39 26
q39 39 65 109q-68 -24 -109 -65q-18 -18 -26 -39q-3 -11 -9 1q-8 16 -4.5 35.5t16.5 33.5q12 13 33 18q-21 7 -27 24.5t8 30.5q23 23 48 0q13 -11 2 -22q-6 -6 -14 0q-10 7 2 14q-10 10 -23 -2q-11 -12 2 -25q29 -29 94 8q-27 0 -40 15q-15 16 -6 31q3 3 5 -1q0 -11 7 -17
q11 -10 29 -7zM334 367q-23 23 -29 33q-14 -27 -34 -43l27 -27zM375 330q-12 6 -34 28l-36 -35l27 -26q30 25 43 33zM291 323l-27 26q-16 -16 -44 -34q20 -11 35 -27zM324 288l-27 27l-34 -35q20 -21 28 -34q5 12 33 42z" />
    <glyph glyph-name="Delta" unicode="&#x2206;" 
d="M418 394q-31 -5 -41 4q-9 8 -4 41q3 18 -7 29q-6 7 -17 7q-4 1 -1 5q15 9 31 -6q15 -13 15 -40q37 65 8 94q-14 14 -25 2q-13 -12 -2 -23q5 9 14 2q8 -6 0 -14q-11 -11 -22 2q-23 25 0 48q13 14 30.5 8t24.5 -27q4 21 18 33q14 13 33.5 16.5t35.5 -4.5q12 -6 1 -9
q-21 -8 -39 -26q-39 -39 -65 -109q68 24 109 65q18 18 26 39q3 11 9 -1q8 -16 4.5 -35.5t-16.5 -33.5q-12 -13 -33 -18q21 -7 27 -24.5t-8 -30.5q-23 -23 -48 0q-13 11 -2 22q6 6 14 0q10 -7 -2 -14q10 -10 23 2q11 12 -2 25q-29 29 -94 -8q27 0 40 -15q15 -16 6 -31
q-3 -3 -5 1q0 11 -7 17q-11 10 -29 7zM180 394q-18 3 -29 -7q-7 -6 -7 -17q-1 -4 -5 -1q-9 15 6 31q13 15 40 15q-65 37 -94 8q-13 -13 -2 -25q13 -12 23 -2q-12 7 -2 14q8 6 14 0q11 -11 -2 -22q-25 -23 -48 0q-14 13 -8 30.5t27 24.5q-21 5 -33 18q-13 14 -16.5 33.5
t4.5 35.5q6 12 9 1q8 -21 26 -39q41 -41 109 -65q-26 70 -65 109q-18 18 -39 26q-11 3 1 9q16 8 35.5 4.5t33.5 -16.5q14 -12 18 -33q7 21 24.5 27t30.5 -8q23 -23 0 -48q-11 -13 -22 -2q-8 8 0 14q9 7 14 -2q11 11 -2 23q-11 12 -25 -2q-29 -29 8 -94q0 27 15 40
q16 15 31 6q3 -3 -1 -5q-11 0 -17 -7q-10 -11 -7 -29q5 -33 -4 -41q-10 -9 -41 -4zM404 321q-38 -25 -59 -46q-19 -19 -46 -58q-27 36 -49 58q-25 25 -58 49q34 22 59 46q21 20 46 58q21 -31 49 -57q33 -31 58 -50zM418 248q18 -3 29 7q7 6 7 17q1 4 5 1q9 -15 -6 -31
q-13 -15 -40 -15q65 -37 94 -8q13 13 2 25q-13 12 -23 2q12 -7 2 -14q-8 -6 -14 0q-11 11 2 22q25 23 48 0q14 -13 8 -30.5t-27 -24.5q21 -5 33 -18q13 -14 16.5 -33.5t-4.5 -35.5q-6 -12 -9 -1q-8 21 -26 39q-41 41 -109 65q26 -70 65 -109q18 -18 39 -26q11 -3 -1 -9
q-16 -8 -35.5 -4.5t-33.5 16.5q-14 12 -18 33q-7 -21 -24.5 -27t-30.5 8q-23 23 0 48q11 13 22 2q8 -8 0 -14q-9 -7 -14 2q-11 -11 2 -23q11 -12 25 2q29 29 -8 94q0 -26 -15 -40q-16 -15 -31 -6q-3 3 1 5q11 0 17 7q10 11 7 29q-5 33 4 41q10 9 41 4zM180 248q31 5 41 -4
q9 -8 4 -41q-3 -18 7 -29q6 -7 17 -7q4 -1 1 -5q-15 -9 -31 6q-15 14 -15 40q-37 -65 -8 -94q14 -14 25 -2q13 12 2 23q-5 -9 -14 -2q-8 6 0 14q11 11 22 -2q23 -25 0 -48q-13 -14 -30.5 -8t-24.5 27q-4 -21 -18 -33q-14 -13 -33.5 -16.5t-35.5 4.5q-12 6 -1 9q21 8 39 26
q39 39 65 109q-68 -24 -109 -65q-18 -18 -26 -39q-3 -11 -9 1q-8 16 -4.5 35.5t16.5 33.5q12 13 33 18q-21 7 -27 24.5t8 30.5q23 23 48 0q13 -11 2 -22q-6 -6 -14 0q-10 7 2 14q-10 10 -23 -2q-11 -12 2 -25q29 -29 94 8q-27 0 -40 15q-15 16 -6 31q3 3 5 -1q0 -11 7 -17
q11 -10 29 -7zM334 367q-23 23 -29 33q-14 -27 -34 -43l27 -27zM375 330q-12 6 -34 28l-36 -35l27 -26q30 25 43 33zM291 323l-27 26q-16 -16 -44 -34q20 -11 35 -27zM324 288l-27 27l-34 -35q20 -21 28 -34q5 12 33 42z" />
    <glyph glyph-name="pi" unicode="&#x3c0;" horiz-adv-x="680" 
d="M615 321q0 -119 -83.5 -202.5t-202.5 -83.5t-202.5 83.5t-83.5 202.5t83.5 203t202.5 84t202.5 -84t83.5 -203zM591 321q0 110 -76 187.5t-186 77.5t-186 -77t-76 -188q0 -109 77 -186.5t185 -77.5q110 0 186 77.5t76 186.5zM477 406q0 -56 -38.5 -83.5t-88.5 -27.5
q-20 0 -20 5q0 6 1 8q1 3 13 3q37 0 58 24t21 62q0 88 -83 88q-22 0 -28 -2t-6 -9v-289q0 -6 7 -8q19 -4 42 -8q3 0 3 -5v-7q0 -2 -3 -2q-40 2 -77 2q-24 0 -70 -2q-4 0 -4 1q-1 6 0 11q0 2 3 2q4 1 11.5 1.5t15.5 1.5t11 1q7 1 7 12v291q0 6 -3 7q-8 1 -22 4t-22 4
q-2 0 -2 2v9q0 4 4 4q12 0 35.5 -1.5t36.5 -1.5q9 0 32 1.5t32 1.5q134 0 134 -100z" />
    <glyph glyph-name="endash" unicode="&#x2013;" horiz-adv-x="587" 
d="M543 206q2 -12 -10 -22q-1 -4 -14 -4h-461q-11 0 -13 17q-1 4 3 12t8 11q1 4 13 4h462q11 0 12 -18z" />
    <glyph glyph-name="emdash" unicode="&#x2014;" horiz-adv-x="748" 
d="M680 206q2 -12 -10 -22q-1 -4 -14 -4h-598q-11 0 -13 17q-1 4 3 12t8 11q1 4 13 4h599q10 0 12 -18z" />
    <glyph glyph-name="quoteleft" unicode="&#x2018;" horiz-adv-x="177" 
d="M87 532q9 0 17 -4q13 -1 24 -13.5t11 -29.5q0 -21 -14 -34.5t-35 -13.5q-26 0 -42 21t-16 56q0 46 24.5 83t61.5 55q5 2 9 -3q5 -7 5 -10q3 -6 -3 -10q-51 -38 -51 -79q0 -11 2 -13q3 -5 7 -5z" />
    <glyph glyph-name="quoteright" unicode="&#x2019;" horiz-adv-x="177" 
d="M93 556q-12 2 -18 5q-13 2 -24 13.5t-11 29.5q0 21 14 34.5t35 13.5q26 0 42 -21t16 -57q0 -45 -25 -82t-60 -56q-5 -2 -9 2q-5 4 -8 12q-2 5 4 9q52 37 52 79q0 7 -2 13q-1 3 -6 5z" />
    <glyph glyph-name="quotesinglbase" unicode="&#x201a;" horiz-adv-x="177" 
d="M93 -14q-12 2 -18 5q-13 2 -24 13.5t-11 29.5q0 20 14.5 33.5t34.5 13.5q27 0 42.5 -20.5t15.5 -57.5q0 -45 -24.5 -81.5t-60.5 -55.5q-3 -2 -9 2q-8 5 -8 10q0 7 4 11q52 37 52 78q0 7 -2 13q-1 4 -6 6z" />
    <glyph glyph-name="quotedblleft" unicode="&#x201c;" horiz-adv-x="336" 
d="M243 532q10 0 17 -4q14 -1 24.5 -13t10.5 -30q0 -21 -13.5 -34.5t-35.5 -13.5q-25 0 -42 21t-17 56q0 46 25 83t63 55q5 3 8 -3q1 -2 3 -5t3 -5q2 -6 -4 -10q-50 -38 -50 -79q0 -8 3 -13zM87 532q9 0 17 -4q13 -1 24 -13.5t11 -29.5q0 -21 -14 -34.5t-35 -13.5
q-26 0 -42 21t-16 56q0 46 24.5 83t61.5 55q5 2 9 -3q5 -7 5 -10q3 -6 -3 -10q-51 -39 -51 -79q0 -11 2 -13q3 -5 7 -5z" />
    <glyph glyph-name="quotedblright" unicode="&#x201d;" horiz-adv-x="331" 
d="M93 556q-12 2 -18 5q-13 2 -24 13.5t-11 29.5q0 21 14 34.5t35 13.5q26 0 42 -21t16 -57q0 -45 -25 -82t-60 -56q-5 -2 -9 2q-5 4 -8 12q-2 5 4 9q52 37 52 79q0 9 -2 13q-1 3 -6 5zM246 556q-10 2 -16 5q-14 2 -24.5 13.5t-10.5 29.5q0 21 13.5 34.5t34.5 13.5
q26 0 42.5 -21.5t16.5 -56.5q0 -45 -25.5 -82t-61.5 -56q-1 -1 -4.5 -0.5t-4.5 2.5q-4 5 -6 12q-2 5 4 9q51 39 51 79q0 10 -3 13q-5 5 -6 5z" />
    <glyph glyph-name="quotedblbase" unicode="&#x201e;" horiz-adv-x="324" 
d="M93 -14q-12 2 -18 5q-13 2 -24 13.5t-11 29.5q0 20 14.5 33.5t34.5 13.5q27 0 42.5 -20.5t15.5 -57.5q0 -45 -24.5 -81.5t-60.5 -55.5q-3 -2 -9 2q-8 5 -8 10q0 7 4 11q52 37 52 78q0 7 -2 13q-1 4 -6 6zM238 -14q-10 2 -16 5q-14 2 -24.5 13t-10.5 30q0 20 13.5 33.5
t34.5 13.5q26 0 42.5 -20.5t16.5 -57.5q0 -45 -25.5 -81.5t-61.5 -55.5q-5 -2 -9 2t-6 10q-1 7 4 11q51 39 51 78q0 9 -3 13q-4 6 -6 6z" />
    <glyph glyph-name="dagger" unicode="&#x2020;" horiz-adv-x="336" 
d="M142 206q-13 157 -13 158q-2 13 4 36q1 3 9.5 28t11.5 41q1 3 -0.5 4t-3.5 0q-6 -1 -40 -7.5t-57 -9.5q-17 -3 -17 13q0 36 7 48q4 7 23 5q32 -5 86 -17q4 0 3 9q-6 42 -20 120q-1 7 3 12.5t10 5.5q33 0 48 -9q8 -5 6 -23q-2 -15 -10 -58t-9 -49q-1 -4 0 -6.5t3 -1.5
q67 13 94 17q19 3 19 -12q0 -36 -8 -49q-5 -7 -23 -5q-33 5 -79 17q-4 1 -5 0t0 -5q5 -32 17 -68q5 -17 4 -36q-9 -104 -13 -158q-3 -41 -9 -191q0 -19 -14 -19q-18 0 -18 19q-4 137 -9 191z" />
    <glyph glyph-name="daggerdbl" unicode="&#x2021;" horiz-adv-x="339" 
d="M208 304q-1 -4 -10 -54t-11 -70q0 -4 1 -5t3 0q38 8 97 17q17 3 17 -12q0 -38 -7 -50q-5 -7 -23 -5q-32 5 -86 17q-4 0 -3 -9q4 -31 20 -120q1 -7 -3 -12.5t-10 -5.5q-35 0 -50 9q-8 5 -6 23q2 15 10 58t9 49q1 5 0 7t-3 1q-67 -13 -94 -17q-19 -3 -19 13q0 36 8 49
q5 7 23 5q33 -5 79 -17q4 -1 5 0t0 6q-8 75 -17 123q-5 23 -1 38q16 72 21 126q0 4 -1 5t-3 0q-38 -8 -97 -17q-17 -3 -17 12q0 37 7 49q5 7 23 5q32 -5 86 -17q4 0 3 9q-4 31 -20 120q-1 7 3 12.5t10 5.5q33 0 51 -9q7 -4 5 -23q-2 -15 -10 -58t-9 -49q-1 -5 0 -7t3 -1
q67 13 94 17q19 3 19 -12q0 -36 -8 -49q-5 -7 -23 -5q-33 5 -79 17q-4 1 -5 0t0 -6q5 -45 18 -125q3 -19 0 -38z" />
    <glyph glyph-name="bullet" unicode="&#x2022;" horiz-adv-x="233" 
d="M186 320q0 -30 -20.5 -51t-50.5 -21q-29 0 -48.5 21t-19.5 51q0 29 19.5 50t49.5 21q29 0 49.5 -21t20.5 -50z" />
    <glyph glyph-name="ellipsis" unicode="&#x2026;" horiz-adv-x="597" 
d="M531 40q0 -21 -13 -33.5t-33 -12.5t-33 13t-13 33t13 34t33 14q19 0 32.5 -14t13.5 -34zM344 40q0 -21 -13 -33.5t-34 -12.5q-19 0 -32 13t-13 33t12.5 34t32.5 14t33.5 -14t13.5 -34zM157 40q0 -21 -13 -33.5t-34 -12.5q-19 0 -32 13.5t-13 32.5q0 20 13 34t32 14
q20 0 33.5 -14t13.5 -34z" />
    <glyph glyph-name="perthousand" unicode="&#x2030;" horiz-adv-x="970" 
d="M282 509q3 -3 6 -3q61 0 130.5 29t103.5 70q7 8 15 6q7 -3 16 -11q7 -5 -1 -20q-301 -559 -415 -764q-5 -10 -18 -6q-3 1 -20 11.5t-22 12.5q-11 7 -2 22q403 648 414 674v2q-1 1 -3 -1q-43 -28 -84 -40.5t-105 -19.5q-3 0 -2 -6q2 -12 2 -17q1 -87 -51 -160t-108 -73
q-32 0 -55 24.5t-23 69.5q0 96 55.5 159t112.5 63q39 0 54 -22zM643 219q0 -75 -51 -150t-108 -75q-37 0 -59 24.5t-22 66.5q0 85 52.5 154t115.5 69q72 0 72 -89zM215 501q-33 0 -66.5 -57t-33.5 -131q0 -27 11 -42.5t28 -15.5q36 0 64.5 61t28.5 124q0 61 -32 61zM911 219
q0 -75 -51 -150t-108 -75q-37 0 -59 24.5t-22 66.5q0 85 52.5 154t115.5 69q72 0 72 -89zM557 279q-33 0 -66.5 -57t-33.5 -131q0 -27 11 -42.5t28 -15.5q36 0 64.5 61.5t28.5 124.5q0 60 -32 60zM826 279q-33 0 -66.5 -57t-33.5 -131q0 -27 11 -42.5t28 -15.5
q36 0 64.5 61.5t28.5 124.5q0 60 -32 60z" />
    <glyph glyph-name="guilsinglleft" unicode="&#x2039;" horiz-adv-x="258" 
d="M235 74q4 -6 -4 -13q-9 -10 -20 -1q-6 6 -72.5 65.5t-83.5 75.5q-11 11 -11 17t11 17q13 13 81.5 74.5t75.5 68.5q8 8 19 -1q9 -8 3 -16q-59 -69 -112 -138q-3 -5 1 -10q5 -6 53.5 -65.5t58.5 -73.5z" />
    <glyph glyph-name="guilsinglright" unicode="&#x203a;" horiz-adv-x="258" 
d="M205 201q-18 -18 -85.5 -78t-70.5 -63q-11 -9 -21 1q-7 7 -3 13q9 13 56 71t55 68q4 5 1 10q-14 19 -111 138q-6 7 3 16t18 1q7 -7 75.5 -68.5t81.5 -74.5q11 -11 11 -17t-10 -17z" />
    <glyph glyph-name="fraction" unicode="&#x2044;" horiz-adv-x="310" 
d="M286 672q3 -4 -2 -17q-197 -562 -238 -682q-6 -14 -13 -12q-10 5 -11 6q-2 2 1 16q20 54 115.5 330.5t121.5 353.5q4 12 8 14q3 2 10 -1q2 -1 3.5 -2.5t2.5 -3t2 -2.5z" />
    <glyph glyph-name="fraction" unicode="&#x2215;" horiz-adv-x="310" 
d="M286 672q3 -4 -2 -17q-197 -562 -238 -682q-6 -14 -13 -12q-10 5 -11 6q-2 2 1 16q20 54 115.5 330.5t121.5 353.5q4 12 8 14q3 2 10 -1q2 -1 3.5 -2.5t2.5 -3t2 -2.5z" />
    <glyph glyph-name="Euro" unicode="&#x20ac;" horiz-adv-x="547" 
d="M34 282q-11 0 -14 2q-5 7 -3 21q0 3 9 5q6 2 62 10q27 97 105.5 155t165.5 58q88 0 140 -47q13 -12 13 -29q0 -12 -13 -28t-27 -16t-33 21q-27 30 -50 44t-62 14q-61 0 -104.5 -43t-56.5 -118q98 14 191 26q10 1 15 -2q8 -4 12 -27q0 -2 -6 -4t-216 -28q-2 -14 -2 -25
q0 -37 8 -67q172 25 189 28q16 3 19 1q10 -13 10 -29q0 -3 -14 -6q-17 -2 -194 -27q20 -55 63 -85t102 -30q47 0 78.5 15.5t64.5 47.5q4 3 9 2q5 -2 10 -12q3 -5 -3 -13q-31 -42 -83 -71t-123 -29q-75 0 -129.5 45t-76.5 118q-12 -1 -24 -2.5t-18.5 -2.5t-7.5 -1q-8 0 -9 2
q-5 10 -5 21q0 4 3 4q26 5 54 9q-4 23 -4 51t2 46q-27 -2 -47 -4z" />
    <glyph glyph-name="trademark" unicode="&#x2122;" horiz-adv-x="672" 
d="M651 640v-14q0 -2 -2 -2q-21 -3 -31 -3q-4 -1 -4 -7v-220q0 -6 5 -6q26 -2 30 -3q3 0 3 -3q0 -1 -0.5 -6t-0.5 -7q0 -3 -3 -3q-13 2 -58 2q-39 0 -57 -2q-4 0 -4 3v13q0 3 4 3q5 0 15.5 1.5t16.5 2.5q4 0 4 5v196q0 6 -3 1q-10 -17 -39 -82q-17 -39 -63 -133q-3 -8 -8 0
q-56 119 -105 217q-4 10 -4 0q-1 -13 -1 -52q0 -90 2 -145q0 -7 5 -8q2 0 8.5 -1t12.5 -2t11 -1q3 0 3 -3v-13q0 -3 -3 -3q-39 3 -49 3q-20 0 -50 -2q-4 0 -4 3v13q0 3 3 3q4 0 10.5 1t11.5 1.5t7 0.5q5 0 5 8q6 61 7 217q0 6 -5 7q-21 3 -27 3q-4 0 -4 5v12q0 2 3 2
q7 0 17.5 -0.5t15.5 -0.5q4 0 24 0.5t23 0.5q4 0 6 -4q8 -18 47.5 -99t46.5 -96q3 -5 5 0q3 5 27 58t35 76q6 13 15.5 33.5t12.5 27.5q2 4 6 4h33q30 0 41 1q3 0 3 -3zM279 581q-2 -1 -10 -1q-3 0 -4 3q-2 6 -5.5 17.5t-4.5 14.5q-1 4 -8 4q-4 0 -29.5 0.5t-37.5 0.5
q-4 0 -4 -4v-222q0 -5 5 -5q6 -1 19 -2.5t18 -1.5q3 0 3 -3v-13q0 -3 -3 -3q-32 2 -64 2q-26 0 -64 -2q-4 0 -4 3v12q0 4 4 4q3 0 18 1.5t19 2.5q5 1 5 5v222q0 4 -4 4h-66q-6 0 -7 -4q-4 -10 -12 -34q-1 -3 -3 -3q-6 0 -10 2t-2 5q5 15 11 59q0 5 6 5q4 0 7 -4q2 -5 8 -5
q24 -1 62.5 -1t80 0.5t49.5 0.5q6 0 10 7q2 2 5 2q5 0 5 -5q0 -14 9 -59q0 -4 -2 -5z" />
    <glyph glyph-name="partialdiff" unicode="&#x2202;" 
d="M418 394q-31 -5 -41 4q-9 8 -4 41q3 18 -7 29q-6 7 -17 7q-4 1 -1 5q15 9 31 -6q15 -13 15 -40q37 65 8 94q-14 14 -25 2q-13 -12 -2 -23q5 9 14 2q8 -6 0 -14q-11 -11 -22 2q-23 25 0 48q13 14 30.5 8t24.5 -27q4 21 18 33q14 13 33.5 16.5t35.5 -4.5q12 -6 1 -9
q-21 -8 -39 -26q-39 -39 -65 -109q68 24 109 65q18 18 26 39q3 11 9 -1q8 -16 4.5 -35.5t-16.5 -33.5q-12 -13 -33 -18q21 -7 27 -24.5t-8 -30.5q-23 -23 -48 0q-13 11 -2 22q6 6 14 0q10 -7 -2 -14q10 -10 23 2q11 12 -2 25q-29 29 -94 -8q27 0 40 -15q15 -16 6 -31
q-3 -3 -5 1q0 11 -7 17q-11 10 -29 7zM180 394q-18 3 -29 -7q-7 -6 -7 -17q-1 -4 -5 -1q-9 15 6 31q13 15 40 15q-65 37 -94 8q-13 -13 -2 -25q13 -12 23 -2q-12 7 -2 14q8 6 14 0q11 -11 -2 -22q-25 -23 -48 0q-14 13 -8 30.5t27 24.5q-21 5 -33 18q-13 14 -16.5 33.5
t4.5 35.5q6 12 9 1q8 -21 26 -39q41 -41 109 -65q-26 70 -65 109q-18 18 -39 26q-11 3 1 9q16 8 35.5 4.5t33.5 -16.5q14 -12 18 -33q7 21 24.5 27t30.5 -8q23 -23 0 -48q-11 -13 -22 -2q-8 8 0 14q9 7 14 -2q11 11 -2 23q-11 12 -25 -2q-29 -29 8 -94q0 27 15 40
q16 15 31 6q3 -3 -1 -5q-11 0 -17 -7q-10 -11 -7 -29q5 -33 -4 -41q-10 -9 -41 -4zM404 321q-38 -25 -59 -46q-19 -19 -46 -58q-27 36 -49 58q-25 25 -58 49q34 22 59 46q21 20 46 58q21 -31 49 -57q33 -31 58 -50zM418 248q18 -3 29 7q7 6 7 17q1 4 5 1q9 -15 -6 -31
q-13 -15 -40 -15q65 -37 94 -8q13 13 2 25q-13 12 -23 2q12 -7 2 -14q-8 -6 -14 0q-11 11 2 22q25 23 48 0q14 -13 8 -30.5t-27 -24.5q21 -5 33 -18q13 -14 16.5 -33.5t-4.5 -35.5q-6 -12 -9 -1q-8 21 -26 39q-41 41 -109 65q26 -70 65 -109q18 -18 39 -26q11 -3 -1 -9
q-16 -8 -35.5 -4.5t-33.5 16.5q-14 12 -18 33q-7 -21 -24.5 -27t-30.5 8q-23 23 0 48q11 13 22 2q8 -8 0 -14q-9 -7 -14 2q-11 -11 2 -23q11 -12 25 2q29 29 -8 94q0 -26 -15 -40q-16 -15 -31 -6q-3 3 1 5q11 0 17 7q10 11 7 29q-5 33 4 41q10 9 41 4zM180 248q31 5 41 -4
q9 -8 4 -41q-3 -18 7 -29q6 -7 17 -7q4 -1 1 -5q-15 -9 -31 6q-15 14 -15 40q-37 -65 -8 -94q14 -14 25 -2q13 12 2 23q-5 -9 -14 -2q-8 6 0 14q11 11 22 -2q23 -25 0 -48q-13 -14 -30.5 -8t-24.5 27q-4 -21 -18 -33q-14 -13 -33.5 -16.5t-35.5 4.5q-12 6 -1 9q21 8 39 26
q39 39 65 109q-68 -24 -109 -65q-18 -18 -26 -39q-3 -11 -9 1q-8 16 -4.5 35.5t16.5 33.5q12 13 33 18q-21 7 -27 24.5t8 30.5q23 23 48 0q13 -11 2 -22q-6 -6 -14 0q-10 7 2 14q-10 10 -23 -2q-11 -12 2 -25q29 -29 94 8q-27 0 -40 15q-15 16 -6 31q3 3 5 -1q0 -11 7 -17
q11 -10 29 -7zM334 367q-23 23 -29 33q-14 -27 -34 -43l27 -27zM375 330q-12 6 -34 28l-36 -35l27 -26q30 25 43 33zM291 323l-27 26q-16 -16 -44 -34q20 -11 35 -27zM324 288l-27 27l-34 -35q20 -21 28 -34q5 12 33 42z" />
    <glyph glyph-name="product" unicode="&#x220f;" 
d="M418 394q-31 -5 -41 4q-9 8 -4 41q3 18 -7 29q-6 7 -17 7q-4 1 -1 5q15 9 31 -6q15 -13 15 -40q37 65 8 94q-14 14 -25 2q-13 -12 -2 -23q5 9 14 2q8 -6 0 -14q-11 -11 -22 2q-23 25 0 48q13 14 30.5 8t24.5 -27q4 21 18 33q14 13 33.5 16.5t35.5 -4.5q12 -6 1 -9
q-21 -8 -39 -26q-39 -39 -65 -109q68 24 109 65q18 18 26 39q3 11 9 -1q8 -16 4.5 -35.5t-16.5 -33.5q-12 -13 -33 -18q21 -7 27 -24.5t-8 -30.5q-23 -23 -48 0q-13 11 -2 22q6 6 14 0q10 -7 -2 -14q10 -10 23 2q11 12 -2 25q-29 29 -94 -8q27 0 40 -15q15 -16 6 -31
q-3 -3 -5 1q0 11 -7 17q-11 10 -29 7zM180 394q-18 3 -29 -7q-7 -6 -7 -17q-1 -4 -5 -1q-9 15 6 31q13 15 40 15q-65 37 -94 8q-13 -13 -2 -25q13 -12 23 -2q-12 7 -2 14q8 6 14 0q11 -11 -2 -22q-25 -23 -48 0q-14 13 -8 30.5t27 24.5q-21 5 -33 18q-13 14 -16.5 33.5
t4.5 35.5q6 12 9 1q8 -21 26 -39q41 -41 109 -65q-26 70 -65 109q-18 18 -39 26q-11 3 1 9q16 8 35.5 4.5t33.5 -16.5q14 -12 18 -33q7 21 24.5 27t30.5 -8q23 -23 0 -48q-11 -13 -22 -2q-8 8 0 14q9 7 14 -2q11 11 -2 23q-11 12 -25 -2q-29 -29 8 -94q0 27 15 40
q16 15 31 6q3 -3 -1 -5q-11 0 -17 -7q-10 -11 -7 -29q5 -33 -4 -41q-10 -9 -41 -4zM404 321q-38 -25 -59 -46q-19 -19 -46 -58q-27 36 -49 58q-25 25 -58 49q34 22 59 46q21 20 46 58q21 -31 49 -57q33 -31 58 -50zM418 248q18 -3 29 7q7 6 7 17q1 4 5 1q9 -15 -6 -31
q-13 -15 -40 -15q65 -37 94 -8q13 13 2 25q-13 12 -23 2q12 -7 2 -14q-8 -6 -14 0q-11 11 2 22q25 23 48 0q14 -13 8 -30.5t-27 -24.5q21 -5 33 -18q13 -14 16.5 -33.5t-4.5 -35.5q-6 -12 -9 -1q-8 21 -26 39q-41 41 -109 65q26 -70 65 -109q18 -18 39 -26q11 -3 -1 -9
q-16 -8 -35.5 -4.5t-33.5 16.5q-14 12 -18 33q-7 -21 -24.5 -27t-30.5 8q-23 23 0 48q11 13 22 2q8 -8 0 -14q-9 -7 -14 2q-11 -11 2 -23q11 -12 25 2q29 29 -8 94q0 -26 -15 -40q-16 -15 -31 -6q-3 3 1 5q11 0 17 7q10 11 7 29q-5 33 4 41q10 9 41 4zM180 248q31 5 41 -4
q9 -8 4 -41q-3 -18 7 -29q6 -7 17 -7q4 -1 1 -5q-15 -9 -31 6q-15 14 -15 40q-37 -65 -8 -94q14 -14 25 -2q13 12 2 23q-5 -9 -14 -2q-8 6 0 14q11 11 22 -2q23 -25 0 -48q-13 -14 -30.5 -8t-24.5 27q-4 -21 -18 -33q-14 -13 -33.5 -16.5t-35.5 4.5q-12 6 -1 9q21 8 39 26
q39 39 65 109q-68 -24 -109 -65q-18 -18 -26 -39q-3 -11 -9 1q-8 16 -4.5 35.5t16.5 33.5q12 13 33 18q-21 7 -27 24.5t8 30.5q23 23 48 0q13 -11 2 -22q-6 -6 -14 0q-10 7 2 14q-10 10 -23 -2q-11 -12 2 -25q29 -29 94 8q-27 0 -40 15q-15 16 -6 31q3 3 5 -1q0 -11 7 -17
q11 -10 29 -7zM334 367q-23 23 -29 33q-14 -27 -34 -43l27 -27zM375 330q-12 6 -34 28l-36 -35l27 -26q30 25 43 33zM291 323l-27 26q-16 -16 -44 -34q20 -11 35 -27zM324 288l-27 27l-34 -35q20 -21 28 -34q5 12 33 42z" />
    <glyph glyph-name="summation" unicode="&#x2211;" 
d="M418 394q-31 -5 -41 4q-9 8 -4 41q3 18 -7 29q-6 7 -17 7q-4 1 -1 5q15 9 31 -6q15 -13 15 -40q37 65 8 94q-14 14 -25 2q-13 -12 -2 -23q5 9 14 2q8 -6 0 -14q-11 -11 -22 2q-23 25 0 48q13 14 30.5 8t24.5 -27q4 21 18 33q14 13 33.5 16.5t35.5 -4.5q12 -6 1 -9
q-21 -8 -39 -26q-39 -39 -65 -109q68 24 109 65q18 18 26 39q3 11 9 -1q8 -16 4.5 -35.5t-16.5 -33.5q-12 -13 -33 -18q21 -7 27 -24.5t-8 -30.5q-23 -23 -48 0q-13 11 -2 22q6 6 14 0q10 -7 -2 -14q10 -10 23 2q11 12 -2 25q-29 29 -94 -8q27 0 40 -15q15 -16 6 -31
q-3 -3 -5 1q0 11 -7 17q-11 10 -29 7zM180 394q-18 3 -29 -7q-7 -6 -7 -17q-1 -4 -5 -1q-9 15 6 31q13 15 40 15q-65 37 -94 8q-13 -13 -2 -25q13 -12 23 -2q-12 7 -2 14q8 6 14 0q11 -11 -2 -22q-25 -23 -48 0q-14 13 -8 30.5t27 24.5q-21 5 -33 18q-13 14 -16.5 33.5
t4.5 35.5q6 12 9 1q8 -21 26 -39q41 -41 109 -65q-26 70 -65 109q-18 18 -39 26q-11 3 1 9q16 8 35.5 4.5t33.5 -16.5q14 -12 18 -33q7 21 24.5 27t30.5 -8q23 -23 0 -48q-11 -13 -22 -2q-8 8 0 14q9 7 14 -2q11 11 -2 23q-11 12 -25 -2q-29 -29 8 -94q0 27 15 40
q16 15 31 6q3 -3 -1 -5q-11 0 -17 -7q-10 -11 -7 -29q5 -33 -4 -41q-10 -9 -41 -4zM404 321q-38 -25 -59 -46q-19 -19 -46 -58q-27 36 -49 58q-25 25 -58 49q34 22 59 46q21 20 46 58q21 -31 49 -57q33 -31 58 -50zM418 248q18 -3 29 7q7 6 7 17q1 4 5 1q9 -15 -6 -31
q-13 -15 -40 -15q65 -37 94 -8q13 13 2 25q-13 12 -23 2q12 -7 2 -14q-8 -6 -14 0q-11 11 2 22q25 23 48 0q14 -13 8 -30.5t-27 -24.5q21 -5 33 -18q13 -14 16.5 -33.5t-4.5 -35.5q-6 -12 -9 -1q-8 21 -26 39q-41 41 -109 65q26 -70 65 -109q18 -18 39 -26q11 -3 -1 -9
q-16 -8 -35.5 -4.5t-33.5 16.5q-14 12 -18 33q-7 -21 -24.5 -27t-30.5 8q-23 23 0 48q11 13 22 2q8 -8 0 -14q-9 -7 -14 2q-11 -11 2 -23q11 -12 25 2q29 29 -8 94q0 -26 -15 -40q-16 -15 -31 -6q-3 3 1 5q11 0 17 7q10 11 7 29q-5 33 4 41q10 9 41 4zM180 248q31 5 41 -4
q9 -8 4 -41q-3 -18 7 -29q6 -7 17 -7q4 -1 1 -5q-15 -9 -31 6q-15 14 -15 40q-37 -65 -8 -94q14 -14 25 -2q13 12 2 23q-5 -9 -14 -2q-8 6 0 14q11 11 22 -2q23 -25 0 -48q-13 -14 -30.5 -8t-24.5 27q-4 -21 -18 -33q-14 -13 -33.5 -16.5t-35.5 4.5q-12 6 -1 9q21 8 39 26
q39 39 65 109q-68 -24 -109 -65q-18 -18 -26 -39q-3 -11 -9 1q-8 16 -4.5 35.5t16.5 33.5q12 13 33 18q-21 7 -27 24.5t8 30.5q23 23 48 0q13 -11 2 -22q-6 -6 -14 0q-10 7 2 14q-10 10 -23 -2q-11 -12 2 -25q29 -29 94 8q-27 0 -40 15q-15 16 -6 31q3 3 5 -1q0 -11 7 -17
q11 -10 29 -7zM334 367q-23 23 -29 33q-14 -27 -34 -43l27 -27zM375 330q-12 6 -34 28l-36 -35l27 -26q30 25 43 33zM291 323l-27 26q-16 -16 -44 -34q20 -11 35 -27zM324 288l-27 27l-34 -35q20 -21 28 -34q5 12 33 42z" />
    <glyph glyph-name="minus" unicode="&#x2212;" 
d="M418 394q-31 -5 -41 4q-9 8 -4 41q3 18 -7 29q-6 7 -17 7q-4 1 -1 5q15 9 31 -6q15 -13 15 -40q37 65 8 94q-14 14 -25 2q-13 -12 -2 -23q5 9 14 2q8 -6 0 -14q-11 -11 -22 2q-23 25 0 48q13 14 30.5 8t24.5 -27q4 21 18 33q14 13 33.5 16.5t35.5 -4.5q12 -6 1 -9
q-21 -8 -39 -26q-39 -39 -65 -109q68 24 109 65q18 18 26 39q3 11 9 -1q8 -16 4.5 -35.5t-16.5 -33.5q-12 -13 -33 -18q21 -7 27 -24.5t-8 -30.5q-23 -23 -48 0q-13 11 -2 22q6 6 14 0q10 -7 -2 -14q10 -10 23 2q11 12 -2 25q-29 29 -94 -8q27 0 40 -15q15 -16 6 -31
q-3 -3 -5 1q0 11 -7 17q-11 10 -29 7zM180 394q-18 3 -29 -7q-7 -6 -7 -17q-1 -4 -5 -1q-9 15 6 31q13 15 40 15q-65 37 -94 8q-13 -13 -2 -25q13 -12 23 -2q-12 7 -2 14q8 6 14 0q11 -11 -2 -22q-25 -23 -48 0q-14 13 -8 30.5t27 24.5q-21 5 -33 18q-13 14 -16.5 33.5
t4.5 35.5q6 12 9 1q8 -21 26 -39q41 -41 109 -65q-26 70 -65 109q-18 18 -39 26q-11 3 1 9q16 8 35.5 4.5t33.5 -16.5q14 -12 18 -33q7 21 24.5 27t30.5 -8q23 -23 0 -48q-11 -13 -22 -2q-8 8 0 14q9 7 14 -2q11 11 -2 23q-11 12 -25 -2q-29 -29 8 -94q0 27 15 40
q16 15 31 6q3 -3 -1 -5q-11 0 -17 -7q-10 -11 -7 -29q5 -33 -4 -41q-10 -9 -41 -4zM404 321q-38 -25 -59 -46q-19 -19 -46 -58q-27 36 -49 58q-25 25 -58 49q34 22 59 46q21 20 46 58q21 -31 49 -57q33 -31 58 -50zM418 248q18 -3 29 7q7 6 7 17q1 4 5 1q9 -15 -6 -31
q-13 -15 -40 -15q65 -37 94 -8q13 13 2 25q-13 12 -23 2q12 -7 2 -14q-8 -6 -14 0q-11 11 2 22q25 23 48 0q14 -13 8 -30.5t-27 -24.5q21 -5 33 -18q13 -14 16.5 -33.5t-4.5 -35.5q-6 -12 -9 -1q-8 21 -26 39q-41 41 -109 65q26 -70 65 -109q18 -18 39 -26q11 -3 -1 -9
q-16 -8 -35.5 -4.5t-33.5 16.5q-14 12 -18 33q-7 -21 -24.5 -27t-30.5 8q-23 23 0 48q11 13 22 2q8 -8 0 -14q-9 -7 -14 2q-11 -11 2 -23q11 -12 25 2q29 29 -8 94q0 -26 -15 -40q-16 -15 -31 -6q-3 3 1 5q11 0 17 7q10 11 7 29q-5 33 4 41q10 9 41 4zM180 248q31 5 41 -4
q9 -8 4 -41q-3 -18 7 -29q6 -7 17 -7q4 -1 1 -5q-15 -9 -31 6q-15 14 -15 40q-37 -65 -8 -94q14 -14 25 -2q13 12 2 23q-5 -9 -14 -2q-8 6 0 14q11 11 22 -2q23 -25 0 -48q-13 -14 -30.5 -8t-24.5 27q-4 -21 -18 -33q-14 -13 -33.5 -16.5t-35.5 4.5q-12 6 -1 9q21 8 39 26
q39 39 65 109q-68 -24 -109 -65q-18 -18 -26 -39q-3 -11 -9 1q-8 16 -4.5 35.5t16.5 33.5q12 13 33 18q-21 7 -27 24.5t8 30.5q23 23 48 0q13 -11 2 -22q-6 -6 -14 0q-10 7 2 14q-10 10 -23 -2q-11 -12 2 -25q29 -29 94 8q-27 0 -40 15q-15 16 -6 31q3 3 5 -1q0 -11 7 -17
q11 -10 29 -7zM334 367q-23 23 -29 33q-14 -27 -34 -43l27 -27zM375 330q-12 6 -34 28l-36 -35l27 -26q30 25 43 33zM291 323l-27 26q-16 -16 -44 -34q20 -11 35 -27zM324 288l-27 27l-34 -35q20 -21 28 -34q5 12 33 42z" />
    <glyph glyph-name="radical" unicode="&#x221a;" horiz-adv-x="625" 
d="M603 651q8 -5 -2 -23q-25 -40 -209 -386q-82 -154 -125 -247q-6 -13 -16.5 -11.5t-15.5 18.5q-4 13 -24 54q-22 42 -111 194q-10 16 -15.5 21.5t-18.5 7.5q-6 1 -20 2t-16 1q-5 0 -8 4q-1 2 -1 17q0 7 6 7h60q41 0 63 2q7 1 13 -10q4 -7 49 -91t57 -108q4 -6 6.5 -7.5
t4.5 -0.5t5 7q21 41 81 164q131 273 171 364q10 23 16 29.5t16 5.5q12 -2 34 -14z" />
    <glyph glyph-name="infinity" unicode="&#x221e;" horiz-adv-x="767" 
d="M587 640q0 -16 -10.5 -25t-27.5 -9q-24 0 -49 18q-7 8 -16 6q-25 -8 -40 -42.5t-15 -88.5v-111q0 -4 2 -4h183q40 0 62 20q6 6 12.5 3.5t6.5 -11.5q0 -4 -2 -26t-2 -35v-292q0 -10 7 -11q45 -6 52 -7q5 -1 5 -7v-12q0 -6 -5 -6q-63 3 -89 3q-51 0 -99 -3q-6 0 -6 5
q0 1 -0.5 6t-0.5 8q0 5 7 6q36 4 53 7q5 1 5 11v278q0 19 -4.5 24t-23.5 5h-60.5t-67 0.5t-31.5 0.5q-4 0 -4 -6v-303q0 -9 7 -10q10 -2 31.5 -4t25.5 -3q7 -1 7 -6v-14q0 -5 -7 -5q-48 3 -99 3q-46 0 -95 -3q-6 0 -6 6v12q0 5 5 7q8 0 17.5 1.5t19.5 3t15 2.5q7 1 7 10v299
q0 9 -6 9h-69t-74 0.5t-35 0.5q-4 0 -4 -6v-303q0 -9 7 -10q11 -2 34 -4l23 -3q7 -1 7 -6v-14q0 -5 -7 -5q-48 3 -99 3q-46 0 -95 -3q-6 0 -6 6v12q0 5 5 7q3 0 51 7q6 1 7 2.5t1 7.5v302q0 7 -3 7t-20.5 -0.5t-21.5 -0.5q-8 0 -8 7q0 3 0.5 11.5t0.5 10.5q0 5 6 5h43
q3 0 3 7v62q0 87 56.5 151t122.5 64q22 0 36.5 -10.5t14.5 -25.5q0 -16 -10.5 -25t-27.5 -9q-24 0 -49 18q-7 7 -16 5q-25 -8 -40 -42t-15 -89v-102q0 -4 2 -4h180q6 0 6 7v70q0 87 56.5 151t122.5 64q22 0 36.5 -10.5t14.5 -25.5z" />
    <glyph glyph-name="integral" unicode="&#x222b;" 
d="M418 394q-31 -5 -41 4q-9 8 -4 41q3 18 -7 29q-6 7 -17 7q-4 1 -1 5q15 9 31 -6q15 -13 15 -40q37 65 8 94q-14 14 -25 2q-13 -12 -2 -23q5 9 14 2q8 -6 0 -14q-11 -11 -22 2q-23 25 0 48q13 14 30.5 8t24.5 -27q4 21 18 33q14 13 33.5 16.5t35.5 -4.5q12 -6 1 -9
q-21 -8 -39 -26q-39 -39 -65 -109q68 24 109 65q18 18 26 39q3 11 9 -1q8 -16 4.5 -35.5t-16.5 -33.5q-12 -13 -33 -18q21 -7 27 -24.5t-8 -30.5q-23 -23 -48 0q-13 11 -2 22q6 6 14 0q10 -7 -2 -14q10 -10 23 2q11 12 -2 25q-29 29 -94 -8q27 0 40 -15q15 -16 6 -31
q-3 -3 -5 1q0 11 -7 17q-11 10 -29 7zM180 394q-18 3 -29 -7q-7 -6 -7 -17q-1 -4 -5 -1q-9 15 6 31q13 15 40 15q-65 37 -94 8q-13 -13 -2 -25q13 -12 23 -2q-12 7 -2 14q8 6 14 0q11 -11 -2 -22q-25 -23 -48 0q-14 13 -8 30.5t27 24.5q-21 5 -33 18q-13 14 -16.5 33.5
t4.5 35.5q6 12 9 1q8 -21 26 -39q41 -41 109 -65q-26 70 -65 109q-18 18 -39 26q-11 3 1 9q16 8 35.5 4.5t33.5 -16.5q14 -12 18 -33q7 21 24.5 27t30.5 -8q23 -23 0 -48q-11 -13 -22 -2q-8 8 0 14q9 7 14 -2q11 11 -2 23q-11 12 -25 -2q-29 -29 8 -94q0 27 15 40
q16 15 31 6q3 -3 -1 -5q-11 0 -17 -7q-10 -11 -7 -29q5 -33 -4 -41q-10 -9 -41 -4zM404 321q-38 -25 -59 -46q-19 -19 -46 -58q-27 36 -49 58q-25 25 -58 49q34 22 59 46q21 20 46 58q21 -31 49 -57q33 -31 58 -50zM418 248q18 -3 29 7q7 6 7 17q1 4 5 1q9 -15 -6 -31
q-13 -15 -40 -15q65 -37 94 -8q13 13 2 25q-13 12 -23 2q12 -7 2 -14q-8 -6 -14 0q-11 11 2 22q25 23 48 0q14 -13 8 -30.5t-27 -24.5q21 -5 33 -18q13 -14 16.5 -33.5t-4.5 -35.5q-6 -12 -9 -1q-8 21 -26 39q-41 41 -109 65q26 -70 65 -109q18 -18 39 -26q11 -3 -1 -9
q-16 -8 -35.5 -4.5t-33.5 16.5q-14 12 -18 33q-7 -21 -24.5 -27t-30.5 8q-23 23 0 48q11 13 22 2q8 -8 0 -14q-9 -7 -14 2q-11 -11 2 -23q11 -12 25 2q29 29 -8 94q0 -26 -15 -40q-16 -15 -31 -6q-3 3 1 5q11 0 17 7q10 11 7 29q-5 33 4 41q10 9 41 4zM180 248q31 5 41 -4
q9 -8 4 -41q-3 -18 7 -29q6 -7 17 -7q4 -1 1 -5q-15 -9 -31 6q-15 14 -15 40q-37 -65 -8 -94q14 -14 25 -2q13 12 2 23q-5 -9 -14 -2q-8 6 0 14q11 11 22 -2q23 -25 0 -48q-13 -14 -30.5 -8t-24.5 27q-4 -21 -18 -33q-14 -13 -33.5 -16.5t-35.5 4.5q-12 6 -1 9q21 8 39 26
q39 39 65 109q-68 -24 -109 -65q-18 -18 -26 -39q-3 -11 -9 1q-8 16 -4.5 35.5t16.5 33.5q12 13 33 18q-21 7 -27 24.5t8 30.5q23 23 48 0q13 -11 2 -22q-6 -6 -14 0q-10 7 2 14q-10 10 -23 -2q-11 -12 2 -25q29 -29 94 8q-27 0 -40 15q-15 16 -6 31q3 3 5 -1q0 -11 7 -17
q11 -10 29 -7zM334 367q-23 23 -29 33q-14 -27 -34 -43l27 -27zM375 330q-12 6 -34 28l-36 -35l27 -26q30 25 43 33zM291 323l-27 26q-16 -16 -44 -34q20 -11 35 -27zM324 288l-27 27l-34 -35q20 -21 28 -34q5 12 33 42z" />
    <glyph glyph-name="approxequal" unicode="&#x2248;" 
d="M418 394q-31 -5 -41 4q-9 8 -4 41q3 18 -7 29q-6 7 -17 7q-4 1 -1 5q15 9 31 -6q15 -13 15 -40q37 65 8 94q-14 14 -25 2q-13 -12 -2 -23q5 9 14 2q8 -6 0 -14q-11 -11 -22 2q-23 25 0 48q13 14 30.5 8t24.5 -27q4 21 18 33q14 13 33.5 16.5t35.5 -4.5q12 -6 1 -9
q-21 -8 -39 -26q-39 -39 -65 -109q68 24 109 65q18 18 26 39q3 11 9 -1q8 -16 4.5 -35.5t-16.5 -33.5q-12 -13 -33 -18q21 -7 27 -24.5t-8 -30.5q-23 -23 -48 0q-13 11 -2 22q6 6 14 0q10 -7 -2 -14q10 -10 23 2q11 12 -2 25q-29 29 -94 -8q27 0 40 -15q15 -16 6 -31
q-3 -3 -5 1q0 11 -7 17q-11 10 -29 7zM180 394q-18 3 -29 -7q-7 -6 -7 -17q-1 -4 -5 -1q-9 15 6 31q13 15 40 15q-65 37 -94 8q-13 -13 -2 -25q13 -12 23 -2q-12 7 -2 14q8 6 14 0q11 -11 -2 -22q-25 -23 -48 0q-14 13 -8 30.5t27 24.5q-21 5 -33 18q-13 14 -16.5 33.5
t4.5 35.5q6 12 9 1q8 -21 26 -39q41 -41 109 -65q-26 70 -65 109q-18 18 -39 26q-11 3 1 9q16 8 35.5 4.5t33.5 -16.5q14 -12 18 -33q7 21 24.5 27t30.5 -8q23 -23 0 -48q-11 -13 -22 -2q-8 8 0 14q9 7 14 -2q11 11 -2 23q-11 12 -25 -2q-29 -29 8 -94q0 27 15 40
q16 15 31 6q3 -3 -1 -5q-11 0 -17 -7q-10 -11 -7 -29q5 -33 -4 -41q-10 -9 -41 -4zM404 321q-38 -25 -59 -46q-19 -19 -46 -58q-27 36 -49 58q-25 25 -58 49q34 22 59 46q21 20 46 58q21 -31 49 -57q33 -31 58 -50zM418 248q18 -3 29 7q7 6 7 17q1 4 5 1q9 -15 -6 -31
q-13 -15 -40 -15q65 -37 94 -8q13 13 2 25q-13 12 -23 2q12 -7 2 -14q-8 -6 -14 0q-11 11 2 22q25 23 48 0q14 -13 8 -30.5t-27 -24.5q21 -5 33 -18q13 -14 16.5 -33.5t-4.5 -35.5q-6 -12 -9 -1q-8 21 -26 39q-41 41 -109 65q26 -70 65 -109q18 -18 39 -26q11 -3 -1 -9
q-16 -8 -35.5 -4.5t-33.5 16.5q-14 12 -18 33q-7 -21 -24.5 -27t-30.5 8q-23 23 0 48q11 13 22 2q8 -8 0 -14q-9 -7 -14 2q-11 -11 2 -23q11 -12 25 2q29 29 -8 94q0 -26 -15 -40q-16 -15 -31 -6q-3 3 1 5q11 0 17 7q10 11 7 29q-5 33 4 41q10 9 41 4zM180 248q31 5 41 -4
q9 -8 4 -41q-3 -18 7 -29q6 -7 17 -7q4 -1 1 -5q-15 -9 -31 6q-15 14 -15 40q-37 -65 -8 -94q14 -14 25 -2q13 12 2 23q-5 -9 -14 -2q-8 6 0 14q11 11 22 -2q23 -25 0 -48q-13 -14 -30.5 -8t-24.5 27q-4 -21 -18 -33q-14 -13 -33.5 -16.5t-35.5 4.5q-12 6 -1 9q21 8 39 26
q39 39 65 109q-68 -24 -109 -65q-18 -18 -26 -39q-3 -11 -9 1q-8 16 -4.5 35.5t16.5 33.5q12 13 33 18q-21 7 -27 24.5t8 30.5q23 23 48 0q13 -11 2 -22q-6 -6 -14 0q-10 7 2 14q-10 10 -23 -2q-11 -12 2 -25q29 -29 94 8q-27 0 -40 15q-15 16 -6 31q3 3 5 -1q0 -11 7 -17
q11 -10 29 -7zM334 367q-23 23 -29 33q-14 -27 -34 -43l27 -27zM375 330q-12 6 -34 28l-36 -35l27 -26q30 25 43 33zM291 323l-27 26q-16 -16 -44 -34q20 -11 35 -27zM324 288l-27 27l-34 -35q20 -21 28 -34q5 12 33 42z" />
    <glyph glyph-name="notequal" unicode="&#x2260;" horiz-adv-x="525" 
d="M528 645q0 -32 -36 -32q-21 0 -38 13q-7 5 -10 0q-15 -22 -15 -90v-148q0 -4 2 -4h76q8 0 9 -5q2 -12 2 -23q0 -6 -6 -6q-1 0 -35.5 0.5t-43.5 0.5q-4 0 -4 -6v-303q0 -9 7 -10q10 -2 31.5 -4t25.5 -3q7 -1 7 -6v-14q0 -5 -7 -5q-48 3 -99 3q-46 0 -95 -3q-6 0 -6 6v12
q0 5 5 7q8 0 17.5 1.5t19.5 3t15 2.5q7 1 7 10v303q0 5 -5 5h-69t-74.5 0.5t-35.5 0.5q-4 0 -4 -6v-303q0 -9 7 -10q11 -2 34 -4l23 -3q7 -1 7 -6v-14q0 -5 -7 -5q-48 3 -99 3q-46 0 -95 -3q-6 0 -6 6v12q0 5 5 7q3 0 51 7q6 1 7 2.5t1 7.5v302q0 7 -3 7t-20.5 -0.5
t-21.5 -0.5q-8 0 -8 7q0 3 0.5 11.5t0.5 10.5q0 5 6 5h43q3 0 3 7v62q0 87 56.5 151t122.5 64q22 0 36.5 -10.5t14.5 -25.5q0 -16 -10.5 -25t-27.5 -9q-24 0 -49 18q-7 7 -16 5q-25 -8 -40 -42t-15 -89v-102q0 -4 2 -4h183q3 0 3 5v79q0 84 40.5 146t91.5 62q18 0 28.5 -9
t10.5 -22z" />
    <glyph glyph-name="lessequal" unicode="&#x2264;" 
d="M418 394q-31 -5 -41 4q-9 8 -4 41q3 18 -7 29q-6 7 -17 7q-4 1 -1 5q15 9 31 -6q15 -13 15 -40q37 65 8 94q-14 14 -25 2q-13 -12 -2 -23q5 9 14 2q8 -6 0 -14q-11 -11 -22 2q-23 25 0 48q13 14 30.5 8t24.5 -27q4 21 18 33q14 13 33.5 16.5t35.5 -4.5q12 -6 1 -9
q-21 -8 -39 -26q-39 -39 -65 -109q68 24 109 65q18 18 26 39q3 11 9 -1q8 -16 4.5 -35.5t-16.5 -33.5q-12 -13 -33 -18q21 -7 27 -24.5t-8 -30.5q-23 -23 -48 0q-13 11 -2 22q6 6 14 0q10 -7 -2 -14q10 -10 23 2q11 12 -2 25q-29 29 -94 -8q27 0 40 -15q15 -16 6 -31
q-3 -3 -5 1q0 11 -7 17q-11 10 -29 7zM180 394q-18 3 -29 -7q-7 -6 -7 -17q-1 -4 -5 -1q-9 15 6 31q13 15 40 15q-65 37 -94 8q-13 -13 -2 -25q13 -12 23 -2q-12 7 -2 14q8 6 14 0q11 -11 -2 -22q-25 -23 -48 0q-14 13 -8 30.5t27 24.5q-21 5 -33 18q-13 14 -16.5 33.5
t4.5 35.5q6 12 9 1q8 -21 26 -39q41 -41 109 -65q-26 70 -65 109q-18 18 -39 26q-11 3 1 9q16 8 35.5 4.5t33.5 -16.5q14 -12 18 -33q7 21 24.5 27t30.5 -8q23 -23 0 -48q-11 -13 -22 -2q-8 8 0 14q9 7 14 -2q11 11 -2 23q-11 12 -25 -2q-29 -29 8 -94q0 27 15 40
q16 15 31 6q3 -3 -1 -5q-11 0 -17 -7q-10 -11 -7 -29q5 -33 -4 -41q-10 -9 -41 -4zM404 321q-38 -25 -59 -46q-19 -19 -46 -58q-27 36 -49 58q-25 25 -58 49q34 22 59 46q21 20 46 58q21 -31 49 -57q33 -31 58 -50zM418 248q18 -3 29 7q7 6 7 17q1 4 5 1q9 -15 -6 -31
q-13 -15 -40 -15q65 -37 94 -8q13 13 2 25q-13 12 -23 2q12 -7 2 -14q-8 -6 -14 0q-11 11 2 22q25 23 48 0q14 -13 8 -30.5t-27 -24.5q21 -5 33 -18q13 -14 16.5 -33.5t-4.5 -35.5q-6 -12 -9 -1q-8 21 -26 39q-41 41 -109 65q26 -70 65 -109q18 -18 39 -26q11 -3 -1 -9
q-16 -8 -35.5 -4.5t-33.5 16.5q-14 12 -18 33q-7 -21 -24.5 -27t-30.5 8q-23 23 0 48q11 13 22 2q8 -8 0 -14q-9 -7 -14 2q-11 -11 2 -23q11 -12 25 2q29 29 -8 94q0 -26 -15 -40q-16 -15 -31 -6q-3 3 1 5q11 0 17 7q10 11 7 29q-5 33 4 41q10 9 41 4zM180 248q31 5 41 -4
q9 -8 4 -41q-3 -18 7 -29q6 -7 17 -7q4 -1 1 -5q-15 -9 -31 6q-15 14 -15 40q-37 -65 -8 -94q14 -14 25 -2q13 12 2 23q-5 -9 -14 -2q-8 6 0 14q11 11 22 -2q23 -25 0 -48q-13 -14 -30.5 -8t-24.5 27q-4 -21 -18 -33q-14 -13 -33.5 -16.5t-35.5 4.5q-12 6 -1 9q21 8 39 26
q39 39 65 109q-68 -24 -109 -65q-18 -18 -26 -39q-3 -11 -9 1q-8 16 -4.5 35.5t16.5 33.5q12 13 33 18q-21 7 -27 24.5t8 30.5q23 23 48 0q13 -11 2 -22q-6 -6 -14 0q-10 7 2 14q-10 10 -23 -2q-11 -12 2 -25q29 -29 94 8q-27 0 -40 15q-15 16 -6 31q3 3 5 -1q0 -11 7 -17
q11 -10 29 -7zM334 367q-23 23 -29 33q-14 -27 -34 -43l27 -27zM375 330q-12 6 -34 28l-36 -35l27 -26q30 25 43 33zM291 323l-27 26q-16 -16 -44 -34q20 -11 35 -27zM324 288l-27 27l-34 -35q20 -21 28 -34q5 12 33 42z" />
    <glyph glyph-name="greaterequal" unicode="&#x2265;" horiz-adv-x="316" 
d="M194 359v-312q0 -9 7 -10q52 -7 72 -9q6 0 6 -7v-12q0 -9 -7 -9q-72 3 -116 3q-53 0 -107 -3q-10 0 -10 6v15q0 7 9 7q7 0 67 10q7 1 7 7v313q0 7 -7 8q-60 10 -67 10q-9 0 -9 7v15q0 6 10 6q72 -4 107 -4q20 0 116 4q7 0 7 -9v-12q0 -7 -6 -7q-35 -3 -72 -9q-7 -1 -7 -8
z" />
    <glyph glyph-name="lozenge" unicode="&#x25ca;" 
d="M418 394q-31 -5 -41 4q-9 8 -4 41q3 18 -7 29q-6 7 -17 7q-4 1 -1 5q15 9 31 -6q15 -13 15 -40q37 65 8 94q-14 14 -25 2q-13 -12 -2 -23q5 9 14 2q8 -6 0 -14q-11 -11 -22 2q-23 25 0 48q13 14 30.5 8t24.5 -27q4 21 18 33q14 13 33.5 16.5t35.5 -4.5q12 -6 1 -9
q-21 -8 -39 -26q-39 -39 -65 -109q68 24 109 65q18 18 26 39q3 11 9 -1q8 -16 4.5 -35.5t-16.5 -33.5q-12 -13 -33 -18q21 -7 27 -24.5t-8 -30.5q-23 -23 -48 0q-13 11 -2 22q6 6 14 0q10 -7 -2 -14q10 -10 23 2q11 12 -2 25q-29 29 -94 -8q27 0 40 -15q15 -16 6 -31
q-3 -3 -5 1q0 11 -7 17q-11 10 -29 7zM180 394q-18 3 -29 -7q-7 -6 -7 -17q-1 -4 -5 -1q-9 15 6 31q13 15 40 15q-65 37 -94 8q-13 -13 -2 -25q13 -12 23 -2q-12 7 -2 14q8 6 14 0q11 -11 -2 -22q-25 -23 -48 0q-14 13 -8 30.5t27 24.5q-21 5 -33 18q-13 14 -16.5 33.5
t4.5 35.5q6 12 9 1q8 -21 26 -39q41 -41 109 -65q-26 70 -65 109q-18 18 -39 26q-11 3 1 9q16 8 35.5 4.5t33.5 -16.5q14 -12 18 -33q7 21 24.5 27t30.5 -8q23 -23 0 -48q-11 -13 -22 -2q-8 8 0 14q9 7 14 -2q11 11 -2 23q-11 12 -25 -2q-29 -29 8 -94q0 27 15 40
q16 15 31 6q3 -3 -1 -5q-11 0 -17 -7q-10 -11 -7 -29q5 -33 -4 -41q-10 -9 -41 -4zM404 321q-38 -25 -59 -46q-19 -19 -46 -58q-27 36 -49 58q-25 25 -58 49q34 22 59 46q21 20 46 58q21 -31 49 -57q33 -31 58 -50zM418 248q18 -3 29 7q7 6 7 17q1 4 5 1q9 -15 -6 -31
q-13 -15 -40 -15q65 -37 94 -8q13 13 2 25q-13 12 -23 2q12 -7 2 -14q-8 -6 -14 0q-11 11 2 22q25 23 48 0q14 -13 8 -30.5t-27 -24.5q21 -5 33 -18q13 -14 16.5 -33.5t-4.5 -35.5q-6 -12 -9 -1q-8 21 -26 39q-41 41 -109 65q26 -70 65 -109q18 -18 39 -26q11 -3 -1 -9
q-16 -8 -35.5 -4.5t-33.5 16.5q-14 12 -18 33q-7 -21 -24.5 -27t-30.5 8q-23 23 0 48q11 13 22 2q8 -8 0 -14q-9 -7 -14 2q-11 -11 2 -23q11 -12 25 2q29 29 -8 94q0 -26 -15 -40q-16 -15 -31 -6q-3 3 1 5q11 0 17 7q10 11 7 29q-5 33 4 41q10 9 41 4zM180 248q31 5 41 -4
q9 -8 4 -41q-3 -18 7 -29q6 -7 17 -7q4 -1 1 -5q-15 -9 -31 6q-15 14 -15 40q-37 -65 -8 -94q14 -14 25 -2q13 12 2 23q-5 -9 -14 -2q-8 6 0 14q11 11 22 -2q23 -25 0 -48q-13 -14 -30.5 -8t-24.5 27q-4 -21 -18 -33q-14 -13 -33.5 -16.5t-35.5 4.5q-12 6 -1 9q21 8 39 26
q39 39 65 109q-68 -24 -109 -65q-18 -18 -26 -39q-3 -11 -9 1q-8 16 -4.5 35.5t16.5 33.5q12 13 33 18q-21 7 -27 24.5t8 30.5q23 23 48 0q13 -11 2 -22q-6 -6 -14 0q-10 7 2 14q-10 10 -23 -2q-11 -12 2 -25q29 -29 94 8q-27 0 -40 15q-15 16 -6 31q3 3 5 -1q0 -11 7 -17
q11 -10 29 -7zM334 367q-23 23 -29 33q-14 -27 -34 -43l27 -27zM375 330q-12 6 -34 28l-36 -35l27 -26q30 25 43 33zM291 323l-27 26q-16 -16 -44 -34q20 -11 35 -27zM324 288l-27 27l-34 -35q20 -21 28 -34q5 12 33 42z" />
    <glyph glyph-name="apple" unicode="&#xf8ff;" 
d="M418 394q-31 -5 -41 4q-9 8 -4 41q3 18 -7 29q-6 7 -17 7q-4 1 -1 5q15 9 31 -6q15 -13 15 -40q37 65 8 94q-14 14 -25 2q-13 -12 -2 -23q5 9 14 2q8 -6 0 -14q-11 -11 -22 2q-23 25 0 48q13 14 30.5 8t24.5 -27q4 21 18 33q14 13 33.5 16.5t35.5 -4.5q12 -6 1 -9
q-21 -8 -39 -26q-39 -39 -65 -109q68 24 109 65q18 18 26 39q3 11 9 -1q8 -16 4.5 -35.5t-16.5 -33.5q-12 -13 -33 -18q21 -7 27 -24.5t-8 -30.5q-23 -23 -48 0q-13 11 -2 22q6 6 14 0q10 -7 -2 -14q10 -10 23 2q11 12 -2 25q-29 29 -94 -8q27 0 40 -15q15 -16 6 -31
q-3 -3 -5 1q0 11 -7 17q-11 10 -29 7zM180 394q-18 3 -29 -7q-7 -6 -7 -17q-1 -4 -5 -1q-9 15 6 31q13 15 40 15q-65 37 -94 8q-13 -13 -2 -25q13 -12 23 -2q-12 7 -2 14q8 6 14 0q11 -11 -2 -22q-25 -23 -48 0q-14 13 -8 30.5t27 24.5q-21 5 -33 18q-13 14 -16.5 33.5
t4.5 35.5q6 12 9 1q8 -21 26 -39q41 -41 109 -65q-26 70 -65 109q-18 18 -39 26q-11 3 1 9q16 8 35.5 4.5t33.5 -16.5q14 -12 18 -33q7 21 24.5 27t30.5 -8q23 -23 0 -48q-11 -13 -22 -2q-8 8 0 14q9 7 14 -2q11 11 -2 23q-11 12 -25 -2q-29 -29 8 -94q0 27 15 40
q16 15 31 6q3 -3 -1 -5q-11 0 -17 -7q-10 -11 -7 -29q5 -33 -4 -41q-10 -9 -41 -4zM404 321q-38 -25 -59 -46q-19 -19 -46 -58q-27 36 -49 58q-25 25 -58 49q34 22 59 46q21 20 46 58q21 -31 49 -57q33 -31 58 -50zM418 248q18 -3 29 7q7 6 7 17q1 4 5 1q9 -15 -6 -31
q-13 -15 -40 -15q65 -37 94 -8q13 13 2 25q-13 12 -23 2q12 -7 2 -14q-8 -6 -14 0q-11 11 2 22q25 23 48 0q14 -13 8 -30.5t-27 -24.5q21 -5 33 -18q13 -14 16.5 -33.5t-4.5 -35.5q-6 -12 -9 -1q-8 21 -26 39q-41 41 -109 65q26 -70 65 -109q18 -18 39 -26q11 -3 -1 -9
q-16 -8 -35.5 -4.5t-33.5 16.5q-14 12 -18 33q-7 -21 -24.5 -27t-30.5 8q-23 23 0 48q11 13 22 2q8 -8 0 -14q-9 -7 -14 2q-11 -11 2 -23q11 -12 25 2q29 29 -8 94q0 -26 -15 -40q-16 -15 -31 -6q-3 3 1 5q11 0 17 7q10 11 7 29q-5 33 4 41q10 9 41 4zM180 248q31 5 41 -4
q9 -8 4 -41q-3 -18 7 -29q6 -7 17 -7q4 -1 1 -5q-15 -9 -31 6q-15 14 -15 40q-37 -65 -8 -94q14 -14 25 -2q13 12 2 23q-5 -9 -14 -2q-8 6 0 14q11 11 22 -2q23 -25 0 -48q-13 -14 -30.5 -8t-24.5 27q-4 -21 -18 -33q-14 -13 -33.5 -16.5t-35.5 4.5q-12 6 -1 9q21 8 39 26
q39 39 65 109q-68 -24 -109 -65q-18 -18 -26 -39q-3 -11 -9 1q-8 16 -4.5 35.5t16.5 33.5q12 13 33 18q-21 7 -27 24.5t8 30.5q23 23 48 0q13 -11 2 -22q-6 -6 -14 0q-10 7 2 14q-10 10 -23 -2q-11 -12 2 -25q29 -29 94 8q-27 0 -40 15q-15 16 -6 31q3 3 5 -1q0 -11 7 -17
q11 -10 29 -7zM334 367q-23 23 -29 33q-14 -27 -34 -43l27 -27zM375 330q-12 6 -34 28l-36 -35l27 -26q30 25 43 33zM291 323l-27 26q-16 -16 -44 -34q20 -11 35 -27zM324 288l-27 27l-34 -35q20 -21 28 -34q5 12 33 42z" />
    <glyph glyph-name="NUL" horiz-adv-x="0" 
 />
    </font>
</defs>
</svg>
