<?xml version="1.0" standalone="no"?>
<!DOCTYPE svg PUBLIC "-//W3C//DTD SVG 1.1//EN" "http://www.w3.org/Graphics/SVG/1.1/DTD/svg11.dtd" >
<svg xmlns="http://www.w3.org/2000/svg">
<metadata></metadata>
<defs>
<font id="octin_collegeregular" horiz-adv-x="1128" >
<font-face units-per-em="2048" ascent="1536" descent="-512" />
<missing-glyph horiz-adv-x="612" />
<glyph unicode="&#x28;C&#x29;" horiz-adv-x="1292" d="M94 217v1010l207 207h688l207 -207v-1010l-217 -217h-666zM180 248l164 -164h604l162 164v946l-154 154h-622l-154 -154v-946zM381 440v566l125 124h287l125 -124v-170h-84v137l-74 71h-221l-74 -71v-504l84 -82h201l84 82v145h84v-174l-138 -139h-260z" />
<glyph unicode="&#x28;R&#x29;" horiz-adv-x="1167" d="M94 524v703l207 207h565l205 -207v-703l-217 -217h-541zM178 553l164 -162h481l162 162v641l-151 154h-502l-154 -154v-641zM416 559v647h293l90 -90v-196l-92 -91h-54l138 -270h-93l-137 268h-63v-268h-82zM498 911h178l39 39v131l-39 41h-178v-211z" />
<glyph horiz-adv-x="0" />
<glyph unicode="&#xd;" horiz-adv-x="1282" />
<glyph unicode=" "  horiz-adv-x="612" />
<glyph unicode="&#x09;" horiz-adv-x="612" />
<glyph unicode="&#xa0;" horiz-adv-x="612" />
<glyph unicode="!" horiz-adv-x="489" d="M150 1434h190l-21 -992h-149zM160 0v205h170v-205h-170z" />
<glyph unicode="&#x22;" horiz-adv-x="540" d="M96 1495h115l-16 -459h-82zM328 1495h116l-16 -459h-84z" />
<glyph unicode="#" horiz-adv-x="960" d="M70 469v115h125l30 295h-114v114h127l47 441h131l-47 -441h276l47 441h131l-47 -441h115v-114h-127l-31 -295h115v-115h-127l-51 -469h-131l51 469h-277l-51 -469h-131l51 469h-112zM326 584h276l31 295h-277z" />
<glyph unicode="$" horiz-adv-x="1009" d="M96 348v203h152v-141l108 -109h326l80 82v254l-60 59h-460l-140 140v321l160 160h195v117h94v-117h164l186 -187v-161h-151v94l-103 102h-319l-74 -73v-226l61 -61h461l137 -133v-353l-170 -169h-192v-150h-94v150h-162z" />
<glyph unicode="%" horiz-adv-x="1441" d="M96 895v430l109 109h307l111 -109v-430l-119 -117h-291zM211 948l55 -53h185l55 53v320l-49 47h-199l-47 -47v-320zM248 0l811 1434h125l-811 -1434h-125zM821 119v428l109 108h307l109 -108v-430l-117 -117h-291zM936 172l55 -55h185l55 55v317l-49 50h-199l-47 -50 v-317z" />
<glyph unicode="&#x26;" horiz-adv-x="1134" d="M76 190v342l235 230l-176 225v297l148 150h276l148 -150v-326l-211 -215l235 -305l133 224h148l-191 -338l252 -324h-170l-166 207l-127 -207h-344zM236 250l98 -98h207l104 176l-246 315l-163 -164v-229zM281 1020l133 -170l159 162v202l-67 66h-158l-67 -66v-194z" />
<glyph unicode="'" horiz-adv-x="307" d="M96 1495h115l-16 -459h-82z" />
<glyph unicode="(" horiz-adv-x="481" d="M96 129v1174l172 335h117l-180 -350v-1151l176 -342h-113z" />
<glyph unicode=")" horiz-adv-x="481" d="M96 1638h115l174 -335v-1174l-174 -334h-111l176 342v1151z" />
<glyph unicode="*" horiz-adv-x="774" d="M96 1184l244 67l-158 191l70 55l137 -211l135 209l74 -49l-158 -197l240 -61l-23 -88l-235 90l12 -250h-90l14 252l-233 -92z" />
<glyph unicode="+" horiz-adv-x="837" d="M96 670v104h271v270h102v-270h272v-104h-272v-271h-102v271h-271z" />
<glyph unicode="," horiz-adv-x="401" d="M63 -248l72 297v119h170v-156l-170 -291z" />
<glyph unicode="-" horiz-adv-x="548" d="M29 674v123h495v-123h-495z" />
<glyph unicode="." horiz-adv-x="360" d="M96 0v205h168v-205h-168z" />
<glyph unicode="/" horiz-adv-x="555" d="M-20 -195l450 1686h113l-451 -1686h-112z" />
<glyph unicode="0" d="M96 231v981l221 222h494l221 -222v-981l-233 -231h-471zM272 301l123 -125h336l123 125v840l-117 116h-348l-117 -116v-840z" />
<glyph unicode="1" horiz-adv-x="712" d="M96 1288l248 146h123v-1258h149v-176h-489v176h164v1061l-141 -88z" />
<glyph unicode="2" horiz-adv-x="1099" d="M96 0v643l164 160h483l78 76v274l-104 104h-328l-102 -104v-127h-178v205l202 203h484l202 -203v-428l-166 -166h-483l-76 -74v-387h732v-176h-908z" />
<glyph unicode="3" horiz-adv-x="1099" d="M96 213v256h176v-182l111 -111h334l110 111v286l-102 103h-365v155h357l104 103v219l-104 104h-334l-104 -104v-121h-175v199l203 203h486l202 -203v-334l-131 -131l140 -141v-412l-213 -213h-482z" />
<glyph unicode="4" horiz-adv-x="1060" d="M57 418v133l592 883h193v-867h149v-149h-149v-418h-183v418h-602zM233 567h426v629z" />
<glyph unicode="5" horiz-adv-x="1099" d="M96 213v272h176v-198l111 -111h334l110 111v346l-75 76h-643v725h874v-177h-696v-383h555l162 -159v-502l-213 -213h-482z" />
<glyph unicode="6" horiz-adv-x="1099" d="M96 213v1018l201 203h491l203 -203v-203h-178v125l-102 104h-336l-103 -104v-287h570l162 -159v-494l-213 -213h-482zM272 287l111 -111h334l110 111v338l-75 75h-480v-413z" />
<glyph unicode="7" horiz-adv-x="995" d="M63 1270v164h859v-285l-467 -1149h-191l467 1130v140h-668z" />
<glyph unicode="8" horiz-adv-x="1099" d="M96 213v412l140 141l-132 131v334l203 203h486l202 -203v-334l-131 -131l140 -141v-412l-213 -213h-482zM272 287l111 -111h334l110 111v293l-102 102h-350l-103 -102v-293zM279 940l104 -102h334l104 102v213l-104 104h-334l-104 -104v-213z" />
<glyph unicode="9" horiz-adv-x="1097" d="M96 809v414l209 211h486l210 -211v-1018l-204 -205h-490l-205 205v270h177v-194l104 -105h338l104 105v364h-563zM272 885l76 -76h477v338l-110 110h-332l-111 -110v-262z" />
<glyph unicode=":" horiz-adv-x="360" d="M96 311v207h168v-207h-168zM96 868v205h168v-205h-168z" />
<glyph unicode=";" horiz-adv-x="391" d="M53 -248l74 297v119h168v-156l-170 -291zM121 743v205h170v-205h-170z" />
<glyph unicode="&#x3c;" horiz-adv-x="872" d="M96 674v121l680 354v-131l-551 -285l551 -284v-132z" />
<glyph unicode="=" horiz-adv-x="837" d="M96 545v104h645v-104h-645zM96 813v102h645v-102h-645z" />
<glyph unicode="&#x3e;" horiz-adv-x="872" d="M96 317v132l551 284l-551 285v131l680 -354v-121z" />
<glyph unicode="?" horiz-adv-x="997" d="M84 1034v197l201 203h432l203 -203v-277l-379 -381v-143h-150v201l350 352v178l-102 103h-291l-102 -103v-127h-162zM381 0v205h170v-205h-170z" />
<glyph unicode="@" horiz-adv-x="1140" d="M96 254v928l250 252h555l146 -144v-717l-129 -129h-320l-96 97v413l82 80h325v185l-67 69h-436l-150 -151v-809l150 -152h598v-176h-656zM618 621l54 -56h184l53 56v305h-243l-48 -49v-256z" />
<glyph unicode="A" horiz-adv-x="1056" d="M37 0l383 1434h225l373 -1434h-184l-95 360h-446l-92 -360h-164zM328 492h377l-191 722z" />
<glyph unicode="B" horiz-adv-x="1071" d="M115 0v1434h649l203 -203v-338l-131 -133l141 -139v-408l-215 -213h-647zM293 176h397l109 111v286l-103 103h-403v-500zM293 831h397l103 103v219l-103 104h-397v-426z" />
<glyph unicode="C" horiz-adv-x="1107" d="M94 250v944l240 240h477l201 -203v-277h-176v199l-103 102h-332l-129 -131v-811l138 -137h315l111 109v227h176v-299l-213 -213h-453z" />
<glyph unicode="D" horiz-adv-x="1118" d="M115 0v1434h630l277 -277v-868l-289 -289h-618zM293 176h381l172 172v744l-164 165h-389v-1081z" />
<glyph unicode="E" horiz-adv-x="1052" d="M115 0v1434h858v-177h-680v-426h489v-155h-489v-500h684v-176h-862z" />
<glyph unicode="F" horiz-adv-x="1001" d="M115 0v1434h858v-177h-682v-456h545v-156h-545v-645h-176z" />
<glyph unicode="G" d="M96 252v942l240 240h493l203 -203v-254h-178v176l-102 104h-349l-131 -131v-813l138 -137h295l149 152v297h-264v145h442v-770h-170v162l-162 -162h-354z" />
<glyph unicode="H" d="M115 0v1434h176v-609h545v609h178v-1434h-178v682h-545v-682h-176z" />
<glyph unicode="I" horiz-adv-x="444" d="M133 0v1434h178v-1434h-178z" />
<glyph unicode="J" horiz-adv-x="997" d="M61 213v326h179v-254l108 -109h238l137 137v1121h178v-1184l-252 -250h-375q-53 53 -106 106.5t-107 106.5z" />
<glyph unicode="K" horiz-adv-x="1095" d="M115 0v1434h182v-650l530 650h199l-418 -519l422 -915h-182l-350 768l-201 -246v-522h-182z" />
<glyph unicode="L" horiz-adv-x="1011" d="M115 0v1434h178v-1258h670v-176h-848z" />
<glyph unicode="M" horiz-adv-x="1259" d="M115 0v1434h213l309 -568l309 568h199v-1434h-170v1182l-299 -543h-92l-299 543v-1182h-170z" />
<glyph unicode="N" horiz-adv-x="1161" d="M115 0v1434h233l541 -1094v1094h155v-1434h-174l-600 1202v-1202h-155z" />
<glyph unicode="O" d="M96 231v981l221 222h494l221 -222v-981l-233 -231h-471zM272 301l123 -125h336l123 125v840l-117 116h-348l-117 -116v-840z" />
<glyph unicode="P" horiz-adv-x="1071" d="M115 0v1434h673l222 -222v-448l-222 -221h-495v-543h-178zM293 705h424l117 116v320l-117 116h-424v-552z" />
<glyph unicode="Q" d="M94 231v981l221 222h496l221 -222v-981l-233 -231h-154v-201h-151v201h-168zM272 299l123 -123h99v221h151v-221h86l123 123v840l-117 116h-348l-117 -116v-840z" />
<glyph unicode="R" horiz-adv-x="1079" d="M115 0v1434h671l201 -203v-416l-194 -194h-107l275 -621h-185l-270 621h-215v-621h-176zM291 776h418l102 103v274l-102 102h-418v-479z" />
<glyph unicode="S" horiz-adv-x="1099" d="M96 213v262h176v-188l111 -111h334l110 111v297l-75 75h-490l-166 164v408l201 203h491l203 -203v-203h-178v125l-102 104h-336l-103 -104v-254l76 -74h494l162 -159v-453l-213 -213h-482z" />
<glyph unicode="T" horiz-adv-x="1024" d="M27 1266v168h972v-168h-397v-1266h-178v1266h-397z" />
<glyph unicode="U" horiz-adv-x="1124" d="M115 219v1215h176v-1133l125 -125h297l125 125v1133h172v-1215l-219 -219h-457z" />
<glyph unicode="V" horiz-adv-x="1056" d="M39 1434h178l320 -1217l313 1217h168l-383 -1434h-223z" />
<glyph unicode="W" horiz-adv-x="1736" d="M39 1434h172l266 -1203l299 1203h199l303 -1203l258 1203h164l-307 -1434h-226l-293 1171l-294 -1171h-244z" />
<glyph unicode="X" horiz-adv-x="1064" d="M37 0l405 739l-372 695h186l279 -531l280 531h178l-372 -682l405 -752h-186l-314 588l-309 -588h-180z" />
<glyph unicode="Y" horiz-adv-x="995" d="M39 1434h186l281 -686l282 686h168l-370 -854v-580h-178v580z" />
<glyph unicode="Z" horiz-adv-x="1097" d="M70 0v145l708 1119h-704v170h944v-148l-709 -1116h717v-170h-956z" />
<glyph unicode="[" horiz-adv-x="526" d="M96 -205v1843h334v-82h-225v-1679h225v-82h-334z" />
<glyph unicode="\" horiz-adv-x="555" d="M14 1491h113l451 -1686h-113z" />
<glyph unicode="]" horiz-adv-x="526" d="M96 -123h223v1679h-223v82h334v-1843h-334v82z" />
<glyph unicode="^" horiz-adv-x="729" d="M96 1014l223 420h93l221 -420h-119l-149 297l-150 -297h-119z" />
<glyph unicode="_" horiz-adv-x="923" d="M0 -76h928v-76h-928v76z" />
<glyph unicode="`" horiz-adv-x="690" d="M94 1745v92l500 -123v-90z" />
<glyph unicode="a" horiz-adv-x="1056" d="M37 0l383 1434h225l373 -1434h-184l-95 360h-446l-92 -360h-164zM37 0zM328 492h377l-191 722z" />
<glyph unicode="b" horiz-adv-x="1071" d="M115 0v1434h649l203 -203v-338l-131 -133l141 -139v-408l-215 -213h-647zM115 0zM293 176h397l109 111v286l-103 103h-403v-500zM293 831h397l103 103v219l-103 104h-397v-426z" />
<glyph unicode="c" horiz-adv-x="1107" d="M94 0zM94 250v944l240 240h477l201 -203v-277h-176v199l-103 102h-332l-129 -131v-811l138 -137h315l111 109v227h176v-299l-213 -213h-453z" />
<glyph unicode="d" horiz-adv-x="1118" d="M115 0v1434h630l277 -277v-868l-289 -289h-618zM115 0zM293 176h381l172 172v744l-164 165h-389v-1081z" />
<glyph unicode="e" horiz-adv-x="1052" d="M115 0v1434h858v-177h-680v-426h489v-155h-489v-500h684v-176h-862zM115 0z" />
<glyph unicode="f" horiz-adv-x="1001" d="M115 0v1434h858v-177h-682v-456h545v-156h-545v-645h-176zM115 0z" />
<glyph unicode="g" d="M96 0zM96 252v942l240 240h493l203 -203v-254h-178v176l-102 104h-349l-131 -131v-813l138 -137h295l149 152v297h-264v145h442v-770h-170v162l-162 -162h-354z" />
<glyph unicode="h" d="M115 0v1434h176v-609h545v609h178v-1434h-178v682h-545v-682h-176zM115 0z" />
<glyph unicode="i" horiz-adv-x="444" d="M133 0v1434h178v-1434h-178zM133 0z" />
<glyph unicode="j" horiz-adv-x="997" d="M61 0zM61 213v326h179v-254l108 -109h238l137 137v1121h178v-1184l-252 -250h-375q-53 53 -106 106.5t-107 106.5z" />
<glyph unicode="k" horiz-adv-x="1095" d="M115 0v1434h182v-650l530 650h199l-418 -519l422 -915h-182l-350 768l-201 -246v-522h-182zM115 0z" />
<glyph unicode="l" horiz-adv-x="1011" d="M115 0v1434h178v-1258h670v-176h-848zM115 0z" />
<glyph unicode="m" horiz-adv-x="1259" d="M115 0v1434h213l309 -568l309 568h199v-1434h-170v1182l-299 -543h-92l-299 543v-1182h-170zM115 0z" />
<glyph unicode="n" horiz-adv-x="1161" d="M115 0v1434h233l541 -1094v1094h155v-1434h-174l-600 1202v-1202h-155zM115 0z" />
<glyph unicode="o" d="M96 0zM96 231v981l221 222h494l221 -222v-981l-233 -231h-471zM272 301l123 -125h336l123 125v840l-117 116h-348l-117 -116v-840z" />
<glyph unicode="p" horiz-adv-x="1071" d="M115 0v1434h673l222 -222v-448l-222 -221h-495v-543h-178zM115 0zM293 705h424l117 116v320l-117 116h-424v-552z" />
<glyph unicode="q" d="M94 0zM94 231v981l221 222h496l221 -222v-981l-233 -231h-154v-201h-151v201h-168zM272 299l123 -123h99v221h151v-221h86l123 123v840l-117 116h-348l-117 -116v-840z" />
<glyph unicode="r" horiz-adv-x="1079" d="M115 0v1434h671l201 -203v-416l-194 -194h-107l275 -621h-185l-270 621h-215v-621h-176zM115 0zM291 776h418l102 103v274l-102 102h-418v-479z" />
<glyph unicode="s" horiz-adv-x="1099" d="M96 0zM96 213v262h176v-188l111 -111h334l110 111v297l-75 75h-490l-166 164v408l201 203h491l203 -203v-203h-178v125l-102 104h-336l-103 -104v-254l76 -74h494l162 -159v-453l-213 -213h-482z" />
<glyph unicode="t" horiz-adv-x="1024" d="M27 0zM27 1266v168h972v-168h-397v-1266h-178v1266h-397z" />
<glyph unicode="u" horiz-adv-x="1124" d="M115 0zM115 219v1215h176v-1133l125 -125h297l125 125v1133h172v-1215l-219 -219h-457z" />
<glyph unicode="v" horiz-adv-x="1056" d="M39 0zM39 1434h178l320 -1217l313 1217h168l-383 -1434h-223z" />
<glyph unicode="w" horiz-adv-x="1736" d="M39 0zM39 1434h172l266 -1203l299 1203h199l303 -1203l258 1203h164l-307 -1434h-226l-293 1171l-294 -1171h-244z" />
<glyph unicode="x" horiz-adv-x="1064" d="M37 0l405 739l-372 695h186l279 -531l280 531h178l-372 -682l405 -752h-186l-314 588l-309 -588h-180zM37 0z" />
<glyph unicode="y" horiz-adv-x="995" d="M39 0zM39 1434h186l281 -686l282 686h168l-370 -854v-580h-178v580z" />
<glyph unicode="z" horiz-adv-x="1097" d="M70 0v145l708 1119h-704v170h944v-148l-709 -1116h717v-170h-956zM70 0z" />
<glyph unicode="{" horiz-adv-x="747" d="M96 674v90h99l79 137v574l164 163h213v-82h-178l-90 -88v-577l-111 -172l111 -174v-580l90 -88h178v-82h-213l-164 164v576l-79 139h-99z" />
<glyph unicode="|" horiz-adv-x="301" d="M96 -225v1716h109v-1716h-109z" />
<glyph unicode="}" horiz-adv-x="747" d="M96 -123h178l88 88v580l113 174l-113 172v577l-88 88h-178v82h213l164 -163v-574l80 -137h98v-90h-98l-80 -139v-576l-164 -164h-213v82z" />
<glyph unicode="~" horiz-adv-x="780" d="M96 631v125q45 55 137 55q41 0 81 -14.5t80 -31.5t81 -31.5t86 -14.5q70 0 125 57v-117q-53 -59 -141 -59q-33 0 -75 14.5t-85 33t-85 32.5t-75 14q-76 0 -129 -63z" />
<glyph unicode="&#xa1;" horiz-adv-x="401" d="M104 0l21 991h151l19 -991h-191zM117 1229v205h168v-205h-168z" />
<glyph unicode="&#xa2;" horiz-adv-x="987" d="M96 328v821l168 168h185v117h94v-117h186l160 -160v-213h-148v148l-73 73h-346l-74 -73v-709l80 -82h336l79 82v201h148v-265l-170 -169h-178v-150h-94v150h-175z" />
<glyph unicode="&#xa3;" horiz-adv-x="1169" d="M96 0v176h150v459h-150v133h150v502l164 164h428l163 -164v-309h-157v251l-76 76h-270l-74 -76v-444h436v-133h-436v-459h500v211h149v-387h-977z" />
<glyph unicode="&#xa5;" horiz-adv-x="1228" d="M94 1434h199l330 -564l331 564h179l-433 -699v-104h381v-119h-381v-164h381v-121h-381v-227h-176v227h-368v121h368v164h-368v119h368v104z" />
<glyph unicode="&#xa6;" horiz-adv-x="696" d="M96 1434h115l145 -512l142 512h102l-190 -654h-131zM127 102v125h102v-77l45 -48h144l45 48v112l-29 29h-225l-82 86v178l96 98h238l100 -98v-96h-104v49l-43 41h-146l-39 -41v-96l29 -29h227l80 -78v-203l-102 -102h-234z" />
<glyph unicode="&#xa8;" horiz-adv-x="729" d="M96 1642v181h148v-181h-148zM485 1642v181h150v-181h-150z" />
<glyph unicode="&#xaa;" horiz-adv-x="681" d="M96 793v225l84 86h322v194l-51 52h-205l-51 -52v-94h-84v125l104 105h266l105 -105v-536l-115 -117h-258zM180 821l62 -61h198l62 61v197h-289l-33 -33v-164z" />
<glyph unicode="&#xab;" horiz-adv-x="663" d="M29 764l188 250h121l-195 -250l195 -250h-121zM330 764l186 250h123l-195 -250l195 -250h-123z" />
<glyph unicode="&#xad;" horiz-adv-x="548" d="M29 674v123h495v-123h-495z" />
<glyph unicode="&#xaf;" horiz-adv-x="667" d="M96 1679v113h475v-113h-475z" />
<glyph unicode="&#xb0;" horiz-adv-x="645" d="M96 1122v221l90 91h273l92 -91v-221l-100 -98h-256zM178 1161l53 -55h183l55 55v144l-49 47h-195l-47 -47v-144z" />
<glyph unicode="&#xb1;" horiz-adv-x="851" d="M108 729v104h271v270h102v-270h272v-104h-272v-271h-102v271h-271zM109 197zM112 197v104h645v-104h-645z" />
<glyph unicode="&#xb4;" horiz-adv-x="690" d="M96 1624v90l500 123v-92z" />
<glyph unicode="&#xb7;" horiz-adv-x="440" d="M137 631v207h170v-207h-170z" />
<glyph unicode="&#xb8;" horiz-adv-x="350" d="M96 -303l43 262h115l-70 -262h-88z" />
<glyph unicode="&#xba;" horiz-adv-x="655" d="M94 791v538l105 105h256l104 -105v-538l-117 -115h-231zM178 821l62 -63h174l61 63v475l-51 54h-193l-53 -54v-475z" />
<glyph unicode="&#xbb;" horiz-adv-x="663" d="M29 514l194 250l-194 250h121l188 -250l-188 -250h-121zM330 514l194 250l-194 250h121l188 -250l-188 -250h-121z" />
<glyph unicode="&#xbf;" horiz-adv-x="1028" d="M94 201v276l379 381v146h150v-203l-351 -352v-177l103 -104h291l102 104v125h164v-196l-203 -201h-432zM463 1227v207h170v-207h-170z" />
<glyph unicode="&#xc0;" horiz-adv-x="1056" d="M37 0l383 1434h225l373 -1434h-184l-95 360h-446l-92 -360h-164zM37 0zM217 1745v92l500 -123v-90zM328 492h377l-191 722z" />
<glyph unicode="&#xc1;" horiz-adv-x="1056" d="M37 0l383 1434h225l373 -1434h-184l-95 360h-446l-92 -360h-164zM37 0zM328 492h377l-191 722zM334 1624v90l500 123v-92z" />
<glyph unicode="&#xc2;" horiz-adv-x="1056" d="M37 0l383 1434h225l373 -1434h-184l-95 360h-446l-92 -360h-164zM37 0zM225 1577l256 307h94l254 -307h-122l-179 217l-182 -217h-121zM328 492h377l-191 722z" />
<glyph unicode="&#xc3;" horiz-adv-x="1056" d="M37 0l383 1434h225l373 -1434h-184l-95 360h-446l-92 -360h-164zM37 0zM284 1669v115q39 45 115 45q41 0 72.5 -13.5t60.5 -28.5t59.5 -28.5t69.5 -13.5q61 0 109 57v-114q-49 -43 -119 -43q-39 0 -72 12t-63.5 27.5t-61 28.5t-63.5 13q-55 0 -107 -57zM328 492h377 l-191 722z" />
<glyph unicode="&#xc4;" horiz-adv-x="1056" d="M37 0l383 1434h225l373 -1434h-184l-95 360h-446l-92 -360h-164zM37 0zM258 1642v181h148v-181h-148zM328 492h377l-191 722zM647 1642v181h150v-181h-150z" />
<glyph unicode="&#xc5;" horiz-adv-x="1056" d="M37 0l383 1434h225l373 -1434h-184l-95 360h-446l-92 -360h-164zM37 0zM328 492h377l-191 722zM358 1649v172l64 63h209l63 -63v-172l-72 -72h-192zM440 1683l25 -24h123l24 24v101l-16 18h-139l-17 -18v-101z" />
<glyph unicode="&#xc6;" horiz-adv-x="1628" d="M49 0l289 1434h1210v-179h-653v-426h463v-153h-463v-500h657v-176h-833v360h-432l-72 -360h-166zM313 492h406v763h-250z" />
<glyph unicode="&#xc7;" horiz-adv-x="1107" d="M94 0zM94 250v944l240 240h477l201 -203v-277h-176v199l-103 102h-332l-129 -131v-811l138 -137h315l111 109v227h176v-299l-213 -213h-453zM475 -303l43 262h115l-70 -262h-88z" />
<glyph unicode="&#xc8;" horiz-adv-x="1052" d="M115 0v1434h858v-177h-680v-426h489v-155h-489v-500h684v-176h-862zM115 0zM215 1745v92l500 -123v-90z" />
<glyph unicode="&#xc9;" horiz-adv-x="1052" d="M115 0v1434h858v-177h-680v-426h489v-155h-489v-500h684v-176h-862zM115 0zM332 1624v90l500 123v-92z" />
<glyph unicode="&#xca;" horiz-adv-x="1052" d="M115 0v1434h858v-177h-680v-426h489v-155h-489v-500h684v-176h-862zM115 0zM221 1577l256 307h94l254 -307h-122l-179 217l-182 -217h-121z" />
<glyph unicode="&#xcb;" horiz-adv-x="1052" d="M115 0v1434h858v-177h-680v-426h489v-155h-489v-500h684v-176h-862zM115 0zM256 1642v181h148v-181h-148zM645 1642v181h150v-181h-150z" />
<glyph unicode="&#xcc;" horiz-adv-x="444" d="M-82 1745v92l500 -123v-90zM0 0zM133 0v1434h178v-1434h-178z" />
<glyph unicode="&#xcd;" horiz-adv-x="444" d="M33 0zM33 1624v90l500 123v-92zM133 0v1434h178v-1434h-178z" />
<glyph unicode="&#xce;" horiz-adv-x="444" d="M-76 1577l256 307h94l254 -307h-122l-179 217l-182 -217h-121zM0 0zM133 0v1434h178v-1434h-178z" />
<glyph unicode="&#xcf;" horiz-adv-x="444" d="M-43 1642v181h148v-181h-148zM0 0zM133 0v1434h178v-1434h-178zM346 1642v181h150v-181h-150z" />
<glyph unicode="&#xd0;" d="M51 676v155h74v603h629l278 -277v-868l-289 -289h-618v676h-74zM301 176h383l172 172v744l-166 165h-389v-426h289v-155h-289v-500z" />
<glyph unicode="&#xd1;" horiz-adv-x="1161" d="M115 0v1434h233l541 -1094v1094h155v-1434h-174l-600 1202v-1202h-155zM115 0zM336 1669v115q39 45 115 45q41 0 72.5 -13.5t60.5 -28.5t59.5 -28.5t69.5 -13.5q61 0 109 57v-114q-49 -43 -119 -43q-39 0 -72 12t-63.5 27.5t-61 28.5t-63.5 13q-55 0 -107 -57z" />
<glyph unicode="&#xd2;" d="M96 0zM96 231v981l221 222h494l221 -222v-981l-233 -231h-471zM254 1745v92l500 -123v-90zM272 301l123 -125h336l123 125v840l-117 116h-348l-117 -116v-840z" />
<glyph unicode="&#xd3;" d="M96 0zM96 231v981l221 222h494l221 -222v-981l-233 -231h-471zM272 301l123 -125h336l123 125v840l-117 116h-348l-117 -116v-840zM370 1624v90l500 123v-92z" />
<glyph unicode="&#xd4;" d="M96 0zM96 231v981l221 222h494l221 -222v-981l-233 -231h-471zM260 1577l256 307h94l254 -307h-122l-179 217l-182 -217h-121zM272 301l123 -125h336l123 125v840l-117 116h-348l-117 -116v-840z" />
<glyph unicode="&#xd5;" d="M96 0zM96 231v981l221 222h494l221 -222v-981l-233 -231h-471zM272 301l123 -125h336l123 125v840l-117 116h-348l-117 -116v-840zM319 1669v115q39 45 115 45q41 0 72.5 -13.5t60.5 -28.5t59.5 -28.5t69.5 -13.5q61 0 109 57v-114q-49 -43 -119 -43q-39 0 -72 12 t-63.5 27.5t-61 28.5t-63.5 13q-55 0 -107 -57z" />
<glyph unicode="&#xd6;" d="M96 0zM96 231v981l221 222h494l221 -222v-981l-233 -231h-471zM272 301l123 -125h336l123 125v840l-117 116h-348l-117 -116v-840zM293 1642v181h148v-181h-148zM682 1642v181h150v-181h-150z" />
<glyph unicode="&#xd7;" horiz-adv-x="722" d="M96 530l193 193l-193 190l74 74l190 -192l193 192l74 -74l-193 -190l193 -193l-74 -73l-193 192l-190 -192z" />
<glyph unicode="&#xd8;" d="M96 231v981l221 222h420l25 86l74 -21l-21 -69l217 -218v-981l-233 -231h-400l-24 -84l-76 18l20 72zM272 301l103 -106l311 1062h-297l-117 -116v-840zM451 176h280l123 125v840l-96 94z" />
<glyph unicode="&#xd9;" horiz-adv-x="1124" d="M115 0zM115 219v1215h176v-1133l125 -125h297l125 125v1133h172v-1215l-219 -219h-457zM252 1745v92l500 -123v-90z" />
<glyph unicode="&#xda;" horiz-adv-x="1124" d="M115 0zM115 219v1215h176v-1133l125 -125h297l125 125v1133h172v-1215l-219 -219h-457zM368 1624v90l500 123v-92z" />
<glyph unicode="&#xdb;" horiz-adv-x="1124" d="M115 0zM115 219v1215h176v-1133l125 -125h297l125 125v1133h172v-1215l-219 -219h-457zM260 1577l256 307h94l254 -307h-122l-179 217l-182 -217h-121z" />
<glyph unicode="&#xdc;" horiz-adv-x="1124" d="M115 0zM115 219v1215h176v-1133l125 -125h297l125 125v1133h172v-1215l-219 -219h-457zM293 1642v181h148v-181h-148zM682 1642v181h150v-181h-150z" />
<glyph unicode="&#xdd;" horiz-adv-x="995" d="M39 0zM39 1434h186l281 -686l282 686h168l-370 -854v-580h-178v580zM303 1624v90l500 123v-92z" />
<glyph unicode="&#xde;" horiz-adv-x="1050" d="M115 0v1434h176v-258h497l209 -209v-455l-209 -209h-497v-303h-176zM291 457h411l117 116v318l-117 115h-411v-549z" />
<glyph unicode="&#xdf;" horiz-adv-x="2199" d="M96 0zM96 213v262h176v-188l111 -111h334l110 111v297l-75 75h-490l-166 164v408l201 203h491l203 -203v-203h-178v125l-102 104h-336l-103 -104v-254l76 -74h494l162 -159v-453l-213 -213h-482zM1196 213v262h176v-188l111 -111h334l110 111v297l-75 75h-490l-166 164 v408l201 203h491l203 -203v-203h-178v125l-102 104h-336l-103 -104v-254l76 -74h494l162 -159v-453l-213 -213h-482z" />
<glyph unicode="&#xe0;" horiz-adv-x="1056" d="M37 0l383 1434h225l373 -1434h-184l-95 360h-446l-92 -360h-164zM37 0zM217 1745v92l500 -123v-90zM328 492h377l-191 722z" />
<glyph unicode="&#xe1;" horiz-adv-x="1056" d="M37 0l383 1434h225l373 -1434h-184l-95 360h-446l-92 -360h-164zM37 0zM328 492h377l-191 722zM334 1624v90l500 123v-92z" />
<glyph unicode="&#xe2;" horiz-adv-x="1056" d="M37 0l383 1434h225l373 -1434h-184l-95 360h-446l-92 -360h-164zM37 0zM225 1577l256 307h94l254 -307h-122l-179 217l-182 -217h-121zM328 492h377l-191 722z" />
<glyph unicode="&#xe3;" horiz-adv-x="1056" d="M37 0l383 1434h225l373 -1434h-184l-95 360h-446l-92 -360h-164zM37 0zM284 1669v115q39 45 115 45q41 0 72.5 -13.5t60.5 -28.5t59.5 -28.5t69.5 -13.5q61 0 109 57v-114q-49 -43 -119 -43q-39 0 -72 12t-63.5 27.5t-61 28.5t-63.5 13q-55 0 -107 -57zM328 492h377 l-191 722z" />
<glyph unicode="&#xe4;" horiz-adv-x="1056" d="M37 0l383 1434h225l373 -1434h-184l-95 360h-446l-92 -360h-164zM37 0zM258 1642v181h148v-181h-148zM328 492h377l-191 722zM647 1642v181h150v-181h-150z" />
<glyph unicode="&#xe5;" horiz-adv-x="1056" d="M37 0l383 1434h225l373 -1434h-184l-95 360h-446l-92 -360h-164zM37 0zM328 492h377l-191 722zM358 1649v172l64 63h209l63 -63v-172l-72 -72h-192zM440 1683l25 -24h123l24 24v101l-16 18h-139l-17 -18v-101z" />
<glyph unicode="&#xe6;" horiz-adv-x="1628" d="M49 0l289 1434h1210v-179h-653v-426h463v-153h-463v-500h657v-176h-833v360h-432l-72 -360h-166zM49 0zM313 492h406v763h-250z" />
<glyph unicode="&#xe7;" horiz-adv-x="1107" d="M94 0zM94 250v944l240 240h477l201 -203v-277h-176v199l-103 102h-332l-129 -131v-811l138 -137h315l111 109v227h176v-299l-213 -213h-453zM475 -303l43 262h115l-70 -262h-88z" />
<glyph unicode="&#xe8;" horiz-adv-x="1052" d="M115 0v1434h858v-177h-680v-426h489v-155h-489v-500h684v-176h-862zM115 0zM215 1745v92l500 -123v-90z" />
<glyph unicode="&#xe9;" horiz-adv-x="1052" d="M115 0v1434h858v-177h-680v-426h489v-155h-489v-500h684v-176h-862zM115 0zM332 1624v90l500 123v-92z" />
<glyph unicode="&#xea;" horiz-adv-x="1052" d="M115 0v1434h858v-177h-680v-426h489v-155h-489v-500h684v-176h-862zM115 0zM221 1577l256 307h94l254 -307h-122l-179 217l-182 -217h-121z" />
<glyph unicode="&#xeb;" horiz-adv-x="1052" d="M115 0v1434h858v-177h-680v-426h489v-155h-489v-500h684v-176h-862zM115 0zM256 1642v181h148v-181h-148zM645 1642v181h150v-181h-150z" />
<glyph unicode="&#xec;" horiz-adv-x="444" d="M-82 1745v92l500 -123v-90zM0 0zM133 0v1434h178v-1434h-178z" />
<glyph unicode="&#xed;" horiz-adv-x="444" d="M33 0zM33 1624v90l500 123v-92zM133 0v1434h178v-1434h-178z" />
<glyph unicode="&#xee;" horiz-adv-x="444" d="M-76 1577l256 307h94l254 -307h-122l-179 217l-182 -217h-121zM0 0zM133 0v1434h178v-1434h-178z" />
<glyph unicode="&#xef;" horiz-adv-x="444" d="M-43 1642v181h148v-181h-148zM0 0zM133 0v1434h178v-1434h-178zM346 1642v181h150v-181h-150z" />
<glyph unicode="&#xf0;" d="M51 0zM51 676v155h74v603h629l278 -277v-868l-289 -289h-618v676h-74zM301 176h383l172 172v744l-166 165h-389v-426h289v-155h-289v-500z" />
<glyph unicode="&#xf1;" horiz-adv-x="1161" d="M115 0v1434h233l541 -1094v1094h155v-1434h-174l-600 1202v-1202h-155zM115 0zM336 1669v115q39 45 115 45q41 0 72.5 -13.5t60.5 -28.5t59.5 -28.5t69.5 -13.5q61 0 109 57v-114q-49 -43 -119 -43q-39 0 -72 12t-63.5 27.5t-61 28.5t-63.5 13q-55 0 -107 -57z" />
<glyph unicode="&#xf2;" d="M96 0zM96 231v981l221 222h494l221 -222v-981l-233 -231h-471zM254 1745v92l500 -123v-90zM272 301l123 -125h336l123 125v840l-117 116h-348l-117 -116v-840z" />
<glyph unicode="&#xf3;" d="M96 0zM96 231v981l221 222h494l221 -222v-981l-233 -231h-471zM272 301l123 -125h336l123 125v840l-117 116h-348l-117 -116v-840zM370 1624v90l500 123v-92z" />
<glyph unicode="&#xf4;" d="M96 0zM96 231v981l221 222h494l221 -222v-981l-233 -231h-471zM260 1577l256 307h94l254 -307h-122l-179 217l-182 -217h-121zM272 301l123 -125h336l123 125v840l-117 116h-348l-117 -116v-840z" />
<glyph unicode="&#xf5;" d="M96 0zM96 231v981l221 222h494l221 -222v-981l-233 -231h-471zM272 301l123 -125h336l123 125v840l-117 116h-348l-117 -116v-840zM319 1669v115q39 45 115 45q41 0 72.5 -13.5t60.5 -28.5t59.5 -28.5t69.5 -13.5q61 0 109 57v-114q-49 -43 -119 -43q-39 0 -72 12 t-63.5 27.5t-61 28.5t-63.5 13q-55 0 -107 -57z" />
<glyph unicode="&#xf6;" d="M96 0zM96 231v981l221 222h494l221 -222v-981l-233 -231h-471zM272 301l123 -125h336l123 125v840l-117 116h-348l-117 -116v-840zM293 1642v181h148v-181h-148zM682 1642v181h150v-181h-150z" />
<glyph unicode="&#xf7;" horiz-adv-x="837" d="M96 670v104h645v-104h-645zM348 344v186h148v-186h-148zM348 922v184h148v-184h-148z" />
<glyph unicode="&#xf8;" d="M96 0zM96 231v981l221 222h420l25 86l74 -21l-21 -69l217 -218v-981l-233 -231h-400l-24 -84l-76 18l20 72zM272 301l103 -106l311 1062h-297l-117 -116v-840zM451 176h280l123 125v840l-96 94z" />
<glyph unicode="&#xf9;" horiz-adv-x="1124" d="M115 0zM115 219v1215h176v-1133l125 -125h297l125 125v1133h172v-1215l-219 -219h-457zM252 1745v92l500 -123v-90z" />
<glyph unicode="&#xfa;" horiz-adv-x="1124" d="M115 0zM115 219v1215h176v-1133l125 -125h297l125 125v1133h172v-1215l-219 -219h-457zM368 1624v90l500 123v-92z" />
<glyph unicode="&#xfb;" horiz-adv-x="1124" d="M115 0zM115 219v1215h176v-1133l125 -125h297l125 125v1133h172v-1215l-219 -219h-457zM260 1577l256 307h94l254 -307h-122l-179 217l-182 -217h-121z" />
<glyph unicode="&#xfc;" horiz-adv-x="1124" d="M115 0zM115 219v1215h176v-1133l125 -125h297l125 125v1133h172v-1215l-219 -219h-457zM293 1642v181h148v-181h-148zM682 1642v181h150v-181h-150z" />
<glyph unicode="&#xfd;" horiz-adv-x="995" d="M39 0zM39 1434h186l281 -686l282 686h168l-370 -854v-580h-178v580zM303 1624v90l500 123v-92z" />
<glyph unicode="&#xfe;" horiz-adv-x="1050" d="M115 0v1434h176v-258h497l209 -209v-455l-209 -209h-497v-303h-176zM115 0zM291 457h411l117 116v318l-117 115h-411v-549z" />
<glyph unicode="&#xff;" horiz-adv-x="995" d="M39 0zM39 1434h186l281 -686l282 686h168l-370 -854v-580h-178v580zM227 1642v181h148v-181h-148zM616 1642v181h150v-181h-150z" />
<glyph unicode="&#x152;" horiz-adv-x="1736" d="M96 231v981l221 222h433l116 -117v117h793v-177h-655v-436h462v-135h-462v-510h657v-176h-795v127l-129 -127h-409zM272 301l123 -125h310l122 125v840l-116 116h-322l-117 -116v-840z" />
<glyph unicode="&#x153;" horiz-adv-x="1736" d="M96 0zM96 231v981l221 222h433l116 -117v117h793v-177h-655v-436h462v-135h-462v-510h657v-176h-795v127l-129 -127h-409zM272 301l123 -125h310l122 125v840l-116 116h-322l-117 -116v-840z" />
<glyph unicode="&#x178;" horiz-adv-x="995" d="M39 0zM39 1434h186l281 -686l282 686h168l-370 -854v-580h-178v580zM227 1642v181h148v-181h-148zM616 1642v181h150v-181h-150z" />
<glyph unicode="&#x2c6;" horiz-adv-x="796" d="M96 1577l256 307h94l254 -307h-122l-179 217l-182 -217h-121z" />
<glyph unicode="&#x2dc;" horiz-adv-x="675" d="M96 1669v115q39 45 115 45q41 0 72.5 -13.5t60.5 -28.5t59.5 -28.5t69.5 -13.5q61 0 109 57v-114q-49 -43 -119 -43q-39 0 -72 12t-63.5 27.5t-61 28.5t-63.5 13q-55 0 -107 -57z" />
<glyph unicode="&#x2000;" horiz-adv-x="942" />
<glyph unicode="&#x2001;" horiz-adv-x="1884" />
<glyph unicode="&#x2002;" horiz-adv-x="942" />
<glyph unicode="&#x2003;" horiz-adv-x="1884" />
<glyph unicode="&#x2004;" horiz-adv-x="628" />
<glyph unicode="&#x2005;" horiz-adv-x="471" />
<glyph unicode="&#x2006;" horiz-adv-x="314" />
<glyph unicode="&#x2007;" horiz-adv-x="314" />
<glyph unicode="&#x2008;" horiz-adv-x="235" />
<glyph unicode="&#x2009;" horiz-adv-x="376" />
<glyph unicode="&#x200a;" horiz-adv-x="104" />
<glyph unicode="&#x2010;" horiz-adv-x="548" d="M29 674v123h495v-123h-495z" />
<glyph unicode="&#x2011;" horiz-adv-x="548" d="M29 674v123h495v-123h-495z" />
<glyph unicode="&#x2012;" horiz-adv-x="548" d="M29 674v123h495v-123h-495z" />
<glyph unicode="&#x2013;" horiz-adv-x="1220" d="M29 674v123h1167v-123h-1167z" />
<glyph unicode="&#x2014;" horiz-adv-x="1824" d="M29 674v123h1771v-123h-1771z" />
<glyph unicode="&#x2018;" horiz-adv-x="399" d="M96 1319v156h144v-119l65 -297l-61 -31z" />
<glyph unicode="&#x2019;" horiz-adv-x="399" d="M96 1059l66 297v119h143v-156l-147 -291z" />
<glyph unicode="&#x201a;" horiz-adv-x="399" d="M96 -248l66 297v119h143v-156l-147 -291z" />
<glyph unicode="&#x201c;" horiz-adv-x="661" d="M96 1319v156h144v-119l65 -297l-61 -31zM356 1319v156h144v-119l65 -297l-59 -31z" />
<glyph unicode="&#x201d;" horiz-adv-x="661" d="M96 1059l66 297v119h143v-156l-147 -291zM356 1059l66 297v119h143v-156l-147 -291z" />
<glyph unicode="&#x201e;" horiz-adv-x="661" d="M96 -248l66 297v119h143v-156l-147 -291zM356 -248l66 297v119h143v-156l-147 -291z" />
<glyph unicode="&#x2022;" horiz-adv-x="700" d="M96 600v256l148 148h213l147 -148v-256l-147 -147h-213z" />
<glyph unicode="&#x2026;" horiz-adv-x="1492" d="M96 0v205h168v-205h-168zM662 0v205h169v-205h-169zM1229 0v205h168v-205h-168z" />
<glyph unicode="&#x202f;" horiz-adv-x="376" />
<glyph unicode="&#x2039;" horiz-adv-x="362" d="M29 764l188 250h121l-195 -250l195 -250h-121z" />
<glyph unicode="&#x203a;" horiz-adv-x="362" d="M29 514l194 250l-194 250h121l188 -250l-188 -250h-121z" />
<glyph unicode="&#x205f;" horiz-adv-x="471" />
<glyph unicode="&#x20ac;" horiz-adv-x="1148" d="M96 563v84h117v158h-117v84h117v305l240 240h581l-51 -177h-463l-131 -131v-237h494l-23 -84h-471v-158h428l-24 -84h-404v-250l137 -137h521v-176h-582l-252 252v311h-117z" />
<glyph unicode="&#x2122;" horiz-adv-x="1071" d="M96 1350v84h359v-84h-140v-529h-82v529h-137zM526 821v613h117l109 -498l108 498h115v-613h-76v430l-98 -430h-101l-96 420v-420h-78z" />
<glyph unicode="&#x25fc;" horiz-adv-x="1433" d="M0 0v1434h1434v-1434h-1434z" />
</font>
</defs>
</svg>
